<svg width="335" height="407" viewBox="0 0 335 407" fill="none" xmlns="http://www.w3.org/2000/svg">
<rect x="0.5" y="86.5" width="334" height="82" rx="15.5" fill="white"/>
<rect x="0.5" y="86.5" width="334" height="82" rx="15.5" stroke="#303030"/>
<path d="M31.8438 110.578C31.8281 114.969 30.7656 118.617 25.4531 121.281L24.3594 119.781C26.7344 118.602 28.1484 117.281 28.9531 115.703L24.75 116.094L24.5 114.391L29.5547 114.086C29.7031 113.484 29.8047 112.844 29.8516 112.172H25.25V110.578H31.8438ZM33.6406 123.406V109.219H35.6406V114.672H37.6562V116.312H35.6406V123.406H33.6406ZM45.6719 110.578C45.6562 114.969 44.5938 118.617 39.2812 121.281L38.1875 119.781C40.5625 118.602 41.9766 117.281 42.7812 115.703L38.5781 116.094L38.3281 114.391L43.3828 114.086C43.5312 113.484 43.6328 112.844 43.6797 112.172H39.0781V110.578H45.6719ZM47.4688 123.406V109.219H49.4688V114.672H51.4844V116.312H49.4688V123.406H47.4688ZM58.5625 109.953C61.6172 109.953 63.9141 111.5 63.9219 113.844C63.9141 115.992 62.1016 117.43 59.5469 117.711V120.141H65.0938V121.781H52.0781V120.141H57.5625V117.711C55.0234 117.422 53.2188 115.984 53.2188 113.844C53.2188 111.5 55.5078 109.953 58.5625 109.953ZM55.1875 113.844C55.1875 115.344 56.5703 116.18 58.5625 116.188C60.5625 116.18 61.9453 115.344 61.9531 113.844C61.9453 112.422 60.5625 111.539 58.5625 111.547C56.5703 111.539 55.1875 112.422 55.1875 113.844ZM68.2969 110.141V112.109H70.2344V110.141H72.0781V116.938H66.4062V110.141H68.2969ZM68.2969 115.359H70.2344V113.656H68.2969V115.359ZM68.3438 120.766C68.3359 119.07 70.25 118.062 73.2656 118.062C76.2656 118.062 78.1875 119.07 78.2031 120.766C78.1875 122.445 76.2656 123.445 73.2656 123.438C70.25 123.445 68.3359 122.445 68.3438 120.766ZM70.3438 120.766C70.3281 121.539 71.3984 121.922 73.2656 121.922C75.1172 121.922 76.1875 121.539 76.1875 120.766C76.1875 119.984 75.1172 119.586 73.2656 119.594C71.3984 119.586 70.3281 119.984 70.3438 120.766ZM73.1875 117.469V109.484H75.0469V112.672H76.2344V109.234H78.125V117.844H76.2344V114.281H75.0469V117.469H73.1875ZM91.375 110.469V112.125C91.3672 114.195 91.3672 116.164 90.7188 119.25L88.7344 119.062C89.0156 117.883 89.1797 116.836 89.2812 115.875L81.0312 116.281L80.7812 114.688L89.3828 114.375C89.4141 113.594 89.4219 112.859 89.4219 112.125V112.062H81.2188V110.469H91.375ZM79.7344 121.734V120.109H92.7031V121.734H79.7344Z" fill="black"/>
<path d="M28.3477 145.137C26.3789 145.137 24.9639 144.084 24.9023 142.512H26.1465C26.2148 143.455 27.1514 144.043 28.334 144.043C29.6396 144.043 30.583 143.339 30.5898 142.307C30.583 141.227 29.7217 140.468 28.1836 140.461H27.377V139.381H28.1836C29.3867 139.381 30.2275 138.704 30.2207 137.686C30.2275 136.694 29.5029 136.038 28.375 136.031C27.3154 136.038 26.3516 136.619 26.2969 137.59H25.1074C25.1689 136.018 26.6318 134.965 28.3887 134.965C30.2754 134.965 31.4238 136.202 31.4102 137.617C31.4238 138.745 30.7676 139.565 29.7285 139.859V139.928C31.0205 140.126 31.7998 141.049 31.793 142.307C31.7998 143.934 30.3232 145.137 28.3477 145.137ZM36.9883 145.137C35.0195 145.137 33.6045 144.084 33.543 142.512H34.7871C34.8555 143.455 35.792 144.043 36.9746 144.043C38.2803 144.043 39.2236 143.339 39.2305 142.307C39.2236 141.227 38.3623 140.468 36.8242 140.461H36.0176V139.381H36.8242C38.0273 139.381 38.8682 138.704 38.8613 137.686C38.8682 136.694 38.1436 136.038 37.0156 136.031C35.9561 136.038 34.9922 136.619 34.9375 137.59H33.748C33.8096 136.018 35.2725 134.965 37.0293 134.965C38.916 134.965 40.0645 136.202 40.0508 137.617C40.0645 138.745 39.4082 139.565 38.3691 139.859V139.928C39.6611 140.126 40.4404 141.049 40.4336 142.307C40.4404 143.934 38.9639 145.137 36.9883 145.137ZM45.6289 145.137C43.6602 145.137 42.2451 144.084 42.1836 142.512H43.4277C43.4961 143.455 44.4326 144.043 45.6152 144.043C46.9209 144.043 47.8643 143.339 47.8711 142.307C47.8643 141.227 47.0029 140.468 45.4648 140.461H44.6582V139.381H45.4648C46.668 139.381 47.5088 138.704 47.502 137.686C47.5088 136.694 46.7842 136.038 45.6562 136.031C44.5967 136.038 43.6328 136.619 43.5781 137.59H42.3887C42.4502 136.018 43.9131 134.965 45.6699 134.965C47.5566 134.965 48.7051 136.202 48.6914 137.617C48.7051 138.745 48.0488 139.565 47.0098 139.859V139.928C48.3018 140.126 49.0811 141.049 49.0742 142.307C49.0811 143.934 47.6045 145.137 45.6289 145.137ZM54.2695 145.137C52.3008 145.137 50.8857 144.084 50.8242 142.512H52.0684C52.1367 143.455 53.0732 144.043 54.2559 144.043C55.5615 144.043 56.5049 143.339 56.5117 142.307C56.5049 141.227 55.6436 140.468 54.1055 140.461H53.2988V139.381H54.1055C55.3086 139.381 56.1494 138.704 56.1426 137.686C56.1494 136.694 55.4248 136.038 54.2969 136.031C53.2373 136.038 52.2734 136.619 52.2188 137.59H51.0293C51.0908 136.018 52.5537 134.965 54.3105 134.965C56.1973 134.965 57.3457 136.202 57.332 137.617C57.3457 138.745 56.6895 139.565 55.6504 139.859V139.928C56.9424 140.126 57.7217 141.049 57.7148 142.307C57.7217 143.934 56.2451 145.137 54.2695 145.137ZM63.7578 139.518V140.598H59.4238V139.518H63.7578ZM69.0488 135.102V145H67.8047V136.387H67.75L65.3438 137.986V136.742L67.8047 135.102H69.0488ZM75.1875 135.102V145H73.9434V136.387H73.8887L71.4824 137.986V136.742L73.9434 135.102H75.1875ZM82.0918 139.518V140.598H77.7578V139.518H82.0918ZM87.3828 135.102V145H86.1387V136.387H86.084L83.6777 137.986V136.742L86.1387 135.102H87.3828ZM90.0215 145L90.0078 144.098L93.3848 140.543C94.5537 139.299 95.1143 138.629 95.1211 137.713C95.1143 136.694 94.2666 136.038 93.1523 136.031C91.9697 136.038 91.2314 136.783 91.2246 137.891H90.0625C90.0488 136.141 91.4023 134.965 93.1934 134.965C94.9912 134.965 96.2627 136.175 96.2695 137.713C96.2627 138.82 95.75 139.682 94 141.486L91.7305 143.824V143.906H96.4473V145H90.0215ZM101.656 145.137C99.6875 145.137 98.2725 144.084 98.2109 142.512H99.4551C99.5234 143.455 100.46 144.043 101.643 144.043C102.948 144.043 103.892 143.339 103.898 142.307C103.892 141.227 103.03 140.468 101.492 140.461H100.686V139.381H101.492C102.695 139.381 103.536 138.704 103.529 137.686C103.536 136.694 102.812 136.038 101.684 136.031C100.624 136.038 99.6602 136.619 99.6055 137.59H98.416C98.4775 136.018 99.9404 134.965 101.697 134.965C103.584 134.965 104.732 136.202 104.719 137.617C104.732 138.745 104.076 139.565 103.037 139.859V139.928C104.329 140.126 105.108 141.049 105.102 142.307C105.108 143.934 103.632 145.137 101.656 145.137ZM106.633 142.977V141.965L111.09 135.102H112.607V141.896H113.988V142.977H112.607V145H111.432V142.977H106.633ZM107.959 141.896H111.432V136.66H111.309L107.959 141.814V141.896ZM118.842 145.137C117.058 145.137 115.704 144.036 115.629 142.512H116.818C116.907 143.394 117.769 144.05 118.842 144.057C120.127 144.05 121.057 143.113 121.057 141.869C121.057 140.584 120.093 139.634 118.76 139.627C117.926 139.613 117.276 139.873 116.914 140.516H115.725L116.422 135.102H121.781V136.195H117.447L117.078 139.094H117.174C117.618 138.752 118.281 138.52 118.979 138.52C120.865 138.52 122.253 139.914 122.26 141.842C122.253 143.756 120.817 145.137 118.842 145.137ZM127.414 145.137C125.698 145.116 123.805 144.098 123.805 140.434C123.805 136.927 125.24 134.965 127.564 134.965C129.308 134.965 130.524 136.038 130.777 137.59H129.561C129.335 136.715 128.665 136.059 127.564 136.059C125.938 136.059 124.96 137.446 124.967 139.832H125.09C125.657 139.005 126.566 138.52 127.633 138.52C129.39 138.52 130.859 139.887 130.859 141.801C130.859 143.667 129.499 145.157 127.414 145.137ZM125.131 141.828C125.138 142.99 126.088 144.05 127.414 144.057C128.692 144.05 129.663 143.045 129.67 141.814C129.663 140.598 128.733 139.606 127.441 139.6C126.143 139.606 125.145 140.659 125.131 141.828ZM132.869 145L137.408 136.264V136.195H132.172V135.102H138.68V136.25L134.154 145H132.869Z" fill="#999999"/>
<path d="M261.9 127.865V130.107C263.076 130.046 264.266 129.95 265.387 129.779L265.469 130.572C262.687 131.078 259.699 131.099 257.512 131.092L257.361 130.203C258.38 130.196 259.583 130.189 260.848 130.148V127.865H261.9ZM257.73 127.441C259.528 126.908 260.793 125.575 260.82 123.941H258.031V123.053H260.848V121.549H261.9V123.053H264.758V123.941H261.9C261.935 125.507 263.233 126.792 265.031 127.305L264.525 128.152C263.069 127.715 261.921 126.778 261.374 125.548C260.848 126.847 259.713 127.817 258.25 128.262L257.73 127.441ZM266.193 133.635V121.453H267.26V133.635H266.193ZM279.059 122.191V123.135C279.059 124.16 279.059 125.391 278.737 127.045H280.521V127.947H269.393V127.045H277.671C277.999 125.363 277.999 124.167 277.992 123.135V123.066H270.801V122.191H279.059ZM270.869 133.334V129.314H271.936V132.432H279.428V133.334H270.869Z" fill="#FF6600"/>
<g clip-path="url(#clip0_114_15413)">
<path fill-rule="evenodd" clip-rule="evenodd" d="M310.627 122.24C310.203 121.887 309.553 121.928 309.175 122.331L302.235 129.746L298.802 126.509C298.4 126.13 297.748 126.13 297.346 126.509L297.301 126.552C296.9 126.93 296.9 127.545 297.301 127.923L301.549 131.927C301.931 132.287 302.537 132.305 302.942 131.982C302.999 131.941 303.053 131.895 303.102 131.843L310.766 123.654C311.144 123.251 311.105 122.638 310.681 122.285L310.627 122.24Z" fill="#FF6600"/>
</g>
<rect x="0.5" y="177.5" width="334" height="82" rx="15.5" fill="white"/>
<rect x="0.5" y="177.5" width="334" height="82" rx="15.5" stroke="#E8E8E8"/>
<path d="M35.6406 200.219V205.781H37.7344V207.422H35.6406V214.438H33.6719V200.219H35.6406ZM24.3438 203.938V202.344H27.5625V200.438H29.5625V202.344H32.7031V203.938H24.3438ZM24.9219 208.125C24.9141 206.141 26.4609 204.727 28.5625 204.734C30.6328 204.727 32.1875 206.141 32.1875 208.125C32.1875 210.109 30.6328 211.508 28.5625 211.516C26.4609 211.508 24.9141 210.109 24.9219 208.125ZM26.8281 208.125C26.8281 209.227 27.5547 209.883 28.5625 209.875C29.5547 209.883 30.2812 209.227 30.2812 208.125C30.2812 207.031 29.5547 206.359 28.5625 206.344C27.5547 206.359 26.8281 207.031 26.8281 208.125ZM51.4844 205.609V207.234H49.4688V214.406H47.4688V200.219H49.4688V205.609H51.4844ZM38.7031 210.938V201.578H40.6875V209.289C42.5078 209.258 44.4609 209.086 46.5156 208.672L46.7188 210.328C44.3359 210.812 42.0312 210.938 39.9375 210.938H38.7031ZM65.0469 207.484V209.078H52.0781V207.484H65.0469ZM53.375 203.562C53.375 201.75 55.4297 200.641 58.5625 200.656C61.6719 200.641 63.7266 201.75 63.7344 203.562C63.7266 205.383 61.6719 206.5 58.5625 206.5C55.4297 206.5 53.375 205.383 53.375 203.562ZM53.6406 214.188V210.031H55.6406V212.594H63.5781V214.188H53.6406ZM55.4531 203.562C55.4375 204.445 56.5859 204.891 58.5625 204.891C60.5234 204.891 61.6719 204.445 61.6719 203.562C61.6719 202.703 60.5234 202.234 58.5625 202.219C56.5859 202.234 55.4375 202.703 55.4531 203.562ZM78.125 200.219V209.141H76.2344V205.359H75.0938V208.672H73.2344V200.484H75.0938V203.734H76.2344V200.219H78.125ZM65.8281 203.234V201.688H68.3438V200.344H70.3281V201.688H72.8125V203.234H65.8281ZM66.2656 206.188C66.2578 204.695 67.5625 203.703 69.3438 203.703C71.1484 203.703 72.4453 204.695 72.4531 206.188C72.4453 207.664 71.1484 208.648 69.3438 208.656C67.5625 208.648 66.2578 207.664 66.2656 206.188ZM68.0469 206.188C68.0391 206.844 68.5625 207.242 69.3438 207.234C70.1172 207.242 70.6484 206.844 70.6562 206.188C70.6484 205.523 70.1172 205.133 69.3438 205.141C68.5703 205.133 68.0391 205.523 68.0469 206.188ZM68.3438 211.859C68.3359 210.211 70.2031 209.273 73.2656 209.266C76.3359 209.273 78.1875 210.211 78.2031 211.859C78.1875 213.5 76.3359 214.445 73.2656 214.438C70.2031 214.445 68.3359 213.5 68.3438 211.859ZM70.3438 211.859C70.3281 212.578 71.3359 212.938 73.2656 212.938C75.2031 212.938 76.1875 212.578 76.1875 211.859C76.1875 211.109 75.2031 210.758 73.2656 210.766C71.3359 210.758 70.3281 211.109 70.3438 211.859Z" fill="black"/>
<path d="M28.3477 236.137C26.3789 236.137 24.9639 235.084 24.9023 233.512H26.1465C26.2148 234.455 27.1514 235.043 28.334 235.043C29.6396 235.043 30.583 234.339 30.5898 233.307C30.583 232.227 29.7217 231.468 28.1836 231.461H27.377V230.381H28.1836C29.3867 230.381 30.2275 229.704 30.2207 228.686C30.2275 227.694 29.5029 227.038 28.375 227.031C27.3154 227.038 26.3516 227.619 26.2969 228.59H25.1074C25.1689 227.018 26.6318 225.965 28.3887 225.965C30.2754 225.965 31.4238 227.202 31.4102 228.617C31.4238 229.745 30.7676 230.565 29.7285 230.859V230.928C31.0205 231.126 31.7998 232.049 31.793 233.307C31.7998 234.934 30.3232 236.137 28.3477 236.137ZM36.9883 236.137C35.0195 236.137 33.6045 235.084 33.543 233.512H34.7871C34.8555 234.455 35.792 235.043 36.9746 235.043C38.2803 235.043 39.2236 234.339 39.2305 233.307C39.2236 232.227 38.3623 231.468 36.8242 231.461H36.0176V230.381H36.8242C38.0273 230.381 38.8682 229.704 38.8613 228.686C38.8682 227.694 38.1436 227.038 37.0156 227.031C35.9561 227.038 34.9922 227.619 34.9375 228.59H33.748C33.8096 227.018 35.2725 225.965 37.0293 225.965C38.916 225.965 40.0645 227.202 40.0508 228.617C40.0645 229.745 39.4082 230.565 38.3691 230.859V230.928C39.6611 231.126 40.4404 232.049 40.4336 233.307C40.4404 234.934 38.9639 236.137 36.9883 236.137ZM45.6289 236.137C43.6602 236.137 42.2451 235.084 42.1836 233.512H43.4277C43.4961 234.455 44.4326 235.043 45.6152 235.043C46.9209 235.043 47.8643 234.339 47.8711 233.307C47.8643 232.227 47.0029 231.468 45.4648 231.461H44.6582V230.381H45.4648C46.668 230.381 47.5088 229.704 47.502 228.686C47.5088 227.694 46.7842 227.038 45.6562 227.031C44.5967 227.038 43.6328 227.619 43.5781 228.59H42.3887C42.4502 227.018 43.9131 225.965 45.6699 225.965C47.5566 225.965 48.7051 227.202 48.6914 228.617C48.7051 229.745 48.0488 230.565 47.0098 230.859V230.928C48.3018 231.126 49.0811 232.049 49.0742 233.307C49.0811 234.934 47.6045 236.137 45.6289 236.137ZM54.2695 236.137C52.3008 236.137 50.8857 235.084 50.8242 233.512H52.0684C52.1367 234.455 53.0732 235.043 54.2559 235.043C55.5615 235.043 56.5049 234.339 56.5117 233.307C56.5049 232.227 55.6436 231.468 54.1055 231.461H53.2988V230.381H54.1055C55.3086 230.381 56.1494 229.704 56.1426 228.686C56.1494 227.694 55.4248 227.038 54.2969 227.031C53.2373 227.038 52.2734 227.619 52.2188 228.59H51.0293C51.0908 227.018 52.5537 225.965 54.3105 225.965C56.1973 225.965 57.3457 227.202 57.332 228.617C57.3457 229.745 56.6895 230.565 55.6504 230.859V230.928C56.9424 231.126 57.7217 232.049 57.7148 233.307C57.7217 234.934 56.2451 236.137 54.2695 236.137ZM63.7578 230.518V231.598H59.4238V230.518H63.7578ZM69.0488 226.102V236H67.8047V227.387H67.75L65.3438 228.986V227.742L67.8047 226.102H69.0488ZM75.1875 226.102V236H73.9434V227.387H73.8887L71.4824 228.986V227.742L73.9434 226.102H75.1875ZM82.0918 230.518V231.598H77.7578V230.518H82.0918ZM87.3828 226.102V236H86.1387V227.387H86.084L83.6777 228.986V227.742L86.1387 226.102H87.3828ZM90.0215 236L90.0078 235.098L93.3848 231.543C94.5537 230.299 95.1143 229.629 95.1211 228.713C95.1143 227.694 94.2666 227.038 93.1523 227.031C91.9697 227.038 91.2314 227.783 91.2246 228.891H90.0625C90.0488 227.141 91.4023 225.965 93.1934 225.965C94.9912 225.965 96.2627 227.175 96.2695 228.713C96.2627 229.82 95.75 230.682 94 232.486L91.7305 234.824V234.906H96.4473V236H90.0215ZM101.656 236.137C99.6875 236.137 98.2725 235.084 98.2109 233.512H99.4551C99.5234 234.455 100.46 235.043 101.643 235.043C102.948 235.043 103.892 234.339 103.898 233.307C103.892 232.227 103.03 231.468 101.492 231.461H100.686V230.381H101.492C102.695 230.381 103.536 229.704 103.529 228.686C103.536 227.694 102.812 227.038 101.684 227.031C100.624 227.038 99.6602 227.619 99.6055 228.59H98.416C98.4775 227.018 99.9404 225.965 101.697 225.965C103.584 225.965 104.732 227.202 104.719 228.617C104.732 229.745 104.076 230.565 103.037 230.859V230.928C104.329 231.126 105.108 232.049 105.102 233.307C105.108 234.934 103.632 236.137 101.656 236.137ZM106.633 233.977V232.965L111.09 226.102H112.607V232.896H113.988V233.977H112.607V236H111.432V233.977H106.633ZM107.959 232.896H111.432V227.66H111.309L107.959 232.814V232.896ZM118.842 236.137C117.058 236.137 115.704 235.036 115.629 233.512H116.818C116.907 234.394 117.769 235.05 118.842 235.057C120.127 235.05 121.057 234.113 121.057 232.869C121.057 231.584 120.093 230.634 118.76 230.627C117.926 230.613 117.276 230.873 116.914 231.516H115.725L116.422 226.102H121.781V227.195H117.447L117.078 230.094H117.174C117.618 229.752 118.281 229.52 118.979 229.52C120.865 229.52 122.253 230.914 122.26 232.842C122.253 234.756 120.817 236.137 118.842 236.137ZM127.414 236.137C125.698 236.116 123.805 235.098 123.805 231.434C123.805 227.927 125.24 225.965 127.564 225.965C129.308 225.965 130.524 227.038 130.777 228.59H129.561C129.335 227.715 128.665 227.059 127.564 227.059C125.938 227.059 124.96 228.446 124.967 230.832H125.09C125.657 230.005 126.566 229.52 127.633 229.52C129.39 229.52 130.859 230.887 130.859 232.801C130.859 234.667 129.499 236.157 127.414 236.137ZM125.131 232.828C125.138 233.99 126.088 235.05 127.414 235.057C128.692 235.05 129.663 234.045 129.67 232.814C129.663 231.598 128.733 230.606 127.441 230.6C126.143 230.606 125.145 231.659 125.131 232.828ZM132.869 236L137.408 227.264V227.195H132.172V226.102H138.68V227.25L134.154 236H132.869Z" fill="#999999"/>
<path d="M242.596 212.467V215.174H244.441V216.09H242.596V218.797H241.529V212.467H242.596ZM233.682 218.195V213.027H234.762V217.293C236.498 217.286 238.282 217.177 240.244 216.773L240.381 217.676C238.316 218.065 236.478 218.202 234.652 218.195H233.682ZM234.898 224.443V219.426H235.951V221.039H241.529V219.426H242.596V224.443H234.898ZM235.951 223.568H241.529V221.928H235.951V223.568ZM255.229 212.453V218.975H254.162V212.453H255.229ZM245.48 215.844C245.474 214.183 246.82 213.041 248.666 213.055C250.512 213.041 251.845 214.183 251.852 215.844C251.845 217.498 250.512 218.64 248.666 218.633C246.82 218.64 245.474 217.498 245.48 215.844ZM246.533 215.844C246.52 216.951 247.415 217.737 248.666 217.744C249.903 217.737 250.799 216.951 250.799 215.844C250.799 214.729 249.903 213.95 248.666 213.957C247.415 213.95 246.52 214.729 246.533 215.844ZM247.354 224.443V219.59H248.42V221.066H254.162V219.59H255.229V224.443H247.354ZM248.42 223.568H254.162V221.928H248.42V223.568ZM267.697 212.453V224.607H266.672V212.453H267.697ZM257.279 221.203C259.925 219.638 261.251 217.443 261.463 214.9H257.826V214.012H262.529C262.529 214.634 262.475 215.249 262.365 215.844H264.211V212.781H265.236V223.992H264.211V219.781H261.955V218.893H264.211V216.732H262.153C261.565 218.79 260.232 220.608 257.936 221.982L257.279 221.203ZM273.658 214.641C273.645 216.192 274.902 217.553 276.68 218.1L276.174 218.947C274.759 218.496 273.658 217.56 273.125 216.343C272.592 217.662 271.45 218.674 270.008 219.152L269.447 218.305C271.279 217.73 272.564 216.309 272.578 214.641V214.49H269.816V213.588H276.393V214.49H273.658V214.641ZM269.242 221.162C270.227 221.162 271.375 221.162 272.578 221.128V218.646H273.658V221.087C274.772 221.039 275.894 220.95 276.939 220.807L277.008 221.6C274.39 222.058 271.519 222.058 269.406 222.064L269.242 221.162ZM277.719 224.607V212.453H278.785V217.512H280.768V218.428H278.785V224.607H277.719Z" fill="#FF6600"/>
<g clip-path="url(#clip1_114_15413)">
<path fill-rule="evenodd" clip-rule="evenodd" d="M310.627 213.24C310.203 212.887 309.553 212.928 309.175 213.331L302.235 220.746L298.802 217.509C298.4 217.13 297.748 217.13 297.346 217.509L297.301 217.552C296.9 217.93 296.9 218.545 297.301 218.923L301.549 222.927C301.931 223.287 302.537 223.305 302.942 222.982C302.999 222.942 303.053 222.895 303.102 222.843L310.766 214.654C311.144 214.251 311.105 213.638 310.681 213.285L310.627 213.24Z" fill="#DDDDDD"/>
</g>
<rect x="0.5" y="268.5" width="334" height="82" rx="15.5" fill="white"/>
<rect x="0.5" y="268.5" width="334" height="82" rx="15.5" stroke="#E8E8E8"/>
<path d="M35.7031 291.234V295.594H37.625V297.219H35.7031V301.844H33.7031V291.234H35.7031ZM24.4219 294.297V292.719H27.6562V291.203H29.6406V292.719H32.8594V294.297H24.4219ZM25.1094 297.547C25.1094 295.898 26.5703 294.797 28.6406 294.797C30.7031 294.797 32.1406 295.898 32.1406 297.547C32.1406 299.188 30.7031 300.266 28.6406 300.266C26.5703 300.266 25.1094 299.188 25.1094 297.547ZM26.4844 305.188V301.031H28.4688V303.594H36.2188V305.188H26.4844ZM27.0625 297.547C27.0547 298.328 27.6875 298.75 28.6406 298.75C29.6016 298.75 30.25 298.328 30.25 297.547C30.25 296.758 29.6016 296.32 28.6406 296.312C27.6875 296.32 27.0547 296.758 27.0625 297.547ZM49.625 291.219V297H51.4844V298.656H49.625V305.438H47.6094V291.219H49.625ZM38.0781 301.422C39.1172 301.422 40.3281 301.422 41.5938 301.391V300.172C40.0859 299.875 39.1016 298.914 39.1094 297.594C39.1016 296.008 40.5391 294.922 42.6094 294.922C44.6406 294.922 46.0938 296.008 46.1094 297.594C46.0938 298.914 45.0938 299.883 43.5938 300.172V301.32C44.7188 301.258 45.8516 301.164 46.9062 301.016L47.0312 302.469C44.0078 303.031 40.7422 303.055 38.3438 303.047L38.0781 301.422ZM38.3594 294.359V292.797H41.5938V291.297H43.5938V292.797H46.7969V294.359H38.3594ZM41 297.594C40.9922 298.344 41.6328 298.75 42.6094 298.75C43.5547 298.75 44.1875 298.344 44.1875 297.594C44.1875 296.859 43.5547 296.445 42.6094 296.438C41.6328 296.445 40.9922 296.859 41 297.594ZM64.0938 291.219V305.469H62.0938V297.797H59.5469V296.172H62.0938V291.219H64.0938ZM51.8594 301.219C54.2422 300.125 55.4062 297.414 55.4062 294.781V294.188H52.4531V292.594H60.4062V294.188H57.4531V294.781C57.4453 297.281 58.6016 299.891 61 300.922L59.8281 302.5C58.1719 301.734 57.0625 300.242 56.4531 298.43C55.8359 300.367 54.7031 301.977 53.0469 302.797L51.8594 301.219ZM78.875 298.219V299.797H73.3594V301.031H77.2969V305.422H75.3125V302.609H67.3438V301.031H71.3906V299.797H65.9062V298.219H78.875ZM66.4531 296.219C69.5391 296.008 70.9844 295.086 71.2266 294.062H67.1562V292.516H71.3906V291.234H73.3594V292.516H77.625V294.062H73.5156C73.75 295.086 75.1875 296.008 78.2969 296.219L77.6875 297.703C75.0703 297.523 73.2656 296.773 72.3672 295.625C71.4766 296.773 69.6641 297.523 67.0625 297.703L66.4531 296.219ZM92.7031 298.484V300.078H79.7344V298.484H92.7031ZM81.0312 294.562C81.0312 292.75 83.0859 291.641 86.2188 291.656C89.3281 291.641 91.3828 292.75 91.3906 294.562C91.3828 296.383 89.3281 297.5 86.2188 297.5C83.0859 297.5 81.0312 296.383 81.0312 294.562ZM81.2969 305.188V301.031H83.2969V303.594H91.2344V305.188H81.2969ZM83.1094 294.562C83.0938 295.445 84.2422 295.891 86.2188 295.891C88.1797 295.891 89.3281 295.445 89.3281 294.562C89.3281 293.703 88.1797 293.234 86.2188 293.219C84.2422 293.234 83.0938 293.703 83.1094 294.562ZM105.781 291.219V300.141H103.891V296.359H102.75V299.672H100.891V291.484H102.75V294.734H103.891V291.219H105.781ZM93.4844 294.234V292.688H96V291.344H97.9844V292.688H100.469V294.234H93.4844ZM93.9219 297.188C93.9141 295.695 95.2188 294.703 97 294.703C98.8047 294.703 100.102 295.695 100.109 297.188C100.102 298.664 98.8047 299.648 97 299.656C95.2188 299.648 93.9141 298.664 93.9219 297.188ZM95.7031 297.188C95.6953 297.844 96.2188 298.242 97 298.234C97.7734 298.242 98.3047 297.844 98.3125 297.188C98.3047 296.523 97.7734 296.133 97 296.141C96.2266 296.133 95.6953 296.523 95.7031 297.188ZM96 302.859C95.9922 301.211 97.8594 300.273 100.922 300.266C103.992 300.273 105.844 301.211 105.859 302.859C105.844 304.5 103.992 305.445 100.922 305.438C97.8594 305.445 95.9922 304.5 96 302.859ZM98 302.859C97.9844 303.578 98.9922 303.938 100.922 303.938C102.859 303.938 103.844 303.578 103.844 302.859C103.844 302.109 102.859 301.758 100.922 301.766C98.9922 301.758 97.9844 302.109 98 302.859Z" fill="black"/>
<path d="M28.3477 327.137C26.3789 327.137 24.9639 326.084 24.9023 324.512H26.1465C26.2148 325.455 27.1514 326.043 28.334 326.043C29.6396 326.043 30.583 325.339 30.5898 324.307C30.583 323.227 29.7217 322.468 28.1836 322.461H27.377V321.381H28.1836C29.3867 321.381 30.2275 320.704 30.2207 319.686C30.2275 318.694 29.5029 318.038 28.375 318.031C27.3154 318.038 26.3516 318.619 26.2969 319.59H25.1074C25.1689 318.018 26.6318 316.965 28.3887 316.965C30.2754 316.965 31.4238 318.202 31.4102 319.617C31.4238 320.745 30.7676 321.565 29.7285 321.859V321.928C31.0205 322.126 31.7998 323.049 31.793 324.307C31.7998 325.934 30.3232 327.137 28.3477 327.137ZM36.9883 327.137C35.0195 327.137 33.6045 326.084 33.543 324.512H34.7871C34.8555 325.455 35.792 326.043 36.9746 326.043C38.2803 326.043 39.2236 325.339 39.2305 324.307C39.2236 323.227 38.3623 322.468 36.8242 322.461H36.0176V321.381H36.8242C38.0273 321.381 38.8682 320.704 38.8613 319.686C38.8682 318.694 38.1436 318.038 37.0156 318.031C35.9561 318.038 34.9922 318.619 34.9375 319.59H33.748C33.8096 318.018 35.2725 316.965 37.0293 316.965C38.916 316.965 40.0645 318.202 40.0508 319.617C40.0645 320.745 39.4082 321.565 38.3691 321.859V321.928C39.6611 322.126 40.4404 323.049 40.4336 324.307C40.4404 325.934 38.9639 327.137 36.9883 327.137ZM45.6289 327.137C43.6602 327.137 42.2451 326.084 42.1836 324.512H43.4277C43.4961 325.455 44.4326 326.043 45.6152 326.043C46.9209 326.043 47.8643 325.339 47.8711 324.307C47.8643 323.227 47.0029 322.468 45.4648 322.461H44.6582V321.381H45.4648C46.668 321.381 47.5088 320.704 47.502 319.686C47.5088 318.694 46.7842 318.038 45.6562 318.031C44.5967 318.038 43.6328 318.619 43.5781 319.59H42.3887C42.4502 318.018 43.9131 316.965 45.6699 316.965C47.5566 316.965 48.7051 318.202 48.6914 319.617C48.7051 320.745 48.0488 321.565 47.0098 321.859V321.928C48.3018 322.126 49.0811 323.049 49.0742 324.307C49.0811 325.934 47.6045 327.137 45.6289 327.137ZM54.2695 327.137C52.3008 327.137 50.8857 326.084 50.8242 324.512H52.0684C52.1367 325.455 53.0732 326.043 54.2559 326.043C55.5615 326.043 56.5049 325.339 56.5117 324.307C56.5049 323.227 55.6436 322.468 54.1055 322.461H53.2988V321.381H54.1055C55.3086 321.381 56.1494 320.704 56.1426 319.686C56.1494 318.694 55.4248 318.038 54.2969 318.031C53.2373 318.038 52.2734 318.619 52.2188 319.59H51.0293C51.0908 318.018 52.5537 316.965 54.3105 316.965C56.1973 316.965 57.3457 318.202 57.332 319.617C57.3457 320.745 56.6895 321.565 55.6504 321.859V321.928C56.9424 322.126 57.7217 323.049 57.7148 324.307C57.7217 325.934 56.2451 327.137 54.2695 327.137ZM63.7578 321.518V322.598H59.4238V321.518H63.7578ZM69.0488 317.102V327H67.8047V318.387H67.75L65.3438 319.986V318.742L67.8047 317.102H69.0488ZM75.1875 317.102V327H73.9434V318.387H73.8887L71.4824 319.986V318.742L73.9434 317.102H75.1875ZM82.0918 321.518V322.598H77.7578V321.518H82.0918ZM87.3828 317.102V327H86.1387V318.387H86.084L83.6777 319.986V318.742L86.1387 317.102H87.3828ZM90.0215 327L90.0078 326.098L93.3848 322.543C94.5537 321.299 95.1143 320.629 95.1211 319.713C95.1143 318.694 94.2666 318.038 93.1523 318.031C91.9697 318.038 91.2314 318.783 91.2246 319.891H90.0625C90.0488 318.141 91.4023 316.965 93.1934 316.965C94.9912 316.965 96.2627 318.175 96.2695 319.713C96.2627 320.82 95.75 321.682 94 323.486L91.7305 325.824V325.906H96.4473V327H90.0215ZM101.656 327.137C99.6875 327.137 98.2725 326.084 98.2109 324.512H99.4551C99.5234 325.455 100.46 326.043 101.643 326.043C102.948 326.043 103.892 325.339 103.898 324.307C103.892 323.227 103.03 322.468 101.492 322.461H100.686V321.381H101.492C102.695 321.381 103.536 320.704 103.529 319.686C103.536 318.694 102.812 318.038 101.684 318.031C100.624 318.038 99.6602 318.619 99.6055 319.59H98.416C98.4775 318.018 99.9404 316.965 101.697 316.965C103.584 316.965 104.732 318.202 104.719 319.617C104.732 320.745 104.076 321.565 103.037 321.859V321.928C104.329 322.126 105.108 323.049 105.102 324.307C105.108 325.934 103.632 327.137 101.656 327.137ZM106.633 324.977V323.965L111.09 317.102H112.607V323.896H113.988V324.977H112.607V327H111.432V324.977H106.633ZM107.959 323.896H111.432V318.66H111.309L107.959 323.814V323.896ZM118.842 327.137C117.058 327.137 115.704 326.036 115.629 324.512H116.818C116.907 325.394 117.769 326.05 118.842 326.057C120.127 326.05 121.057 325.113 121.057 323.869C121.057 322.584 120.093 321.634 118.76 321.627C117.926 321.613 117.276 321.873 116.914 322.516H115.725L116.422 317.102H121.781V318.195H117.447L117.078 321.094H117.174C117.618 320.752 118.281 320.52 118.979 320.52C120.865 320.52 122.253 321.914 122.26 323.842C122.253 325.756 120.817 327.137 118.842 327.137ZM127.414 327.137C125.698 327.116 123.805 326.098 123.805 322.434C123.805 318.927 125.24 316.965 127.564 316.965C129.308 316.965 130.524 318.038 130.777 319.59H129.561C129.335 318.715 128.665 318.059 127.564 318.059C125.938 318.059 124.96 319.446 124.967 321.832H125.09C125.657 321.005 126.566 320.52 127.633 320.52C129.39 320.52 130.859 321.887 130.859 323.801C130.859 325.667 129.499 327.157 127.414 327.137ZM125.131 323.828C125.138 324.99 126.088 326.05 127.414 326.057C128.692 326.05 129.663 325.045 129.67 323.814C129.663 322.598 128.733 321.606 127.441 321.6C126.143 321.606 125.145 322.659 125.131 323.828ZM132.869 327L137.408 318.264V318.195H132.172V317.102H138.68V318.25L134.154 327H132.869Z" fill="#999999"/>
<path d="M251.291 304.588C251.298 306.304 253.526 307.78 255.721 308.088L255.283 308.963C253.396 308.648 251.523 307.603 250.744 306.112C249.965 307.616 248.099 308.648 246.205 308.963L245.768 308.088C247.962 307.78 250.184 306.331 250.184 304.588V303.891H251.291V304.588ZM245.193 311.205V310.303H256.268V311.205H251.236V315.607H250.184V311.205H245.193ZM267.328 311.342V315.607H266.262V312.244H259.152V311.342H267.328ZM257.58 307.049C257.573 305.36 258.92 304.185 260.766 304.191C262.611 304.185 263.944 305.36 263.951 307.049C263.944 308.758 262.611 309.927 260.766 309.934C258.92 309.927 257.573 308.758 257.58 307.049ZM258.633 307.049C258.619 308.218 259.515 309.018 260.766 309.004C262.003 309.018 262.898 308.218 262.898 307.049C262.898 305.907 262.003 305.114 260.766 305.107C259.515 305.114 258.619 305.907 258.633 307.049ZM266.262 310.686V303.453H267.328V310.686H266.262ZM273.508 307.186C273.494 309.134 274.902 311.28 276.666 312.121L276.051 312.969C274.684 312.299 273.528 310.863 272.981 309.216C272.421 311 271.204 312.572 269.844 313.27L269.188 312.422C270.938 311.567 272.441 309.257 272.455 307.186V305.6H269.625V304.711H276.242V305.6H273.508V307.186ZM277.732 315.607V303.453H278.799V308.375H280.836V309.291H278.799V315.607H277.732Z" fill="#FF6600"/>
<g clip-path="url(#clip2_114_15413)">
<path fill-rule="evenodd" clip-rule="evenodd" d="M310.627 304.24C310.203 303.887 309.553 303.928 309.175 304.331L302.235 311.746L298.802 308.509C298.4 308.13 297.748 308.13 297.346 308.509L297.301 308.552C296.9 308.93 296.9 309.545 297.301 309.923L301.549 313.927C301.931 314.287 302.537 314.305 302.942 313.982C302.999 313.942 303.053 313.895 303.102 313.843L310.766 305.654C311.144 305.251 311.105 304.638 310.681 304.285L310.627 304.24Z" fill="#DDDDDD"/>
</g>
<path fill-rule="evenodd" clip-rule="evenodd" d="M117 383.5C117 387.09 119.91 390 123.5 390C127.09 390 130 387.09 130 383.5C130 379.91 127.09 377 123.5 377C119.91 377 117 379.91 117 383.5ZM123.5 375.5C119.082 375.5 115.5 379.082 115.5 383.5C115.5 387.918 119.082 391.5 123.5 391.5C127.918 391.5 131.5 387.918 131.5 383.5C131.5 379.082 127.918 375.5 123.5 375.5ZM123.5 378.75C123.914 378.75 124.25 379.086 124.25 379.5V382.75H127.5C127.914 382.75 128.25 383.086 128.25 383.5C128.25 383.914 127.914 384.25 127.5 384.25H124.25V387.5C124.25 387.914 123.914 388.25 123.5 388.25C123.086 388.25 122.75 387.914 122.75 387.5V384.25H119.5C119.086 384.25 118.75 383.914 118.75 383.5C118.75 383.086 119.086 382.75 119.5 382.75H122.75V379.5C122.75 379.086 123.086 378.75 123.5 378.75Z" fill="#FF6600"/>
<path d="M150.479 376.912V389.162H149.248V376.912H150.479ZM139.883 385.621C142.487 384.076 143.731 382.019 143.957 379.496H140.484V378.43H145.242C145.242 379.059 145.194 379.667 145.099 380.262H146.746V377.227H147.977V388.561H146.746V384.391H144.654V383.324H146.746V381.328H144.859C144.265 383.386 142.959 385.177 140.648 386.551L139.883 385.621ZM156.439 379.086C156.439 380.576 157.574 381.93 159.42 382.477L158.805 383.502C157.39 383.071 156.344 382.176 155.804 381.014C155.257 382.278 154.17 383.249 152.721 383.707L152.064 382.695C153.958 382.114 155.12 380.692 155.127 379.086V379.072H152.461V377.992H159.105V379.072H156.439V379.086ZM151.9 385.594C152.857 385.594 153.979 385.601 155.141 385.566V383.201H156.439V385.525C157.499 385.471 158.572 385.389 159.57 385.252L159.666 386.195C157.041 386.674 154.197 386.667 152.092 386.674L151.9 385.594ZM160.309 389.162V376.912H161.607V381.916H163.494V383.01H161.607V389.162H160.309ZM172.107 378.867C172.107 380.392 173.297 381.8 175.184 382.354L174.527 383.365C173.099 382.928 172.019 381.998 171.458 380.795C170.911 382.087 169.817 383.099 168.348 383.584L167.691 382.559C169.599 381.978 170.788 380.474 170.795 378.867V378.73H168.047V377.678H174.801V378.73H172.107V378.867ZM169.715 389.012V384.117H170.986V385.484H176.441V384.117H177.727V389.012H169.715ZM170.986 387.959H176.441V386.51H170.986V387.959ZM176.428 383.543V376.912H177.727V383.543H176.428ZM184.057 379.086C184.05 380.631 185.157 382.142 187.01 382.777L186.34 383.789C184.966 383.317 183.947 382.333 183.414 381.123C182.881 382.47 181.808 383.55 180.352 384.062L179.682 383.037C181.562 382.395 182.737 380.761 182.73 379.1V378.758H180.078V377.705H186.682V378.758H184.057V379.086ZM181.582 385.908V384.855H189.881V389.162H188.582V385.908H181.582ZM186.312 381.096V380.029H188.582V376.912H189.881V384.24H188.582V381.096H186.312ZM205.344 376.912V383.488H204.045V376.912H205.344ZM195.432 380.316C195.438 378.635 196.819 377.466 198.699 377.473C200.572 377.466 201.953 378.635 201.953 380.316C201.953 381.991 200.572 383.16 198.699 383.146C196.819 383.16 195.438 381.991 195.432 380.316ZM196.703 380.316C196.696 381.376 197.537 382.08 198.699 382.08C199.848 382.08 200.682 381.376 200.682 380.316C200.682 379.271 199.848 378.56 198.699 378.566C197.537 378.56 196.696 379.271 196.703 380.316ZM197.332 389.012V384.076H198.604V385.457H204.059V384.076H205.344V389.012H197.332ZM198.604 387.945H204.059V386.482H198.604V387.945ZM213.123 377.65V381.219H209.076V382.914C211.209 382.914 212.371 382.866 213.752 382.613L213.875 383.666C212.378 383.919 211.12 383.96 208.68 383.967H207.791V380.234H211.824V378.689H207.777V377.65H213.123ZM209.186 386.127V385.074H217.498V389.176H216.199V386.127H209.186ZM213.902 382.299V381.26H216.199V379.742H213.902V378.703H216.199V376.926H217.498V384.459H216.199V382.299H213.902Z" fill="#888888"/>
<path d="M7.848 15.992C5.904 15.992 4.344 15.488 3.144 14.432C1.944 13.4 1.344 12.104 1.344 10.568C1.344 8.984 1.944 7.688 3.144 6.632C4.344 5.6 5.904 5.072 7.848 5.072C9.768 5.072 11.352 5.6 12.552 6.632C13.752 7.688 14.352 8.984 14.352 10.568C14.352 12.104 13.752 13.4 12.552 14.432C11.352 15.488 9.768 15.992 7.848 15.992ZM7.848 13.448C8.664 13.448 9.36 13.184 9.96 12.656C10.536 12.128 10.824 11.432 10.824 10.568C10.824 9.68 10.536 8.96 9.96 8.408C9.36 7.88 8.664 7.592 7.848 7.592C7.032 7.592 6.336 7.88 5.76 8.408C5.16 8.96 4.872 9.68 4.872 10.568C4.872 11.432 5.16 12.128 5.76 12.656C6.336 13.184 7.032 13.448 7.848 13.448ZM16.92 15.896V5.072H20.472V15.896H16.92ZM7.68 16.664V19.112H16.944V16.664H20.472V26.12H7.728C5.328 26.12 4.152 25.016 4.152 22.808V16.664H7.68ZM7.68 21.584V22.424C7.68 23.216 8.04 23.6 8.784 23.6H16.944V21.584H7.68ZM38.6325 5.312C41.1285 5.312 42.4005 6.464 42.4005 8.768V13.592H45.0165V16.352H23.2965V13.592H38.8485V9.512C38.8485 8.456 38.2485 7.928 37.0725 7.928H25.3845V5.312H38.6325ZM42.4725 19.64V26.12H29.3925C26.9925 26.12 25.8165 24.992 25.8165 22.736V17.96H40.8165C41.9205 17.96 42.4725 18.536 42.4725 19.64ZM38.9445 20.552H29.3445V22.52C29.3445 23.192 29.7045 23.528 30.4485 23.528H38.9445V20.552ZM63.7202 14.144V10.952H58.5122V12.656C58.5122 13.664 58.9682 14.144 59.9042 14.144H63.7202ZM67.2002 16.688H59.0402C56.3522 16.688 55.0082 15.416 55.0082 12.872V5.36H58.5122V8.432H63.7202V5.36H67.2002V16.688ZM73.3922 9.728H76.4162V12.464H73.3922V17.192H69.8642V5.072H73.3922V9.728ZM73.3922 17.96V20.528H60.6002V22.52C60.6002 23.216 60.9842 23.552 61.7762 23.552H73.3922V26.12H60.6482C58.2482 26.12 57.0722 25.016 57.0722 22.76V17.96H73.3922ZM79.7829 11.816C79.7829 9.992 80.5749 8.456 82.1829 7.208C83.7669 5.984 85.9029 5.36 88.5429 5.36C91.1829 5.36 93.2949 5.984 94.9029 7.208C96.4869 8.456 97.3029 9.992 97.3029 11.816C97.3029 13.664 96.4869 15.2 94.9029 16.424C93.2949 17.672 91.1829 18.272 88.5429 18.272C85.9029 18.272 83.7669 17.672 82.1829 16.424C80.5749 15.2 79.7829 13.664 79.7829 11.816ZM93.6789 11.816C93.6789 10.688 93.1989 9.776 92.2389 9.08C91.2789 8.408 90.0309 8.072 88.5429 8.072C87.0069 8.072 85.7829 8.432 84.8469 9.104C83.8869 9.8 83.4069 10.712 83.4069 11.816C83.4069 12.944 83.8869 13.856 84.8469 14.528C85.7829 15.224 87.0069 15.56 88.5429 15.56C90.0309 15.56 91.2789 15.224 92.2389 14.528C93.1989 13.856 93.6789 12.944 93.6789 11.816ZM99.4149 24.032H77.6949V21.224H99.4149V24.032ZM109.934 5.96C109.934 8.696 110.51 10.64 111.71 11.744C112.622 12.632 113.822 13.136 115.286 13.232V15.776C112.886 15.728 110.846 14.984 109.142 13.52C108.782 13.232 108.47 12.896 108.182 12.512C107.894 12.896 107.558 13.232 107.222 13.52C105.494 14.984 103.454 15.728 101.078 15.776V13.232C102.518 13.136 103.718 12.632 104.654 11.744C105.83 10.64 106.43 8.696 106.43 5.96V5.336H109.934V5.96ZM117.35 15.896V5.072H120.902V15.896H117.35ZM120.902 22.64H108.11V22.856C108.11 23.36 108.542 23.6 109.406 23.6H120.95V26.12H108.566C105.902 26.12 104.582 24.896 104.582 22.424V20.168H117.374V19.28H104.582V16.784H120.278C120.686 16.784 120.902 17 120.902 17.432V22.64ZM136.543 13.544C137.407 11.888 137.911 10.088 138.055 8.12H131.551V5.408H139.663C140.911 5.408 141.535 6.152 141.535 7.616C141.535 8.072 141.511 8.528 141.463 8.96H143.023V5.072H146.311V26.168H143.023V17.456H138.919V16.04C137.071 18.704 134.455 20.672 131.071 21.944V19.112C133.471 17.768 135.295 15.896 136.543 13.544ZM140.983 11.696C140.671 12.752 140.263 13.76 139.735 14.72H143.023V11.696H140.983ZM147.559 5.072H150.895V26.168H147.559V5.072ZM161.334 13.232C160.998 13.712 160.614 14.144 160.182 14.504C158.526 15.944 156.51 16.808 154.158 17.12V14.384C155.598 14.144 156.822 13.472 157.878 12.344C158.742 11.384 159.27 10.016 159.486 8.216H154.638V5.504H168.03V8.216H163.182C163.374 10.016 163.926 11.384 164.79 12.344C165.822 13.472 167.07 14.144 168.51 14.384V17.12C166.134 16.808 164.118 15.944 162.486 14.504C162.054 14.144 161.67 13.712 161.334 13.232ZM163.11 15.968V20.024H165.774C168.366 20.024 169.662 18.992 169.662 16.928V5.072H173.19V11.984H176.166V14.744H173.19V26.168H169.662V21.896C168.894 22.496 167.742 22.784 166.254 22.784H153.726V20.024H159.558V15.968H163.11ZM186.973 15.464V11.768H181.765V13.976C181.765 14.984 182.221 15.464 183.157 15.464H186.973ZM190.453 18.056H182.293C179.605 18.056 178.261 16.784 178.261 14.24V5.36H181.765V9.2H186.973V5.36H190.453V10.208H194.005V5.072H197.533V20.36H194.005V12.944H190.453V18.056ZM186.613 23.456H197.773V26.12H185.413C182.725 26.12 181.405 24.872 181.405 22.328V18.968H184.957V21.752C184.957 22.904 185.509 23.456 186.613 23.456ZM206.652 4.712H216.06V7.184H206.652V4.712ZM220.524 10.208H202.164V7.76H220.524V10.208ZM209.532 19.904C208.332 19.736 207.276 19.352 206.388 18.728C205.044 17.84 204.396 16.736 204.396 15.392C204.396 14.048 205.044 12.944 206.388 12.032C207.684 11.144 209.34 10.688 211.332 10.688C213.324 10.688 214.98 11.144 216.324 12.032C217.644 12.944 218.316 14.048 218.316 15.392C218.316 16.736 217.644 17.84 216.348 18.704C215.412 19.328 214.332 19.736 213.132 19.904V21.536H222.204V24.152H200.484V21.536H209.532V19.904ZM214.788 15.416C214.788 14.72 214.452 14.168 213.828 13.736C213.18 13.328 212.34 13.112 211.308 13.112C210.3 13.112 209.484 13.328 208.86 13.736C208.236 14.168 207.924 14.72 207.924 15.416C207.924 16.088 208.236 16.616 208.86 17C209.484 17.432 210.3 17.624 211.308 17.624C212.34 17.624 213.18 17.432 213.828 17C214.452 16.616 214.788 16.088 214.788 15.416ZM242.251 5.12C242.995 5.12 243.379 5.48 243.379 6.176V10.352H229.915V10.616C229.915 11.048 230.299 11.24 231.091 11.24H243.595V13.424H230.227C227.659 13.424 226.387 12.536 226.387 10.736V8.168H239.851V7.328H226.387V5.12H242.251ZM224.203 14.456H245.923V16.832H224.203V14.456ZM226.723 22.88V20.84H239.851V20.024H226.723V17.84H242.755C243.163 17.84 243.379 18.032 243.379 18.416V23.024H230.251V23.192C230.251 23.672 230.683 23.888 231.547 23.888H243.427V26.12H230.707C228.043 26.12 226.723 25.04 226.723 22.88ZM4.56 35.712H12.336V37.968H4.56V35.712ZM15.432 40.896H13.632C14.064 41.496 14.304 42.144 14.304 42.84C14.304 43.944 13.752 44.904 12.672 45.72C11.976 46.248 11.16 46.584 10.224 46.776V47.736H12.984C15.6 47.736 16.92 46.752 16.92 44.784V36.072H20.448V42.888H23.424V45.312H20.448V50.808H16.92V49.416C16.224 49.944 15.072 50.184 13.488 50.184H0.984V47.736H6.672V46.776C5.712 46.584 4.896 46.248 4.224 45.72C3.12 44.904 2.592 43.944 2.592 42.84C2.592 42.144 2.808 41.496 3.264 40.896H1.368V38.64H15.432V40.896ZM8.448 44.808C9.12 44.808 9.696 44.64 10.176 44.28C10.608 43.944 10.848 43.464 10.848 42.84C10.848 42.24 10.608 41.76 10.176 41.4C9.696 41.064 9.12 40.896 8.448 40.896C7.752 40.896 7.176 41.064 6.744 41.4C6.264 41.76 6.048 42.24 6.048 42.84C6.048 43.464 6.264 43.944 6.744 44.28C7.176 44.64 7.752 44.808 8.448 44.808ZM3.528 51.336H18.768C19.872 51.336 20.448 51.864 20.448 52.872V57.312H16.896V53.688H3.528V51.336ZM31.5668 48.84C29.6468 48.84 28.0868 48.24 26.9108 47.016C25.7108 45.816 25.1108 44.328 25.1108 42.552C25.1108 40.776 25.7108 39.288 26.9108 38.04C28.0868 36.84 29.6468 36.216 31.5668 36.216C33.4868 36.216 35.0468 36.84 36.2468 38.04C37.4228 39.288 38.0228 40.776 38.0228 42.552C38.0228 44.328 37.4228 45.816 36.2468 47.016C35.0468 48.24 33.4868 48.84 31.5668 48.84ZM31.5668 46.2C32.3828 46.2 33.0788 45.864 33.6548 45.168C34.2068 44.496 34.4948 43.632 34.4948 42.552C34.4948 41.472 34.2068 40.584 33.6548 39.888C33.0788 39.216 32.3828 38.856 31.5668 38.856C30.7268 38.856 30.0308 39.216 29.4788 39.888C28.9028 40.584 28.6388 41.472 28.6388 42.552C28.6388 43.632 28.9028 44.496 29.4788 45.168C30.0308 45.864 30.7268 46.2 31.5668 46.2ZM40.6388 51.36V36.072H44.1908V51.36H40.6388ZM33.3668 54.456H44.5268V57.12H32.1668C29.4788 57.12 28.1588 55.872 28.1588 53.328V49.968H31.7108V52.752C31.7108 53.904 32.2628 54.456 33.3668 54.456ZM49.3433 36.096H55.9193V38.76H49.3433V36.096ZM58.4633 42.144H46.7513V39.504H58.4633V42.144ZM58.0073 48.168C58.0073 49.704 57.5033 51 56.4953 52.032C55.4873 53.088 54.1913 53.616 52.6073 53.616C51.0233 53.616 49.7513 53.088 48.7673 52.032C47.7593 51 47.2553 49.704 47.2553 48.168C47.2553 46.632 47.7593 45.336 48.7673 44.28C49.7513 43.248 51.0233 42.72 52.6073 42.72C54.1913 42.72 55.4873 43.248 56.4953 44.28C57.5033 45.336 58.0073 46.632 58.0073 48.168ZM54.6953 48.168C54.6953 47.28 54.5033 46.584 54.1193 46.08C53.7353 45.6 53.2073 45.336 52.5833 45.336C51.9593 45.336 51.4793 45.576 51.1193 46.056C50.7353 46.56 50.5673 47.256 50.5673 48.168C50.5673 49.08 50.7353 49.776 51.1193 50.256C51.4793 50.76 51.9593 51 52.5833 51C53.2073 51 53.7353 50.76 54.1193 50.256C54.5033 49.776 54.6953 49.08 54.6953 48.168ZM64.1033 36.072H67.4393V57.168H64.1033V45.744H62.6153V57.168H59.3273V36.072H62.6153V42.984H64.1033V36.072ZM89.9263 39.096H82.7983C83.0623 40.536 83.9023 41.736 85.3183 42.696C86.6863 43.656 88.3183 44.184 90.2383 44.232V46.92C87.5983 46.944 85.2703 46.32 83.2063 45.048C82.2943 44.496 81.5263 43.848 80.9263 43.08C80.3023 43.848 79.5343 44.496 78.6223 45.048C76.5583 46.32 74.2063 46.944 71.5903 46.92V44.232C73.4863 44.184 75.1183 43.656 76.5103 42.696C77.9023 41.736 78.7423 40.536 79.0303 39.096H71.9263V36.384H89.9263V39.096ZM91.7743 51H82.7023V57.168H79.1023V51H70.0543V48.24H91.7743V51ZM101.069 39.504C101.069 43.176 101.549 45.792 102.533 47.352C103.301 48.624 104.261 49.488 105.389 49.92V52.92C103.325 52.368 101.573 51.168 100.157 49.344C99.8691 49.008 99.6291 48.624 99.4131 48.192C99.1731 48.624 98.9331 49.008 98.6691 49.344C97.2291 51.168 95.5011 52.368 93.4371 52.92V49.92C94.5411 49.488 95.5011 48.624 96.2931 47.352C97.2531 45.792 97.7571 43.176 97.7571 39.528V36.384H101.069V39.504ZM110.861 36.072H114.197V57.168H110.861V36.072ZM106.301 36.072H109.589V57.168H106.301V45H102.869V42.192H106.301V36.072ZM118.9 42.648C118.9 40.92 119.692 39.432 121.3 38.184C122.884 36.984 125.02 36.36 127.66 36.36C130.3 36.36 132.412 36.984 134.02 38.184C135.604 39.432 136.42 40.92 136.42 42.648C136.42 44.616 135.388 46.272 133.348 47.568V52.272H138.532V55.032H116.812V52.272H122.02V47.592C119.932 46.296 118.9 44.64 118.9 42.648ZM129.796 48.792C129.124 48.888 128.404 48.936 127.66 48.936C126.916 48.936 126.22 48.888 125.572 48.792V52.272H129.796V48.792ZM132.796 42.648C132.796 41.616 132.316 40.752 131.356 40.08C130.396 39.408 129.148 39.072 127.66 39.072C126.124 39.072 124.9 39.408 123.964 40.08C123.004 40.752 122.524 41.616 122.524 42.648C122.524 43.704 123.004 44.544 123.964 45.216C124.9 45.888 126.124 46.224 127.66 46.224C129.148 46.224 130.396 45.888 131.356 45.216C132.316 44.544 132.796 43.704 132.796 42.648Z" fill="black"/>
<defs>
<clipPath id="clip0_114_15413">
<rect width="14" height="14" fill="white" transform="translate(297 120.5)"/>
</clipPath>
<clipPath id="clip1_114_15413">
<rect width="14" height="14" fill="white" transform="translate(297 211.5)"/>
</clipPath>
<clipPath id="clip2_114_15413">
<rect width="14" height="14" fill="white" transform="translate(297 302.5)"/>
</clipPath>
</defs>
</svg>
