<svg width="355" height="606" viewBox="0 0 355 606" fill="none" xmlns="http://www.w3.org/2000/svg">
<circle cx="11.5" cy="578.5" r="1.5" fill="#BBBBBB"/>
<path d="M28.7754 573.755V582.007H27.7852V573.755H28.7754ZM19.7236 577.31C19.7173 575.685 20.9932 574.548 22.6816 574.542C24.3701 574.548 25.6333 575.685 25.6396 577.31C25.6333 578.954 24.3701 580.096 22.6816 580.09C20.9932 580.096 19.7173 578.954 19.7236 577.31ZM20.7012 577.31C20.6885 578.433 21.5391 579.214 22.6816 579.214C23.8052 579.214 24.6621 578.433 24.6621 577.31C24.6621 576.205 23.8052 575.418 22.6816 575.418C21.5391 575.418 20.6885 576.205 20.7012 577.31ZM21.4883 584.787V581.169H22.4785V583.949H29.1309V584.787H21.4883ZM41.4756 579.112V579.938H31.1924V579.112H41.4756ZM31.7764 577.64C33.7441 577.411 35.6421 576.44 35.6865 575.151H32.1318V574.326H40.5615V575.151H36.9814C37.0259 576.427 38.9048 577.411 40.9043 577.64L40.5361 578.439C38.689 578.205 36.9561 577.373 36.334 576.123C35.7119 577.373 33.9917 578.205 32.1318 578.439L31.7764 577.64ZM32.4365 582.972C32.4302 581.677 33.8965 580.928 36.334 580.928C38.7524 580.928 40.2061 581.677 40.2188 582.972C40.2061 584.279 38.7524 585.003 36.334 585.003C33.8965 585.003 32.4302 584.279 32.4365 582.972ZM33.4521 582.972C33.4395 583.759 34.5249 584.209 36.334 584.203C38.124 584.209 39.2095 583.759 39.2158 582.972C39.2095 582.178 38.124 581.728 36.334 581.715C34.5249 581.728 33.4395 582.178 33.4521 582.972ZM53.2617 582.743V583.581H42.9277V582.743H45.4922V579.703C44.5273 579.201 43.9434 578.389 43.9434 577.36C43.9434 575.615 45.6572 574.466 48.0693 574.453C50.4814 574.466 52.1953 575.615 52.1953 577.36C52.1953 578.37 51.6304 579.169 50.6973 579.671V582.743H53.2617ZM44.9082 577.36C44.9019 578.624 46.2158 579.468 48.0693 579.468C49.9038 579.468 51.2305 578.624 51.2305 577.36C51.2305 576.097 49.9038 575.266 48.0693 575.278C46.2158 575.266 44.9019 576.097 44.9082 577.36ZM46.4697 582.743H49.6943V580.058C49.2056 580.185 48.6597 580.255 48.0693 580.255C47.4917 580.255 46.9521 580.191 46.4697 580.064V582.743ZM58.5098 576.167C58.5161 577.57 59.7285 578.839 61.3916 579.328L60.9092 580.103C59.6016 579.709 58.5605 578.858 58.0464 577.748C57.564 578.979 56.5293 579.95 55.1836 580.395L54.7012 579.633C56.3579 579.074 57.5259 577.697 57.5322 576.167V575.926H54.9805V575.126H57.5322V573.691H58.5352V575.126H61.0615V575.926H58.5098V576.167ZM56.4912 582.946C56.4849 581.632 57.9258 580.883 60.2744 580.89C62.6167 580.883 64.0576 581.632 64.0576 582.946C64.0576 584.254 62.6167 585.003 60.2744 585.003C57.9258 585.003 56.4849 584.254 56.4912 582.946ZM57.4814 582.946C57.4751 583.733 58.5415 584.216 60.2744 584.216C62.0073 584.216 63.0674 583.733 63.0674 582.946C63.0674 582.14 62.0073 581.677 60.2744 581.664C58.5415 581.677 57.4751 582.14 57.4814 582.946ZM60.7061 577.805V576.979H63.0166V573.742H64.0195V580.585H63.0166V577.805H60.7061ZM70.4102 576.776C70.4038 578.839 71.8066 580.909 73.4697 581.664L72.8604 582.451C71.5718 581.829 70.4609 580.49 69.9214 578.884C69.4009 580.585 68.29 582.013 66.9697 582.68L66.335 581.842C68.0171 581.074 69.4072 578.916 69.4199 576.776V574.72H70.4102V576.776ZM74.7012 585.054V573.742H75.7041V585.054H74.7012ZM85.7432 576.167C85.7495 577.57 86.9619 578.839 88.625 579.328L88.1426 580.103C86.835 579.709 85.7939 578.858 85.2798 577.748C84.7974 578.979 83.7627 579.95 82.417 580.395L81.9346 579.633C83.5913 579.074 84.7593 577.697 84.7656 576.167V575.926H82.2139V575.126H84.7656V573.691H85.7686V575.126H88.2949V575.926H85.7432V576.167ZM83.7246 582.946C83.7183 581.632 85.1592 580.883 87.5078 580.89C89.8501 580.883 91.291 581.632 91.291 582.946C91.291 584.254 89.8501 585.003 87.5078 585.003C85.1592 585.003 83.7183 584.254 83.7246 582.946ZM84.7148 582.946C84.7085 583.733 85.7749 584.216 87.5078 584.216C89.2407 584.216 90.3008 583.733 90.3008 582.946C90.3008 582.14 89.2407 581.677 87.5078 581.664C85.7749 581.677 84.7085 582.14 84.7148 582.946ZM87.9395 577.805V576.979H90.25V573.742H91.2529V580.585H90.25V577.805H87.9395ZM102.557 574.479V575.469C102.557 576.535 102.557 577.709 102.233 579.328H103.915V580.153H99.2559V585.054H98.2529V580.153H93.6318V579.328H101.224C101.566 577.703 101.566 576.522 101.566 575.469V575.304H94.9268V574.479H102.557ZM118.778 573.742V585.028H117.826V579.112H116.163V584.444H115.249V573.996H116.163V578.287H117.826V573.742H118.778ZM109.549 582.235V575.126H113.776V575.951H110.539V581.385C112.094 581.378 113.167 581.321 114.424 581.067L114.513 581.905C113.154 582.185 112.005 582.229 110.272 582.235H109.549ZM124.636 575.57C124.636 577.106 125.804 578.516 127.441 579.074L126.896 579.861C125.651 579.404 124.667 578.471 124.172 577.291C123.69 578.63 122.681 579.665 121.36 580.179L120.827 579.379C122.516 578.75 123.652 577.24 123.658 575.494V574.326H124.636V575.57ZM122.325 582.946C122.332 581.658 123.747 580.902 126.07 580.902C128.387 580.902 129.79 581.658 129.79 582.946C129.79 584.26 128.387 585.003 126.07 585.003C123.747 585.003 122.332 584.26 122.325 582.946ZM123.328 582.946C123.315 583.746 124.369 584.209 126.07 584.216C127.778 584.209 128.819 583.746 128.825 582.946C128.819 582.178 127.778 581.702 126.07 581.702C124.369 581.702 123.315 582.178 123.328 582.946ZM128.698 580.61V573.742H129.688V576.688H131.39V577.525H129.688V580.61H128.698ZM136.422 577.208C136.409 579.017 137.717 581.01 139.354 581.791L138.783 582.578C137.514 581.956 136.441 580.623 135.933 579.093C135.413 580.75 134.283 582.21 133.02 582.857L132.41 582.07C134.035 581.277 135.432 579.131 135.444 577.208V575.735H132.816V574.91H138.961V575.735H136.422V577.208ZM140.345 585.028V573.742H141.335V578.312H143.227V579.163H141.335V585.028H140.345ZM145.034 580.496C145.047 578.103 145.694 576.11 146.862 574.415H147.827C146.97 575.666 146.17 578.236 146.164 580.496C146.17 582.762 146.97 585.327 147.827 586.59H146.862C145.694 584.889 145.047 582.896 145.034 580.496ZM158.598 573.742V585.028H157.595V573.742H158.598ZM149.254 581.385C149.743 581.385 150.27 581.378 150.815 581.372V575.799H149.546V574.974H155.995V575.799H154.713V581.226C155.348 581.182 155.976 581.125 156.579 581.055L156.643 581.804C154.18 582.185 151.457 582.223 149.368 582.235L149.254 581.385ZM151.793 581.353C152.428 581.34 153.082 581.315 153.735 581.283V575.799H151.793V581.353ZM171.336 582.756V583.581H161.002V582.756H165.648V580.318H162.221V574.542H163.224V576.586H169.089V574.542H170.066V580.318H166.626V582.756H171.336ZM163.224 579.506H169.089V577.398H163.224V579.506ZM182.094 573.742V580.585H181.091V578.008H179.174V577.183H181.091V573.742H182.094ZM172.75 575.748V574.936H175.556V573.641H176.533V574.936H179.339V575.748H172.75ZM173.423 578.338C173.423 577.157 174.508 576.332 176.038 576.332C177.574 576.332 178.653 577.157 178.666 578.338C178.653 579.557 177.574 580.356 176.038 580.356C174.508 580.356 173.423 579.557 173.423 578.338ZM174.375 578.338C174.375 579.087 175.054 579.582 176.038 579.595C177.022 579.582 177.701 579.087 177.701 578.338C177.701 577.614 177.022 577.106 176.038 577.106C175.054 577.106 174.375 577.614 174.375 578.338ZM174.718 584.876V581.194H182.094V584.876H174.718ZM175.708 584.063H181.116V581.994H175.708V584.063ZM188.294 577.208C188.281 579.017 189.589 581.01 191.227 581.791L190.655 582.578C189.386 581.956 188.313 580.623 187.805 579.093C187.285 580.75 186.155 582.21 184.892 582.857L184.282 582.07C185.907 581.277 187.304 579.131 187.316 577.208V575.735H184.688V574.91H190.833V575.735H188.294V577.208ZM192.217 585.028V573.742H193.207V578.312H195.099V579.163H193.207V585.028H192.217ZM199.026 580.496C199.014 582.896 198.366 584.889 197.198 586.59H196.233C197.09 585.327 197.89 582.762 197.896 580.496C197.89 578.236 197.09 575.666 196.233 574.415H197.198C198.366 576.11 199.014 578.103 199.026 580.496ZM210.812 573.742V585.028H209.848V573.742H210.812ZM201.278 578.617C201.285 576.218 202.237 574.701 203.703 574.694C205.074 574.701 206.001 576.021 206.128 578.147H207.588V573.983H208.54V584.457H207.588V578.973H206.134C206.039 581.169 205.093 582.546 203.703 582.54C202.237 582.546 201.285 581.017 201.278 578.617ZM202.218 578.617C202.205 580.445 202.789 581.601 203.703 581.588C204.624 581.601 205.208 580.445 205.201 578.617C205.208 576.783 204.624 575.634 203.703 575.634C202.789 575.634 202.205 576.783 202.218 578.617ZM222.535 573.742V585.028H221.583V573.742H222.535ZM212.887 581.867C215.337 580.414 216.568 578.376 216.759 576.015H213.369V575.189H217.749C217.749 576.3 217.571 577.373 217.184 578.376H219.209V574.047H220.161V584.457H219.209V579.188H216.816C216.137 580.502 215.045 581.664 213.471 582.591L212.887 581.867ZM232.219 576.167C232.225 577.57 233.438 578.839 235.101 579.328L234.618 580.103C233.311 579.709 232.27 578.858 231.755 577.748C231.273 578.979 230.238 579.95 228.893 580.395L228.41 579.633C230.067 579.074 231.235 577.697 231.241 576.167V575.926H228.689V575.126H231.241V573.691H232.244V575.126H234.771V575.926H232.219V576.167ZM230.2 582.946C230.194 581.632 231.635 580.883 233.983 580.89C236.326 580.883 237.767 581.632 237.767 582.946C237.767 584.254 236.326 585.003 233.983 585.003C231.635 585.003 230.194 584.254 230.2 582.946ZM231.19 582.946C231.184 583.733 232.25 584.216 233.983 584.216C235.716 584.216 236.776 583.733 236.776 582.946C236.776 582.14 235.716 581.677 233.983 581.664C232.25 581.677 231.184 582.14 231.19 582.946ZM234.415 577.805V576.979H236.726V573.742H237.729V580.585H236.726V577.805H234.415ZM249.032 574.479V575.469C249.032 576.535 249.032 577.709 248.708 579.328H250.391V580.153H245.731V585.054H244.729V580.153H240.107V579.328H247.699C248.042 577.703 248.042 576.522 248.042 575.469V575.304H241.402V574.479H249.032ZM265.901 579.328V580.128H255.605V579.328H260.265V578.008H256.913V574.275H264.619V575.075H257.891V577.195H264.695V578.008H261.229V579.328H265.901ZM256.85 582.984C256.843 581.696 258.31 580.959 260.747 580.953C263.166 580.959 264.619 581.696 264.632 582.984C264.619 584.286 263.166 585.016 260.747 585.028C258.31 585.016 256.843 584.286 256.85 582.984ZM257.865 582.984C257.853 583.778 258.938 584.235 260.747 584.229C262.537 584.235 263.623 583.778 263.629 582.984C263.623 582.204 262.537 581.74 260.747 581.74C258.938 581.74 257.853 582.204 257.865 582.984ZM271.035 574.567C272.806 574.574 274.063 575.653 274.069 577.221C274.063 578.795 272.806 579.868 271.035 579.874C269.251 579.868 267.982 578.795 267.988 577.221C267.982 575.653 269.251 574.574 271.035 574.567ZM267.404 581.715C269.486 581.721 272.362 581.702 274.856 581.334L274.933 582.07C272.349 582.553 269.575 582.565 267.544 582.565L267.404 581.715ZM268.966 577.221C268.959 578.274 269.829 578.998 271.035 578.998C272.229 578.998 273.098 578.274 273.092 577.221C273.098 576.173 272.229 575.443 271.035 575.443C269.829 575.443 268.959 576.173 268.966 577.221ZM275.605 585.054V573.742H276.596V585.054H275.605ZM293.173 582.743V583.581H282.839V582.743H285.403V579.703C284.438 579.201 283.854 578.389 283.854 577.36C283.854 575.615 285.568 574.466 287.98 574.453C290.393 574.466 292.106 575.615 292.106 577.36C292.106 578.37 291.542 579.169 290.608 579.671V582.743H293.173ZM284.819 577.36C284.813 578.624 286.127 579.468 287.98 579.468C289.815 579.468 291.142 578.624 291.142 577.36C291.142 576.097 289.815 575.266 287.98 575.278C286.127 575.266 284.813 576.097 284.819 577.36ZM286.381 582.743H289.605V580.058C289.117 580.185 288.571 580.255 287.98 580.255C287.403 580.255 286.863 580.191 286.381 580.064V582.743ZM298.421 576.167C298.427 577.57 299.64 578.839 301.303 579.328L300.82 580.103C299.513 579.709 298.472 578.858 297.958 577.748C297.475 578.979 296.44 579.95 295.095 580.395L294.612 579.633C296.269 579.074 297.437 577.697 297.443 576.167V575.926H294.892V575.126H297.443V573.691H298.446V575.126H300.973V575.926H298.421V576.167ZM296.402 582.946C296.396 581.632 297.837 580.883 300.186 580.89C302.528 580.883 303.969 581.632 303.969 582.946C303.969 584.254 302.528 585.003 300.186 585.003C297.837 585.003 296.396 584.254 296.402 582.946ZM297.393 582.946C297.386 583.733 298.453 584.216 300.186 584.216C301.918 584.216 302.979 583.733 302.979 582.946C302.979 582.14 301.918 581.677 300.186 581.664C298.453 581.677 297.386 582.14 297.393 582.946ZM300.617 577.805V576.979H302.928V573.742H303.931V580.585H302.928V577.805H300.617ZM311.451 573.945C313.958 573.945 315.431 574.637 315.438 575.888C315.431 577.17 313.958 577.862 311.451 577.868C308.931 577.862 307.452 577.17 307.452 575.888C307.452 574.637 308.931 573.945 311.451 573.945ZM306.31 579.442V578.63H316.593V579.442H306.31ZM307.554 581.182V580.42H315.272V582.946H308.569V584.114H315.615V584.901H307.579V582.21H314.295V581.182H307.554ZM308.493 575.888C308.48 576.675 309.579 577.106 311.451 577.106C313.324 577.106 314.416 576.675 314.422 575.888C314.416 575.145 313.324 574.701 311.451 574.694C309.579 574.701 308.48 575.145 308.493 575.888ZM325.527 574.301C327.216 574.288 328.428 575.221 328.422 576.599C328.428 577.976 327.216 578.916 325.527 578.909C323.839 578.916 322.633 577.976 322.633 576.599C322.633 575.221 323.839 574.288 325.527 574.301ZM321.782 579.874C323.902 579.88 326.803 579.836 329.311 579.468L329.374 580.217C328.295 580.414 327.178 580.534 326.086 580.604V584.686H325.096V580.661C323.947 580.712 322.861 580.718 321.922 580.725L321.782 579.874ZM323.61 576.599C323.598 577.481 324.404 578.09 325.527 578.084C326.664 578.09 327.476 577.481 327.47 576.599C327.476 575.723 326.664 575.101 325.527 575.113C324.404 575.101 323.598 575.723 323.61 576.599ZM330.136 585.041V573.755H331.113V585.041H330.136ZM342.366 573.755V577.475H344.067V578.312H342.366V582.21H341.376V573.755H342.366ZM333.568 575.951V575.139H336.438V573.755H337.428V575.139H340.297V575.951H333.568ZM334.216 578.681C334.209 577.398 335.301 576.573 336.933 576.573C338.545 576.573 339.637 577.398 339.649 578.681C339.637 579.95 338.545 580.769 336.933 580.763C335.301 580.769 334.209 579.95 334.216 578.681ZM335.168 578.681C335.162 579.474 335.866 579.988 336.933 579.976C337.986 579.988 338.697 579.474 338.71 578.681C338.697 577.875 337.986 577.354 336.933 577.36C335.866 577.354 335.162 577.875 335.168 578.681ZM335.308 584.787V581.537H336.285V583.949H342.887V584.787H335.308ZM29.7783 597.519V598.344H25.1826V600.654H24.1924V598.344H19.4443V597.519H29.7783ZM20.7646 602.787V599.537H21.7676V601.949H28.623V602.787H20.7646ZM20.79 596.224V592.301H28.4326V596.224H20.79ZM21.7676 595.424H27.4424V593.088H21.7676V595.424ZM35.0137 595.208C35.001 597.017 36.3086 599.01 37.9463 599.791L37.375 600.578C36.1055 599.956 35.0327 598.623 34.5249 597.093C34.0044 598.75 32.8745 600.21 31.6113 600.857L31.002 600.07C32.627 599.277 34.0234 597.131 34.0361 595.208V593.735H31.4082V592.91H37.5527V593.735H35.0137V595.208ZM38.9365 603.028V591.742H39.9268V596.312H41.8184V597.163H39.9268V603.028H38.9365ZM43.626 598.496C43.6387 596.103 44.2861 594.11 45.4541 592.415H46.4189C45.562 593.666 44.7622 596.236 44.7559 598.496C44.7622 600.762 45.562 603.327 46.4189 604.59H45.4541C44.2861 602.889 43.6387 600.896 43.626 598.496ZM56.6816 591.742V594.192H58.3828V595.03H56.6816V597.493H55.6914V591.742H56.6816ZM48.0742 594.662C48.0679 593.183 49.312 592.167 51.0068 592.161C52.708 592.167 53.9395 593.183 53.9395 594.662C53.9395 596.147 52.708 597.169 51.0068 597.176C49.312 597.169 48.0679 596.147 48.0742 594.662ZM49.0518 594.662C49.0454 595.652 49.877 596.363 51.0068 596.363C52.1304 596.363 52.9683 595.652 52.9619 594.662C52.9683 593.685 52.1304 592.986 51.0068 592.999C49.877 592.986 49.0454 593.685 49.0518 594.662ZM49.4834 598.826V598.026H56.6816V600.781H50.4863V602.076H57.1006V602.876H49.5088V600.02H55.6914V598.826H49.4834ZM68.9121 591.755V598.445H67.9219V591.755H68.9121ZM60.165 593.24V592.44H65.3193V595.5H61.1553V597.062C63.1738 597.074 64.6782 597.011 66.5127 596.706L66.627 597.544C64.729 597.836 63.1865 597.899 61.1045 597.899H60.1904V594.713H64.3291V593.24H60.165ZM61.5742 602.876V599.055H68.9121V602.876H61.5742ZM62.5518 602.063H67.9346V599.867H62.5518V602.063ZM81.6123 597.836V598.648H71.3164V597.836H75.9629V596.63H72.6875V592.047H80.3301V592.847H73.6904V593.926H80.0254V594.7H73.6904V595.855H80.3936V596.63H76.9531V597.836H81.6123ZM72.4717 600.464V599.651H80.2793V603.028H79.2637V600.464H72.4717ZM85.8828 598.496C85.8701 600.896 85.2227 602.889 84.0547 604.59H83.0898C83.9468 603.327 84.7466 600.762 84.7529 598.496C84.7466 596.236 83.9468 593.666 83.0898 592.415H84.0547C85.2227 594.11 85.8701 596.103 85.8828 598.496ZM97.3008 591.742V603.054H96.2979V591.742H97.3008ZM88.4141 596.554C88.4204 594.154 89.6138 592.625 91.2959 592.618C92.9717 592.625 94.1841 594.154 94.1777 596.554C94.1841 598.959 92.9717 600.483 91.2959 600.477C89.6138 600.483 88.4204 598.959 88.4141 596.554ZM89.3789 596.554C89.3789 598.388 90.166 599.594 91.2959 599.588C92.4321 599.594 93.2129 598.388 93.2129 596.554C93.2129 594.719 92.4321 593.513 91.2959 593.507C90.166 593.513 89.3789 594.719 89.3789 596.554ZM104.953 592.225V593.85H108.241V592.225H109.231V597.138H103.976V592.225H104.953ZM104.953 596.325H108.241V594.624H104.953V596.325ZM105.118 598.915V598.115H112.316V600.845H106.121V602.089H112.735V602.901H105.144V600.083H111.326V598.915H105.118ZM111.326 597.582V591.742H112.316V594.192H114.018V595.03H112.316V597.582H111.326ZM120.853 595.69V597.354H125.512V598.166H115.229V597.354H119.875V595.69H120.853ZM115.851 595.487C117.844 595.214 119.862 593.958 119.862 592.453V591.92H120.865V592.453C120.865 593.958 122.896 595.214 124.89 595.487L124.483 596.287C122.776 595.989 121.075 595.081 120.37 593.78C119.659 595.094 117.964 595.989 116.231 596.287L115.851 595.487ZM116.473 601.061C116.466 599.81 117.92 599.112 120.37 599.105C122.795 599.112 124.242 599.81 124.255 601.061C124.242 602.317 122.795 603.003 120.37 603.003C117.92 603.003 116.466 602.317 116.473 601.061ZM117.488 601.061C117.476 601.803 118.542 602.235 120.37 602.229C122.179 602.235 123.246 601.803 123.252 601.061C123.246 600.312 122.179 599.893 120.37 599.893C118.542 599.893 117.476 600.312 117.488 601.061ZM136.282 591.755V598.242H135.279V591.755H136.282ZM127.002 597.138C127.96 597.138 129.078 597.138 130.239 597.1V595.881H128.03V592.313H133.388V593.139H129.033V595.081H133.489V595.881H131.242V597.055C132.29 597.004 133.35 596.922 134.34 596.782L134.403 597.506C131.928 597.925 129.192 597.963 127.154 597.963L127.002 597.138ZM128.843 602.876V598.75H129.833V599.956H135.305V598.75H136.282V602.876H128.843ZM129.833 602.063H135.305V600.73H129.833V602.063ZM148.005 591.742V603.028H147.015V591.742H148.005ZM139.436 600.121V592.859H140.413V599.258C142.14 599.245 143.917 599.112 145.809 598.712L145.948 599.562C143.942 599.981 142.159 600.121 140.35 600.121H139.436ZM159.169 591.742V596.211H161.061V597.049H159.169V603.054H158.179V591.742H159.169ZM150.93 600.223V592.847H156.198V593.672H151.92V599.385C153.964 599.378 155.405 599.29 157.087 598.979L157.214 599.842C155.443 600.159 153.964 600.223 151.818 600.223H150.93ZM163.363 602.076C162.919 602.07 162.538 601.702 162.551 601.251C162.538 600.807 162.919 600.438 163.363 600.438C163.814 600.438 164.182 600.807 164.176 601.251C164.182 601.702 163.814 602.07 163.363 602.076Z" fill="#999999"/>
<path d="M10 102C10 93.1634 17.1634 86 26 86H329C337.837 86 345 93.1634 345 102V163H10V102Z" fill="#F4F4F4"/>
<path d="M44.1436 105.999V106.812H34.9902V105.999H39.1035V104.679H40.0811V105.999H44.1436ZM34.457 112.778V111.953H44.791V112.778H42.0615V116.054H41.0713V112.778H38.1514V116.054H37.1484V112.778H34.457ZM35.917 109.325C35.9043 108.125 37.2881 107.459 39.5986 107.459C41.8901 107.459 43.2739 108.125 43.2803 109.325C43.2739 110.519 41.8901 111.191 39.5986 111.191C37.2881 111.191 35.9043 110.519 35.917 109.325ZM36.9453 109.325C36.9326 110.017 37.9165 110.423 39.5986 110.417C41.2617 110.423 42.2393 110.017 42.252 109.325C42.2393 108.627 41.2617 108.233 39.5986 108.221C37.9165 108.233 36.9326 108.627 36.9453 109.325ZM55.3408 104.742V116.028H54.3887V110.112H52.7256V115.444H51.8115V104.996H52.7256V109.287H54.3887V104.742H55.3408ZM46.1113 113.235V106.126H50.3389V106.951H47.1016V112.385C48.6567 112.378 49.7295 112.321 50.9863 112.067L51.0752 112.905C49.7168 113.185 48.5679 113.229 46.835 113.235H46.1113ZM66.2334 105.263V106.088H64.4941V108.678H66.1953V109.478H62.5645V110.861H67.2109V111.674H56.9277V110.861H61.5742V109.478H57.9307V108.678H59.6318V106.088H57.8926V105.263H66.2334ZM58.2607 115.787V112.664H59.2637V114.949H66.0684V115.787H58.2607ZM60.6221 108.678H63.5039V106.088H60.6221V108.678ZM77.5195 104.755V113.108H76.5166V108.767H73.8506V111.179H68.7344V105.504H69.7246V107.51H72.873V105.504H73.8506V107.929H76.5166V104.755H77.5195ZM69.7246 110.354H72.873V108.297H69.7246V110.354ZM70.2197 115.787V112.283H71.2227V114.949H77.7734V115.787H70.2197ZM89.1484 106.418V107.243H79.9062V106.418H84.0449V104.933H85.0225V106.418H89.1484ZM79.3984 114.708V113.883H84.0449V112.296C82.0327 112.188 80.8203 111.407 80.833 110.138C80.8203 108.798 82.2358 108.005 84.54 108.018C86.8125 108.005 88.2534 108.798 88.2471 110.138C88.2534 111.407 87.0156 112.188 85.0225 112.296V113.883H89.7324V114.708H79.3984ZM81.8359 110.138C81.8232 110.995 82.8579 111.49 84.54 111.496C86.2031 111.49 87.2378 110.995 87.2314 110.138C87.2378 109.3 86.2031 108.805 84.54 108.805C82.8579 108.805 81.8232 109.3 81.8359 110.138Z" fill="#888888"/>
<path d="M39.5547 141.176C36.6104 141.176 34.8789 138.803 34.8789 134.637C34.8789 130.497 36.6279 128.098 39.5547 128.098C42.4727 128.098 44.2217 130.497 44.2305 134.637C44.2217 138.803 42.499 141.176 39.5547 141.176ZM36.8125 134.637C36.8037 137.81 37.832 139.506 39.5547 139.506C41.2686 139.506 42.2969 137.81 42.2969 134.637C42.2969 131.473 41.2598 129.741 39.5547 129.732C37.8408 129.741 36.8125 131.473 36.8125 134.637ZM51.0684 128.273V141H49.1172V130.207H49.0469L46.0059 132.193V130.348L49.1699 128.273H51.0684ZM58.7324 141.176C55.7881 141.176 54.0566 138.803 54.0566 134.637C54.0566 130.497 55.8057 128.098 58.7324 128.098C61.6504 128.098 63.3994 130.497 63.4082 134.637C63.3994 138.803 61.6768 141.176 58.7324 141.176ZM55.9902 134.637C55.9814 137.81 57.0098 139.506 58.7324 139.506C60.4463 139.506 61.4746 137.81 61.4746 134.637C61.4746 131.473 60.4375 129.741 58.7324 129.732C57.0186 129.741 55.9902 131.473 55.9902 134.637ZM75.4492 133.828V135.445H69.8066V133.828H75.4492ZM86.9277 128.273V141H84.9766V130.207H84.9062L81.8652 132.193V130.348L85.0293 128.273H86.9277ZM90.1621 141V139.594L94.5742 135.146C95.9717 133.696 96.666 132.888 96.666 131.771C96.666 130.515 95.6465 129.715 94.3105 129.715C92.8955 129.715 91.999 130.611 91.9902 131.965H90.1621C90.1445 129.636 91.9199 128.098 94.3457 128.098C96.7979 128.098 98.4941 129.653 98.5117 131.719C98.4941 133.143 97.8262 134.276 95.4355 136.623L92.8516 139.242V139.348H98.7227V141H90.1621ZM105.385 141.176C102.748 141.176 100.876 139.761 100.797 137.678H102.766C102.836 138.794 103.943 139.506 105.367 139.506C106.905 139.506 108.021 138.671 108.021 137.432C108.021 136.175 106.976 135.278 105.156 135.27H104.066V133.688H105.156C106.606 133.696 107.617 132.888 107.617 131.666C107.617 130.506 106.747 129.715 105.402 129.715C104.128 129.715 102.985 130.427 102.941 131.578H101.078C101.131 129.504 103.047 128.098 105.42 128.098C107.925 128.098 109.498 129.68 109.48 131.561C109.498 133.011 108.602 134.048 107.23 134.391V134.479C108.971 134.725 109.981 135.894 109.973 137.502C109.981 139.62 108.021 141.176 105.385 141.176ZM111.818 138.521V136.957L117.443 128.273H119.834V136.887H121.574V138.521H119.834V141H118.006V138.521H111.818ZM113.857 136.887H118.006V130.576H117.865L113.857 136.781V136.887ZM129.168 133.828V135.445H123.525V133.828H129.168ZM140.137 141.176C137.729 141.176 135.918 139.708 135.83 137.678H137.711C137.816 138.759 138.854 139.55 140.137 139.559C141.684 139.55 142.791 138.434 142.791 136.922C142.791 135.375 141.648 134.25 140.049 134.232C139.029 134.232 138.247 134.575 137.816 135.357H135.988L136.814 128.273H144.021V129.926H138.414L137.992 133.494H138.115C138.643 132.984 139.539 132.642 140.506 132.633C142.905 132.642 144.672 134.417 144.672 136.869C144.672 139.374 142.791 141.176 140.137 141.176ZM151.334 141.176C148.979 141.158 146.518 139.761 146.518 135.059C146.526 130.629 148.442 128.098 151.492 128.098C153.839 128.098 155.465 129.557 155.764 131.578H153.848C153.593 130.541 152.775 129.794 151.492 129.785C149.523 129.794 148.381 131.499 148.381 134.373H148.521C149.216 133.292 150.411 132.659 151.791 132.65C154.059 132.659 155.887 134.399 155.887 136.834C155.887 139.304 154.067 141.193 151.334 141.176ZM148.609 136.887C148.618 138.302 149.752 139.55 151.316 139.559C152.854 139.55 154.006 138.354 154.006 136.869C154.006 135.41 152.898 134.224 151.369 134.232C149.813 134.224 148.627 135.472 148.609 136.887ZM158.383 141L164.061 130.031V129.926H157.504V128.273H166.064V129.996L160.404 141H158.383ZM172.217 141.176C169.448 141.176 167.523 139.682 167.541 137.607C167.523 135.973 168.692 134.637 170.195 134.408V134.338C168.886 134.039 168.016 132.879 168.016 131.49C168.016 129.53 169.782 128.098 172.217 128.098C174.616 128.098 176.392 129.53 176.4 131.49C176.392 132.879 175.504 134.039 174.221 134.338V134.408C175.706 134.637 176.884 135.973 176.893 137.607C176.884 139.682 174.941 141.176 172.217 141.176ZM169.51 137.467C169.483 138.715 170.538 139.576 172.217 139.576C173.869 139.576 174.924 138.715 174.924 137.467C174.924 136.157 173.781 135.199 172.217 135.199C170.635 135.199 169.483 136.157 169.51 137.467ZM169.896 131.666C169.905 132.853 170.854 133.679 172.217 133.67C173.544 133.679 174.511 132.861 174.502 131.666C174.511 130.479 173.579 129.671 172.217 129.68C170.819 129.671 169.905 130.479 169.896 131.666Z" fill="black"/>
<rect width="335" height="77" transform="translate(10 163)" fill="#F4F4F4"/>
<path d="M40.1572 183.342C40.1509 184.853 42.1631 186.135 44.1309 186.427L43.7627 187.214C42.0044 186.916 40.2842 185.976 39.5986 184.618C38.9131 185.976 37.1929 186.916 35.46 187.214L35.0664 186.427C37.0278 186.135 39.0337 184.853 39.04 183.342V183.266H35.4219V182.453H43.7627V183.266H40.1572V183.342ZM34.457 189.004V188.179H44.7402V189.004H40.0684V193.028H39.0908V189.004H34.457ZM51.583 182.732V187.963H46.2891V182.732H51.583ZM47.2666 187.163H50.6055V183.558H47.2666V187.163ZM47.7236 192.647V189.08H48.7139V191.822H55.3662V192.647H47.7236ZM54.0205 189.867V181.755H55.0107V189.867H54.0205ZM67.2236 187.112V187.95H56.9277V187.112H67.2236ZM58.1719 190.972C58.1655 189.677 59.6318 188.94 62.0693 188.94C64.4878 188.94 65.9414 189.677 65.9541 190.972C65.9414 192.279 64.4878 193.003 62.0693 193.003C59.6318 193.003 58.1655 192.279 58.1719 190.972ZM58.2354 186.033V182.199H65.9414V183.037H59.2129V185.221H66.0176V186.033H58.2354ZM59.1875 190.972C59.1748 191.765 60.2603 192.216 62.0693 192.216C63.8594 192.216 64.9448 191.765 64.9512 190.972C64.9448 190.185 63.8594 189.728 62.0693 189.715C60.2603 189.728 59.1748 190.185 59.1875 190.972ZM78.4844 187.963V188.788H68.1504V187.963H72.8223V186.77H69.4961V184.015H76.1484V182.847H69.458V182.034H77.1514V184.764H70.4863V185.97H77.3926V186.77H73.7998V187.963H78.4844ZM69.3057 190.464V189.651H77.2148V192.927H76.2119V190.464H69.3057ZM88.7549 181.755V190.108H87.752V185.767H85.0859V188.179H79.9697V182.504H80.96V184.51H84.1084V182.504H85.0859V184.929H87.752V181.755H88.7549ZM80.96 187.354H84.1084V185.297H80.96V187.354ZM81.4551 192.787V189.283H82.458V191.949H89.0088V192.787H81.4551ZM100.384 183.418V184.243H91.1416V183.418H95.2803V181.933H96.2578V183.418H100.384ZM90.6338 191.708V190.883H95.2803V189.296C93.2681 189.188 92.0557 188.407 92.0684 187.138C92.0557 185.798 93.4712 185.005 95.7754 185.018C98.0479 185.005 99.4888 185.798 99.4824 187.138C99.4888 188.407 98.251 189.188 96.2578 189.296V190.883H100.968V191.708H90.6338ZM93.0713 187.138C93.0586 187.995 94.0933 188.49 95.7754 188.496C97.4385 188.49 98.4731 187.995 98.4668 187.138C98.4731 186.3 97.4385 185.805 95.7754 185.805C94.0933 185.805 93.0586 186.3 93.0713 187.138Z" fill="#888888"/>
<path d="M35.5645 218L41.2422 207.031V206.926H34.6855V205.273H43.2461V206.996L37.5859 218H35.5645ZM49.3457 218.176C46.4014 218.176 44.6699 215.803 44.6699 211.637C44.6699 207.497 46.4189 205.098 49.3457 205.098C52.2637 205.098 54.0127 207.497 54.0215 211.637C54.0127 215.803 52.29 218.176 49.3457 218.176ZM46.6035 211.637C46.5947 214.81 47.623 216.506 49.3457 216.506C51.0596 216.506 52.0879 214.81 52.0879 211.637C52.0879 208.473 51.0508 206.741 49.3457 206.732C47.6318 206.741 46.6035 208.473 46.6035 211.637ZM60.4551 218.176C57.5107 218.176 55.7793 215.803 55.7793 211.637C55.7793 207.497 57.5283 205.098 60.4551 205.098C63.373 205.098 65.1221 207.497 65.1309 211.637C65.1221 215.803 63.3994 218.176 60.4551 218.176ZM57.7129 211.637C57.7041 214.81 58.7324 216.506 60.4551 216.506C62.1689 216.506 63.1973 214.81 63.1973 211.637C63.1973 208.473 62.1602 206.741 60.4551 206.732C58.7412 206.741 57.7129 208.473 57.7129 211.637ZM71.9688 205.273V218H70.0176V207.207H69.9473L66.9062 209.193V207.348L70.0703 205.273H71.9688ZM79.6328 218.176C76.6885 218.176 74.957 215.803 74.957 211.637C74.957 207.497 76.7061 205.098 79.6328 205.098C82.5508 205.098 84.2998 207.497 84.3086 211.637C84.2998 215.803 82.5771 218.176 79.6328 218.176ZM76.8906 211.637C76.8818 214.81 77.9102 216.506 79.6328 216.506C81.3467 216.506 82.375 214.81 82.375 211.637C82.375 208.473 81.3379 206.741 79.6328 206.732C77.9189 206.741 76.8906 208.473 76.8906 211.637ZM91.1465 205.273V218H89.1953V207.207H89.125L86.084 209.193V207.348L89.248 205.273H91.1465ZM104.418 210.828V212.445H98.7754V210.828H104.418ZM115.896 205.273V218H113.945V207.207H113.875L110.834 209.193V207.348L113.998 205.273H115.896Z" fill="black"/>
<circle cx="126" cy="211.5" r="5" fill="black"/>
<circle cx="138" cy="211.5" r="5" fill="black"/>
<circle cx="150" cy="211.5" r="5" fill="black"/>
<circle cx="162" cy="211.5" r="5" fill="black"/>
<circle cx="174" cy="211.5" r="5" fill="black"/>
<circle cx="186" cy="211.5" r="5" fill="black"/>
<rect x="10" y="240" width="335" height="1" fill="#E8E8E8"/>
<path d="M10 241H345V302C345 310.837 337.837 318 329 318H26C17.1634 318 10 310.837 10 302V241Z" fill="#F4F4F4"/>
<path d="M43.7627 259.742V271.054H42.7598V259.742H43.7627ZM34.876 264.554C34.8823 262.154 36.0757 260.625 37.7578 260.618C39.4336 260.625 40.646 262.154 40.6396 264.554C40.646 266.959 39.4336 268.483 37.7578 268.477C36.0757 268.483 34.8823 266.959 34.876 264.554ZM35.8408 264.554C35.8408 266.388 36.6279 267.594 37.7578 267.588C38.894 267.594 39.6748 266.388 39.6748 264.554C39.6748 262.719 38.894 261.513 37.7578 261.507C36.6279 261.513 35.8408 262.719 35.8408 264.554ZM56.0137 265.569V266.395H45.6797V265.569H56.0137ZM46.9873 260.821V260.021H54.6807V262.688H48.0156V263.817H54.9219V264.592H47.0254V261.938H53.6777V260.821H46.9873ZM47.0889 270.876V267.423H54.6807V270.876H47.0889ZM48.0664 270.063H53.7031V268.235H48.0664V270.063Z" fill="#888888"/>
<path d="M42.9121 282.729C42.9033 286.763 40.0557 289.602 35.3887 290.832L34.7207 289.514C38.5088 288.529 40.8115 286.552 41.1191 284.064H35.5996V282.729H42.9121ZM37.3223 297.283V291.324H47.6406V297.283H37.3223ZM38.9746 295.947H46.0059V292.66H38.9746V295.947ZM45.9707 290.621V281.762H47.6406V290.621H45.9707ZM62.5117 281.762V286.824H64.7969V288.213H62.5117V293.539H60.8418V281.762H62.5117ZM50.1543 284.943V283.59H54.0215V281.744H55.6914V283.59H59.541V284.943H50.1543ZM51.0156 288.67C51.0068 286.868 52.5625 285.69 54.8477 285.699C57.1064 285.69 58.6621 286.868 58.6621 288.67C58.6621 290.454 57.1064 291.614 54.8477 291.623C52.5625 291.614 51.0068 290.454 51.0156 288.67ZM52.5273 297.16V292.607H54.1973V295.807H63.1797V297.16H52.5273ZM52.6328 288.67C52.6152 289.698 53.5117 290.331 54.8477 290.322C56.1836 290.331 57.0801 289.698 57.0977 288.67C57.0801 287.633 56.1836 286.991 54.8477 286.982C53.5117 286.991 52.6152 287.633 52.6328 288.67ZM78.0332 281.744V288.336H80.4062V289.742H78.0332V297.494H76.3633V281.744H78.0332ZM65.5 293.205C66.7393 293.205 68.1807 293.205 69.6836 293.161V291.562C67.9082 291.298 66.748 290.226 66.7656 288.705C66.748 286.93 68.2861 285.761 70.5273 285.752C72.7598 285.761 74.3154 286.93 74.3242 288.705C74.3154 290.226 73.1377 291.307 71.3535 291.562V293.1C72.751 293.029 74.1572 292.915 75.4668 292.73L75.5723 293.961C72.1621 294.567 68.4795 294.603 65.7637 294.594L65.5 293.205ZM65.7988 284.943V283.607H69.6836V281.779H71.3535V283.607H75.2383V284.943H65.7988ZM68.3301 288.705C68.3301 289.707 69.209 290.331 70.5273 290.322C71.8457 290.331 72.7158 289.707 72.7246 288.705C72.7158 287.694 71.8457 287.053 70.5273 287.053C69.209 287.053 68.3301 287.694 68.3301 288.705Z" fill="black"/>
<rect x="10" y="100" width="335" height="63" fill="#F4F4F4"/>
<g filter="url(#filter0_d_33_693)">
<rect x="10" y="86" width="335" height="77" rx="16" fill="white" shape-rendering="crispEdges"/>
<rect x="10.5" y="86.5" width="334" height="76" rx="15.5" stroke="black" shape-rendering="crispEdges"/>
<path d="M44.1436 105.999V106.812H34.9902V105.999H39.1035V104.679H40.0811V105.999H44.1436ZM34.457 112.778V111.953H44.791V112.778H42.0615V116.054H41.0713V112.778H38.1514V116.054H37.1484V112.778H34.457ZM35.917 109.325C35.9043 108.125 37.2881 107.459 39.5986 107.459C41.8901 107.459 43.2739 108.125 43.2803 109.325C43.2739 110.519 41.8901 111.191 39.5986 111.191C37.2881 111.191 35.9043 110.519 35.917 109.325ZM36.9453 109.325C36.9326 110.017 37.9165 110.423 39.5986 110.417C41.2617 110.423 42.2393 110.017 42.252 109.325C42.2393 108.627 41.2617 108.233 39.5986 108.221C37.9165 108.233 36.9326 108.627 36.9453 109.325ZM55.3408 104.742V116.028H54.3887V110.112H52.7256V115.444H51.8115V104.996H52.7256V109.287H54.3887V104.742H55.3408ZM46.1113 113.235V106.126H50.3389V106.951H47.1016V112.385C48.6567 112.378 49.7295 112.321 50.9863 112.067L51.0752 112.905C49.7168 113.185 48.5679 113.229 46.835 113.235H46.1113ZM66.2334 105.263V106.088H64.4941V108.678H66.1953V109.478H62.5645V110.861H67.2109V111.674H56.9277V110.861H61.5742V109.478H57.9307V108.678H59.6318V106.088H57.8926V105.263H66.2334ZM58.2607 115.787V112.664H59.2637V114.949H66.0684V115.787H58.2607ZM60.6221 108.678H63.5039V106.088H60.6221V108.678ZM77.5195 104.755V113.108H76.5166V108.767H73.8506V111.179H68.7344V105.504H69.7246V107.51H72.873V105.504H73.8506V107.929H76.5166V104.755H77.5195ZM69.7246 110.354H72.873V108.297H69.7246V110.354ZM70.2197 115.787V112.283H71.2227V114.949H77.7734V115.787H70.2197ZM89.1484 106.418V107.243H79.9062V106.418H84.0449V104.933H85.0225V106.418H89.1484ZM79.3984 114.708V113.883H84.0449V112.296C82.0327 112.188 80.8203 111.407 80.833 110.138C80.8203 108.798 82.2358 108.005 84.54 108.018C86.8125 108.005 88.2534 108.798 88.2471 110.138C88.2534 111.407 87.0156 112.188 85.0225 112.296V113.883H89.7324V114.708H79.3984ZM81.8359 110.138C81.8232 110.995 82.8579 111.49 84.54 111.496C86.2031 111.49 87.2378 110.995 87.2314 110.138C87.2378 109.3 86.2031 108.805 84.54 108.805C82.8579 108.805 81.8232 109.3 81.8359 110.138Z" fill="#888888"/>
<path d="M39.9414 141.176C36.751 141.176 34.8262 138.803 34.8262 134.637C34.8262 130.479 36.7686 128.098 39.9414 128.098C43.1143 128.098 45.0566 130.479 45.0566 134.637C45.0566 138.82 43.123 141.176 39.9414 141.176ZM37.5332 134.637C37.5156 137.572 38.4648 138.996 39.9414 138.996C41.418 138.996 42.3584 137.572 42.3496 134.637C42.3584 131.728 41.4092 130.269 39.9414 130.26C38.4736 130.269 37.5332 131.728 37.5332 134.637ZM52.3691 128.273V141H49.7148V130.787H49.6445L46.7266 132.615V130.277L49.873 128.273H52.3691ZM60.2617 141.176C57.0713 141.176 55.1465 138.803 55.1465 134.637C55.1465 130.479 57.0889 128.098 60.2617 128.098C63.4346 128.098 65.377 130.479 65.377 134.637C65.377 138.82 63.4434 141.176 60.2617 141.176ZM57.8535 134.637C57.8359 137.572 58.7852 138.996 60.2617 138.996C61.7383 138.996 62.6787 137.572 62.6699 134.637C62.6787 131.728 61.7295 130.269 60.2617 130.26C58.7939 130.269 57.8535 131.728 57.8535 134.637ZM77.2949 133.6V135.674H71.4941V133.6H77.2949ZM89.0723 128.273V141H86.418V130.787H86.3477L83.4297 132.615V130.277L86.5762 128.273H89.0723ZM92.0254 141L92.0078 139.084L96.5781 134.883C97.7646 133.749 98.4062 133.046 98.4062 132.035C98.4062 130.901 97.5537 130.198 96.3848 130.207C95.1895 130.198 94.4072 130.954 94.416 132.176H91.9023C91.8936 129.688 93.7393 128.098 96.4199 128.098C99.1445 128.098 100.955 129.653 100.955 131.859C100.955 133.31 100.252 134.496 97.6328 136.869L95.6992 138.75V138.82H101.131V141H92.0254ZM107.723 141.176C104.928 141.176 102.924 139.638 102.871 137.414H105.543C105.587 138.363 106.51 138.987 107.74 138.996C109.006 138.987 109.911 138.284 109.902 137.256C109.911 136.219 108.988 135.489 107.494 135.48H106.316V133.529H107.494C108.751 133.529 109.63 132.844 109.621 131.842C109.63 130.866 108.883 130.198 107.758 130.207C106.633 130.198 105.71 130.831 105.666 131.807H103.135C103.179 129.618 105.147 128.098 107.758 128.098C110.412 128.098 112.179 129.671 112.17 131.684C112.179 133.107 111.186 134.118 109.762 134.373V134.479C111.634 134.707 112.662 135.841 112.645 137.432C112.662 139.611 110.597 141.176 107.723 141.176ZM114.297 138.75V136.658L119.676 128.273H122.998V136.623H124.615V138.75H122.998V141H120.484V138.75H114.297ZM116.969 136.623H120.52V131.174H120.396L116.969 136.518V136.623ZM136.428 133.6V135.674H130.627V133.6H136.428ZM147.396 141.176C144.742 141.176 142.8 139.611 142.756 137.414H145.322C145.384 138.407 146.289 139.093 147.396 139.084C148.715 139.093 149.655 138.161 149.646 136.834C149.655 135.48 148.697 134.54 147.361 134.531C146.403 134.531 145.735 134.892 145.357 135.604H142.967L143.652 128.273H151.492V130.436H145.832L145.48 133.652H145.586C146.052 133.028 147.019 132.571 148.135 132.58C150.473 132.571 152.213 134.32 152.213 136.764C152.213 139.339 150.262 141.176 147.396 141.176ZM158.928 141.176C156.3 141.167 153.786 139.594 153.795 134.936C153.804 130.638 155.852 128.098 159.033 128.098C161.591 128.098 163.349 129.715 163.604 131.807H161.002C160.791 130.919 160.062 130.365 159.033 130.365C157.302 130.365 156.396 131.921 156.379 134.426H156.502C157.091 133.292 158.348 132.633 159.754 132.633C162.048 132.633 163.753 134.347 163.744 136.746C163.753 139.33 161.802 141.185 158.928 141.176ZM156.643 136.816C156.66 138.064 157.609 139.093 158.91 139.084C160.22 139.093 161.178 138.1 161.178 136.816C161.178 135.542 160.237 134.558 158.945 134.549C157.645 134.558 156.66 135.577 156.643 136.816ZM166.064 141L171.426 130.523V130.436H165.186V128.273H174.168V130.471L168.807 141H166.064ZM180.461 141.176C177.552 141.176 175.469 139.646 175.469 137.572C175.469 135.973 176.699 134.672 178.281 134.426V134.338C176.901 134.074 175.952 132.923 175.961 131.525C175.952 129.548 177.859 128.098 180.461 128.098C183.062 128.098 184.97 129.548 184.979 131.525C184.97 132.923 183.994 134.074 182.658 134.338V134.426C184.205 134.672 185.453 135.973 185.453 137.572C185.453 139.646 183.361 141.176 180.461 141.176ZM178.229 137.309C178.22 138.398 179.116 139.163 180.461 139.154C181.806 139.163 182.702 138.398 182.693 137.309C182.702 136.21 181.753 135.401 180.461 135.393C179.169 135.401 178.22 136.201 178.229 137.309ZM178.545 131.789C178.536 132.809 179.336 133.521 180.461 133.529C181.577 133.521 182.386 132.809 182.395 131.789C182.386 130.796 181.595 130.102 180.461 130.102C179.318 130.102 178.536 130.796 178.545 131.789Z" fill="black"/>
</g>
<path d="M24.976 10.328H19.936C19.984 11.624 20.536 12.68 21.568 13.496C22.552 14.336 23.824 14.744 25.384 14.744V17.168C22.96 17.168 20.872 16.568 19.12 15.344C18.76 15.104 18.448 14.84 18.184 14.552C17.896 14.84 17.584 15.104 17.248 15.344C15.472 16.568 13.384 17.168 10.984 17.168V14.744C12.52 14.744 13.792 14.336 14.8 13.496C15.808 12.68 16.36 11.624 16.432 10.328H11.392V7.904H24.976V10.328ZM14.272 4.688H22.096V7.136H14.272V4.688ZM27.544 5.072H31.072V17.576H27.544V13.64H23.488V10.952H27.544V5.072ZM30.904 22.016C30.904 23.336 30.28 24.464 29.032 25.4C27.76 26.36 26.104 26.84 24.064 26.84C22.024 26.84 20.368 26.36 19.12 25.4C17.848 24.464 17.224 23.336 17.224 22.016C17.224 20.696 17.848 19.568 19.12 18.608C20.368 17.696 22.024 17.216 24.064 17.216C26.104 17.216 27.76 17.696 29.032 18.608C30.28 19.568 30.904 20.696 30.904 22.016ZM24.064 19.712C23.056 19.712 22.264 19.928 21.664 20.36C21.04 20.792 20.752 21.344 20.752 22.016C20.752 22.688 21.04 23.24 21.664 23.672C22.24 24.104 23.056 24.32 24.064 24.32C25.048 24.32 25.84 24.128 26.464 23.696C27.064 23.288 27.376 22.736 27.376 22.016C27.376 21.344 27.064 20.792 26.464 20.36C25.84 19.928 25.024 19.712 24.064 19.712ZM49.3591 5.384C51.8551 5.384 53.1271 6.656 53.1271 9.176V16.256H49.5751V9.896C49.5751 8.744 48.9751 8.144 47.7991 8.144H36.1111V5.384H49.3591ZM55.7431 19.88H46.6711V26.168H43.0711V19.88H34.0231V17.12H55.7431V19.88ZM61.1498 5.096H68.4458V7.76H61.1498V5.096ZM71.5898 11.144H58.0058V8.504H71.5898V11.144ZM58.7258 17.168C58.7258 15.704 59.2778 14.432 60.4298 13.328C61.5578 12.272 63.0218 11.72 64.7978 11.72C66.5738 11.72 68.0138 12.272 69.1658 13.328C70.2938 14.432 70.8698 15.704 70.8698 17.168C70.8698 18.656 70.2938 19.928 69.1658 20.984C68.0138 22.088 66.5738 22.616 64.7978 22.616C63.0218 22.616 61.5578 22.088 60.4298 20.984C59.2778 19.928 58.7258 18.656 58.7258 17.168ZM62.2298 17.168C62.2298 18.032 62.4938 18.704 63.0218 19.208C63.5258 19.736 64.1258 20 64.7978 20C65.4698 20 66.0698 19.736 66.5978 19.208C67.1018 18.704 67.3658 18.032 67.3658 17.168C67.3658 16.328 67.1018 15.632 66.5978 15.104C66.0698 14.6 65.4698 14.336 64.7978 14.336C64.1258 14.336 63.5258 14.6 63.0218 15.104C62.4938 15.632 62.2298 16.328 62.2298 17.168ZM80.1818 15.344H77.1098V26.168H73.5818V5.072H77.1098V12.56H80.1818V15.344ZM90.1006 5.384V8.504C90.1006 12.128 90.6526 14.744 91.7806 16.328C92.7166 17.672 93.9406 18.608 95.4526 19.088V21.824C92.9086 21.368 90.8206 20.192 89.2366 18.272C88.9006 17.888 88.6126 17.48 88.3486 17C88.0606 17.48 87.7726 17.888 87.4606 18.272C85.8526 20.192 83.7886 21.368 81.2446 21.824V19.088C82.7326 18.608 83.9566 17.672 84.9166 16.328C86.0206 14.744 86.5966 12.128 86.5966 8.504V5.384H90.1006ZM97.3246 26.168V5.072H100.877V26.168H97.3246ZM109.509 5.312V10.04C109.509 11 110.037 11.456 111.093 11.456H122.997V14.12H110.133C107.349 14.12 105.957 12.992 105.957 10.736V5.312H109.509ZM125.493 18.416H103.773V15.656H125.493V18.416ZM111.525 23.408H123.213V26.12H110.085C107.541 26.12 106.293 24.752 106.293 22.016V19.568H109.845V21.584C109.845 22.808 110.397 23.408 111.525 23.408ZM136.589 11.504V5.216H140.117V7.832H150.053V5.216H153.581V14.96H140.309C137.813 14.96 136.589 13.808 136.589 11.504ZM140.117 11.384C140.117 12.056 140.501 12.392 141.293 12.392H150.053V10.376H140.117V11.384ZM156.173 18.584H147.557V21.944H144.005V18.584H134.453V15.896H156.173V18.584ZM142.205 23.456H153.893V26.12H140.765C138.221 26.12 136.973 24.776 136.973 22.04V20H140.525V21.632C140.525 22.856 141.077 23.456 142.205 23.456ZM159.564 11.384C159.564 9.656 160.188 8.192 161.436 6.992C162.684 5.816 164.316 5.216 166.332 5.216C168.348 5.216 169.98 5.816 171.228 6.992C172.476 8.192 173.1 9.656 173.1 11.384C173.1 13.112 172.476 14.552 171.228 15.728C169.98 16.928 168.348 17.504 166.332 17.504C164.316 17.504 162.684 16.928 161.436 15.728C160.188 14.552 159.564 13.112 159.564 11.384ZM169.548 11.384C169.548 10.376 169.236 9.536 168.636 8.888C168.012 8.264 167.244 7.928 166.332 7.928C165.396 7.928 164.628 8.264 164.028 8.888C163.404 9.536 163.116 10.376 163.116 11.384C163.116 12.392 163.404 13.208 164.028 13.832C164.628 14.48 165.396 14.792 166.332 14.792C167.244 14.792 168.012 14.48 168.636 13.832C169.236 13.208 169.548 12.392 169.548 11.384ZM158.7 19.856H170.411C173.292 19.856 174.732 18.8 174.732 16.688V5.072H178.284V26.168H174.732V21.752C173.988 22.376 172.836 22.664 171.299 22.664H158.7V19.856ZM195.396 12.608C195.06 13.064 194.652 13.472 194.22 13.808C192.588 15.104 190.62 15.896 188.316 16.136V13.568C189.756 13.352 190.98 12.752 191.964 11.768C192.828 10.904 193.355 9.656 193.548 7.976H188.796V5.408H201.996V7.976H197.244C197.436 9.656 197.964 10.904 198.828 11.768C199.788 12.752 201.012 13.352 202.476 13.568V16.136C200.148 15.896 198.18 15.104 196.572 13.808C196.116 13.472 195.732 13.064 195.396 12.608ZM204.732 5.072H208.26V16.664H204.732V11.792H200.196V9.056H204.732V5.072ZM208.092 21.512C208.092 22.976 207.468 24.224 206.22 25.256C204.972 26.312 203.316 26.84 201.252 26.84C199.188 26.84 197.556 26.312 196.308 25.256C195.036 24.224 194.412 22.976 194.412 21.512C194.412 20.072 195.036 18.824 196.308 17.792C197.556 16.784 199.188 16.256 201.252 16.256C203.316 16.256 204.972 16.784 206.22 17.792C207.468 18.824 208.092 20.072 208.092 21.512ZM201.252 18.848C200.244 18.848 199.428 19.112 198.852 19.64C198.228 20.168 197.94 20.792 197.94 21.512C197.94 22.232 198.228 22.88 198.852 23.408C199.428 23.96 200.244 24.224 201.252 24.224C202.236 24.224 203.028 23.96 203.652 23.408C204.252 22.88 204.564 22.256 204.564 21.512C204.564 20.792 204.252 20.168 203.652 19.64C203.028 19.112 202.236 18.848 201.252 18.848ZM230.339 17.72H223.859V21.272H232.931V24.032H211.211V21.272H220.259V17.72H217.163C214.619 17.72 213.347 16.448 213.347 13.904V5.552H216.875V9.2H226.811V5.552H230.339V17.72ZM226.811 15.008V11.888H216.875V13.688C216.875 14.576 217.355 15.008 218.339 15.008H226.811ZM252.977 5.12C253.721 5.12 254.105 5.48 254.105 6.176V10.352H240.641V10.616C240.641 11.048 241.025 11.24 241.817 11.24H254.321V13.424H240.953C238.385 13.424 237.113 12.536 237.113 10.736V8.168H250.577V7.328H237.113V5.12H252.977ZM234.929 14.456H256.649V16.832H234.929V14.456ZM237.449 22.88V20.84H250.577V20.024H237.449V17.84H253.481C253.889 17.84 254.105 18.032 254.105 18.416V23.024H240.977V23.192C240.977 23.672 241.409 23.888 242.273 23.888H254.153V26.12H241.433C238.769 26.12 237.449 25.04 237.449 22.88ZM18.112 46.992C16.168 46.992 14.608 46.488 13.408 45.432C12.208 44.4 11.608 43.104 11.608 41.568C11.608 39.984 12.208 38.688 13.408 37.632C14.608 36.6 16.168 36.072 18.112 36.072C20.032 36.072 21.616 36.6 22.816 37.632C24.016 38.688 24.616 39.984 24.616 41.568C24.616 43.104 24.016 44.4 22.816 45.432C21.616 46.488 20.032 46.992 18.112 46.992ZM18.112 44.448C18.928 44.448 19.624 44.184 20.224 43.656C20.8 43.128 21.088 42.432 21.088 41.568C21.088 40.68 20.8 39.96 20.224 39.408C19.624 38.88 18.928 38.592 18.112 38.592C17.296 38.592 16.6 38.88 16.024 39.408C15.424 39.96 15.136 40.68 15.136 41.568C15.136 42.432 15.424 43.128 16.024 43.656C16.6 44.184 17.296 44.448 18.112 44.448ZM30.4 40.152H33.424V42.864H30.4V46.896H26.872V36.072H30.4V40.152ZM30.4 53.64H17.608V53.856C17.608 54.36 18.04 54.6 18.904 54.6H30.448V57.12H18.064C15.4 57.12 14.08 55.896 14.08 53.424V51.168H26.872V50.28H14.08V47.784H29.776C30.184 47.784 30.4 48 30.4 48.432V53.64ZM46.6068 37.536V45.672H39.0708V48.576C39.0708 49.632 39.5748 50.136 40.6308 50.136H48.2868V52.848H39.5748C36.8867 52.848 35.5428 51.528 35.5428 48.864V42.984H43.0788V39.12H35.5428V36.408H45.4548C46.2228 36.408 46.6068 36.792 46.6068 37.536ZM54.7908 36.072V57.168H51.2628V48.456H47.6148V45.72H51.2628V42.696H47.6148V39.96H51.2628V36.072H54.7908ZM77.6138 39.096H70.4858C70.7498 40.536 71.5898 41.736 73.0058 42.696C74.3738 43.656 76.0058 44.184 77.9258 44.232V46.92C75.2858 46.944 72.9578 46.32 70.8938 45.048C69.9818 44.496 69.2138 43.848 68.6138 43.08C67.9898 43.848 67.2218 44.496 66.3098 45.048C64.2458 46.32 61.8938 46.944 59.2778 46.92V44.232C61.1738 44.184 62.8058 43.656 64.1978 42.696C65.5898 41.736 66.4298 40.536 66.7178 39.096H59.6138V36.384H77.6138V39.096ZM79.4618 51H70.3898V57.168H66.7898V51H57.7418V48.24H79.4618V51ZM88.7566 39.504C88.7566 43.176 89.2366 45.792 90.2206 47.352C90.9886 48.624 91.9486 49.488 93.0766 49.92V52.92C91.0126 52.368 89.2606 51.168 87.8446 49.344C87.5566 49.008 87.3166 48.624 87.1006 48.192C86.8606 48.624 86.6206 49.008 86.3566 49.344C84.9166 51.168 83.1886 52.368 81.1246 52.92V49.92C82.2286 49.488 83.1886 48.624 83.9806 47.352C84.9406 45.792 85.4446 43.176 85.4446 39.528V36.384H88.7566V39.504ZM98.5486 36.072H101.885V57.168H98.5486V36.072ZM93.9886 36.072H97.2766V57.168H93.9886V45H90.5566V42.192H93.9886V36.072ZM106.588 42.648C106.588 40.92 107.38 39.432 108.988 38.184C110.572 36.984 112.708 36.36 115.348 36.36C117.988 36.36 120.1 36.984 121.708 38.184C123.292 39.432 124.108 40.92 124.108 42.648C124.108 44.616 123.076 46.272 121.036 47.568V52.272H126.22V55.032H104.5V52.272H109.708V47.592C107.62 46.296 106.588 44.64 106.588 42.648ZM117.484 48.792C116.812 48.888 116.092 48.936 115.348 48.936C114.604 48.936 113.908 48.888 113.26 48.792V52.272H117.484V48.792ZM120.484 42.648C120.484 41.616 120.004 40.752 119.044 40.08C118.084 39.408 116.836 39.072 115.348 39.072C113.812 39.072 112.588 39.408 111.652 40.08C110.692 40.752 110.212 41.616 110.212 42.648C110.212 43.704 110.692 44.544 111.652 45.216C112.588 45.888 113.812 46.224 115.348 46.224C116.836 46.224 118.084 45.888 119.044 45.216C120.004 44.544 120.484 43.704 120.484 42.648Z" fill="black"/>
<defs>
<filter id="filter0_d_33_693" x="0" y="81" width="355" height="97" filterUnits="userSpaceOnUse" color-interpolation-filters="sRGB">
<feFlood flood-opacity="0" result="BackgroundImageFix"/>
<feColorMatrix in="SourceAlpha" type="matrix" values="0 0 0 0 0 0 0 0 0 0 0 0 0 0 0 0 0 0 127 0" result="hardAlpha"/>
<feOffset dy="5"/>
<feGaussianBlur stdDeviation="5"/>
<feComposite in2="hardAlpha" operator="out"/>
<feColorMatrix type="matrix" values="0 0 0 0 0 0 0 0 0 0 0 0 0 0 0 0 0 0 0.1 0"/>
<feBlend mode="normal" in2="BackgroundImageFix" result="effect1_dropShadow_33_693"/>
<feBlend mode="normal" in="SourceGraphic" in2="effect1_dropShadow_33_693" result="shape"/>
</filter>
</defs>
</svg>
