<svg width="343" height="456" viewBox="0 0 343 456" fill="none" xmlns="http://www.w3.org/2000/svg">
<g filter="url(#filter0_d_37_1128)">
<path d="M268.458 200.395V211H267.125V201.771H267.066L264.488 203.485V202.152L267.125 200.395H268.458Z" fill="black"/>
<path d="M311.594 211L311.58 210.033L315.198 206.225C316.45 204.892 317.051 204.174 317.058 203.192C317.051 202.101 316.143 201.398 314.949 201.391C313.682 201.398 312.891 202.196 312.883 203.383H311.638C311.624 201.508 313.074 200.248 314.993 200.248C316.919 200.248 318.281 201.544 318.289 203.192C318.281 204.379 317.732 205.302 315.857 207.235L313.425 209.74V209.828H318.479V211H311.594Z" fill="black"/>
<path d="M27.0293 255.146C24.9199 255.146 23.4038 254.019 23.3379 252.334H24.6709C24.7441 253.345 25.7476 253.975 27.0146 253.975C28.4136 253.975 29.4243 253.22 29.4316 252.114C29.4243 250.957 28.5015 250.144 26.8535 250.137H25.9893V248.979H26.8535C28.1426 248.979 29.0435 248.254 29.0361 247.163C29.0435 246.101 28.2671 245.398 27.0586 245.391C25.9233 245.398 24.8906 246.021 24.832 247.061H23.5576C23.6235 245.376 25.1909 244.248 27.0732 244.248C29.0947 244.248 30.3252 245.574 30.3105 247.09C30.3252 248.298 29.6221 249.177 28.5088 249.492V249.565C29.8931 249.778 30.728 250.767 30.7207 252.114C30.728 253.857 29.146 255.146 27.0293 255.146Z" fill="black"/>
<path d="M71.0522 252.832V251.748L75.8276 244.395H77.4536V251.675H78.9331V252.832H77.4536V255H76.1938V252.832H71.0522ZM72.4731 251.675H76.1938V246.064H76.062L72.4731 251.587V251.675Z" fill="black"/>
<path d="M122.978 255.146C121.066 255.146 119.616 253.967 119.536 252.334H120.81C120.905 253.279 121.828 253.982 122.978 253.989C124.355 253.982 125.351 252.979 125.351 251.646C125.351 250.269 124.318 249.25 122.89 249.243C121.997 249.229 121.301 249.507 120.913 250.195H119.638L120.385 244.395H126.127V245.566H121.484L121.088 248.672H121.191C121.667 248.306 122.377 248.057 123.125 248.057C125.146 248.057 126.633 249.551 126.64 251.616C126.633 253.667 125.095 255.146 122.978 255.146Z" fill="black"/>
<path d="M171.088 255.146C169.25 255.125 167.221 254.033 167.221 250.107C167.221 246.35 168.759 244.248 171.249 244.248C173.117 244.248 174.42 245.398 174.691 247.061H173.388C173.146 246.123 172.428 245.42 171.249 245.42C169.506 245.42 168.458 246.907 168.466 249.463H168.598C169.206 248.577 170.18 248.057 171.322 248.057C173.205 248.057 174.779 249.521 174.779 251.572C174.779 253.572 173.322 255.168 171.088 255.146ZM168.642 251.602C168.649 252.847 169.667 253.982 171.088 253.989C172.458 253.982 173.498 252.905 173.505 251.587C173.498 250.283 172.501 249.221 171.117 249.214C169.726 249.221 168.656 250.349 168.642 251.602Z" fill="black"/>
<path d="M216.195 255L221.058 245.64V245.566H215.448V244.395H222.42V245.625L217.572 255H216.195Z" fill="black"/>
<path d="M266.993 255.146C264.759 255.146 263.221 253.909 263.228 252.188C263.221 250.818 264.173 249.683 265.381 249.492V249.434C264.327 249.192 263.631 248.218 263.638 247.061C263.631 245.442 265.052 244.248 266.993 244.248C268.926 244.248 270.347 245.442 270.362 247.061C270.347 248.218 269.644 249.192 268.604 249.434V249.492C269.805 249.683 270.757 250.818 270.772 252.188C270.757 253.909 269.205 255.146 266.993 255.146ZM264.546 252.114C264.524 253.228 265.469 253.982 266.993 253.989C268.509 253.982 269.454 253.228 269.454 252.114C269.454 250.942 268.421 250.078 266.993 250.078C265.572 250.078 264.524 250.942 264.546 252.114ZM264.913 247.163C264.92 248.232 265.777 248.958 266.993 248.965C268.201 248.958 269.073 248.232 269.073 247.163C269.073 246.101 268.23 245.383 266.993 245.391C265.733 245.383 264.92 246.101 264.913 247.163Z" fill="black"/>
<path d="M314.927 244.248C316.75 244.27 318.779 245.369 318.779 249.272C318.779 253.044 317.234 255.146 314.751 255.146C312.883 255.146 311.572 254.004 311.309 252.319H312.612C312.847 253.271 313.572 253.975 314.751 253.975C316.479 253.975 317.534 252.48 317.549 249.902H317.402C316.794 250.781 315.82 251.309 314.692 251.309C312.795 251.309 311.221 249.851 311.221 247.808C311.221 245.83 312.671 244.226 314.927 244.248ZM312.51 247.793C312.502 249.104 313.499 250.151 314.883 250.151C316.267 250.151 317.344 249.009 317.344 247.764C317.344 246.548 316.326 245.405 314.927 245.405C313.542 245.405 312.495 246.482 312.51 247.793Z" fill="black"/>
<path d="M23.9897 288.395V299H22.6567V289.771H22.5981L20.02 291.485V290.152L22.6567 288.395H23.9897ZM30.2886 299.146C27.9375 299.146 26.5752 297.169 26.5825 293.697C26.5752 290.255 27.9521 288.248 30.2886 288.248C32.6177 288.248 33.9946 290.255 33.9946 293.697C33.9946 297.169 32.6396 299.146 30.2886 299.146ZM27.8569 293.697C27.8643 296.444 28.7505 297.975 30.2886 297.975C31.8193 297.975 32.7129 296.444 32.7056 293.697C32.7129 290.951 31.812 289.398 30.2886 289.391C28.7651 289.398 27.8643 290.951 27.8569 293.697Z" fill="black"/>
<path d="M73.1689 288.395V299H71.8359V289.771H71.7773L69.1992 291.485V290.152L71.8359 288.395H73.1689ZM79.7461 288.395V299H78.4131V289.771H78.3545L75.7764 291.485V290.152L78.4131 288.395H79.7461Z" fill="black"/>
<path d="M120.056 288.395V299H118.723V289.771H118.664L116.086 291.485V290.152L118.723 288.395H120.056ZM122.883 299L122.868 298.033L126.486 294.225C127.739 292.892 128.339 292.174 128.347 291.192C128.339 290.101 127.431 289.398 126.237 289.391C124.97 289.398 124.179 290.196 124.172 291.383H122.927C122.912 289.508 124.362 288.248 126.281 288.248C128.208 288.248 129.57 289.544 129.577 291.192C129.57 292.379 129.021 293.302 127.146 295.235L124.714 297.74V297.828H129.768V299H122.883Z" fill="black"/>
<path d="M167.829 288.395V299H166.496V289.771H166.437L163.859 291.485V290.152L166.496 288.395H167.829ZM174.318 299.146C172.208 299.146 170.692 298.019 170.626 296.334H171.959C172.033 297.345 173.036 297.975 174.303 297.975C175.702 297.975 176.713 297.22 176.72 296.114C176.713 294.957 175.79 294.144 174.142 294.137H173.278V292.979H174.142C175.431 292.979 176.332 292.254 176.325 291.163C176.332 290.101 175.556 289.398 174.347 289.391C173.212 289.398 172.179 290.021 172.121 291.061H170.846C170.912 289.376 172.479 288.248 174.362 288.248C176.383 288.248 177.614 289.574 177.599 291.09C177.614 292.298 176.911 293.177 175.797 293.492V293.565C177.182 293.778 178.017 294.767 178.009 296.114C178.017 297.857 176.435 299.146 174.318 299.146Z" fill="black"/>
<path d="M215.777 288.395V299H214.444V289.771H214.386L211.808 291.485V290.152L214.444 288.395H215.777ZM218.341 296.832V295.748L223.116 288.395H224.742V295.675H226.222V296.832H224.742V299H223.482V296.832H218.341ZM219.762 295.675H223.482V290.064H223.351L219.762 295.587V295.675Z" fill="black"/>
<path d="M263.982 288.395V299H262.649V289.771H262.591L260.013 291.485V290.152L262.649 288.395H263.982ZM270.267 299.146C268.355 299.146 266.905 297.967 266.824 296.334H268.099C268.194 297.279 269.117 297.982 270.267 297.989C271.644 297.982 272.64 296.979 272.64 295.646C272.64 294.269 271.607 293.25 270.179 293.243C269.285 293.229 268.589 293.507 268.201 294.195H266.927L267.674 288.395H273.416V289.566H268.772L268.377 292.672H268.479C268.956 292.306 269.666 292.057 270.413 292.057C272.435 292.057 273.921 293.551 273.929 295.616C273.921 297.667 272.383 299.146 270.267 299.146Z" fill="black"/>
<path d="M311.858 288.395V299H310.525V289.771H310.466L307.888 291.485V290.152L310.525 288.395H311.858ZM318.376 299.146C316.538 299.125 314.509 298.033 314.509 294.107C314.509 290.35 316.047 288.248 318.538 288.248C320.405 288.248 321.709 289.398 321.98 291.061H320.676C320.435 290.123 319.717 289.42 318.538 289.42C316.794 289.42 315.747 290.907 315.754 293.463H315.886C316.494 292.577 317.468 292.057 318.611 292.057C320.493 292.057 322.068 293.521 322.068 295.572C322.068 297.572 320.61 299.168 318.376 299.146ZM315.93 295.602C315.938 296.847 316.956 297.982 318.376 297.989C319.746 297.982 320.786 296.905 320.793 295.587C320.786 294.283 319.79 293.221 318.406 293.214C317.014 293.221 315.945 294.349 315.93 295.602Z" fill="black"/>
<path d="M24.3193 332.395V343H22.9863V333.771H22.9277L20.3496 335.485V334.152L22.9863 332.395H24.3193ZM27.4834 343L32.3467 333.64V333.566H26.7363V332.395H33.709V333.625L28.8604 343H27.4834Z" fill="black"/>
<path d="M71.9092 332.395V343H70.5762V333.771H70.5176L67.9395 335.485V334.152L70.5762 332.395H71.9092ZM78.2812 343.146C76.0474 343.146 74.5093 341.909 74.5166 340.188C74.5093 338.818 75.4614 337.683 76.6699 337.492V337.434C75.6152 337.192 74.9194 336.218 74.9268 335.061C74.9194 333.442 76.3403 332.248 78.2812 332.248C80.2148 332.248 81.6357 333.442 81.6504 335.061C81.6357 336.218 80.9326 337.192 79.8926 337.434V337.492C81.0938 337.683 82.0459 338.818 82.0605 340.188C82.0459 341.909 80.4932 343.146 78.2812 343.146ZM75.835 340.114C75.813 341.228 76.7578 341.982 78.2812 341.989C79.7974 341.982 80.7422 341.228 80.7422 340.114C80.7422 338.942 79.7095 338.078 78.2812 338.078C76.8604 338.078 75.813 338.942 75.835 340.114ZM76.2012 335.163C76.2085 336.232 77.0654 336.958 78.2812 336.965C79.4897 336.958 80.3613 336.232 80.3613 335.163C80.3613 334.101 79.519 333.383 78.2812 333.391C77.0215 333.383 76.2085 334.101 76.2012 335.163Z" fill="black"/>
<path d="M119.858 332.395V343H118.525V333.771H118.466L115.888 335.485V334.152L118.525 332.395H119.858ZM126.215 332.248C128.039 332.27 130.068 333.369 130.068 337.272C130.068 341.044 128.522 343.146 126.04 343.146C124.172 343.146 122.861 342.004 122.597 340.319H123.901C124.135 341.271 124.86 341.975 126.04 341.975C127.768 341.975 128.823 340.48 128.837 337.902H128.691C128.083 338.781 127.109 339.309 125.981 339.309C124.084 339.309 122.509 337.851 122.509 335.808C122.509 333.83 123.959 332.226 126.215 332.248ZM123.798 335.793C123.791 337.104 124.787 338.151 126.171 338.151C127.556 338.151 128.632 337.009 128.632 335.764C128.632 334.548 127.614 333.405 126.215 333.405C124.831 333.405 123.784 334.482 123.798 335.793Z" fill="black"/>
<path d="M163.126 343L163.112 342.033L166.73 338.225C167.982 336.892 168.583 336.174 168.59 335.192C168.583 334.101 167.675 333.398 166.481 333.391C165.214 333.398 164.423 334.196 164.416 335.383H163.17C163.156 333.508 164.606 332.248 166.525 332.248C168.451 332.248 169.813 333.544 169.821 335.192C169.813 336.379 169.264 337.302 167.389 339.235L164.958 341.74V341.828H170.011V343H163.126ZM175.402 343.146C173.051 343.146 171.688 341.169 171.696 337.697C171.688 334.255 173.065 332.248 175.402 332.248C177.731 332.248 179.108 334.255 179.108 337.697C179.108 341.169 177.753 343.146 175.402 343.146ZM172.97 337.697C172.978 340.444 173.864 341.975 175.402 341.975C176.933 341.975 177.826 340.444 177.819 337.697C177.826 334.951 176.925 333.398 175.402 333.391C173.878 333.398 172.978 334.951 172.97 337.697Z" fill="black"/>
<path d="M212.306 343L212.291 342.033L215.909 338.225C217.162 336.892 217.762 336.174 217.77 335.192C217.762 334.101 216.854 333.398 215.66 333.391C214.393 333.398 213.602 334.196 213.595 335.383H212.35C212.335 333.508 213.785 332.248 215.704 332.248C217.63 332.248 218.993 333.544 219 335.192C218.993 336.379 218.443 337.302 216.568 339.235L214.137 341.74V341.828H219.19V343H212.306ZM224.859 332.395V343H223.526V333.771H223.468L220.89 335.485V334.152L223.526 332.395H224.859Z" fill="black"/>
<path d="M259.192 343L259.178 342.033L262.796 338.225C264.048 336.892 264.649 336.174 264.656 335.192C264.649 334.101 263.741 333.398 262.547 333.391C261.28 333.398 260.489 334.196 260.481 335.383H259.236C259.222 333.508 260.672 332.248 262.591 332.248C264.517 332.248 265.879 333.544 265.887 335.192C265.879 336.379 265.33 337.302 263.455 339.235L261.023 341.74V341.828H266.077V343H259.192ZM267.996 343L267.981 342.033L271.6 338.225C272.852 336.892 273.453 336.174 273.46 335.192C273.453 334.101 272.544 333.398 271.351 333.391C270.083 333.398 269.292 334.196 269.285 335.383H268.04C268.025 333.508 269.476 332.248 271.395 332.248C273.321 332.248 274.683 333.544 274.69 335.192C274.683 336.379 274.134 337.302 272.259 339.235L269.827 341.74V341.828H274.881V343H267.996Z" fill="black"/>
<path d="M306.965 343L306.951 342.033L310.569 338.225C311.821 336.892 312.422 336.174 312.429 335.192C312.422 334.101 311.514 333.398 310.32 333.391C309.053 333.398 308.262 334.196 308.254 335.383H307.009C306.995 333.508 308.445 332.248 310.364 332.248C312.29 332.248 313.652 333.544 313.66 335.192C313.652 336.379 313.103 337.302 311.228 339.235L308.796 341.74V341.828H313.85V343H306.965ZM319.431 343.146C317.322 343.146 315.806 342.019 315.74 340.334H317.073C317.146 341.345 318.149 341.975 319.417 341.975C320.815 341.975 321.826 341.22 321.833 340.114C321.826 338.957 320.903 338.144 319.255 338.137H318.391V336.979H319.255C320.544 336.979 321.445 336.254 321.438 335.163C321.445 334.101 320.669 333.398 319.46 333.391C318.325 333.398 317.292 334.021 317.234 335.061H315.959C316.025 333.376 317.593 332.248 319.475 332.248C321.497 332.248 322.727 333.574 322.712 335.09C322.727 336.298 322.024 337.177 320.911 337.492V337.565C322.295 337.778 323.13 338.767 323.123 340.114C323.13 341.857 321.548 343.146 319.431 343.146Z" fill="black"/>
<path d="M19.0312 387L19.0166 386.033L22.6348 382.225C23.8872 380.892 24.4878 380.174 24.4951 379.192C24.4878 378.101 23.5796 377.398 22.3857 377.391C21.1187 377.398 20.3276 378.196 20.3203 379.383H19.0752C19.0605 377.508 20.5107 376.248 22.4297 376.248C24.356 376.248 25.7183 377.544 25.7256 379.192C25.7183 380.379 25.1689 381.302 23.2939 383.235L20.8623 385.74V385.828H25.916V387H19.0312ZM27.3369 384.832V383.748L32.1123 376.395H33.7383V383.675H35.2178V384.832H33.7383V387H32.4785V384.832H27.3369ZM28.7578 383.675H32.4785V378.064H32.3467L28.7578 383.587V383.675Z" fill="black"/>
<path d="M67.1191 387L67.1045 386.033L70.7227 382.225C71.9751 380.892 72.5757 380.174 72.583 379.192C72.5757 378.101 71.6675 377.398 70.4736 377.391C69.2065 377.398 68.4155 378.196 68.4082 379.383H67.1631C67.1484 377.508 68.5986 376.248 70.5176 376.248C72.4438 376.248 73.8062 377.544 73.8135 379.192C73.8062 380.379 73.2568 381.302 71.3818 383.235L68.9502 385.74V385.828H74.0039V387H67.1191ZM79.3799 387.146C77.4683 387.146 76.0181 385.967 75.9375 384.334H77.2119C77.3071 385.279 78.23 385.982 79.3799 385.989C80.7568 385.982 81.7529 384.979 81.7529 383.646C81.7529 382.269 80.7202 381.25 79.292 381.243C78.3984 381.229 77.7026 381.507 77.3145 382.195H76.04L76.7871 376.395H82.5293V377.566H77.8857L77.4902 380.672H77.5928C78.0688 380.306 78.7793 380.057 79.5264 380.057C81.5479 380.057 83.0347 381.551 83.042 383.616C83.0347 385.667 81.4966 387.146 79.3799 387.146Z" fill="black"/>
<path d="M114.995 387L114.98 386.033L118.598 382.225C119.851 380.892 120.451 380.174 120.458 379.192C120.451 378.101 119.543 377.398 118.349 377.391C117.082 377.398 116.291 378.196 116.284 379.383H115.039C115.024 377.508 116.474 376.248 118.393 376.248C120.319 376.248 121.682 377.544 121.689 379.192C121.682 380.379 121.132 381.302 119.257 383.235L116.826 385.74V385.828H121.879V387H114.995ZM127.49 387.146C125.651 387.125 123.623 386.033 123.623 382.107C123.623 378.35 125.161 376.248 127.651 376.248C129.519 376.248 130.822 377.398 131.093 379.061H129.79C129.548 378.123 128.83 377.42 127.651 377.42C125.908 377.42 124.86 378.907 124.868 381.463H125C125.607 380.577 126.582 380.057 127.724 380.057C129.606 380.057 131.181 381.521 131.181 383.572C131.181 385.572 129.724 387.168 127.49 387.146ZM125.043 383.602C125.051 384.847 126.069 385.982 127.49 385.989C128.859 385.982 129.899 384.905 129.907 383.587C129.899 382.283 128.903 381.221 127.519 381.214C126.127 381.221 125.058 382.349 125.043 383.602Z" fill="black"/>
<path d="M163.456 387L163.441 386.033L167.06 382.225C168.312 380.892 168.913 380.174 168.92 379.192C168.913 378.101 168.004 377.398 166.811 377.391C165.543 377.398 164.752 378.196 164.745 379.383H163.5C163.485 377.508 164.936 376.248 166.854 376.248C168.781 376.248 170.143 377.544 170.15 379.192C170.143 380.379 169.594 381.302 167.719 383.235L165.287 385.74V385.828H170.341V387H163.456ZM172.597 387L177.46 377.64V377.566H171.85V376.395H178.822V377.625L173.974 387H172.597Z" fill="black"/>
<circle cx="219" cy="382" r="17" fill="#F2F5F9"/>
<path d="M210.431 387L210.416 385.403L214.225 381.902C215.213 380.958 215.748 380.372 215.748 379.529C215.748 378.584 215.038 377.999 214.063 378.006C213.067 377.999 212.416 378.628 212.423 379.646H210.328C210.321 377.574 211.859 376.248 214.093 376.248C216.363 376.248 217.872 377.544 217.872 379.383C217.872 380.591 217.286 381.58 215.104 383.558L213.492 385.125V385.184H218.019V387H210.431ZM223.57 387.146C221.146 387.146 219.41 385.872 219.41 384.144C219.41 382.811 220.436 381.727 221.754 381.521V381.448C220.604 381.229 219.813 380.269 219.82 379.104C219.813 377.457 221.402 376.248 223.57 376.248C225.738 376.248 227.328 377.457 227.335 379.104C227.328 380.269 226.515 381.229 225.401 381.448V381.521C226.69 381.727 227.73 382.811 227.73 384.144C227.73 385.872 225.987 387.146 223.57 387.146ZM221.71 383.924C221.703 384.832 222.45 385.469 223.57 385.462C224.691 385.469 225.438 384.832 225.431 383.924C225.438 383.008 224.647 382.334 223.57 382.327C222.494 382.334 221.703 383.001 221.71 383.924ZM221.974 379.324C221.966 380.174 222.633 380.767 223.57 380.774C224.5 380.767 225.174 380.174 225.182 379.324C225.174 378.497 224.515 377.918 223.57 377.918C222.618 377.918 221.966 378.497 221.974 379.324Z" fill="black"/>
<path d="M258.995 387L258.98 386.033L262.598 382.225C263.851 380.892 264.451 380.174 264.458 379.192C264.451 378.101 263.543 377.398 262.349 377.391C261.082 377.398 260.291 378.196 260.284 379.383H259.039C259.024 377.508 260.474 376.248 262.393 376.248C264.319 376.248 265.682 377.544 265.689 379.192C265.682 380.379 265.132 381.302 263.257 383.235L260.826 385.74V385.828H265.879V387H258.995ZM271.329 376.248C273.152 376.27 275.181 377.369 275.181 381.272C275.181 385.044 273.636 387.146 271.153 387.146C269.285 387.146 267.974 386.004 267.71 384.319H269.014C269.249 385.271 269.974 385.975 271.153 385.975C272.881 385.975 273.936 384.48 273.951 381.902H273.804C273.196 382.781 272.222 383.309 271.094 383.309C269.197 383.309 267.623 381.851 267.623 379.808C267.623 377.83 269.073 376.226 271.329 376.248ZM268.912 379.793C268.904 381.104 269.9 382.151 271.285 382.151C272.669 382.151 273.746 381.009 273.746 379.764C273.746 378.548 272.728 377.405 271.329 377.405C269.944 377.405 268.897 378.482 268.912 379.793Z" fill="#CCCCCC"/>
<path d="M310.562 387.146C308.452 387.146 306.936 386.019 306.87 384.334H308.203C308.276 385.345 309.28 385.975 310.547 385.975C311.946 385.975 312.957 385.22 312.964 384.114C312.957 382.957 312.034 382.144 310.386 382.137H309.521V380.979H310.386C311.675 380.979 312.576 380.254 312.568 379.163C312.576 378.101 311.799 377.398 310.591 377.391C309.456 377.398 308.423 378.021 308.364 379.061H307.09C307.156 377.376 308.723 376.248 310.605 376.248C312.627 376.248 313.857 377.574 313.843 379.09C313.857 380.298 313.154 381.177 312.041 381.492V381.565C313.425 381.778 314.26 382.767 314.253 384.114C314.26 385.857 312.678 387.146 310.562 387.146ZM319.629 387.146C317.278 387.146 315.916 385.169 315.923 381.697C315.916 378.255 317.292 376.248 319.629 376.248C321.958 376.248 323.335 378.255 323.335 381.697C323.335 385.169 321.98 387.146 319.629 387.146ZM317.197 381.697C317.205 384.444 318.091 385.975 319.629 385.975C321.16 385.975 322.053 384.444 322.046 381.697C322.053 378.951 321.152 377.398 319.629 377.391C318.105 377.398 317.205 378.951 317.197 381.697Z" fill="#CCCCCC"/>
<path d="M23.7407 431.146C21.6313 431.146 20.1152 430.019 20.0493 428.334H21.3823C21.4556 429.345 22.459 429.975 23.7261 429.975C25.125 429.975 26.1357 429.22 26.1431 428.114C26.1357 426.957 25.2129 426.144 23.5649 426.137H22.7007V424.979H23.5649C24.854 424.979 25.7549 424.254 25.7476 423.163C25.7549 422.101 24.9785 421.398 23.77 421.391C22.6348 421.398 21.6021 422.02 21.5435 423.061H20.269C20.335 421.376 21.9023 420.248 23.7847 420.248C25.8062 420.248 27.0366 421.574 27.022 423.09C27.0366 424.298 26.3335 425.177 25.2202 425.492V425.565C26.6045 425.778 27.4395 426.767 27.4321 428.114C27.4395 429.857 25.8574 431.146 23.7407 431.146ZM33.0864 420.395V431H31.7534V421.771H31.6948L29.1167 423.485V422.152L31.7534 420.395H33.0864Z" fill="#CCCCCC"/>
<rect width="44" height="20" transform="translate(5 152)" fill="white"/>
<path d="M25.0386 157.161C26.7271 157.167 27.9521 158.196 27.9585 159.662C27.9521 161.135 26.7271 162.15 25.0386 162.15C23.3311 162.15 22.0996 161.135 22.106 159.662C22.0996 158.196 23.3311 157.167 25.0386 157.161ZM23.0835 159.662C23.0708 160.652 23.9023 161.338 25.0386 161.338C26.1558 161.338 26.9937 160.652 26.9937 159.662C26.9937 158.685 26.1558 157.993 25.0386 157.999C23.9023 157.993 23.0708 158.685 23.0835 159.662ZM23.8198 163.89V163.09H31.1577V165.807H24.8228V167.076H31.564V167.876H23.8452V165.058H30.1675V163.89H23.8198ZM30.1675 162.544V156.742H31.1577V162.544H30.1675Z" fill="black"/>
<rect width="44" height="20" transform="translate(53 152)" fill="white"/>
<path d="M79.145 156.755V163.407H78.1421V162.785H75.8569V162.125H78.1421V156.755H79.145ZM69.8013 161.008C71.9849 161.021 74.7778 160.995 77.2153 160.729L77.2788 161.376C76.1743 161.535 75.0254 161.63 73.9019 161.681V163.445H72.9243V161.719C71.8579 161.757 70.8296 161.757 69.9155 161.757L69.8013 161.008ZM70.6772 158.672C70.6772 157.625 71.7817 156.971 73.4829 156.971C75.165 156.971 76.2759 157.625 76.2886 158.672C76.2759 159.726 75.165 160.354 73.4829 160.36C71.7817 160.354 70.6772 159.726 70.6772 158.672ZM71.5278 164.537V163.813H79.145V166.149H72.5562V167.165H79.5132V167.901H71.5786V165.451H78.1548V164.537H71.5278ZM71.6167 158.672C71.6104 159.269 72.3467 159.675 73.4829 159.675C74.6064 159.675 75.3428 159.269 75.3491 158.672C75.3428 158.069 74.6064 157.663 73.4829 157.669C72.3467 157.663 71.6104 158.069 71.6167 158.672Z" fill="#666666"/>
<rect width="44" height="20" transform="translate(101 152)" fill="white"/>
<path d="M126.599 156.742V161.554H128.402V162.392H126.599V168.028H125.596V156.742H126.599ZM117.7 165.02C118.62 165.02 119.693 165.013 120.81 164.981V163.737C119.496 163.585 118.639 162.811 118.652 161.693C118.639 160.417 119.718 159.592 121.318 159.599C122.892 159.592 123.99 160.417 123.997 161.693C123.99 162.817 123.121 163.585 121.813 163.737V164.943C122.86 164.893 123.927 164.804 124.911 164.664L124.974 165.426C122.511 165.845 119.845 165.87 117.865 165.87L117.7 165.02ZM117.903 158.938V158.126H120.81V156.768H121.813V158.126H124.708V158.938H117.903ZM119.579 161.693C119.585 162.474 120.271 162.988 121.318 162.976C122.346 162.988 123.038 162.474 123.044 161.693C123.038 160.906 122.346 160.373 121.318 160.373C120.271 160.373 119.585 160.906 119.579 161.693Z" fill="#666666"/>
<rect width="44" height="20" transform="translate(149 152)" fill="white"/>
<path d="M175.746 160.747L175.304 161.605C173.497 161.293 171.742 160.279 170.988 158.875C170.26 160.292 168.505 161.293 166.685 161.605L166.256 160.747C168.375 160.435 170.429 159.031 170.429 157.367V156.717H171.547V157.367C171.547 158.992 173.627 160.435 175.746 160.747ZM176.253 162.866L176.266 163.75H171.495V167.975H170.429V163.75H165.723V162.866H176.253Z" fill="#666666"/>
<rect width="44" height="20" transform="translate(197 152)" fill="white"/>
<path d="M222.815 157.225V161.033H219.476V162.48H224.123V163.293H213.839V162.48H218.486V161.033H215.172V157.225H222.815ZM214.982 165.273V164.474H222.853V168.028H221.85V165.273H214.982ZM216.15 160.233H221.825V158.024H216.15V160.233Z" fill="#666666"/>
<rect width="44" height="20" transform="translate(245 152)" fill="white"/>
<path d="M264.05 164.517V166.948H269.913V164.517H264.05ZM263.01 167.806V163.659H270.966V167.806H263.01ZM270.615 161.215H272.292V162.073H261.697V161.215H269.536C269.874 159.759 269.874 158.693 269.874 157.783H263.049V156.925H270.927V157.783C270.927 158.693 270.927 159.759 270.615 161.215Z" fill="#666666"/>
<rect width="44" height="20" transform="translate(293 152)" fill="white"/>
<path d="M318.98 162.62V163.433H315.476V165.794H320.173V166.619H309.839V165.794H314.486V163.433H311.172V157.669H318.853V158.494H312.188V160.106H318.612V160.919H312.188V162.62H318.98Z" fill="black"/>
<path fill-rule="evenodd" clip-rule="evenodd" d="M333.586 116L328.293 121.293L329.707 122.707L336.414 116L329.707 109.293L328.293 110.707L333.586 116Z" fill="#DDDDDD"/>
<path d="M115.913 121L115.896 119.084L120.466 114.883C121.652 113.749 122.294 113.046 122.294 112.035C122.294 110.901 121.441 110.198 120.272 110.207C119.077 110.198 118.295 110.954 118.304 112.176H115.79C115.781 109.688 117.627 108.098 120.308 108.098C123.032 108.098 124.843 109.653 124.843 111.859C124.843 113.31 124.14 114.496 121.521 116.869L119.587 118.75V118.82H125.019V121H115.913ZM131.839 121.176C128.648 121.176 126.724 118.803 126.724 114.637C126.724 110.479 128.666 108.098 131.839 108.098C135.012 108.098 136.954 110.479 136.954 114.637C136.954 118.82 135.021 121.176 131.839 121.176ZM129.431 114.637C129.413 117.572 130.362 118.996 131.839 118.996C133.315 118.996 134.256 117.572 134.247 114.637C134.256 111.728 133.307 110.269 131.839 110.26C130.371 110.269 129.431 111.728 129.431 114.637ZM138.782 121L138.765 119.084L143.335 114.883C144.521 113.749 145.163 113.046 145.163 112.035C145.163 110.901 144.311 110.198 143.142 110.207C141.946 110.198 141.164 110.954 141.173 112.176H138.659C138.65 109.688 140.496 108.098 143.177 108.098C145.901 108.098 147.712 109.653 147.712 111.859C147.712 113.31 147.009 114.496 144.39 116.869L142.456 118.75V118.82H147.888V121H138.782ZM149.276 118.75V116.658L154.655 108.273H157.978V116.623H159.595V118.75H157.978V121H155.464V118.75H149.276ZM151.948 116.623H155.499V111.174H155.376L151.948 116.518V116.623ZM174.272 106.639V118.398H172.04V113.16H168.067V111.402H172.04V110.172H168.067V108.414H172.04V106.639H174.272ZM161.687 116.324V107.641H163.901V114.479C165.853 114.452 167.698 114.329 169.685 113.969L169.913 115.779C167.514 116.236 165.36 116.315 162.97 116.324H161.687ZM163.638 122.336V117.344H165.888V120.543H174.659V122.336H163.638ZM185.733 121.176C182.938 121.176 180.935 119.638 180.882 117.414H183.554C183.598 118.363 184.521 118.987 185.751 118.996C187.017 118.987 187.922 118.284 187.913 117.256C187.922 116.219 186.999 115.489 185.505 115.48H184.327V113.529H185.505C186.762 113.529 187.641 112.844 187.632 111.842C187.641 110.866 186.894 110.198 185.769 110.207C184.644 110.198 183.721 110.831 183.677 111.807H181.146C181.189 109.618 183.158 108.098 185.769 108.098C188.423 108.098 190.189 109.671 190.181 111.684C190.189 113.107 189.196 114.118 187.772 114.373V114.479C189.645 114.707 190.673 115.841 190.655 117.432C190.673 119.611 188.607 121.176 185.733 121.176ZM205.544 106.639V115.902H203.294V115.393H200.394V114.039H203.294V106.639H205.544ZM191.991 112.264C195.085 112.272 198.917 112.255 202.345 111.93L202.45 113.318C201.035 113.503 199.585 113.626 198.161 113.705V115.938H195.946V113.784C194.637 113.819 193.38 113.819 192.22 113.811L191.991 112.264ZM193.081 109.258C193.081 107.816 194.698 106.858 197.142 106.85C199.523 106.858 201.158 107.816 201.167 109.258C201.158 110.743 199.523 111.657 197.142 111.648C194.698 111.657 193.081 110.743 193.081 109.258ZM194.276 117.889V116.377H205.544V120.121H196.544V120.947H205.913V122.512H194.347V118.68H203.312V117.889H194.276ZM195.208 109.258C195.19 109.847 195.929 110.181 197.142 110.189C198.319 110.181 199.066 109.847 199.075 109.258C199.066 108.669 198.319 108.317 197.142 108.326C195.929 108.317 195.19 108.669 195.208 109.258Z" fill="black"/>
<path fill-rule="evenodd" clip-rule="evenodd" d="M222.558 116.232L217.265 110.939L215.851 112.354L222.558 119.061L229.265 112.354L227.851 110.939L222.558 116.232Z" fill="black"/>
<path fill-rule="evenodd" clip-rule="evenodd" d="M9.41436 116L14.7073 110.707L13.293 109.293L6.58594 116L13.293 122.707L14.7073 121.293L9.41436 116Z" fill="black"/>
<path d="M13.96 5.384V8.504C13.96 12.128 14.512 14.744 15.64 16.328C16.576 17.672 17.8 18.608 19.312 19.088V21.824C16.768 21.368 14.68 20.192 13.096 18.272C12.76 17.888 12.472 17.48 12.208 17C11.92 17.48 11.632 17.888 11.32 18.272C9.712 20.192 7.648 21.368 5.104 21.824V19.088C6.592 18.608 7.816 17.672 8.776 16.328C9.88 14.744 10.456 12.128 10.456 8.504V5.384H13.96ZM27.424 14.72H24.352V26.168H20.824V5.072H24.352V11.936H27.424V14.72ZM44.1588 5.696C46.6548 5.696 47.9268 6.968 47.9268 9.464V19.232H44.3988V10.208C44.3988 9.056 43.7988 8.456 42.6228 8.456H30.8867V5.696H44.1588ZM40.0788 13.448V21.272H50.4228V24.032H28.7028V21.272H36.4788V13.448H40.0788ZM52.4695 15.608C52.4695 13.448 52.8535 11.456 53.6215 9.632C54.3895 7.808 55.4695 6.224 56.8615 4.832H60.3895C58.7815 6.68 57.6295 8.504 56.9575 10.28C56.2615 12.08 55.9255 13.856 55.9255 15.608C55.9255 17.36 56.2615 19.136 56.9575 20.936C57.6295 22.76 58.7815 24.56 60.3895 26.384H56.8615C55.4695 25.04 54.3895 23.456 53.6215 21.584C52.8535 19.76 52.4695 17.768 52.4695 15.608ZM70.8139 13.184V10.448H65.6059V11.864C65.6059 12.752 66.0619 13.184 66.9979 13.184H70.8139ZM74.2939 15.68H66.1339C63.4459 15.68 62.1019 14.552 62.1019 12.248V5.24H65.6059V7.976H70.8139V5.24H74.2939V15.68ZM80.4859 9.152H83.5099V11.864H80.4859V15.896H76.9579V5.072H80.4859V9.152ZM80.4859 22.64H67.6939V22.856C67.6939 23.36 68.1259 23.6 68.9899 23.6H80.5339V26.12H68.1499C65.4859 26.12 64.1659 24.896 64.1659 22.424V20.168H76.9579V19.28H64.1659V16.784H79.8619C80.2699 16.784 80.4859 17 80.4859 17.432V22.64ZM94.3167 13.376V10.544H89.1087V11.888C89.1087 12.896 89.5647 13.376 90.5007 13.376H94.3167ZM97.7967 15.872H89.6367C86.9487 15.872 85.6047 14.624 85.6047 12.08V5.36H89.1087V8.072H94.3167V5.36H97.7967V7.328H101.349V5.072H104.877V16.664H101.349V14.12H97.7967V15.872ZM97.7967 9.92V11.528H101.349V9.92H97.7967ZM104.709 21.512C104.709 22.976 104.085 24.224 102.837 25.256C101.589 26.312 99.9327 26.84 97.8687 26.84C95.8047 26.84 94.1727 26.312 92.9247 25.256C91.6527 24.224 91.0287 22.976 91.0287 21.512C91.0287 20.072 91.6527 18.824 92.9247 17.792C94.1727 16.784 95.8047 16.256 97.8687 16.256C99.9327 16.256 101.589 16.784 102.837 17.792C104.085 18.824 104.709 20.072 104.709 21.512ZM97.8687 18.848C96.8607 18.848 96.0447 19.112 95.4687 19.64C94.8447 20.168 94.5567 20.792 94.5567 21.512C94.5567 22.232 94.8447 22.88 95.4687 23.408C96.0447 23.96 96.8607 24.224 97.8687 24.224C98.8527 24.224 99.6447 23.96 100.269 23.408C100.869 22.88 101.181 22.256 101.181 21.512C101.181 20.792 100.869 20.168 100.269 19.64C99.6447 19.112 98.8527 18.848 97.8687 18.848ZM114.452 15.608C114.452 17.768 114.068 19.76 113.3 21.584C112.532 23.456 111.452 25.04 110.06 26.384H106.532C108.116 24.56 109.268 22.76 109.964 20.936C110.636 19.136 110.996 17.36 110.996 15.608C110.996 13.856 110.636 12.08 109.964 10.28C109.268 8.504 108.116 6.68 106.532 4.832H110.06C111.452 6.224 112.532 7.808 113.3 9.632C114.068 11.456 114.452 13.448 114.452 15.608ZM123.34 15.992C121.396 15.992 119.836 15.488 118.636 14.432C117.436 13.4 116.836 12.104 116.836 10.568C116.836 8.984 117.436 7.688 118.636 6.632C119.836 5.6 121.396 5.072 123.34 5.072C125.26 5.072 126.844 5.6 128.044 6.632C129.244 7.688 129.844 8.984 129.844 10.568C129.844 12.104 129.244 13.4 128.044 14.432C126.844 15.488 125.26 15.992 123.34 15.992ZM123.34 13.448C124.156 13.448 124.852 13.184 125.452 12.656C126.028 12.128 126.316 11.432 126.316 10.568C126.316 9.68 126.028 8.96 125.452 8.408C124.852 7.88 124.156 7.592 123.34 7.592C122.524 7.592 121.828 7.88 121.252 8.408C120.652 8.96 120.364 9.68 120.364 10.568C120.364 11.432 120.652 12.128 121.252 12.656C121.828 13.184 122.524 13.448 123.34 13.448ZM132.412 15.896V5.072H135.964V15.896H132.412ZM135.964 22.64H123.172V22.856C123.172 23.36 123.604 23.6 124.468 23.6H136.012V26.12H123.628C120.964 26.12 119.644 24.896 119.644 22.424V20.168H132.436V19.28H119.644V16.784H135.34C135.748 16.784 135.964 17 135.964 17.432V22.64ZM144.501 8.96C144.501 9.512 144.909 9.896 145.749 10.088C146.565 10.304 147.837 10.4 149.613 10.4C151.341 10.4 152.661 10.304 153.525 10.088C154.365 9.896 154.797 9.512 154.797 8.96C154.797 8.432 154.365 8.024 153.501 7.76C152.637 7.52 151.341 7.376 149.613 7.376C147.885 7.376 146.589 7.52 145.773 7.76C144.909 8.024 144.501 8.432 144.501 8.96ZM140.877 8.936C140.877 7.592 141.621 6.584 143.157 5.936C144.645 5.312 146.805 5 149.637 5C152.469 5 154.629 5.312 156.165 5.912C157.653 6.536 158.421 7.544 158.421 8.912C158.421 10.304 157.653 11.288 156.165 11.864C154.629 12.464 152.469 12.752 149.637 12.752C146.805 12.752 144.645 12.464 143.157 11.864C141.621 11.288 140.877 10.328 140.877 8.936ZM138.789 13.616H160.509V16.088H138.789V13.616ZM141.309 22.616V20.504H154.437V19.664H141.309V17.312H157.341C157.749 17.312 157.965 17.528 157.965 17.96V22.832H144.837V23C144.837 23.504 145.269 23.744 146.133 23.744H158.013V26.12H145.293C142.629 26.12 141.309 24.968 141.309 22.616ZM13.504 36.384V37.536C13.504 40.584 14.152 42.888 15.448 44.424C16.456 45.624 17.608 46.416 18.856 46.8V49.464C16.696 49.08 14.776 48.096 13.12 46.512C12.592 46.032 12.136 45.456 11.752 44.832C11.368 45.456 10.912 46.032 10.384 46.512C8.704 48.096 6.808 49.08 4.648 49.464V46.8C5.896 46.416 7.024 45.624 8.056 44.424C9.352 42.888 10 40.584 10 37.536V36.384H13.504ZM21.544 36.072H25.072V51.36H21.544V42.816H16.408V40.056H21.544V36.072ZM14.152 54.456H25.312V57.12H12.952C10.264 57.12 8.944 55.872 8.944 53.328V49.968H12.496V52.752C12.496 53.904 13.048 54.456 14.152 54.456ZM40.3351 47.496C39.5191 48.024 38.3911 48.264 36.9271 48.24H32.3191C29.7751 48.24 28.5271 47.088 28.5271 44.736V36.24H37.7671V38.76H31.8151V40.872H37.6951V43.368H31.8151V44.376C31.8151 45.288 32.2711 45.72 33.2071 45.72H36.7831C38.7031 45.72 39.9031 45.12 40.3351 43.896V36.072H43.6231V40.8H45.1111V36.072H48.4471V48.792H45.1111V43.536H43.6231V48.792H40.3351V47.496ZM31.9111 49.728H46.7671C47.8711 49.728 48.4471 50.304 48.4471 51.408V57.312H44.8951V52.272H31.9111V49.728ZM53.3901 36.096H59.9661V38.76H53.3901V36.096ZM62.5101 42.144H50.7981V39.504H62.5101V42.144ZM62.0541 48.168C62.0541 49.704 61.5501 51 60.5421 52.032C59.5341 53.088 58.2381 53.616 56.6541 53.616C55.0701 53.616 53.7981 53.088 52.8141 52.032C51.8061 51 51.3021 49.704 51.3021 48.168C51.3021 46.632 51.8061 45.336 52.8141 44.28C53.7981 43.248 55.0701 42.72 56.6541 42.72C58.2381 42.72 59.5341 43.248 60.5421 44.28C61.5501 45.336 62.0541 46.632 62.0541 48.168ZM58.7421 48.168C58.7421 47.28 58.5501 46.584 58.1661 46.08C57.7821 45.6 57.2541 45.336 56.6301 45.336C56.0061 45.336 55.5261 45.576 55.1661 46.056C54.7821 46.56 54.6141 47.256 54.6141 48.168C54.6141 49.08 54.7821 49.776 55.1661 50.256C55.5261 50.76 56.0061 51 56.6301 51C57.2541 51 57.7821 50.76 58.1661 50.256C58.5501 49.776 58.7421 49.08 58.7421 48.168ZM68.1501 36.072H71.4861V57.168H68.1501V45.744H66.6621V57.168H63.3741V36.072H66.6621V42.984H68.1501V36.072ZM93.9732 39.096H86.8452C87.1092 40.536 87.9492 41.736 89.3652 42.696C90.7332 43.656 92.3652 44.184 94.2852 44.232V46.92C91.6452 46.944 89.3172 46.32 87.2532 45.048C86.3412 44.496 85.5732 43.848 84.9732 43.08C84.3492 43.848 83.5812 44.496 82.6692 45.048C80.6052 46.32 78.2532 46.944 75.6372 46.92V44.232C77.5332 44.184 79.1652 43.656 80.5572 42.696C81.9492 41.736 82.7892 40.536 83.0772 39.096H75.9732V36.384H93.9732V39.096ZM95.8212 51H86.7492V57.168H83.1492V51H74.1012V48.24H95.8212V51ZM105.116 39.504C105.116 43.176 105.596 45.792 106.58 47.352C107.348 48.624 108.308 49.488 109.436 49.92V52.92C107.372 52.368 105.62 51.168 104.204 49.344C103.916 49.008 103.676 48.624 103.46 48.192C103.22 48.624 102.98 49.008 102.716 49.344C101.276 51.168 99.5479 52.368 97.4839 52.92V49.92C98.5879 49.488 99.5479 48.624 100.34 47.352C101.3 45.792 101.804 43.176 101.804 39.528V36.384H105.116V39.504ZM114.908 36.072H118.244V57.168H114.908V36.072ZM110.348 36.072H113.636V57.168H110.348V45H106.916V42.192H110.348V36.072ZM122.947 42.648C122.947 40.92 123.739 39.432 125.347 38.184C126.931 36.984 129.067 36.36 131.707 36.36C134.347 36.36 136.459 36.984 138.067 38.184C139.651 39.432 140.467 40.92 140.467 42.648C140.467 44.616 139.435 46.272 137.395 47.568V52.272H142.579V55.032H120.859V52.272H126.067V47.592C123.979 46.296 122.947 44.64 122.947 42.648ZM133.843 48.792C133.171 48.888 132.451 48.936 131.707 48.936C130.963 48.936 130.267 48.888 129.619 48.792V52.272H133.843V48.792ZM136.843 42.648C136.843 41.616 136.363 40.752 135.403 40.08C134.443 39.408 133.195 39.072 131.707 39.072C130.171 39.072 128.947 39.408 128.011 40.08C127.051 40.752 126.571 41.616 126.571 42.648C126.571 43.704 127.051 44.544 128.011 45.216C128.947 45.888 130.171 46.224 131.707 46.224C133.195 46.224 134.443 45.888 135.403 45.216C136.363 44.544 136.843 43.704 136.843 42.648Z" fill="black"/>
</g>
<defs>
<filter id="filter0_d_37_1128" x="0" y="4.832" width="343" height="451.168" filterUnits="userSpaceOnUse" color-interpolation-filters="sRGB">
<feFlood flood-opacity="0" result="BackgroundImageFix"/>
<feColorMatrix in="SourceAlpha" type="matrix" values="0 0 0 0 0 0 0 0 0 0 0 0 0 0 0 0 0 0 127 0" result="hardAlpha"/>
<feOffset dy="4"/>
<feGaussianBlur stdDeviation="2"/>
<feComposite in2="hardAlpha" operator="out"/>
<feColorMatrix type="matrix" values="0 0 0 0 0 0 0 0 0 0 0 0 0 0 0 0 0 0 0.25 0"/>
<feBlend mode="normal" in2="BackgroundImageFix" result="effect1_dropShadow_37_1128"/>
<feBlend mode="normal" in="SourceGraphic" in2="effect1_dropShadow_37_1128" result="shape"/>
</filter>
</defs>
</svg>
