<svg width="375" height="80" viewBox="0 0 375 80" fill="none" xmlns="http://www.w3.org/2000/svg">
<g clip-path="url(#clip0_2070_1017)">
<rect width="375" height="80" fill="white"/>
<rect x="20" y="15" width="335" height="50" rx="25" fill="#EEEEEE"/>
<path d="M136.656 36.4375C136.648 38.9844 137.734 41.5547 140.016 42.6562L138.812 44.25C137.289 43.4922 136.258 42.0859 135.672 40.375C135.047 42.2109 133.953 43.7188 132.344 44.5156L131.109 42.9062C133.523 41.7969 134.656 39.0781 134.656 36.4375V34.3125H136.656V36.4375ZM140.641 47.4375V33.2188H142.641V38.7031H144.734V40.3906H142.641V47.4375H140.641ZM156.969 34.4531V35.7969C156.961 37.5781 156.961 39.5781 156.391 42.5938L154.391 42.3906C154.938 39.7031 154.961 37.7031 154.969 36.0312H146.594V34.4531H156.969ZM145.25 45.7031V44.0781H149.891V39.1875H151.875V44.0781H158.219V45.7031H145.25ZM159.906 41.6875C159.914 38.75 160.82 36.3047 162.312 34.2031H164.516C163.438 35.7578 162.312 38.8906 162.312 41.6875C162.312 44.4922 163.438 47.6172 164.516 49.1875H162.312C160.82 47.0781 159.914 44.6328 159.906 41.6875ZM167.719 33.8594V35.5469H170.625V33.8594H172.625V40.0625H165.734V33.8594H167.719ZM167.156 42.5312V40.9844H176.594V44.8438H169.141V45.7656H177V47.3438H167.188V43.4219H174.609V42.5312H167.156ZM167.719 38.5H170.625V37.0469H167.719V38.5ZM174.594 40.4531V33.2188H176.594V35.9844H178.516V37.5938H176.594V40.4531H174.594ZM181.75 34.0781V36H184.547V34.0781H186.516V35.3125H189.141V33.2188H191.125V41.7188H189.141V39.8125H186.516V40.8906H179.75V34.0781H181.75ZM181.375 44.7188C181.375 42.9766 183.234 41.9609 186.266 41.9531C189.305 41.9609 191.164 42.9766 191.172 44.7188C191.164 46.4453 189.305 47.4453 186.266 47.4375C183.234 47.4453 181.375 46.4453 181.375 44.7188ZM181.75 39.3438H184.547V37.5312H181.75V39.3438ZM183.359 44.7188C183.359 45.5156 184.383 45.9219 186.266 45.9219C188.156 45.9219 189.18 45.5156 189.188 44.7188C189.18 43.8828 188.156 43.4766 186.266 43.4844C184.383 43.4766 183.359 43.8828 183.359 44.7188ZM186.516 38.2188H189.141V36.8906H186.516V38.2188ZM197.531 41.6875C197.523 44.6328 196.617 47.0781 195.125 49.1875H192.922C194 47.6172 195.125 44.4922 195.125 41.6875C195.125 38.8906 194 35.7578 192.922 34.2031H195.125C196.617 36.3047 197.523 38.75 197.531 41.6875ZM203.25 33.6406C205.414 33.6328 207.039 34.9922 207.047 36.8906C207.039 38.7734 205.414 40.1172 203.25 40.125C201.055 40.1172 199.422 38.7734 199.422 36.8906C199.422 34.9922 201.055 33.6328 203.25 33.6406ZM201.359 36.8906C201.344 37.9062 202.148 38.5078 203.25 38.5156C204.328 38.5078 205.117 37.9062 205.125 36.8906C205.117 35.8672 204.328 35.2656 203.25 35.2656C202.156 35.2656 201.344 35.8672 201.359 36.8906ZM201.562 42.4688V40.9375H211.109V44.7969H203.547V45.7188H211.5V47.2812H201.594V43.3438H209.125V42.4688H201.562ZM209.109 40.3438V33.2188H211.109V40.3438H209.109ZM222.047 35.6562C222.047 37.4922 223.031 39.3203 225.297 40.0781L224.219 41.6406C222.711 41.0859 221.672 40.0391 221.07 38.7188C220.461 40.2109 219.352 41.375 217.703 41.9688L216.625 40.4062C219 39.625 220.023 37.6797 220.031 35.6406V34.0938H222.047V35.6562ZM219.234 47.1875V42.625H221.25V45.5938H229V47.1875H219.234ZM224.047 37.8594V36.25H226.719V33.2344H228.703V43.7344H226.719V37.8594H224.047ZM236.672 34.1719V35.7656H232.953V36.9375H236.531V38.4531H232.953V39.7109C234.531 39.6953 235.695 39.6328 237.016 39.4062L237.219 41C235.555 41.2969 234.164 41.3516 232.016 41.3438H231.047V34.1719H236.672ZM232.938 44.0938V42.5H242.766V47.4375H240.781V44.0938H232.938ZM237.781 41.7969V33.4844H239.641V36.7031H240.875V33.2344H242.766V41.9062H240.875V38.2969H239.641V41.7969H237.781Z" fill="#CCCCCC"/>
</g>
<defs>
<clipPath id="clip0_2070_1017">
<rect width="375" height="80" fill="white"/>
</clipPath>
</defs>
</svg>
