<svg width="375" height="812" viewBox="0 0 375 812" fill="none" xmlns="http://www.w3.org/2000/svg">
<g clip-path="url(#clip0_37_971)">
<rect width="375" height="812" fill="white"/>
<path d="M24.9658 101.962C24.9731 103.581 26.3721 105.045 28.291 105.609L27.7344 106.503C26.2256 106.049 25.0244 105.067 24.4312 103.786C23.8745 105.207 22.6807 106.327 21.1279 106.84L20.5713 105.961C22.4829 105.316 23.8306 103.727 23.8379 101.962V101.684H20.8936V100.761H23.8379V99.1055H24.9951V100.761H27.9102V101.684H24.9658V101.962ZM22.6367 109.784C22.6294 108.268 24.292 107.404 27.002 107.411C29.7046 107.404 31.3672 108.268 31.3672 109.784C31.3672 111.293 29.7046 112.157 27.002 112.157C24.292 112.157 22.6294 111.293 22.6367 109.784ZM23.7793 109.784C23.772 110.692 25.0024 111.249 27.002 111.249C29.0015 111.249 30.2246 110.692 30.2246 109.784C30.2246 108.854 29.0015 108.319 27.002 108.305C25.0024 108.319 23.772 108.854 23.7793 109.784ZM27.5 103.852V102.899H30.166V99.1641H31.3232V107.06H30.166V103.852H27.5ZM43.7891 100.014V101.156C43.7891 102.387 43.7891 103.742 43.4155 105.609H45.3564V106.562H39.9805V112.216H38.8232V106.562H33.4912V105.609H42.251C42.6465 103.734 42.6465 102.372 42.6465 101.156V100.966H34.9854V100.014H43.7891ZM61.3525 99.1641V112.187H60.2539V105.36H58.335V111.513H57.2803V99.457H58.335V104.408H60.2539V99.1641H61.3525ZM50.7031 108.964V100.761H55.5811V101.713H51.8457V107.982C53.6401 107.975 54.8779 107.909 56.3281 107.616L56.4307 108.583C54.8633 108.905 53.5376 108.957 51.5381 108.964H50.7031ZM67.5342 101.273C67.5342 103.046 68.8818 104.672 70.7715 105.316L70.1416 106.225C68.7061 105.697 67.5708 104.621 66.9995 103.258C66.4429 104.804 65.2783 105.998 63.7549 106.591L63.1396 105.668C65.0879 104.943 66.3989 103.2 66.4062 101.186V99.8379H67.5342V101.273ZM64.8682 109.784C64.8755 108.297 66.5088 107.426 69.1895 107.426C71.8628 107.426 73.4814 108.297 73.4814 109.784C73.4814 111.3 71.8628 112.157 69.1895 112.157C66.5088 112.157 64.8755 111.3 64.8682 109.784ZM66.0254 109.784C66.0107 110.707 67.2266 111.242 69.1895 111.249C71.1597 111.242 72.3608 110.707 72.3682 109.784C72.3608 108.898 71.1597 108.349 69.1895 108.349C67.2266 108.349 66.0107 108.898 66.0254 109.784ZM72.2217 107.089V99.1641H73.3643V102.562H75.3271V103.529H73.3643V107.089H72.2217ZM80.5566 103.163C80.542 105.25 82.0508 107.55 83.9404 108.451L83.2812 109.359C81.8164 108.642 80.5786 107.104 79.9927 105.338C79.3921 107.25 78.0884 108.935 76.6309 109.682L75.9277 108.773C77.8027 107.858 79.4141 105.382 79.4287 103.163V101.464H76.3965V100.512H83.4863V101.464H80.5566V103.163ZM85.083 112.187V99.1641H86.2256V104.438H88.4082V105.419H86.2256V112.187H85.083ZM103.672 99.1641V106.928H102.515V103.515H99.8926V102.562H102.515V99.1641H103.672ZM92.9346 105.888C94.8682 105.192 96.2451 103.427 96.2451 101.566V101.083H93.3008V100.116H100.317V101.083H97.4023V101.552C97.4023 103.251 98.7061 104.87 100.61 105.521L100.01 106.444C98.5522 105.917 97.417 104.818 96.853 103.478C96.2964 105.001 95.0879 106.217 93.5352 106.811L92.9346 105.888ZM94.9854 109.755C94.978 108.224 96.6406 107.331 99.3506 107.338C102.053 107.331 103.716 108.224 103.716 109.755C103.716 111.293 102.053 112.172 99.3506 112.187C96.6406 112.172 94.978 111.293 94.9854 109.755ZM96.1279 109.755C96.1206 110.7 97.3511 111.271 99.3506 111.264C101.343 111.271 102.573 110.7 102.573 109.755C102.573 108.803 101.343 108.231 99.3506 108.231C97.3511 108.231 96.1206 108.803 96.1279 109.755ZM117.764 109.564V110.517H105.84V109.564H111.201V106.752H107.246V100.087H108.403V102.445H115.171V100.087H116.299V106.752H112.329V109.564H117.764ZM108.403 105.814H115.171V103.383H108.403V105.814Z" fill="black"/>
<rect x="20.5" y="123.5" width="333.997" height="82" rx="15.5" fill="white"/>
<rect x="20.5" y="123.5" width="333.997" height="82" rx="15.5" stroke="#E8E8E8"/>
<path d="M54.8828 145.953V158.107H53.8574V145.953H54.8828ZM44.3418 154.867C46.0371 153.855 47.0283 151.634 47.0215 149.426V148.277H44.6836V147.389H50.2891V148.277H48.0605V149.426C48.0605 151.524 49.0107 153.623 50.6855 154.594L50.0293 155.387C48.833 154.669 47.9854 153.356 47.5615 151.812C47.124 153.486 46.2422 154.915 45.0254 155.674L44.3418 154.867ZM49.3594 151.217V150.342H51.4102V146.254H52.4219V157.479H51.4102V151.217H49.3594ZM60.4473 157.137C58.4785 157.137 57.0635 156.084 57.002 154.512H58.2461C58.3145 155.455 59.251 156.043 60.4336 156.043C61.7393 156.043 62.6826 155.339 62.6895 154.307C62.6826 153.227 61.8213 152.468 60.2832 152.461H59.4766V151.381H60.2832C61.4863 151.381 62.3271 150.704 62.3203 149.686C62.3271 148.694 61.6025 148.038 60.4746 148.031C59.415 148.038 58.4512 148.619 58.3965 149.59H57.207C57.2686 148.018 58.7314 146.965 60.4883 146.965C62.375 146.965 63.5234 148.202 63.5098 149.617C63.5234 150.745 62.8672 151.565 61.8281 151.859V151.928C63.1201 152.126 63.8994 153.049 63.8926 154.307C63.8994 155.934 62.4229 157.137 60.4473 157.137ZM69.3477 149.686C69.334 151.634 70.7422 153.78 72.5059 154.621L71.8906 155.469C70.5234 154.799 69.3682 153.363 68.8213 151.716C68.2607 153.5 67.0439 155.072 65.6836 155.77L65.0273 154.922C66.7773 154.067 68.2812 151.757 68.2949 149.686V148.1H65.4648V147.211H72.082V148.1H69.3477V149.686ZM73.5723 158.107V145.953H74.6387V150.875H76.6758V151.791H74.6387V158.107H73.5723ZM90.9219 145.953V153.199H89.8418V150.014H87.3945V149.125H89.8418V145.953H90.9219ZM80.9004 152.229C82.7051 151.579 83.9902 149.932 83.9902 148.195V147.744H81.2422V146.842H87.791V147.744H85.0703V148.182C85.0703 149.768 86.2871 151.278 88.0645 151.887L87.5039 152.748C86.1436 152.256 85.084 151.23 84.5576 149.979C84.0381 151.401 82.9102 152.536 81.4609 153.09L80.9004 152.229ZM82.8145 155.838C82.8076 154.409 84.3594 153.575 86.8887 153.582C89.4111 153.575 90.9629 154.409 90.9629 155.838C90.9629 157.273 89.4111 158.094 86.8887 158.107C84.3594 158.094 82.8076 157.273 82.8145 155.838ZM83.8809 155.838C83.874 156.72 85.0225 157.253 86.8887 157.246C88.748 157.253 89.8965 156.72 89.8965 155.838C89.8965 154.949 88.748 154.416 86.8887 154.416C85.0225 154.416 83.874 154.949 83.8809 155.838ZM104.074 155.66V156.549H92.9453V155.66H97.9492V153.035H94.2578V146.814H95.3379V149.016H101.654V146.814H102.707V153.035H99.002V155.66H104.074ZM95.3379 152.16H101.654V149.891H95.3379V152.16Z" fill="#777777"/>
<path d="M51.9688 169.047C51.9688 172.797 49.5156 175.359 45.2656 176.453L44.5 174.906C47.7031 174.086 49.5156 172.508 49.8281 170.594H45.3281V169.047H51.9688ZM46.8438 182.266V176.75H56.3281V182.266H46.8438ZM48.8281 180.703H54.375V178.312H48.8281V180.703ZM54.3281 176.172V168.234H56.3281V176.172H54.3281ZM69.5312 168.234V172.594H71.4531V174.219H69.5312V178.844H67.5312V168.234H69.5312ZM58.25 171.297V169.719H61.4844V168.203H63.4688V169.719H66.6875V171.297H58.25ZM58.9375 174.547C58.9375 172.898 60.3984 171.797 62.4688 171.797C64.5312 171.797 65.9688 172.898 65.9688 174.547C65.9688 176.188 64.5312 177.266 62.4688 177.266C60.3984 177.266 58.9375 176.188 58.9375 174.547ZM60.3125 182.188V178.031H62.2969V180.594H70.0469V182.188H60.3125ZM60.8906 174.547C60.8828 175.328 61.5156 175.75 62.4688 175.75C63.4297 175.75 64.0781 175.328 64.0781 174.547C64.0781 173.758 63.4297 173.32 62.4688 173.312C61.5156 173.32 60.8828 173.758 60.8906 174.547ZM83.4531 168.219V174H85.3125V175.656H83.4531V182.438H81.4375V168.219H83.4531ZM71.9062 178.422C72.9453 178.422 74.1562 178.422 75.4219 178.391V177.172C73.9141 176.875 72.9297 175.914 72.9375 174.594C72.9297 173.008 74.3672 171.922 76.4375 171.922C78.4688 171.922 79.9219 173.008 79.9375 174.594C79.9219 175.914 78.9219 176.883 77.4219 177.172V178.32C78.5469 178.258 79.6797 178.164 80.7344 178.016L80.8594 179.469C77.8359 180.031 74.5703 180.055 72.1719 180.047L71.9062 178.422ZM72.1875 171.359V169.797H75.4219V168.297H77.4219V169.797H80.625V171.359H72.1875ZM74.8281 174.594C74.8203 175.344 75.4609 175.75 76.4375 175.75C77.3828 175.75 78.0156 175.344 78.0156 174.594C78.0156 173.859 77.3828 173.445 76.4375 173.438C75.4609 173.445 74.8203 173.859 74.8281 174.594ZM88.9062 179.844L87.5625 184.297H85.9062L86.6875 179.844H88.9062ZM101.219 169.047C101.219 172.797 98.7656 175.359 94.5156 176.453L93.75 174.906C96.9531 174.086 98.7656 172.508 99.0781 170.594H94.5781V169.047H101.219ZM96.0938 182.266V176.75H105.578V182.266H96.0938ZM98.0781 180.703H103.625V178.312H98.0781V180.703ZM103.578 176.172V168.234H105.578V176.172H103.578ZM112.75 172.094C112.742 174.258 113.898 176.758 116.234 177.844L115.125 179.406C113.539 178.68 112.414 177.227 111.773 175.523C111.141 177.398 109.969 178.992 108.328 179.766L107.172 178.188C109.539 177.086 110.734 174.445 110.75 172.094V171.219H107.734V169.594H115.609V171.219H112.75V172.094ZM116.719 182.438V168.219H118.719V173.641H120.812V175.312H118.719V182.438H116.719ZM133.344 168.219V182.469H131.359V175.984H127.531V174.375H131.359V172.797H127.531V171.203H131.359V168.219H133.344ZM122.062 179.391V169.703H124.062V177.727C126.062 177.703 127.617 177.609 129.312 177.281L129.5 178.922C127.516 179.305 125.719 179.391 123.234 179.391H122.062Z" fill="black"/>
<path d="M324.293 158.793C324.654 158.432 325.221 158.405 325.613 158.71L325.707 158.793L330.704 163.793C331.064 164.154 331.092 164.721 330.787 165.113L330.704 165.207L325.707 170.207C325.317 170.598 324.684 170.598 324.293 170.207C323.933 169.847 323.905 169.28 324.21 168.887L324.293 168.793L328.583 164.499L324.293 160.207C323.932 159.846 323.905 159.279 324.21 158.887L324.293 158.793Z" fill="#FF6600"/>
<rect x="20.5" y="214.5" width="333.997" height="82" rx="15.5" fill="white"/>
<rect x="20.5" y="214.5" width="333.997" height="82" rx="15.5" stroke="#E8E8E8"/>
<path d="M48.6348 239.564C48.6416 241.075 49.9473 242.442 51.7383 242.969L51.2188 243.803C49.8105 243.379 48.6895 242.463 48.1357 241.267C47.6162 242.593 46.502 243.639 45.0527 244.117L44.5332 243.297C46.3174 242.695 47.5752 241.212 47.582 239.564V239.305H44.834V238.443H47.582V236.898H48.6621V238.443H51.3828V239.305H48.6348V239.564ZM46.4609 246.865C46.4541 245.45 48.0059 244.644 50.5352 244.65C53.0576 244.644 54.6094 245.45 54.6094 246.865C54.6094 248.273 53.0576 249.08 50.5352 249.08C48.0059 249.08 46.4541 248.273 46.4609 246.865ZM47.5273 246.865C47.5205 247.713 48.6689 248.232 50.5352 248.232C52.4014 248.232 53.543 247.713 53.543 246.865C53.543 245.997 52.4014 245.498 50.5352 245.484C48.6689 245.498 47.5205 245.997 47.5273 246.865ZM51 241.328V240.439H53.4883V236.953H54.5684V244.322H53.4883V241.328H51ZM66.2031 237.746V238.812C66.2031 239.961 66.2031 241.226 65.8545 242.969H67.666V243.857H62.6484V249.135H61.5684V243.857H56.5918V242.969H64.7676C65.1367 241.219 65.1367 239.947 65.1367 238.812V238.635H57.9863V237.746H66.2031ZM82.5957 236.953V249.107H81.5703V242.736H79.7793V248.479H78.7949V237.227H79.7793V241.848H81.5703V236.953H82.5957ZM72.6562 246.1V238.443H77.209V239.332H73.7227V245.184C75.3975 245.177 76.5527 245.115 77.9062 244.842L78.002 245.744C76.5391 246.045 75.3018 246.093 73.4355 246.1H72.6562ZM88.3652 238.922C88.3652 240.576 89.623 242.094 91.3867 242.695L90.7988 243.543C89.459 243.051 88.3994 242.046 87.8662 240.774C87.3467 242.217 86.2598 243.331 84.8379 243.885L84.2637 243.023C86.082 242.347 87.3057 240.72 87.3125 238.84V237.582H88.3652V238.922ZM85.877 246.865C85.8838 245.478 87.4082 244.664 89.9102 244.664C92.4053 244.664 93.916 245.478 93.916 246.865C93.916 248.28 92.4053 249.08 89.9102 249.08C87.4082 249.08 85.8838 248.28 85.877 246.865ZM86.957 246.865C86.9434 247.727 88.0781 248.226 89.9102 248.232C91.749 248.226 92.8701 247.727 92.877 246.865C92.8701 246.038 91.749 245.525 89.9102 245.525C88.0781 245.525 86.9434 246.038 86.957 246.865ZM92.7402 244.35V236.953H93.8066V240.125H95.6387V241.027H93.8066V244.35H92.7402ZM100.52 240.686C100.506 242.634 101.914 244.78 103.678 245.621L103.062 246.469C101.695 245.799 100.54 244.363 99.9932 242.716C99.4326 244.5 98.2158 246.072 96.8555 246.77L96.1992 245.922C97.9492 245.067 99.4531 242.757 99.4668 240.686V239.1H96.6367V238.211H103.254V239.1H100.52V240.686ZM104.744 249.107V236.953H105.811V241.875H107.848V242.791H105.811V249.107H104.744Z" fill="#777777"/>
<path d="M56.7188 259.219V273.438H54.8281V259.219H56.7188ZM44.125 269.281C46.2188 267.992 47 265.445 47 263.031V262.266H44.6719V260.672H51.0781V262.266H48.9219V263.031C48.9141 265.391 49.6562 267.781 51.7344 268.969L50.5625 270.438C49.2891 269.688 48.4609 268.422 47.9766 266.891C47.4922 268.547 46.6328 269.953 45.3281 270.75L44.125 269.281ZM50.0625 265.703V264.094H51.9375V259.453H53.8125V272.781H51.9375V265.703H50.0625ZM66.5938 272.156C64.1094 272.156 62.3281 270.789 62.2812 268.812H64.6562C64.6953 269.656 65.5156 270.211 66.6094 270.219C67.7344 270.211 68.5391 269.586 68.5312 268.672C68.5391 267.75 67.7188 267.102 66.3906 267.094H65.3438V265.359H66.3906C67.5078 265.359 68.2891 264.75 68.2812 263.859C68.2891 262.992 67.625 262.398 66.625 262.406C65.625 262.398 64.8047 262.961 64.7656 263.828H62.5156C62.5547 261.883 64.3047 260.531 66.625 260.531C68.9844 260.531 70.5547 261.93 70.5469 263.719C70.5547 264.984 69.6719 265.883 68.4062 266.109V266.203C70.0703 266.406 70.9844 267.414 70.9688 268.828C70.9844 270.766 69.1484 272.156 66.5938 272.156ZM77.4062 263.094C77.3984 265.258 78.5547 267.758 80.8906 268.844L79.7812 270.406C78.1953 269.68 77.0703 268.227 76.4297 266.523C75.7969 268.398 74.625 269.992 72.9844 270.766L71.8281 269.188C74.1953 268.086 75.3906 265.445 75.4062 263.094V262.219H72.3906V260.594H80.2656V262.219H77.4062V263.094ZM81.375 273.438V259.219H83.375V264.641H85.4688V266.312H83.375V273.438H81.375Z" fill="black"/>
<path d="M324.293 249.793C324.654 249.432 325.221 249.405 325.613 249.71L325.707 249.793L330.704 254.793C331.064 255.154 331.092 255.721 330.787 256.113L330.704 256.207L325.707 261.207C325.317 261.598 324.684 261.598 324.293 261.207C323.933 260.847 323.905 260.28 324.21 259.887L324.293 259.793L328.583 255.499L324.293 251.207C323.932 250.846 323.905 250.279 324.21 249.887L324.293 249.793Z" fill="#FF6600"/>
<rect width="375" height="24" fill="white"/>
<rect width="375" height="24" fill="white"/>
<path d="M19.4602 7.62358V16.3509H18.1392V8.9446H18.0881L16 10.3082V9.04687L18.1776 7.62358H19.4602Z" fill="black"/>
<path d="M21.821 16.3509V15.3963L24.7741 12.3366C25.0895 12.0043 25.3494 11.7131 25.554 11.4631C25.7614 11.2102 25.9162 10.9702 26.0185 10.7429C26.1207 10.5156 26.1719 10.2741 26.1719 10.0185C26.1719 9.72869 26.1037 9.47869 25.9673 9.26847C25.831 9.0554 25.6449 8.89205 25.4091 8.77841C25.1733 8.66193 24.9077 8.60369 24.6122 8.60369C24.2997 8.60369 24.027 8.66761 23.794 8.79545C23.5611 8.9233 23.3821 9.10369 23.2571 9.33665C23.1321 9.5696 23.0696 9.84233 23.0696 10.1548H21.8125C21.8125 9.62358 21.9347 9.15909 22.179 8.76136C22.4233 8.36364 22.7585 8.0554 23.1847 7.83665C23.6108 7.61506 24.0952 7.50426 24.6378 7.50426C25.1861 7.50426 25.669 7.61364 26.0866 7.83239C26.5071 8.0483 26.8352 8.34375 27.071 8.71875C27.3068 9.09091 27.4247 9.51136 27.4247 9.98011C27.4247 10.304 27.3636 10.6207 27.2415 10.9304C27.1222 11.2401 26.9134 11.5852 26.6151 11.9659C26.3168 12.3438 25.902 12.8026 25.3707 13.3423L23.6364 15.1577V15.2216H27.5653V16.3509H21.821Z" fill="black"/>
<path d="M30.0369 15.2685C29.804 15.2685 29.6037 15.1861 29.4361 15.0213C29.2685 14.8537 29.1847 14.652 29.1847 14.4162C29.1847 14.1832 29.2685 13.9844 29.4361 13.8196C29.6037 13.652 29.804 13.5682 30.0369 13.5682C30.2699 13.5682 30.4702 13.652 30.6378 13.8196C30.8054 13.9844 30.8892 14.1832 30.8892 14.4162C30.8892 14.5724 30.8494 14.7159 30.7699 14.8466C30.6932 14.9744 30.5909 15.0767 30.4631 15.1534C30.3352 15.2301 30.1932 15.2685 30.0369 15.2685ZM30.0369 10.8963C29.804 10.8963 29.6037 10.8139 29.4361 10.6491C29.2685 10.4815 29.1847 10.2798 29.1847 10.044C29.1847 9.81108 29.2685 9.61222 29.4361 9.44744C29.6037 9.27983 29.804 9.19602 30.0369 9.19602C30.2699 9.19602 30.4702 9.27983 30.6378 9.44744C30.8054 9.61222 30.8892 9.81108 30.8892 10.044C30.8892 10.2003 30.8494 10.3438 30.7699 10.4744C30.6932 10.6023 30.5909 10.7045 30.4631 10.7812C30.3352 10.858 30.1932 10.8963 30.0369 10.8963Z" fill="black"/>
<path d="M35.6172 16.4702C35.032 16.4702 34.5092 16.3693 34.049 16.1676C33.5916 15.9659 33.2294 15.6861 32.9624 15.3281C32.6982 14.9673 32.5561 14.5497 32.5362 14.0753H33.8743C33.8913 14.3338 33.978 14.5582 34.1342 14.7486C34.2933 14.9361 34.5007 15.081 34.7564 15.1832C35.0121 15.2855 35.2962 15.3366 35.6087 15.3366C35.9524 15.3366 36.2564 15.277 36.5206 15.1577C36.7876 15.0384 36.9965 14.8722 37.147 14.6591C37.2976 14.4432 37.3729 14.1946 37.3729 13.9134C37.3729 13.6207 37.2976 13.3636 37.147 13.142C36.9993 12.9176 36.782 12.7415 36.495 12.6136C36.2109 12.4858 35.8672 12.4219 35.4638 12.4219H34.7266V11.348H35.4638C35.7876 11.348 36.0717 11.2898 36.3161 11.1733C36.5632 11.0568 36.7564 10.8949 36.8956 10.6875C37.0348 10.4773 37.1044 10.2315 37.1044 9.95028C37.1044 9.6804 37.0433 9.44602 36.9212 9.24716C36.8018 9.04545 36.6314 8.88778 36.4098 8.77415C36.1911 8.66051 35.9325 8.60369 35.6342 8.60369C35.3501 8.60369 35.0845 8.65625 34.8374 8.76136C34.593 8.86364 34.3942 9.01136 34.2408 9.20455C34.0874 9.39489 34.005 9.62358 33.9936 9.89062H32.7195C32.7337 9.41903 32.8729 9.00426 33.1371 8.64631C33.4041 8.28835 33.7564 8.00852 34.1939 7.80682C34.6314 7.60511 35.1172 7.50426 35.6513 7.50426C36.2109 7.50426 36.6939 7.61364 37.1001 7.83239C37.5092 8.0483 37.8246 8.33665 38.0462 8.69744C38.2706 9.05824 38.3814 9.45312 38.3786 9.8821C38.3814 10.3707 38.245 10.7855 37.9695 11.1264C37.6967 11.4673 37.3331 11.696 36.8786 11.8125V11.8807C37.4581 11.9687 37.907 12.1989 38.2251 12.571C38.5462 12.9432 38.7053 13.4048 38.7024 13.956C38.7053 14.4361 38.5717 14.8665 38.3018 15.2472C38.0348 15.6278 37.6697 15.9276 37.2067 16.1463C36.7436 16.3622 36.2138 16.4702 35.6172 16.4702Z" fill="black"/>
<path d="M43.3516 16.4957C42.6783 16.4929 42.103 16.3153 41.6257 15.9631C41.1484 15.6108 40.7834 15.098 40.5305 14.4247C40.2777 13.7514 40.1513 12.9403 40.1513 11.9915C40.1513 11.0455 40.2777 10.2372 40.5305 9.56676C40.7862 8.89631 41.1527 8.38494 41.63 8.03267C42.1101 7.6804 42.6839 7.50426 43.3516 7.50426C44.0192 7.50426 44.5916 7.68182 45.0689 8.03693C45.5462 8.3892 45.9112 8.90057 46.1641 9.57102C46.4197 10.2386 46.5476 11.0455 46.5476 11.9915C46.5476 12.9432 46.4212 13.7557 46.1683 14.429C45.9155 15.0994 45.5504 15.6122 45.0732 15.9673C44.5959 16.3196 44.022 16.4957 43.3516 16.4957ZM43.3516 15.358C43.9425 15.358 44.4041 15.0696 44.7365 14.4929C45.0717 13.9162 45.2393 13.0824 45.2393 11.9915C45.2393 11.267 45.1626 10.6548 45.0092 10.1548C44.8587 9.65199 44.6413 9.27131 44.3572 9.01278C44.076 8.75142 43.7408 8.62074 43.3516 8.62074C42.7635 8.62074 42.3018 8.91051 41.9666 9.49006C41.6314 10.0696 41.4624 10.9034 41.4595 11.9915C41.4595 12.7188 41.5348 13.3338 41.6854 13.8366C41.8388 14.3366 42.0561 14.7159 42.3374 14.9744C42.6186 15.2301 42.9567 15.358 43.3516 15.358Z" fill="black"/>
<path d="M307.111 18.0285C307.007 18.0285 306.766 17.8366 306.387 17.4529C306.009 17.0691 305.819 16.825 305.819 16.7206C305.819 16.5535 305.982 16.4125 306.306 16.2976C306.63 16.1828 306.898 16.1253 307.111 16.1253C307.323 16.1253 307.592 16.1828 307.916 16.2976C308.24 16.4125 308.402 16.5535 308.402 16.7206C308.402 16.825 308.213 17.0691 307.834 17.4529C307.456 17.8366 307.215 18.0285 307.111 18.0285ZM309.211 15.906C309.201 15.906 309.097 15.8408 308.9 15.7102C308.703 15.5797 308.44 15.4492 308.11 15.3186C307.781 15.1881 307.448 15.1228 307.111 15.1228C306.774 15.1228 306.44 15.1881 306.111 15.3186C305.782 15.4492 305.52 15.5797 305.325 15.7102C305.131 15.8408 305.026 15.906 305.01 15.906C304.917 15.906 304.675 15.7102 304.283 15.3186C303.892 14.927 303.696 14.6842 303.696 14.5902C303.696 14.5224 303.722 14.4623 303.774 14.4101C304.178 14.0081 304.686 13.6922 305.298 13.4624C305.91 13.2327 306.514 13.1178 307.111 13.1178C307.707 13.1178 308.311 13.2327 308.923 13.4624C309.535 13.6922 310.044 14.0081 310.448 14.4101C310.5 14.4623 310.526 14.5224 310.526 14.5902C310.526 14.6842 310.33 14.927 309.939 15.3186C309.547 15.7102 309.305 15.906 309.211 15.906ZM311.335 13.7757C311.278 13.7757 311.218 13.7548 311.156 13.713C310.451 13.1648 309.797 12.7614 309.196 12.503C308.594 12.2445 307.899 12.1153 307.111 12.1153C306.67 12.1153 306.228 12.1727 305.784 12.2876C305.341 12.4025 304.955 12.5408 304.625 12.7027C304.296 12.8646 304.002 13.0264 303.742 13.1883C303.483 13.3502 303.278 13.4885 303.128 13.6034C302.977 13.7183 302.897 13.7757 302.887 13.7757C302.799 13.7757 302.56 13.5799 302.171 13.1883C301.782 12.7967 301.588 12.5539 301.588 12.4599C301.588 12.3973 301.614 12.3398 301.665 12.2876C302.35 11.5984 303.18 11.0632 304.155 10.682C305.13 10.3009 306.115 10.1103 307.111 10.1103C308.107 10.1103 309.092 10.3009 310.067 10.682C311.042 11.0632 311.872 11.5984 312.556 12.2876C312.608 12.3398 312.634 12.3973 312.634 12.4599C312.634 12.5539 312.44 12.7967 312.051 13.1883C311.662 13.5799 311.423 13.7757 311.335 13.7757ZM313.443 11.6532C313.386 11.6532 313.329 11.6297 313.272 11.5827C312.344 10.763 311.38 10.1455 310.382 9.73044C309.384 9.31534 308.293 9.10779 307.111 9.10779C305.928 9.10779 304.838 9.31534 303.84 9.73044C302.841 10.1455 301.878 10.763 300.95 11.5827C300.893 11.6297 300.836 11.6532 300.779 11.6532C300.69 11.6532 300.451 11.4574 300.059 11.0658C299.667 10.6742 299.472 10.4314 299.472 10.3374C299.472 10.2695 299.498 10.2095 299.549 10.1573C300.519 9.18611 301.673 8.43423 303.011 7.90165C304.349 7.36907 305.716 7.10278 307.111 7.10278C308.506 7.10278 309.872 7.36907 311.21 7.90165C312.548 8.43423 313.702 9.18611 314.672 10.1573C314.724 10.2095 314.75 10.2695 314.75 10.3374C314.75 10.4314 314.554 10.6742 314.163 11.0658C313.771 11.4574 313.531 11.6532 313.443 11.6532Z" fill="black"/>
<path d="M322 14.2C322 14.0895 322.09 14 322.2 14H323.8C323.91 14 324 14.0895 324 14.2V17.8C324 17.9105 323.91 18 323.8 18H322.2C322.09 18 322 17.9105 322 17.8V14.2Z" fill="black"/>
<path d="M325 12.2C325 12.0895 325.09 12 325.2 12H326.8C326.91 12 327 12.0895 327 12.2V17.8C327 17.9105 326.91 18 326.8 18H325.2C325.09 18 325 17.9105 325 17.8V12.2Z" fill="black"/>
<path d="M328 9.2C328 9.08954 328.09 9 328.2 9H329.8C329.91 9 330 9.08954 330 9.2V17.8C330 17.9105 329.91 18 329.8 18H328.2C328.09 18 328 17.9105 328 17.8V9.2Z" fill="black"/>
<path d="M331 6.2C331 6.08954 331.09 6 331.2 6H332.8C332.91 6 333 6.08954 333 6.2V17.8C333 17.9105 332.91 18 332.8 18H331.2C331.09 18 331 17.9105 331 17.8V6.2Z" fill="black"/>
<path fill-rule="evenodd" clip-rule="evenodd" d="M342.499 7.21771C342.939 6.77817 343.535 6.53124 344.156 6.53124H353.531C354.153 6.53124 354.749 6.77817 355.189 7.21771C355.628 7.65725 355.875 8.25339 355.875 8.87499V9.00903C356.201 9.12447 356.501 9.31193 356.751 9.56146C357.191 10.001 357.437 10.5971 357.437 11.2187V12.7812C357.437 13.4028 357.191 13.999 356.751 14.4385C356.501 14.6881 356.201 14.8755 355.875 14.991V15.125C355.875 15.7466 355.628 16.3427 355.189 16.7823C354.749 17.2218 354.153 17.4687 353.531 17.4687H344.156C343.535 17.4687 342.939 17.2218 342.499 16.7823C342.059 16.3427 341.812 15.7466 341.812 15.125V8.87499C341.812 8.25339 342.059 7.65725 342.499 7.21771ZM344.156 8.09374C343.949 8.09374 343.75 8.17605 343.604 8.32257C343.457 8.46908 343.375 8.66779 343.375 8.87499V15.125C343.375 15.3322 343.457 15.5309 343.604 15.6774C343.75 15.8239 343.949 15.9062 344.156 15.9062H353.531C353.738 15.9062 353.937 15.8239 354.084 15.6774C354.23 15.5309 354.312 15.3322 354.312 15.125V14.3437C354.312 13.9123 354.662 13.5625 355.094 13.5625C355.301 13.5625 355.5 13.4802 355.646 13.3337C355.793 13.1872 355.875 12.9884 355.875 12.7812V11.2187C355.875 11.0115 355.793 10.8128 355.646 10.6663C355.5 10.5198 355.301 10.4375 355.094 10.4375C354.662 10.4375 354.312 10.0877 354.312 9.65624V8.87499C354.312 8.66779 354.23 8.46908 354.084 8.32257C353.937 8.17605 353.738 8.09374 353.531 8.09374H344.156Z" fill="black"/>
<path d="M344.5 9.5C344.5 9.22386 344.724 9 345 9H351.5C351.776 9 352 9.22386 352 9.5V14.5C352 14.7761 351.776 15 351.5 15H345C344.724 15 344.5 14.7761 344.5 14.5V9.5Z" fill="black"/>
<rect y="24" width="375" height="48" fill="white"/>
<path d="M336 48H354" stroke="black" stroke-width="1.5" stroke-linecap="round" stroke-linejoin="round"/>
<path d="M336 42H354" stroke="black" stroke-width="1.5" stroke-linecap="round" stroke-linejoin="round"/>
<path d="M336 54H354" stroke="black" stroke-width="1.5" stroke-linecap="round" stroke-linejoin="round"/>
<path d="M28 41L21 48L28 55" stroke="black" stroke-width="1.5" stroke-linecap="round" stroke-linejoin="round"/>
<path d="M21 48H38.5" stroke="black" stroke-width="1.5" stroke-linecap="round" stroke-linejoin="round"/>
<path d="M132.211 40.2656V47.5469H130.492V40.2656H132.211ZM120.586 46.2812C122.781 45.6328 123.992 44.0391 124.078 42.375H121.039V40.9688H128.805V42.375H125.844C125.922 43.9375 127.117 45.4219 129.305 46.0156L128.461 47.3594C126.812 46.8828 125.633 45.8828 124.992 44.6016C124.352 46.0156 123.125 47.1328 121.383 47.6562L120.586 46.2812ZM122.867 49.4688V48.1406H132.242V51.7812H124.602V52.9219H132.664V54.2656H122.898V50.5156H130.508V49.4688H122.867ZM136.68 41.125V43.1562H139.836V41.125H141.555V42.4375H144.398V40.2656H146.133V48.75H144.398V46.7188H141.555V47.8438H134.945V41.125H136.68ZM136.555 51.7031C136.539 49.9844 138.375 49 141.352 49C144.344 49 146.172 49.9844 146.18 51.7031C146.172 53.3906 144.344 54.375 141.352 54.375C138.375 54.375 136.539 53.3906 136.555 51.7031ZM136.68 46.4844H139.836V44.5156H136.68V46.4844ZM138.273 51.7031C138.266 52.5625 139.391 53.0312 141.352 53.0312C143.328 53.0312 144.445 52.5625 144.445 51.7031C144.445 50.7969 143.328 50.3359 141.352 50.3281C139.391 50.3359 138.266 50.7969 138.273 51.7031ZM141.555 45.3125H144.398V43.8125H141.555V45.3125ZM153.227 41.1562L149.586 54.7031H147.836L151.492 41.1562H153.227ZM158.867 42.5156C158.867 44.2891 160.016 45.9688 162.195 46.6562L161.258 48.0156C159.734 47.5 158.641 46.4688 158.023 45.1562C157.414 46.6562 156.273 47.8359 154.648 48.4062L153.711 47.0469C155.984 46.2578 157.125 44.375 157.133 42.3594V41.0156H158.867V42.5156ZM155.633 51.6875C155.633 50.0156 157.469 49.0234 160.414 49.0312C163.336 49.0234 165.141 50.0156 165.148 51.6875C165.141 53.3984 163.336 54.375 160.414 54.375C157.469 54.375 155.633 53.3984 155.633 51.6875ZM157.367 51.6875C157.367 52.5625 158.477 53 160.414 53C162.344 53 163.43 52.5625 163.43 51.6875C163.43 50.8594 162.344 50.3906 160.414 50.3906C158.477 50.3906 157.367 50.8594 157.367 51.6875ZM163.273 48.7188V40.2656H165.008V43.7031H166.977V45.1406H165.008V48.7188H163.273ZM174.586 42.5156V43.9062H167.664V42.5156H170.289V40.6719H172.008V42.5156H174.586ZM168.07 47.9375C168.055 46.0156 169.359 44.6484 171.148 44.6562C172.945 44.6484 174.227 46.0156 174.227 47.9375C174.227 49.8984 172.945 51.2656 171.148 51.2656C169.359 51.2656 168.055 49.8984 168.07 47.9375ZM169.602 47.9375C169.594 49.0781 170.234 49.7891 171.148 49.7812C172.055 49.7891 172.695 49.0781 172.695 47.9375C172.695 46.8281 172.055 46.0938 171.148 46.0938C170.234 46.0938 169.594 46.8281 169.602 47.9375ZM175.18 53.75V40.5625H176.805V46.0781H178.18V40.2656H179.836V54.3906H178.18V47.4844H176.805V53.75H175.18ZM198.227 51.2656V52.6875H185.32V51.2656H190.883V48.5156H186.742V41.2031H188.477V43.5156H195.023V41.2031H196.758V48.5156H192.602V51.2656H198.227ZM188.477 47.1094H195.023V44.9062H188.477V47.1094ZM210.977 40.2656V48.8125H209.242V45.8906H207.227V44.4531H209.242V40.2656H210.977ZM199.18 42.9844V41.5781H202.461V40.1562H204.18V41.5781H207.461V42.9844H199.18ZM199.977 46.0625C199.969 44.5781 201.367 43.5312 203.32 43.5312C205.289 43.5312 206.672 44.5781 206.68 46.0625C206.672 47.5859 205.289 48.5938 203.32 48.5938C201.367 48.5938 199.969 47.5859 199.977 46.0625ZM201.586 54.2188V49.4531H210.977V54.2188H201.586ZM201.633 46.0625C201.633 46.8438 202.305 47.2969 203.32 47.2969C204.328 47.2969 205.008 46.8438 205.008 46.0625C205.008 45.3047 204.328 44.8438 203.32 44.8438C202.305 44.8438 201.633 45.3047 201.633 46.0625ZM203.32 52.8125H209.273V50.8281H203.32V52.8125ZM224.305 40.9531V42.0469C224.312 43.1484 224.312 44.3984 223.961 46.0625H225.883V47.4688H212.977V46.0625H222.203C222.539 44.5312 222.57 43.375 222.57 42.3438H214.57V40.9531H224.305ZM214.523 54.2188V49.1094H224.289V54.2188H214.523ZM216.227 52.8125H222.57V50.4688H216.227V52.8125ZM231.883 43.2812C231.875 44.8281 233.086 46.3516 235.305 46.9531L234.492 48.2969C232.867 47.8516 231.695 46.9062 231.047 45.6797C230.43 47.0625 229.258 48.1562 227.57 48.6562L226.758 47.3125C228.969 46.6406 230.148 44.9844 230.148 43.2812V43.2031H227.195V41.8281H230.148V40.2031H231.898V41.8281H234.836V43.2031H231.883V43.2812ZM229.055 51.7188C229.039 50.0391 230.883 49.0938 233.852 49.0938C236.836 49.0938 238.672 50.0391 238.68 51.7188C238.672 53.3984 236.836 54.375 233.852 54.375C230.883 54.375 229.039 53.3984 229.055 51.7188ZM230.773 51.7188C230.766 52.5547 231.891 53.0312 233.852 53.0312C235.852 53.0312 236.945 52.5547 236.945 51.7188C236.945 50.875 235.852 50.4297 233.852 50.4219C231.891 50.4297 230.766 50.875 230.773 51.7188ZM234.414 45.5469V44.1406H236.898V40.2656H238.633V48.8125H236.898V45.5469H234.414ZM251.93 41.125V42.3906C251.922 43.7109 251.922 45.1562 251.555 47.1562H253.508V48.5625H247.898V54.4062H246.148V48.5625H240.633V47.1562H249.789C250.18 45.2344 250.195 43.7891 250.195 42.5312H242.148V41.125H251.93Z" fill="black"/>
<g clip-path="url(#clip1_37_971)">
<rect y="714" width="375" height="80" fill="white"/>
<rect x="20" y="729" width="335" height="50" rx="25" fill="#FF6600"/>
<path d="M132.312 747.219V754.516H130.328V747.219H132.312ZM120.484 753.094C122.695 752.484 123.789 750.992 123.922 749.469H121.016V747.875H128.828V749.469H125.984C126.117 750.883 127.195 752.273 129.375 752.844L128.422 754.375C126.773 753.922 125.633 752.969 124.992 751.75C124.344 753.102 123.141 754.172 121.391 754.672L120.484 753.094ZM122.781 756.594V755.078H132.328V758.875H124.766V759.812H132.719V761.344H122.812V757.453H130.344V756.594H122.781ZM136.859 748.078V750H139.656V748.078H141.625V749.312H144.25V747.219H146.234V755.719H144.25V753.812H141.625V754.891H134.859V748.078H136.859ZM136.484 758.719C136.484 756.977 138.344 755.961 141.375 755.953C144.414 755.961 146.273 756.977 146.281 758.719C146.273 760.445 144.414 761.445 141.375 761.438C138.344 761.445 136.484 760.445 136.484 758.719ZM136.859 753.344H139.656V751.531H136.859V753.344ZM138.469 758.719C138.469 759.516 139.492 759.922 141.375 759.922C143.266 759.922 144.289 759.516 144.297 758.719C144.289 757.883 143.266 757.477 141.375 757.484C139.492 757.477 138.469 757.883 138.469 758.719ZM141.625 752.219H144.25V750.891H141.625V752.219ZM153.453 748.156L149.797 761.703H147.812L151.453 748.156H153.453ZM159.203 749.453C159.195 751.18 160.203 752.836 162.453 753.531L161.391 755.078C159.883 754.578 158.828 753.609 158.219 752.367C157.602 753.797 156.5 754.922 154.875 755.469L153.797 753.906C156.172 753.117 157.188 751.227 157.203 749.266V747.969H159.203V749.453ZM155.766 758.688C155.758 756.961 157.641 755.938 160.641 755.938C163.586 755.938 165.43 756.961 165.438 758.688C165.43 760.43 163.586 761.445 160.641 761.438C157.641 761.445 155.758 760.43 155.766 758.688ZM157.766 758.688C157.75 759.492 158.773 759.875 160.641 759.875C162.484 759.875 163.469 759.492 163.469 758.688C163.469 757.914 162.484 757.5 160.641 757.5C158.773 757.5 157.75 757.914 157.766 758.688ZM163.297 755.656V747.219H165.297V750.547H167.219V752.203H165.297V755.656H163.297ZM174.703 749.391V750.969H167.828V749.391H170.297V747.609H172.266V749.391H174.703ZM168.156 754.984C168.156 753.008 169.484 751.617 171.297 751.609C173.117 751.617 174.414 753.008 174.422 754.984C174.414 756.969 173.117 758.375 171.297 758.375C169.484 758.375 168.156 756.969 168.156 754.984ZM169.906 754.984C169.906 756.07 170.469 756.688 171.297 756.688C172.094 756.688 172.664 756.07 172.672 754.984C172.664 753.914 172.094 753.266 171.297 753.266C170.469 753.266 169.906 753.914 169.906 754.984ZM175.234 760.828V747.5H177.094V753H178.25V747.219H180.141V761.438H178.25V754.594H177.094V760.828H175.234ZM198.375 758.156V759.781H185.359V758.156H190.844V755.531H186.734V748.125H188.734V750.328H194.938V748.125H196.922V755.531H192.828V758.156H198.375ZM188.734 753.938H194.938V751.922H188.734V753.938ZM211.172 747.219V755.812H209.188V753.016H207.344V751.391H209.188V747.219H211.172ZM199.219 750.047V748.453H202.438V747.094H204.406V748.453H207.594V750.047H199.219ZM200 753.062C200 751.578 201.43 750.516 203.422 750.516C205.422 750.516 206.828 751.578 206.828 753.062C206.828 754.617 205.414 755.633 203.422 755.641C201.43 755.633 200 754.617 200 753.062ZM201.609 761.281V756.422H211.172V761.281H201.609ZM201.922 753.062C201.906 753.781 202.492 754.164 203.422 754.172C204.328 754.164 204.922 753.781 204.922 753.062C204.922 752.391 204.328 752.008 203.422 752.016C202.492 752.008 201.906 752.391 201.922 753.062ZM203.609 759.688H209.219V757.984H203.609V759.688ZM224.484 747.859V749C224.492 750.109 224.492 751.336 224.148 752.969H226.031V754.578H213.016V752.969H222.141C222.445 751.555 222.484 750.453 222.5 749.453H214.609V747.859H224.484ZM214.562 761.281V756.078H224.438V761.281H214.562ZM216.516 759.688H222.453V757.641H216.516V759.688ZM234.953 748.703V750.266H232.078C232.102 751.727 233.164 753.211 235.453 753.797L234.531 755.328C232.906 754.922 231.773 754.023 231.125 752.867C230.508 754.18 229.367 755.219 227.688 755.703L226.75 754.156C229.023 753.5 230.078 751.875 230.094 750.266H227.234V748.703H230.094V747.156H232.109V748.703H234.953ZM229.078 758.719C229.078 757.016 230.953 756.055 233.969 756.047C237 756.055 238.867 757.016 238.875 758.719C238.867 760.445 237 761.445 233.969 761.438C230.953 761.445 229.078 760.445 229.078 758.719ZM231.062 758.719C231.062 759.5 232.086 759.922 233.969 759.922C235.891 759.922 236.883 759.5 236.891 758.719C236.883 757.961 235.891 757.578 233.969 757.578C232.086 757.578 231.062 757.961 231.062 758.719ZM234.531 752.625V751.031H236.844V747.219H238.828V755.812H236.844V752.625H234.531ZM252.125 748.047V749.328C252.117 750.656 252.117 752.102 251.758 754.094H253.641V755.703H248.094V761.453H246.094V755.703H240.672V754.094H249.734C250.102 752.266 250.133 750.867 250.141 749.641H242.156V748.047H252.125Z" fill="white"/>
</g>
<rect y="794" width="375" height="18" fill="white"/>
<rect x="121" y="798" width="134" height="5" rx="2.5" fill="black"/>
<path fill-rule="evenodd" clip-rule="evenodd" d="M0 0V812H375V0H0Z" fill="black" fill-opacity="0.65"/>
<path fill-rule="evenodd" clip-rule="evenodd" d="M15 446C6.71574 446 0 452.716 0 461V714H375V461C375 452.716 368.284 446 360 446H15Z" fill="white"/>
<path d="M37.8711 580.012C38.4167 579.389 39.3643 579.326 39.9878 579.871C40.5722 580.383 40.6643 581.247 40.224 581.867L40.1289 581.988L33.1289 589.988C32.5911 590.602 31.6696 590.668 31.0515 590.162L30.9393 590.061L26.9393 586.061C26.3536 585.475 26.3536 584.525 26.9393 583.939C27.4885 583.39 28.3576 583.356 28.9467 583.836L29.0607 583.939L31.927 586.806L37.8711 580.012Z" fill="#CCCCCC"/>
<path d="M61.5312 579.172C61.5391 581.133 64.0859 582.82 66.5938 583.172L66.0938 584.172C63.9375 583.812 61.7969 582.617 60.9062 580.914C60.0156 582.633 57.8828 583.812 55.7188 584.172L55.2188 583.172C57.7266 582.82 60.2656 581.164 60.2656 579.172V578.375H61.5312V579.172ZM54.5625 586.734V585.703H67.2188V586.734H61.4688V591.766H60.2656V586.734H54.5625ZM73.3906 580.172C73.3984 581.984 74.8984 583.594 76.9688 584.219L76.3438 585.188C74.7188 584.672 73.4141 583.555 72.7891 582.117C72.1719 583.656 70.8594 584.859 69.2031 585.422L68.5625 584.453C70.6562 583.789 72.1484 582.078 72.1562 580.172V579.812H68.9062V578.812H76.5938V579.812H73.3906V580.172ZM70.8594 591.578V586.078H72.0781V587.766H78.6406V586.078H79.8594V591.578H70.8594ZM72.0781 590.578H78.6406V588.75H72.0781V590.578ZM78.6406 585.391V577.875H79.8594V585.391H78.6406ZM97.6875 577.875V591.797H96.4531V577.875H97.6875ZM86.75 583.797C86.7578 580.844 88.2266 578.961 90.2969 578.953C92.3594 578.961 93.8516 580.844 93.8438 583.797C93.8516 586.758 92.3594 588.633 90.2969 588.625C88.2266 588.633 86.7578 586.758 86.75 583.797ZM87.9375 583.797C87.9375 586.055 88.9062 587.539 90.2969 587.531C91.6953 587.539 92.6562 586.055 92.6562 583.797C92.6562 581.539 91.6953 580.055 90.2969 580.047C88.9062 580.055 87.9375 581.539 87.9375 583.797ZM112.719 584.75V585.766H100.062V584.75H103.203V582.789C102.094 582.359 101.469 581.656 101.469 580.719C101.469 579.086 103.344 578.148 106.391 578.141C109.414 578.148 111.289 579.086 111.297 580.719C111.289 581.648 110.672 582.352 109.578 582.789V584.75H112.719ZM101.594 589.281C101.586 587.695 103.375 586.82 106.391 586.828C109.367 586.82 111.156 587.695 111.172 589.281C111.156 590.867 109.367 591.734 106.391 591.734C103.375 591.734 101.586 590.867 101.594 589.281ZM102.734 580.719C102.727 581.734 104.117 582.32 106.391 582.328C108.641 582.32 110.039 581.734 110.047 580.719C110.039 579.719 108.641 579.109 106.391 579.109C104.117 579.109 102.727 579.719 102.734 580.719ZM102.844 589.281C102.828 590.227 104.164 590.789 106.391 590.781C108.594 590.789 109.93 590.227 109.938 589.281C109.93 588.336 108.594 587.781 106.391 587.766C104.164 587.781 102.828 588.336 102.844 589.281ZM104.422 584.75H108.359V583.117C107.773 583.227 107.117 583.281 106.391 583.281C105.664 583.281 105.008 583.227 104.422 583.125V584.75ZM125.797 577.875V591.766H124.609V577.875H125.797ZM114.062 583.875C114.07 580.922 115.242 579.055 117.047 579.047C118.734 579.055 119.875 580.68 120.031 583.297H121.828V578.172H123V591.062H121.828V584.312H120.039C119.922 587.016 118.758 588.711 117.047 588.703C115.242 588.711 114.07 586.828 114.062 583.875ZM115.219 583.875C115.203 586.125 115.922 587.547 117.047 587.531C118.18 587.547 118.898 586.125 118.891 583.875C118.898 581.617 118.18 580.203 117.047 580.203C115.922 580.203 115.203 581.617 115.219 583.875ZM139.438 578.953V579.688C139.43 580.602 139.43 581.984 139.078 583.797L137.844 583.703C138.18 582.047 138.211 580.867 138.227 579.984H132.516V578.953H139.438ZM131.656 585.094C132.555 585.094 133.57 585.086 134.641 585.055V582.031H135.859V585.016C137.398 584.953 138.992 584.844 140.438 584.641L140.516 585.547C137.602 586.047 134.258 586.102 131.781 586.109L131.656 585.094ZM133.797 591.469V587.391H135.031V590.438H143.078V591.469H133.797ZM141.375 588.328V577.875H142.625V582.406H144.656V583.453H142.625V588.328H141.375ZM156.422 577.891V582.469H158.516V583.5H156.422V588.297H155.203V577.891H156.422ZM145.594 580.594V579.594H149.125V577.891H150.344V579.594H153.875V580.594H145.594ZM146.391 583.953C146.383 582.375 147.727 581.359 149.734 581.359C151.719 581.359 153.062 582.375 153.078 583.953C153.062 585.516 151.719 586.523 149.734 586.516C147.727 586.523 146.383 585.516 146.391 583.953ZM147.562 583.953C147.555 584.93 148.422 585.562 149.734 585.547C151.031 585.562 151.906 584.93 151.922 583.953C151.906 582.961 151.031 582.32 149.734 582.328C148.422 582.32 147.555 582.961 147.562 583.953ZM147.734 591.469V587.469H148.938V590.438H157.062V591.469H147.734ZM168.062 581.609C168.062 584.055 169.68 586.578 171.656 587.547L170.906 588.531C169.375 587.734 168.094 586.086 167.477 584.156C166.859 586.203 165.547 587.961 163.984 588.797L163.203 587.812C165.234 586.812 166.844 584.148 166.859 581.609V579.078H168.062V581.609ZM172.938 591.766V577.875H174.156V583.516H176.484V584.578H174.156V591.766H172.938ZM188.094 577.875V581.75H190.188V582.797H188.094V586.844H186.875V577.875H188.094ZM177.266 580.438V579.469H180.797V577.766H182.016V579.469H185.547V580.438H177.266ZM178.062 583.609C178.055 582.125 179.391 581.164 181.406 581.156C183.398 581.164 184.734 582.125 184.75 583.609C184.734 585.109 183.398 586.07 181.406 586.062C179.391 586.07 178.055 585.109 178.062 583.609ZM179.156 589.344C179.148 587.828 180.867 586.945 183.703 586.938C186.531 586.945 188.25 587.828 188.25 589.344C188.25 590.852 186.531 591.734 183.703 591.734C180.867 591.734 179.148 590.852 179.156 589.344ZM179.234 583.609C179.227 584.523 180.094 585.109 181.406 585.109C182.703 585.109 183.578 584.523 183.594 583.609C183.578 582.695 182.703 582.094 181.406 582.078C180.094 582.094 179.227 582.695 179.234 583.609ZM180.375 589.344C180.359 590.242 181.625 590.789 183.703 590.781C185.773 590.789 187.039 590.242 187.031 589.344C187.039 588.422 185.773 587.906 183.703 587.906C181.625 587.906 180.359 588.422 180.375 589.344Z" fill="#888888"/>
<path d="M348.296 579.293C348.657 578.932 349.224 578.905 349.616 579.21L349.71 579.293L354.707 584.293C355.067 584.654 355.095 585.221 354.79 585.613L354.707 585.707L349.71 590.707C349.32 591.098 348.687 591.098 348.296 590.707C347.935 590.347 347.908 589.78 348.212 589.387L348.296 589.293L352.586 584.999L348.296 580.707C347.935 580.346 347.908 579.779 348.213 579.387L348.296 579.293Z" fill="#CCCCCC"/>
<path d="M37.8711 622.012C38.4167 621.389 39.3643 621.326 39.9878 621.871C40.5722 622.383 40.6643 623.247 40.224 623.867L40.1289 623.988L33.1289 631.988C32.5911 632.602 31.6696 632.668 31.0515 632.162L30.9393 632.061L26.9393 628.061C26.3536 627.475 26.3536 626.525 26.9393 625.939C27.4885 625.39 28.3576 625.356 28.9467 625.836L29.0607 625.939L31.927 628.806L37.8711 622.012Z" fill="#CCCCCC"/>
<path d="M66.4375 619.875V633.766H65.2656V619.875H66.4375ZM54.3906 630.062C56.3281 628.906 57.4609 626.367 57.4531 623.844V622.531H54.7812V621.516H61.1875V622.531H58.6406V623.844C58.6406 626.242 59.7266 628.641 61.6406 629.75L60.8906 630.656C59.5234 629.836 58.5547 628.336 58.0703 626.57C57.5703 628.484 56.5625 630.117 55.1719 630.984L54.3906 630.062ZM60.125 625.891V624.891H62.4688V620.219H63.625V633.047H62.4688V625.891H60.125ZM74.6719 628.656C77.6484 628.656 79.5391 629.594 79.5469 631.203C79.5391 632.797 77.6484 633.734 74.6719 633.734C71.6953 633.734 69.8047 632.797 69.8125 631.203C69.8047 629.594 71.6953 628.656 74.6719 628.656ZM68.4062 627.359V626.359H73.6406V623.672H74.8438V626.359H81.0469V627.359H68.4062ZM69.9062 621.594V620.594H79.4375V621.766C79.4297 622.891 79.4297 624.016 79.0469 625.453L77.8438 625.312C78.2188 623.883 78.2188 622.852 78.2188 621.766V621.594H69.9062ZM71.0312 631.203C71.0234 632.172 72.4609 632.766 74.6719 632.766C76.8906 632.766 78.3125 632.172 78.3281 631.203C78.3125 630.211 76.8906 629.602 74.6719 629.594C72.4609 629.602 71.0234 630.211 71.0312 631.203ZM94.125 619.875V633.766H92.9375V619.875H94.125ZM82.3906 625.875C82.3984 622.922 83.5703 621.055 85.375 621.047C87.0625 621.055 88.2031 622.68 88.3594 625.297H90.1562V620.172H91.3281V633.062H90.1562V626.312H88.3672C88.25 629.016 87.0859 630.711 85.375 630.703C83.5703 630.711 82.3984 628.828 82.3906 625.875ZM83.5469 625.875C83.5312 628.125 84.25 629.547 85.375 629.531C86.5078 629.547 87.2266 628.125 87.2188 625.875C87.2266 623.617 86.5078 622.203 85.375 622.203C84.25 622.203 83.5312 623.617 83.5469 625.875ZM107.766 620.953V621.688C107.758 622.602 107.758 623.984 107.406 625.797L106.172 625.703C106.508 624.047 106.539 622.867 106.555 621.984H100.844V620.953H107.766ZM99.9844 627.094C100.883 627.094 101.898 627.086 102.969 627.055V624.031H104.188V627.016C105.727 626.953 107.32 626.844 108.766 626.641L108.844 627.547C105.93 628.047 102.586 628.102 100.109 628.109L99.9844 627.094ZM102.125 633.469V629.391H103.359V632.438H111.406V633.469H102.125ZM109.703 630.328V619.875H110.953V624.406H112.984V625.453H110.953V630.328H109.703ZM124.75 619.891V624.469H126.844V625.5H124.75V630.297H123.531V619.891H124.75ZM113.922 622.594V621.594H117.453V619.891H118.672V621.594H122.203V622.594H113.922ZM114.719 625.953C114.711 624.375 116.055 623.359 118.062 623.359C120.047 623.359 121.391 624.375 121.406 625.953C121.391 627.516 120.047 628.523 118.062 628.516C116.055 628.523 114.711 627.516 114.719 625.953ZM115.891 625.953C115.883 626.93 116.75 627.562 118.062 627.547C119.359 627.562 120.234 626.93 120.25 625.953C120.234 624.961 119.359 624.32 118.062 624.328C116.75 624.32 115.883 624.961 115.891 625.953ZM116.062 633.469V629.469H117.266V632.438H125.391V633.469H116.062ZM136.391 623.609C136.391 626.055 138.008 628.578 139.984 629.547L139.234 630.531C137.703 629.734 136.422 628.086 135.805 626.156C135.188 628.203 133.875 629.961 132.312 630.797L131.531 629.812C133.562 628.812 135.172 626.148 135.188 623.609V621.078H136.391V623.609ZM141.266 633.766V619.875H142.484V625.516H144.812V626.578H142.484V633.766H141.266ZM156.422 619.875V623.75H158.516V624.797H156.422V628.844H155.203V619.875H156.422ZM145.594 622.438V621.469H149.125V619.766H150.344V621.469H153.875V622.438H145.594ZM146.391 625.609C146.383 624.125 147.719 623.164 149.734 623.156C151.727 623.164 153.062 624.125 153.078 625.609C153.062 627.109 151.727 628.07 149.734 628.062C147.719 628.07 146.383 627.109 146.391 625.609ZM147.484 631.344C147.477 629.828 149.195 628.945 152.031 628.938C154.859 628.945 156.578 629.828 156.578 631.344C156.578 632.852 154.859 633.734 152.031 633.734C149.195 633.734 147.477 632.852 147.484 631.344ZM147.562 625.609C147.555 626.523 148.422 627.109 149.734 627.109C151.031 627.109 151.906 626.523 151.922 625.609C151.906 624.695 151.031 624.094 149.734 624.078C148.422 624.094 147.555 624.695 147.562 625.609ZM148.703 631.344C148.688 632.242 149.953 632.789 152.031 632.781C154.102 632.789 155.367 632.242 155.359 631.344C155.367 630.422 154.102 629.906 152.031 629.906C149.953 629.906 148.688 630.422 148.703 631.344Z" fill="#888888"/>
<path d="M348.296 621.293C348.657 620.932 349.224 620.905 349.616 621.21L349.71 621.293L354.707 626.293C355.067 626.654 355.095 627.221 354.79 627.613L354.707 627.707L349.71 632.707C349.32 633.098 348.687 633.098 348.296 632.707C347.935 632.347 347.908 631.78 348.212 631.387L348.296 631.293L352.586 626.999L348.296 622.707C347.935 622.346 347.908 621.779 348.213 621.387L348.296 621.293Z" fill="#CCCCCC"/>
<path d="M37.8711 664.012C38.4167 663.389 39.3643 663.326 39.9878 663.871C40.5722 664.383 40.6643 665.247 40.224 665.867L40.1289 665.988L33.1289 673.988C32.5911 674.602 31.6696 674.668 31.0515 674.162L30.9393 674.061L26.9393 670.061C26.3536 669.475 26.3536 668.525 26.9393 667.939C27.4885 667.39 28.3576 667.356 28.9467 667.836L29.0607 667.939L31.927 670.806L37.8711 664.012Z" fill="#CCCCCC"/>
<path d="M67.2812 672.953V673.984H54.5625V672.953H60.2969V669.578H61.5312V672.953H67.2812ZM55.1875 669.078C57.5391 668.68 60.2656 666.734 60.2656 664.516V664.172H55.6094V663.141H66.1875V664.172H61.5312V664.516C61.5391 666.734 64.2734 668.641 66.6719 669.031L66.1719 670C64.0469 669.578 61.8047 668.227 60.9141 666.305C60.0234 668.25 57.7891 669.633 55.7031 670.062L55.1875 669.078ZM79.7812 661.875V675.766H78.5625V661.875H79.7812ZM68.4688 672.062C69.6562 672.055 71.0156 672.047 72.4219 672V670.484C70.75 670.312 69.6719 669.359 69.6875 667.969C69.6719 666.398 71.0078 665.383 73.0156 665.391C75.0234 665.383 76.3828 666.398 76.375 667.969C76.3828 669.344 75.3047 670.297 73.6562 670.484V671.953C75 671.891 76.3594 671.797 77.6406 671.625L77.7344 672.562C74.6328 673.062 71.2344 673.109 68.6562 673.109L68.4688 672.062ZM68.7656 664.594V663.594H72.4219V661.891H73.6562V663.594H77.2812V664.594H68.7656ZM70.8281 667.969C70.8203 668.93 71.7266 669.562 73.0156 669.547C74.3125 669.562 75.2109 668.93 75.2031 667.969C75.2109 667 74.3125 666.344 73.0156 666.344C71.7266 666.344 70.8203 667 70.8281 667.969ZM94.125 661.875V675.766H92.9375V661.875H94.125ZM82.3906 667.875C82.3984 664.922 83.5703 663.055 85.375 663.047C87.0625 663.055 88.2031 664.68 88.3594 667.297H90.1562V662.172H91.3281V675.062H90.1562V668.312H88.3672C88.25 671.016 87.0859 672.711 85.375 672.703C83.5703 672.711 82.3984 670.828 82.3906 667.875ZM83.5469 667.875C83.5312 670.125 84.25 671.547 85.375 671.531C86.5078 671.547 87.2266 670.125 87.2188 667.875C87.2266 665.617 86.5078 664.203 85.375 664.203C84.25 664.203 83.5312 665.617 83.5469 667.875ZM107.766 662.953V663.688C107.758 664.602 107.758 665.984 107.406 667.797L106.172 667.703C106.508 666.047 106.539 664.867 106.555 663.984H100.844V662.953H107.766ZM99.9844 669.094C100.883 669.094 101.898 669.086 102.969 669.055V666.031H104.188V669.016C105.727 668.953 107.32 668.844 108.766 668.641L108.844 669.547C105.93 670.047 102.586 670.102 100.109 670.109L99.9844 669.094ZM102.125 675.469V671.391H103.359V674.438H111.406V675.469H102.125ZM109.703 672.328V661.875H110.953V666.406H112.984V667.453H110.953V672.328H109.703ZM124.75 661.891V666.469H126.844V667.5H124.75V672.297H123.531V661.891H124.75ZM113.922 664.594V663.594H117.453V661.891H118.672V663.594H122.203V664.594H113.922ZM114.719 667.953C114.711 666.375 116.055 665.359 118.062 665.359C120.047 665.359 121.391 666.375 121.406 667.953C121.391 669.516 120.047 670.523 118.062 670.516C116.055 670.523 114.711 669.516 114.719 667.953ZM115.891 667.953C115.883 668.93 116.75 669.562 118.062 669.547C119.359 669.562 120.234 668.93 120.25 667.953C120.234 666.961 119.359 666.32 118.062 666.328C116.75 666.32 115.883 666.961 115.891 667.953ZM116.062 675.469V671.469H117.266V674.438H125.391V675.469H116.062ZM136.391 665.609C136.391 668.055 138.008 670.578 139.984 671.547L139.234 672.531C137.703 671.734 136.422 670.086 135.805 668.156C135.188 670.203 133.875 671.961 132.312 672.797L131.531 671.812C133.562 670.812 135.172 668.148 135.188 665.609V663.078H136.391V665.609ZM141.266 675.766V661.875H142.484V667.516H144.812V668.578H142.484V675.766H141.266ZM156.422 661.875V665.75H158.516V666.797H156.422V670.844H155.203V661.875H156.422ZM145.594 664.438V663.469H149.125V661.766H150.344V663.469H153.875V664.438H145.594ZM146.391 667.609C146.383 666.125 147.719 665.164 149.734 665.156C151.727 665.164 153.062 666.125 153.078 667.609C153.062 669.109 151.727 670.07 149.734 670.062C147.719 670.07 146.383 669.109 146.391 667.609ZM147.484 673.344C147.477 671.828 149.195 670.945 152.031 670.938C154.859 670.945 156.578 671.828 156.578 673.344C156.578 674.852 154.859 675.734 152.031 675.734C149.195 675.734 147.477 674.852 147.484 673.344ZM147.562 667.609C147.555 668.523 148.422 669.109 149.734 669.109C151.031 669.109 151.906 668.523 151.922 667.609C151.906 666.695 151.031 666.094 149.734 666.078C148.422 666.094 147.555 666.695 147.562 667.609ZM148.703 673.344C148.688 674.242 149.953 674.789 152.031 674.781C154.102 674.789 155.367 674.242 155.359 673.344C155.367 672.422 154.102 671.906 152.031 671.906C149.953 671.906 148.688 672.422 148.703 673.344Z" fill="#888888"/>
<path d="M348.296 663.293C348.657 662.932 349.224 662.905 349.616 663.21L349.71 663.293L354.707 668.293C355.067 668.654 355.095 669.221 354.79 669.613L354.707 669.707L349.71 674.707C349.32 675.098 348.687 675.098 348.296 674.707C347.935 674.347 347.908 673.78 348.212 673.387L348.296 673.293L352.586 668.999L348.296 664.707C347.935 664.346 347.908 663.779 348.213 663.387L348.296 663.293Z" fill="#CCCCCC"/>
<path d="M40.112 503.72H33.632V507.272H42.704V510.032H20.984V507.272H30.032V503.72H26.936C24.392 503.72 23.12 502.448 23.12 499.904V491.552H26.648V495.2H36.584V491.552H40.112V503.72ZM36.584 501.008V497.888H26.648V499.688C26.648 500.576 27.128 501.008 28.112 501.008H36.584ZM47.9188 490.688H55.2148V493.064H47.9188V490.688ZM58.3588 495.944H44.7748V493.592H58.3588V495.944ZM45.5668 500.264C45.5668 499.112 46.1188 498.176 47.2467 497.456C48.3508 496.736 49.7908 496.376 51.5668 496.376C53.3188 496.376 54.7588 496.736 55.8868 497.456C56.9908 498.176 57.5668 499.112 57.5668 500.264C57.5668 501.416 56.9908 502.328 55.8868 503.048C54.7588 503.768 53.3188 504.128 51.5668 504.128C49.7908 504.128 48.3508 503.768 47.2467 503.048C46.1188 502.328 45.5668 501.416 45.5668 500.264ZM49.0948 500.288C49.0948 500.816 49.3108 501.224 49.7908 501.488C50.2228 501.776 50.8228 501.92 51.5668 501.92C52.2868 501.92 52.8868 501.776 53.3668 501.488C53.7988 501.224 54.0388 500.816 54.0388 500.288C54.0388 499.76 53.7988 499.328 53.3668 499.016C52.8868 498.728 52.2868 498.584 51.5668 498.584C50.8228 498.584 50.2228 498.728 49.7908 499.016C49.3108 499.328 49.0948 499.76 49.0948 500.288ZM61.2628 499.784H57.8307V497.048H61.2628V491.072H64.7908V504.128H61.2628V499.784ZM64.7908 506.504V512.12H52.0468C49.6468 512.12 48.4708 511.088 48.4708 509.024V504.968H63.1348C64.2388 504.968 64.7908 505.496 64.7908 506.504ZM61.2628 507.368H51.9988V508.76C51.9988 509.408 52.3588 509.72 53.1028 509.72H61.2628V507.368ZM83.0778 491.312C85.5738 491.312 86.8458 492.464 86.8458 494.768V499.592H89.4618V502.352H67.7418V499.592H83.2938V495.512C83.2938 494.456 82.6938 493.928 81.5178 493.928H69.8298V491.312H83.0778ZM86.9178 505.64V512.12H73.8378C71.4378 512.12 70.2618 510.992 70.2618 508.736V503.96H85.2618C86.3658 503.96 86.9178 504.536 86.9178 505.64ZM83.3898 506.552H73.7898V508.52C73.7898 509.192 74.1498 509.528 74.8938 509.528H83.3898V506.552ZM112.414 496.328H107.374C107.422 497.624 107.974 498.68 109.006 499.496C109.99 500.336 111.262 500.744 112.822 500.744V503.168C110.398 503.168 108.31 502.568 106.558 501.344C106.198 501.104 105.886 500.84 105.622 500.552C105.334 500.84 105.022 501.104 104.686 501.344C102.91 502.568 100.822 503.168 98.4215 503.168V500.744C99.9575 500.744 101.23 500.336 102.238 499.496C103.246 498.68 103.798 497.624 103.87 496.328H98.8295V493.904H112.414V496.328ZM101.71 490.688H109.534V493.136H101.71V490.688ZM114.982 491.072H118.51V503.576H114.982V499.64H110.926V496.952H114.982V491.072ZM118.342 508.016C118.342 509.336 117.718 510.464 116.47 511.4C115.198 512.36 113.542 512.84 111.502 512.84C109.462 512.84 107.806 512.36 106.558 511.4C105.286 510.464 104.662 509.336 104.662 508.016C104.662 506.696 105.286 505.568 106.558 504.608C107.806 503.696 109.462 503.216 111.502 503.216C113.542 503.216 115.198 503.696 116.47 504.608C117.718 505.568 118.342 506.696 118.342 508.016ZM111.502 505.712C110.494 505.712 109.702 505.928 109.102 506.36C108.478 506.792 108.19 507.344 108.19 508.016C108.19 508.688 108.478 509.24 109.102 509.672C109.678 510.104 110.494 510.32 111.502 510.32C112.486 510.32 113.278 510.128 113.902 509.696C114.502 509.288 114.814 508.736 114.814 508.016C114.814 507.344 114.502 506.792 113.902 506.36C113.278 505.928 112.462 505.712 111.502 505.712ZM136.797 491.384C139.293 491.384 140.565 492.656 140.565 495.176V502.256H137.013V495.896C137.013 494.744 136.413 494.144 135.237 494.144H123.549V491.384H136.797ZM143.181 505.88H134.109V512.168H130.509V505.88H121.461V503.12H143.181V505.88ZM163.227 491.12C163.971 491.12 164.355 491.48 164.355 492.176V496.352H150.891V496.616C150.891 497.048 151.275 497.24 152.067 497.24H164.571V499.424H151.203C148.635 499.424 147.363 498.536 147.363 496.736V494.168H160.827V493.328H147.363V491.12H163.227ZM145.179 500.456H166.899V502.832H145.179V500.456ZM147.699 508.88V506.84H160.827V506.024H147.699V503.84H163.731C164.139 503.84 164.355 504.032 164.355 504.416V509.024H151.227V509.192C151.227 509.672 151.659 509.888 152.523 509.888H164.403V512.12H151.683C149.019 512.12 147.699 511.04 147.699 508.88ZM176.939 496.544C176.939 494.96 177.587 493.664 178.883 492.608C180.179 491.6 181.787 491.072 183.731 491.072C185.651 491.072 187.283 491.6 188.579 492.608C189.875 493.664 190.523 494.96 190.523 496.544C190.523 498.128 189.875 499.448 188.579 500.456C187.283 501.512 185.651 502.016 183.731 502.016C181.787 502.016 180.179 501.512 178.883 500.456C177.587 499.448 176.939 498.128 176.939 496.544ZM180.515 496.544C180.515 497.36 180.827 498.032 181.451 498.536C182.075 499.064 182.819 499.304 183.731 499.304C184.619 499.304 185.387 499.064 186.011 498.536C186.635 498.032 186.947 497.36 186.947 496.544C186.947 495.728 186.635 495.08 186.011 494.552C185.387 494.048 184.619 493.784 183.731 493.784C182.819 493.784 182.075 494.048 181.451 494.552C180.827 495.08 180.515 495.728 180.515 496.544ZM196.067 491.072V512.168H192.539V491.072H196.067ZM175.955 502.784H191.819V505.544H185.483V512.12H181.955V505.544H175.955V502.784ZM201.226 491.096H207.802V493.76H201.226V491.096ZM210.346 497.144H198.634V494.504H210.346V497.144ZM209.89 503.168C209.89 504.704 209.386 506 208.378 507.032C207.37 508.088 206.074 508.616 204.49 508.616C202.906 508.616 201.634 508.088 200.65 507.032C199.642 506 199.138 504.704 199.138 503.168C199.138 501.632 199.642 500.336 200.65 499.28C201.634 498.248 202.906 497.72 204.49 497.72C206.074 497.72 207.37 498.248 208.378 499.28C209.386 500.336 209.89 501.632 209.89 503.168ZM206.578 503.168C206.578 502.28 206.386 501.584 206.002 501.08C205.618 500.6 205.09 500.336 204.466 500.336C203.842 500.336 203.362 500.576 203.002 501.056C202.618 501.56 202.45 502.256 202.45 503.168C202.45 504.08 202.618 504.776 203.002 505.256C203.362 505.76 203.842 506 204.466 506C205.09 506 205.618 505.76 206.002 505.256C206.386 504.776 206.578 504.08 206.578 503.168ZM215.986 491.072H219.322V512.168H215.986V500.744H214.498V512.168H211.21V491.072H214.498V497.984H215.986V491.072ZM40.208 530.376H33.632V531.912H42.704V534.6H20.984V531.912H30.032V530.376H26.84C24.344 530.376 23.12 529.224 23.12 526.872V522.312H40.016V524.904H26.672V526.728C26.672 527.448 27.08 527.784 27.92 527.784H40.208V530.376ZM40.376 539.4C40.376 540.84 39.608 541.872 38.096 542.52C36.56 543.192 34.496 543.504 31.88 543.504C29.24 543.504 27.176 543.192 25.664 542.52C24.128 541.872 23.384 540.84 23.384 539.4C23.384 537.96 24.128 536.904 25.664 536.232C27.176 535.584 29.24 535.248 31.88 535.248C34.496 535.248 36.56 535.584 38.096 536.232C39.608 536.904 40.376 537.96 40.376 539.4ZM31.856 540.888C33.392 540.888 34.592 540.768 35.456 540.528C36.296 540.312 36.728 539.952 36.728 539.424C36.728 538.896 36.296 538.488 35.456 538.224C34.592 537.984 33.392 537.864 31.856 537.864C30.32 537.864 29.144 537.984 28.304 538.224C27.44 538.488 27.008 538.896 27.008 539.424C27.008 539.952 27.44 540.312 28.304 540.528C29.144 540.768 30.32 540.888 31.856 540.888ZM46.0948 528.384C46.0948 526.656 46.7188 525.192 47.9668 523.992C49.2148 522.816 50.8468 522.216 52.8628 522.216C54.8788 522.216 56.5108 522.816 57.7588 523.992C59.0068 525.192 59.6308 526.656 59.6308 528.384C59.6308 530.112 59.0068 531.552 57.7588 532.728C56.5108 533.928 54.8788 534.504 52.8628 534.504C50.8468 534.504 49.2148 533.928 47.9668 532.728C46.7188 531.552 46.0948 530.112 46.0948 528.384ZM56.0788 528.384C56.0788 527.376 55.7668 526.536 55.1668 525.888C54.5428 525.264 53.7748 524.928 52.8628 524.928C51.9268 524.928 51.1588 525.264 50.5588 525.888C49.9348 526.536 49.6468 527.376 49.6468 528.384C49.6468 529.392 49.9348 530.208 50.5588 530.832C51.1588 531.48 51.9268 531.792 52.8628 531.792C53.7748 531.792 54.5428 531.48 55.1668 530.832C55.7668 530.208 56.0788 529.392 56.0788 528.384ZM45.2308 536.856H56.9427C59.8228 536.856 61.2628 535.8 61.2628 533.688V522.072H64.8148V543.168H61.2628V538.752C60.5188 539.376 59.3668 539.664 57.8307 539.664H45.2308V536.856ZM75.5418 530.544C76.5738 528.864 77.1498 527.064 77.2698 525.12H69.0858V522.408H79.2618C80.5098 522.408 81.0858 523.224 81.0378 524.856C80.8938 527.88 79.9818 530.52 78.3258 532.776C76.2138 535.656 72.9738 537.72 68.5578 538.92V536.088C71.6778 534.888 74.0058 533.04 75.5418 530.544ZM90.1818 531.744H86.9898V543.168H83.4618V522.072H86.9898V528.96H90.1818V531.744ZM104.374 530.088H106.942V524.808H104.374V530.088ZM114.43 531.744C113.566 532.32 112.438 532.608 111.022 532.608H98.2535V530.088H100.894V524.808H98.5415V522.288H112.774V524.808H110.422V530.088H111.07C112.798 530.088 113.902 529.44 114.43 528.144V522.072H117.958V532.896H114.43V531.744ZM117.958 539.64H104.998V539.856C104.998 540.36 105.43 540.6 106.294 540.6H118.006V543.12H105.454C102.79 543.12 101.47 541.896 101.47 539.424V537.168H114.43V536.28H101.47V533.784H117.334C117.742 533.784 117.958 534 117.958 534.432V539.64ZM122.822 528.648C122.822 526.92 123.614 525.432 125.222 524.184C126.806 522.984 128.942 522.36 131.582 522.36C134.222 522.36 136.334 522.984 137.942 524.184C139.526 525.432 140.342 526.92 140.342 528.648C140.342 530.616 139.31 532.272 137.27 533.568V538.272H142.454V541.032H120.734V538.272H125.942V533.592C123.854 532.296 122.822 530.64 122.822 528.648ZM133.718 534.792C133.046 534.888 132.326 534.936 131.582 534.936C130.838 534.936 130.142 534.888 129.494 534.792V538.272H133.718V534.792ZM136.718 528.648C136.718 527.616 136.238 526.752 135.278 526.08C134.318 525.408 133.07 525.072 131.582 525.072C130.046 525.072 128.822 525.408 127.886 526.08C126.926 526.752 126.446 527.616 126.446 528.648C126.446 529.704 126.926 530.544 127.886 531.216C128.822 531.888 130.046 532.224 131.582 532.224C133.07 532.224 134.318 531.888 135.278 531.216C136.238 530.544 136.718 529.704 136.718 528.648ZM146.781 522.096H153.357V524.76H146.781V522.096ZM155.901 528.144H144.189V525.504H155.901V528.144ZM155.445 534.168C155.445 535.704 154.941 537 153.933 538.032C152.925 539.088 151.629 539.616 150.045 539.616C148.461 539.616 147.189 539.088 146.205 538.032C145.197 537 144.693 535.704 144.693 534.168C144.693 532.632 145.197 531.336 146.205 530.28C147.189 529.248 148.461 528.72 150.045 528.72C151.629 528.72 152.925 529.248 153.933 530.28C154.941 531.336 155.445 532.632 155.445 534.168ZM152.133 534.168C152.133 533.28 151.941 532.584 151.557 532.08C151.173 531.6 150.645 531.336 150.021 531.336C149.397 531.336 148.917 531.576 148.557 532.056C148.173 532.56 148.005 533.256 148.005 534.168C148.005 535.08 148.173 535.776 148.557 536.256C148.917 536.76 149.397 537 150.021 537C150.645 537 151.173 536.76 151.557 536.256C151.941 535.776 152.133 535.08 152.133 534.168ZM161.541 522.072H164.877V543.168H161.541V531.744H160.053V543.168H156.765V522.072H160.053V528.984H161.541V522.072ZM169.58 528.648C169.58 526.92 170.372 525.432 171.98 524.184C173.564 522.984 175.7 522.36 178.34 522.36C180.98 522.36 183.092 522.984 184.7 524.184C186.284 525.432 187.1 526.92 187.1 528.648C187.1 530.616 186.068 532.272 184.028 533.568V538.272H189.212V541.032H167.492V538.272H172.7V533.592C170.612 532.296 169.58 530.64 169.58 528.648ZM180.476 534.792C179.804 534.888 179.084 534.936 178.34 534.936C177.596 534.936 176.9 534.888 176.252 534.792V538.272H180.476V534.792ZM183.476 528.648C183.476 527.616 182.996 526.752 182.036 526.08C181.076 525.408 179.828 525.072 178.34 525.072C176.804 525.072 175.58 525.408 174.644 526.08C173.684 526.752 173.204 527.616 173.204 528.648C173.204 529.704 173.684 530.544 174.644 531.216C175.58 531.888 176.804 532.224 178.34 532.224C179.828 532.224 181.076 531.888 182.036 531.216C182.996 530.544 183.476 529.704 183.476 528.648Z" fill="black"/>
<circle cx="348" cy="473" r="12" fill="#F0F0F0"/>
<path d="M344 469L352 477" stroke="#888888" stroke-width="1.5" stroke-linecap="round"/>
<path d="M352 469L344 477" stroke="#888888" stroke-width="1.5" stroke-linecap="round"/>
<g clip-path="url(#clip2_37_971)">
<rect y="714" width="375" height="80" fill="white"/>
<rect x="20" y="729" width="335" height="50" rx="25" fill="#EEEEEE"/>
<path d="M171.438 758.141V759.781H158.422V758.141H163.906V755.234H159.797V748.266H169.984V755.234H165.891V758.141H171.438ZM161.766 753.672H168.016V749.859H161.766V753.672ZM183.719 752.281V753.844H173.891V747.969H183.578V749.562H175.938V752.281H183.719ZM172.234 756.859V755.281H185.25V756.859H179.688V761.422H177.719V756.859H172.234ZM202.766 753.938V755.5H189.766V753.938H195.297V752.719H191.344V747.844H201.203V749.391H193.328V751.156H201.281V752.719H197.25V753.938H202.766ZM191.25 758.844C191.25 757.156 193.125 756.219 196.234 756.219C199.32 756.219 201.172 757.156 201.188 758.844C201.172 760.508 199.32 761.453 196.234 761.453C193.125 761.453 191.25 760.508 191.25 758.844ZM193.281 758.844C193.273 759.586 194.266 759.938 196.234 759.938C198.164 759.938 199.18 759.586 199.188 758.844C199.18 758.109 198.164 757.734 196.234 757.734C194.266 757.734 193.273 758.109 193.281 758.844ZM208.203 748.172C210.461 748.164 212.133 749.617 212.141 751.656C212.133 753.703 210.461 755.148 208.203 755.156C205.961 755.148 204.242 753.703 204.25 751.656C204.242 749.617 205.961 748.164 208.203 748.172ZM203.656 756.938C206.195 756.945 209.711 756.914 212.75 756.484L212.906 757.922C209.75 758.539 206.375 758.562 203.891 758.562L203.656 756.938ZM206.234 751.656C206.227 752.781 207.078 753.43 208.203 753.422C209.336 753.43 210.195 752.781 210.203 751.656C210.195 750.547 209.336 749.891 208.203 749.891C207.078 749.891 206.227 750.547 206.234 751.656ZM213.562 761.469V747.219H215.547V761.469H213.562Z" fill="#CCCCCC"/>
</g>
<rect y="794" width="375" height="18" fill="white"/>
<rect x="121" y="798" width="134" height="5" rx="2.5" fill="black"/>
</g>
<defs>
<clipPath id="clip0_37_971">
<rect width="375" height="812" fill="white"/>
</clipPath>
<clipPath id="clip1_37_971">
<rect width="375" height="80" fill="white" transform="translate(0 714)"/>
</clipPath>
<clipPath id="clip2_37_971">
<rect width="375" height="80" fill="white" transform="translate(0 714)"/>
</clipPath>
</defs>
</svg>
