<svg width="335" height="342" viewBox="0 0 335 342" fill="none" xmlns="http://www.w3.org/2000/svg">
<rect x="0.5" y="86.5" width="334" height="79" rx="15.5" fill="white" stroke="black"/>
<g clip-path="url(#clip0_114_14643)">
<path fill-rule="evenodd" clip-rule="evenodd" d="M310.627 120.24C310.203 119.887 309.553 119.928 309.175 120.331L302.235 127.746L298.802 124.509C298.4 124.13 297.748 124.13 297.346 124.509L297.301 124.552C296.9 124.93 296.9 125.545 297.301 125.923L301.549 129.927C301.931 130.287 302.537 130.305 302.942 129.982C302.999 129.941 303.053 129.895 303.102 129.843L310.766 121.654C311.144 121.251 311.105 120.638 310.681 120.285L310.627 120.24Z" fill="#FF6600"/>
</g>
<path d="M39.3633 123.686V125.514H37.0957V133.582H34.8457V117.621H37.0957V123.686H39.3633ZM24.9844 129.68V119.15H27.2168V127.825C29.2646 127.79 31.4619 127.597 33.7734 127.131L34.002 128.994C31.3213 129.539 28.7285 129.68 26.373 129.68H24.9844Z" fill="black"/>
<rect x="0.5" y="174.5" width="334" height="79" rx="15.5" fill="white" stroke="#E8E8E8"/>
<g clip-path="url(#clip1_114_14643)">
<path fill-rule="evenodd" clip-rule="evenodd" d="M310.627 208.74C310.203 208.387 309.553 208.428 309.175 208.831L302.235 216.246L298.802 213.009C298.4 212.63 297.748 212.63 297.346 213.009L297.301 213.052C296.9 213.43 296.9 214.045 297.301 214.423L301.549 218.427C301.931 218.787 302.537 218.805 302.942 218.482C302.999 218.442 303.053 218.395 303.102 218.343L310.766 210.154C311.144 209.751 311.105 209.138 310.681 208.785L310.627 208.74Z" fill="#DDDDDD"/>
</g>
<path d="M30.3809 210.98C30.3721 213.415 31.6729 216.228 34.3008 217.449L33.0527 219.207C31.2686 218.39 30.0029 216.755 29.2822 214.839C28.5703 216.948 27.252 218.741 25.4062 219.611L24.1055 217.836C26.7686 216.597 28.1133 213.626 28.1309 210.98V209.996H24.7383V208.168H33.5977V209.996H30.3809V210.98ZM34.8457 222.617V206.621H37.0957V212.721H39.4512V214.602H37.0957V222.617H34.8457ZM53.5488 206.621V222.652H51.3164V215.357H47.0098V213.547H51.3164V211.771H47.0098V209.979H51.3164V206.621H53.5488ZM40.8574 219.189V208.291H43.1074V217.317C45.3574 217.291 47.1064 217.186 49.0137 216.816L49.2246 218.662C46.9922 219.093 44.9707 219.189 42.1758 219.189H40.8574Z" fill="black"/>
<path d="M68.4297 209.602V219.5H67.1855V210.887H67.1309L64.7246 212.486V211.242L67.1855 209.602H68.4297ZM70.8223 217.477V216.465L75.2793 209.602H76.7969V216.396H78.1777V217.477H76.7969V219.5H75.6211V217.477H70.8223ZM72.1484 216.396H75.6211V211.16H75.498L72.1484 216.314V216.396ZM82.9766 211.912C82.9766 213.847 83.9199 215.932 85.5332 216.889L84.918 217.723C83.7422 217.012 82.9014 215.713 82.4775 214.229C82.0332 215.85 81.1309 217.244 79.9141 217.982L79.2305 217.176C80.9121 216.191 81.9375 214.038 81.9375 211.953V209.602H82.9766V211.912ZM84.1934 213.73V212.814H86.2578V208.713H87.2695V219.992H86.2578V213.73H84.1934ZM88.7461 220.607V208.453H89.7852V220.607H88.7461ZM101.311 209.656V217.559H95.6914V209.656H101.311ZM96.7441 216.684H100.258V210.518H96.7441V216.684ZM103.922 220.635V208.453H105.002V220.635H103.922ZM113.219 209.561V215.152H107.6V209.561H113.219ZM108.652 214.291H112.18V210.436H108.652V214.291ZM108.98 220.348V216.52H110.033V219.445H117.143V220.348H108.98ZM115.516 217.367V208.453H116.582V212.158H118.414V213.061H116.582V217.367H115.516Z" fill="#999999"/>
<rect x="0.5" y="262.5" width="334" height="79" rx="15.5" fill="white" stroke="#E8E8E8"/>
<g clip-path="url(#clip2_114_14643)">
<path fill-rule="evenodd" clip-rule="evenodd" d="M310.627 296.74C310.203 296.387 309.553 296.428 309.175 296.831L302.235 304.246L298.802 301.009C298.4 300.63 297.748 300.63 297.346 301.009L297.301 301.052C296.9 301.43 296.9 302.045 297.301 302.423L301.549 306.427C301.931 306.787 302.537 306.805 302.942 306.482C302.999 306.442 303.053 306.395 303.102 306.343L310.766 298.154C311.144 297.751 311.105 297.138 310.681 296.785L310.627 296.74Z" fill="#DDDDDD"/>
</g>
<path d="M37.0957 294.621V300.562H39.4512V302.391H37.0957V310.652H34.8457V294.621H37.0957ZM25.1074 306.768V296.098H32.6133V297.908H27.3398V304.922C29.6602 304.904 31.5762 304.781 33.7031 304.412L33.9492 306.293C31.4619 306.715 29.2822 306.776 26.4609 306.768H25.1074ZM54.6562 303.27V305.062H40.0137V303.27H54.6562ZM41.8066 296.713V294.99H52.8809V299.402H44.0742V300.545H53.1797V302.232H41.8418V297.803H50.6309V296.713H41.8066ZM41.8594 310.336V305.941H44.1094V308.543H53.2324V310.336H41.8594ZM65.625 298.242C65.6162 301.107 66.8379 303.999 69.4043 305.238L68.0508 307.031C66.3369 306.179 65.1768 304.597 64.5176 302.672C63.8145 304.737 62.584 306.434 60.7734 307.33L59.3848 305.52C62.1006 304.271 63.375 301.213 63.375 298.242V295.852H65.625V298.242ZM70.1074 310.617V294.621H72.3574V300.791H74.7129V302.689H72.3574V310.617H70.1074ZM87.9844 294.639V298.418H90.1465V300.281H87.9844V304.131H85.7344V294.639H87.9844ZM75.8555 297.205V295.412H83.2031V300.281H78.1055V301.723C80.7422 301.705 82.5352 301.626 84.5742 301.266L84.8203 303.023C82.5264 303.472 80.4697 303.551 77.2266 303.551H75.873V298.594H81.0234V297.205H75.8555ZM77.5078 310.441V304.799H87.9844V310.441H77.5078ZM79.7051 308.648H85.7871V306.557H79.7051V308.648Z" fill="black"/>
<path d="M110.621 306.16V307.049H99.4922V306.16H104.496V303.535H100.805V297.314H101.885V299.516H108.201V297.314H109.254V303.535H105.549V306.16H110.621ZM101.885 302.66H108.201V300.391H101.885V302.66ZM121.668 296.453V303.822H120.588V301.047H118.523V300.158H120.588V296.453H121.668ZM111.605 298.613V297.738H114.627V296.344H115.68V297.738H118.701V298.613H111.605ZM112.33 301.402C112.33 300.131 113.499 299.242 115.146 299.242C116.801 299.242 117.963 300.131 117.977 301.402C117.963 302.715 116.801 303.576 115.146 303.576C113.499 303.576 112.33 302.715 112.33 301.402ZM113.355 301.402C113.355 302.209 114.087 302.742 115.146 302.756C116.206 302.742 116.938 302.209 116.938 301.402C116.938 300.623 116.206 300.076 115.146 300.076C114.087 300.076 113.355 300.623 113.355 301.402ZM113.725 308.443V304.479H121.668V308.443H113.725ZM114.791 307.568H120.615V305.34H114.791V307.568ZM133.357 297.109V298.012C133.357 298.955 133.357 300.062 133.036 301.58H134.82V302.469H123.691V301.58H131.956C132.298 300.049 132.298 298.955 132.291 298.012V297.998H125.1V297.109H133.357ZM125.059 308.443V304.15H133.412V308.443H125.059ZM126.125 307.568H132.346V304.998H126.125V307.568ZM149.695 296.453V308.607H148.67V302.236H146.879V307.979H145.895V296.727H146.879V301.348H148.67V296.453H149.695ZM139.756 305.6V297.943H144.309V298.832H140.822V304.684C142.497 304.677 143.652 304.615 145.006 304.342L145.102 305.244C143.639 305.545 142.401 305.593 140.535 305.6H139.756ZM161.439 296.453V308.635H160.373V296.453H161.439ZM152.088 298.477V297.588H157.748V301.908H153.209V304.779C155.226 304.786 157.023 304.69 159.197 304.342L159.307 305.244C157.071 305.593 155.226 305.682 153.127 305.682H152.115V301.033H156.668V298.477H152.088ZM171.16 299.064C171.167 300.575 172.473 301.942 174.264 302.469L173.744 303.303C172.336 302.879 171.215 301.963 170.661 300.767C170.142 302.093 169.027 303.139 167.578 303.617L167.059 302.797C168.843 302.195 170.101 300.712 170.107 299.064V298.805H167.359V297.943H170.107V296.398H171.188V297.943H173.908V298.805H171.16V299.064ZM168.986 306.365C168.979 304.95 170.531 304.144 173.061 304.15C175.583 304.144 177.135 304.95 177.135 306.365C177.135 307.773 175.583 308.58 173.061 308.58C170.531 308.58 168.979 307.773 168.986 306.365ZM170.053 306.365C170.046 307.213 171.194 307.732 173.061 307.732C174.927 307.732 176.068 307.213 176.068 306.365C176.068 305.497 174.927 304.998 173.061 304.984C171.194 304.998 170.046 305.497 170.053 306.365ZM173.525 300.828V299.939H176.014V296.453H177.094V303.822H176.014V300.828H173.525ZM188.729 297.246V298.312C188.729 299.461 188.729 300.726 188.38 302.469H190.191V303.357H185.174V308.635H184.094V303.357H179.117V302.469H187.293C187.662 300.719 187.662 299.447 187.662 298.312V298.135H180.512V297.246H188.729Z" fill="#999999"/>
<path d="M1.44 13.52C1.44 10.976 1.992 8.936 3.12 7.4C4.224 5.888 5.832 5.12 7.944 5.12C10.056 5.12 11.664 5.888 12.792 7.4C13.656 8.6 14.184 10.136 14.376 11.984H17.544V5.072H21.072V26.168H17.544V14.768H14.4C14.232 16.76 13.704 18.392 12.792 19.64C11.664 21.176 10.056 21.92 7.944 21.92C5.832 21.92 4.224 21.176 3.12 19.64C1.992 18.128 1.44 16.088 1.44 13.52ZM4.968 13.544C4.968 15.464 5.208 16.88 5.736 17.792C6.24 18.752 6.96 19.208 7.92 19.208C8.88 19.208 9.624 18.752 10.152 17.792C10.656 16.88 10.92 15.464 10.92 13.544C10.92 11.624 10.656 10.208 10.152 9.248C9.624 8.312 8.88 7.832 7.92 7.832C6.96 7.832 6.24 8.312 5.736 9.248C5.208 10.208 4.968 11.624 4.968 13.544ZM29.7591 5.408V13.352C29.7591 14.408 30.2871 14.936 31.3431 14.936H43.2471V17.672H30.3831C27.5991 17.672 26.2071 16.448 26.2071 14V5.408H29.7591ZM45.7431 24.032H24.0231V21.224H45.7431V24.032ZM56.8388 11.504V5.216H60.3668V7.832H70.3028V5.216H73.8308V14.96H60.5588C58.0628 14.96 56.8388 13.808 56.8388 11.504ZM60.3668 11.384C60.3668 12.056 60.7508 12.392 61.5428 12.392H70.3028V10.376H60.3668V11.384ZM76.4228 18.584H67.8068V21.944H64.2548V18.584H54.7028V15.896H76.4228V18.584ZM62.4548 23.456H74.1428V26.12H61.0148C58.4708 26.12 57.2228 24.776 57.2228 22.04V20H60.7747V21.632C60.7747 22.856 61.3268 23.456 62.4548 23.456ZM79.8135 11.384C79.8135 9.656 80.4375 8.192 81.6855 6.992C82.9335 5.816 84.5655 5.216 86.5815 5.216C88.5975 5.216 90.2295 5.816 91.4775 6.992C92.7255 8.192 93.3495 9.656 93.3495 11.384C93.3495 13.112 92.7255 14.552 91.4775 15.728C90.2295 16.928 88.5975 17.504 86.5815 17.504C84.5655 17.504 82.9335 16.928 81.6855 15.728C80.4375 14.552 79.8135 13.112 79.8135 11.384ZM89.7975 11.384C89.7975 10.376 89.4855 9.536 88.8855 8.888C88.2615 8.264 87.4935 7.928 86.5815 7.928C85.6455 7.928 84.8775 8.264 84.2775 8.888C83.6535 9.536 83.3655 10.376 83.3655 11.384C83.3655 12.392 83.6535 13.208 84.2775 13.832C84.8775 14.48 85.6455 14.792 86.5815 14.792C87.4935 14.792 88.2615 14.48 88.8855 13.832C89.4855 13.208 89.7975 12.392 89.7975 11.384ZM78.9495 19.856H90.6615C93.5415 19.856 94.9815 18.8 94.9815 16.688V5.072H98.5335V26.168H94.9815V21.752C94.2375 22.376 93.0855 22.664 91.5495 22.664H78.9495V19.856ZM127.55 17.72H121.07V21.272H130.142V24.032H108.422V21.272H117.47V17.72H114.374C111.83 17.72 110.558 16.448 110.558 13.904V5.552H114.086V9.2H124.022V5.552H127.55V17.72ZM124.022 15.008V11.888H114.086V13.688C114.086 14.576 114.566 15.008 115.55 15.008H124.022ZM135.356 4.688H142.652V7.064H135.356V4.688ZM145.796 9.944H132.212V7.592H145.796V9.944ZM133.004 14.264C133.004 13.112 133.556 12.176 134.684 11.456C135.788 10.736 137.228 10.376 139.004 10.376C140.756 10.376 142.196 10.736 143.324 11.456C144.428 12.176 145.004 13.112 145.004 14.264C145.004 15.416 144.428 16.328 143.324 17.048C142.196 17.768 140.756 18.128 139.004 18.128C137.228 18.128 135.788 17.768 134.684 17.048C133.556 16.328 133.004 15.416 133.004 14.264ZM136.532 14.288C136.532 14.816 136.748 15.224 137.228 15.488C137.66 15.776 138.26 15.92 139.004 15.92C139.724 15.92 140.324 15.776 140.804 15.488C141.236 15.224 141.476 14.816 141.476 14.288C141.476 13.76 141.236 13.328 140.804 13.016C140.324 12.728 139.724 12.584 139.004 12.584C138.26 12.584 137.66 12.728 137.228 13.016C136.748 13.328 136.532 13.76 136.532 14.288ZM148.7 13.784H145.268V11.048H148.7V5.072H152.228V18.128H148.7V13.784ZM152.228 20.504V26.12H139.484C137.084 26.12 135.908 25.088 135.908 23.024V18.968H150.572C151.676 18.968 152.228 19.496 152.228 20.504ZM148.7 21.368H139.436V22.76C139.436 23.408 139.796 23.72 140.54 23.72H148.7V21.368ZM170.515 5.312C173.011 5.312 174.283 6.464 174.283 8.768V13.592H176.899V16.352H155.179V13.592H170.731V9.512C170.731 8.456 170.131 7.928 168.955 7.928H157.267V5.312H170.515ZM174.355 19.64V26.12H161.275C158.875 26.12 157.699 24.992 157.699 22.736V17.96H172.699C173.803 17.96 174.355 18.536 174.355 19.64ZM170.827 20.552H161.227V22.52C161.227 23.192 161.587 23.528 162.331 23.528H170.827V20.552ZM184.61 8.96C184.61 9.512 185.018 9.896 185.858 10.088C186.674 10.304 187.946 10.4 189.722 10.4C191.45 10.4 192.77 10.304 193.634 10.088C194.474 9.896 194.906 9.512 194.906 8.96C194.906 8.432 194.474 8.024 193.61 7.76C192.746 7.52 191.45 7.376 189.722 7.376C187.994 7.376 186.698 7.52 185.882 7.76C185.018 8.024 184.61 8.432 184.61 8.96ZM180.986 8.936C180.986 7.592 181.73 6.584 183.266 5.936C184.754 5.312 186.914 5 189.746 5C192.578 5 194.738 5.312 196.274 5.912C197.762 6.536 198.53 7.544 198.53 8.912C198.53 10.304 197.762 11.288 196.274 11.864C194.738 12.464 192.578 12.752 189.746 12.752C186.914 12.752 184.754 12.464 183.266 11.864C181.73 11.288 180.986 10.328 180.986 8.936ZM178.898 13.616H200.618V16.088H178.898V13.616ZM181.418 22.616V20.504H194.546V19.664H181.418V17.312H197.45C197.858 17.312 198.074 17.528 198.074 17.96V22.832H184.946V23C184.946 23.504 185.378 23.744 186.242 23.744H198.122V26.12H185.402C182.738 26.12 181.418 24.968 181.418 22.616ZM14.976 41.328H9.936C9.984 42.624 10.536 43.68 11.568 44.496C12.552 45.336 13.824 45.744 15.384 45.744V48.168C12.96 48.168 10.872 47.568 9.12 46.344C8.76 46.104 8.448 45.84 8.184 45.552C7.896 45.84 7.584 46.104 7.248 46.344C5.472 47.568 3.384 48.168 0.984 48.168V45.744C2.52 45.744 3.792 45.336 4.8 44.496C5.808 43.68 6.36 42.624 6.432 41.328H1.392V38.904H14.976V41.328ZM4.272 35.688H12.096V38.136H4.272V35.688ZM17.544 36.072H21.072V48.576H17.544V44.64H13.488V41.952H17.544V36.072ZM20.904 53.016C20.904 54.336 20.28 55.464 19.032 56.4C17.76 57.36 16.104 57.84 14.064 57.84C12.024 57.84 10.368 57.36 9.12 56.4C7.848 55.464 7.224 54.336 7.224 53.016C7.224 51.696 7.848 50.568 9.12 49.608C10.368 48.696 12.024 48.216 14.064 48.216C16.104 48.216 17.76 48.696 19.032 49.608C20.28 50.568 20.904 51.696 20.904 53.016ZM14.064 50.712C13.056 50.712 12.264 50.928 11.664 51.36C11.04 51.792 10.752 52.344 10.752 53.016C10.752 53.688 11.04 54.24 11.664 54.672C12.24 55.104 13.056 55.32 14.064 55.32C15.048 55.32 15.84 55.128 16.464 54.696C17.064 54.288 17.376 53.736 17.376 53.016C17.376 52.344 17.064 51.792 16.464 51.36C15.84 50.928 15.024 50.712 14.064 50.712ZM39.3591 36.384C41.8551 36.384 43.1271 37.656 43.1271 40.176V47.256H39.5751V40.896C39.5751 39.744 38.9751 39.144 37.7991 39.144H26.1111V36.384H39.3591ZM45.7431 50.88H36.6711V57.168H33.0711V50.88H24.0231V48.12H45.7431V50.88ZM51.1498 36.096H58.4458V38.76H51.1498V36.096ZM61.5898 42.144H48.0058V39.504H61.5898V42.144ZM48.7258 48.168C48.7258 46.704 49.2778 45.432 50.4298 44.328C51.5578 43.272 53.0218 42.72 54.7978 42.72C56.5738 42.72 58.0138 43.272 59.1658 44.328C60.2938 45.432 60.8698 46.704 60.8698 48.168C60.8698 49.656 60.2938 50.928 59.1658 51.984C58.0138 53.088 56.5738 53.616 54.7978 53.616C53.0218 53.616 51.5578 53.088 50.4298 51.984C49.2778 50.928 48.7258 49.656 48.7258 48.168ZM52.2298 48.168C52.2298 49.032 52.4938 49.704 53.0218 50.208C53.5258 50.736 54.1258 51 54.7978 51C55.4698 51 56.0698 50.736 56.5978 50.208C57.1018 49.704 57.3658 49.032 57.3658 48.168C57.3658 47.328 57.1018 46.632 56.5978 46.104C56.0698 45.6 55.4698 45.336 54.7978 45.336C54.1258 45.336 53.5258 45.6 53.0218 46.104C52.4938 46.632 52.2298 47.328 52.2298 48.168ZM70.1818 46.344H67.1098V57.168H63.5818V36.072H67.1098V43.56H70.1818V46.344ZM80.1006 36.384V39.504C80.1006 43.128 80.6526 45.744 81.7806 47.328C82.7166 48.672 83.9406 49.608 85.4526 50.088V52.824C82.9086 52.368 80.8206 51.192 79.2366 49.272C78.9006 48.888 78.6126 48.48 78.3486 48C78.0606 48.48 77.7726 48.888 77.4606 49.272C75.8526 51.192 73.7886 52.368 71.2446 52.824V50.088C72.7326 49.608 73.9566 48.672 74.9166 47.328C76.0206 45.744 76.5966 43.128 76.5966 39.504V36.384H80.1006ZM87.3246 57.168V36.072H90.8766V57.168H87.3246ZM105.077 52.368H99.1731C96.3891 52.368 94.9971 51.168 94.9971 48.72V36.408H98.5491V48.216C98.5491 49.176 98.9811 49.632 99.8691 49.632H105.029C107.165 49.632 108.533 48.936 109.133 47.544V36.072H112.661V42.96H116.213V45.744H112.661V57.168H109.133V51.408C108.269 52.056 106.925 52.368 105.077 52.368ZM119.58 42.648C119.58 40.92 120.372 39.432 121.98 38.184C123.564 36.984 125.7 36.36 128.34 36.36C130.98 36.36 133.092 36.984 134.7 38.184C136.284 39.432 137.1 40.92 137.1 42.648C137.1 44.616 136.068 46.272 134.028 47.568V52.272H139.212V55.032H117.492V52.272H122.7V47.592C120.612 46.296 119.58 44.64 119.58 42.648ZM130.476 48.792C129.804 48.888 129.084 48.936 128.34 48.936C127.596 48.936 126.9 48.888 126.252 48.792V52.272H130.476V48.792ZM133.476 42.648C133.476 41.616 132.996 40.752 132.036 40.08C131.076 39.408 129.828 39.072 128.34 39.072C126.804 39.072 125.58 39.408 124.644 40.08C123.684 40.752 123.204 41.616 123.204 42.648C123.204 43.704 123.684 44.544 124.644 45.216C125.58 45.888 126.804 46.224 128.34 46.224C129.828 46.224 131.076 45.888 132.036 45.216C132.996 44.544 133.476 43.704 133.476 42.648ZM146.419 54.48C146.419 55.08 146.203 55.56 145.795 55.944C145.363 56.328 144.811 56.52 144.187 56.52C143.539 56.52 143.011 56.328 142.603 55.944C142.171 55.56 141.955 55.08 141.955 54.48C141.955 53.904 142.171 53.4 142.603 53.016C143.011 52.632 143.539 52.44 144.187 52.44C144.811 52.44 145.363 52.632 145.795 53.016C146.203 53.4 146.419 53.904 146.419 54.48ZM142.411 48.792C142.411 46.248 143.731 44.952 146.419 44.952H148.051C149.899 44.952 150.835 44.304 150.835 43.008V41.088C150.835 39.792 149.899 39.144 148.051 39.144H141.091V36.168H148.531C150.451 36.168 151.891 36.6 152.875 37.464C153.883 38.352 154.387 39.48 154.387 40.872V43.2C154.387 44.592 153.883 45.744 152.875 46.608C151.891 47.472 150.523 47.904 148.747 47.904H147.331C146.419 47.904 145.963 48.384 145.963 49.32V50.88H142.411V48.792Z" fill="black"/>
<defs>
<clipPath id="clip0_114_14643">
<rect width="14" height="14" fill="white" transform="translate(297 118.5)"/>
</clipPath>
<clipPath id="clip1_114_14643">
<rect width="14" height="14" fill="white" transform="translate(297 207)"/>
</clipPath>
<clipPath id="clip2_114_14643">
<rect width="14" height="14" fill="white" transform="translate(297 295)"/>
</clipPath>
</defs>
</svg>
