<svg width="375" height="80" viewBox="0 0 375 80" fill="none" xmlns="http://www.w3.org/2000/svg">
<g clip-path="url(#clip0_2070_1189)">
<rect width="375" height="80" fill="white"/>
<rect x="20" y="15" width="335" height="50" rx="25" fill="#FF6600"/>
<path d="M128.078 46.1562C125.594 46.1562 123.812 44.7891 123.766 42.8125H126.141C126.18 43.6562 127 44.2109 128.094 44.2188C129.219 44.2109 130.023 43.5859 130.016 42.6719C130.023 41.75 129.203 41.1016 127.875 41.0938H126.828V39.3594H127.875C128.992 39.3594 129.773 38.75 129.766 37.8594C129.773 36.9922 129.109 36.3984 128.109 36.4062C127.109 36.3984 126.289 36.9609 126.25 37.8281H124C124.039 35.8828 125.789 34.5312 128.109 34.5312C130.469 34.5312 132.039 35.9297 132.031 37.7188C132.039 38.9844 131.156 39.8828 129.891 40.1094V40.2031C131.555 40.4062 132.469 41.4141 132.453 42.8281C132.469 44.7656 130.633 46.1562 128.078 46.1562ZM145.688 33.2344V41.4688H143.688V41.0156H141.109V39.8125H143.688V33.2344H145.688ZM133.641 38.2344C136.391 38.2422 139.797 38.2266 142.844 37.9375L142.938 39.1719C141.68 39.3359 140.391 39.4453 139.125 39.5156V41.5H137.156V39.5859C135.992 39.6172 134.875 39.6172 133.844 39.6094L133.641 38.2344ZM134.609 35.5625C134.609 34.2812 136.047 33.4297 138.219 33.4219C140.336 33.4297 141.789 34.2812 141.797 35.5625C141.789 36.8828 140.336 37.6953 138.219 37.6875C136.047 37.6953 134.609 36.8828 134.609 35.5625ZM135.672 43.2344V41.8906H145.688V45.2188H137.688V45.9531H146.016V47.3438H135.734V43.9375H143.703V43.2344H135.672ZM136.5 35.5625C136.484 36.0859 137.141 36.3828 138.219 36.3906C139.266 36.3828 139.93 36.0859 139.938 35.5625C139.93 35.0391 139.266 34.7266 138.219 34.7344C137.141 34.7266 136.484 35.0391 136.5 35.5625ZM155.781 46.1562C153.422 46.1562 151.695 44.7656 151.656 42.8125H153.938C153.992 43.6953 154.797 44.3047 155.781 44.2969C156.953 44.3047 157.789 43.4766 157.781 42.2969C157.789 41.0938 156.938 40.2578 155.75 40.25C154.898 40.25 154.305 40.5703 153.969 41.2031H151.844L152.453 34.6875H159.422V36.6094H154.391L154.078 39.4688H154.172C154.586 38.9141 155.445 38.5078 156.438 38.5156C158.516 38.5078 160.062 40.0625 160.062 42.2344C160.062 44.5234 158.328 46.1562 155.781 46.1562ZM165.234 33.6406C167.398 33.6328 169.023 34.9922 169.031 36.8906C169.023 38.7734 167.398 40.1172 165.234 40.125C163.039 40.1172 161.406 38.7734 161.406 36.8906C161.406 34.9922 163.039 33.6328 165.234 33.6406ZM163.344 36.8906C163.328 37.9062 164.133 38.5078 165.234 38.5156C166.312 38.5078 167.102 37.9062 167.109 36.8906C167.102 35.8672 166.312 35.2656 165.234 35.2656C164.141 35.2656 163.328 35.8672 163.344 36.8906ZM163.547 42.4688V40.9375H173.094V44.7969H165.531V45.7188H173.484V47.2812H163.578V43.3438H171.109V42.4688H163.547ZM171.094 40.3438V33.2188H173.094V40.3438H171.094ZM190.078 33.2188V39H191.938V40.6562H190.078V47.4375H188.062V33.2188H190.078ZM178.531 43.4219C179.57 43.4219 180.781 43.4219 182.047 43.3906V42.1719C180.539 41.875 179.555 40.9141 179.562 39.5938C179.555 38.0078 180.992 36.9219 183.062 36.9219C185.094 36.9219 186.547 38.0078 186.562 39.5938C186.547 40.9141 185.547 41.8828 184.047 42.1719V43.3203C185.172 43.2578 186.305 43.1641 187.359 43.0156L187.484 44.4688C184.461 45.0312 181.195 45.0547 178.797 45.0469L178.531 43.4219ZM178.812 36.3594V34.7969H182.047V33.2969H184.047V34.7969H187.25V36.3594H178.812ZM181.453 39.5938C181.445 40.3438 182.086 40.75 183.062 40.75C184.008 40.75 184.641 40.3438 184.641 39.5938C184.641 38.8594 184.008 38.4453 183.062 38.4375C182.086 38.4453 181.445 38.8594 181.453 39.5938ZM205.547 44.1406V45.7812H192.531V44.1406H195.438V40.6562C194.336 39.9922 193.672 38.9844 193.672 37.7344C193.672 35.4297 195.922 33.9141 199.016 33.9062C202.094 33.9141 204.367 35.4297 204.375 37.7344C204.367 38.9609 203.727 39.9531 202.656 40.6172V44.1406H205.547ZM195.641 37.7344C195.641 39.125 196.977 39.9844 199.016 39.9844C201.023 39.9844 202.398 39.125 202.406 37.7344C202.398 36.3047 201.023 35.4766 199.016 35.4844C196.977 35.4766 195.641 36.3047 195.641 37.7344ZM197.406 44.1406H200.641V41.375C200.133 41.4766 199.586 41.5312 199.016 41.5312C198.445 41.5312 197.906 41.4766 197.406 41.3828V44.1406ZM210.406 33.6406C212.57 33.6328 214.195 34.9922 214.203 36.8906C214.195 38.7734 212.57 40.1172 210.406 40.125C208.211 40.1172 206.578 38.7734 206.578 36.8906C206.578 34.9922 208.211 33.6328 210.406 33.6406ZM208.516 36.8906C208.5 37.9062 209.305 38.5078 210.406 38.5156C211.484 38.5078 212.273 37.9062 212.281 36.8906C212.273 35.8672 211.484 35.2656 210.406 35.2656C209.312 35.2656 208.5 35.8672 208.516 36.8906ZM208.719 42.4688V40.9375H218.266V44.7969H210.703V45.7188H218.656V47.2812H208.75V43.3438H216.281V42.4688H208.719ZM216.266 40.3438V33.2188H218.266V40.3438H216.266ZM229.203 35.6562C229.203 37.4922 230.188 39.3203 232.453 40.0781L231.375 41.6406C229.867 41.0859 228.828 40.0391 228.227 38.7188C227.617 40.2109 226.508 41.375 224.859 41.9688L223.781 40.4062C226.156 39.625 227.18 37.6797 227.188 35.6406V34.0938H229.203V35.6562ZM226.391 47.1875V42.625H228.406V45.5938H236.156V47.1875H226.391ZM231.203 37.8594V36.25H233.875V33.2344H235.859V43.7344H233.875V37.8594H231.203ZM243.828 34.1719V35.7656H240.109V36.9375H243.688V38.4531H240.109V39.7109C241.688 39.6953 242.852 39.6328 244.172 39.4062L244.375 41C242.711 41.2969 241.32 41.3516 239.172 41.3438H238.203V34.1719H243.828ZM240.094 44.0938V42.5H249.922V47.4375H247.938V44.0938H240.094ZM244.938 41.7969V33.4844H246.797V36.7031H248.031V33.2344H249.922V41.9062H248.031V38.2969H246.797V41.7969H244.938Z" fill="white"/>
</g>
<defs>
<clipPath id="clip0_2070_1189">
<rect width="375" height="80" fill="white"/>
</clipPath>
</defs>
</svg>
