<svg width="375" height="80" viewBox="0 0 375 80" fill="none" xmlns="http://www.w3.org/2000/svg">
<g clip-path="url(#clip0_2070_955)">
<rect width="375" height="80" fill="white"/>
<rect x="20" y="15" width="335" height="50" rx="25" fill="#FF6600"/>
<path d="M156.328 33.2344V43.4531H154.328V33.2344H156.328ZM144.641 37.7188C144.641 35.6328 146.344 34.1328 148.531 34.1406C150.711 34.1328 152.414 35.6328 152.422 37.7188C152.414 39.8359 150.711 41.3281 148.531 41.3281C146.344 41.3281 144.641 39.8359 144.641 37.7188ZM146.594 37.7188C146.578 38.9062 147.414 39.5938 148.531 39.5938C149.609 39.5938 150.445 38.9062 150.453 37.7188C150.445 36.5625 149.609 35.8672 148.531 35.875C147.414 35.8672 146.578 36.5625 146.594 37.7188ZM146.797 47.1875V42.4219H148.812V45.5938H156.703V47.1875H146.797ZM171.219 39.7656V41.375H158.25V39.7656H171.219ZM158.828 37.6875C161.5 37.4453 162.961 36.4688 163.289 35.4688H159.438V33.875H170.047V35.4688H166.164C166.484 36.4609 167.938 37.4453 170.672 37.6875L169.969 39.25C167.281 38.9922 165.477 37.9766 164.719 36.6016C163.969 37.9766 162.18 38.9922 159.484 39.25L158.828 37.6875ZM159.734 44.8125C159.734 43.1406 161.609 42.1719 164.719 42.1719C167.805 42.1719 169.656 43.1406 169.672 44.8125C169.656 46.4922 167.805 47.4453 164.719 47.4375C161.609 47.4453 159.734 46.4922 159.734 44.8125ZM161.766 44.8125C161.758 45.5469 162.75 45.8906 164.719 45.8906C166.648 45.8906 167.664 45.5469 167.672 44.8125C167.664 44.0703 166.648 43.7188 164.719 43.7188C162.75 43.7188 161.758 44.0703 161.766 44.8125ZM184.062 33.2344V43.7188H182.078V38.5938H179.453V41.4688H172.688V34.1562H174.688V36.3438H177.484V34.1562H179.453V37H182.078V33.2344H184.062ZM174.594 47.1875V42.6719H176.609V45.5938H184.359V47.1875H174.594ZM174.688 39.9062H177.484V37.8594H174.688V39.9062ZM198.297 35.0156V36.6094H186.469V35.0156H191.391V33.3594H193.359V35.0156H198.297ZM185.906 45.9844V44.3906H191.391V42.7578C188.969 42.5391 187.5 41.5469 187.516 39.9844C187.5 38.2578 189.367 37.2266 192.375 37.2344C195.328 37.2266 197.227 38.2578 197.219 39.9844C197.227 41.5469 195.742 42.5391 193.359 42.75V44.3906H198.922V45.9844H185.906ZM189.562 39.9844C189.555 40.8281 190.531 41.2109 192.375 41.2031C194.18 41.2109 195.172 40.8281 195.172 39.9844C195.172 39.1719 194.18 38.7891 192.375 38.7812C190.531 38.7891 189.555 39.1719 189.562 39.9844ZM214.703 33.2188V36.4531H216.625V38.0938H214.703V41.5156H212.703V33.2188H214.703ZM203.844 40.8125V34.0469H205.828V35.8594H208.734V34.0469H210.734V40.8125H203.844ZM205.406 47.25V42.1562H214.781V43.7344H207.391V45.6875H215.047V47.25H205.406ZM205.828 39.25H208.734V37.4062H205.828V39.25ZM229.203 33.2188V47.4375H227.188V33.2188H229.203ZM217.297 43.4062C220.969 41.6719 222.586 39.4219 222.906 36.2656H218.062V34.7031H224.938C224.93 39.0156 223.422 42.6016 218.344 45L217.297 43.4062Z" fill="white"/>
</g>
<defs>
<clipPath id="clip0_2070_955">
<rect width="375" height="80" fill="white"/>
</clipPath>
</defs>
</svg>
