<svg width="335" height="602" viewBox="0 0 335 602" fill="none" xmlns="http://www.w3.org/2000/svg">
<circle cx="12" cy="590" r="9" fill="#303030"/>
<rect x="11" y="589" width="2" height="5.5" rx="1" fill="white"/>
<rect x="10.7998" y="585.5" width="2.4" height="2.4" rx="1.2" fill="white"/>
<path d="M38.541 583.953V590.27H37.4609V583.953H38.541ZM28.6973 588.943C29.1826 588.943 29.709 588.937 30.2559 588.93V585.648H29.0391V584.787H35.6152V585.648H34.3848V588.766C35.0137 588.718 35.6289 588.656 36.2168 588.588L36.2715 589.381C33.8379 589.743 30.9805 589.839 28.834 589.832L28.6973 588.943ZM30.584 591.719V590.857H38.541V593.756H31.6777V595.096H39.0059V595.971H30.625V592.949H37.4746V591.719H30.584ZM31.2949 588.909C31.9648 588.889 32.6553 588.868 33.3457 588.827V585.648H31.2949V588.909ZM51.7207 593.646V594.549H40.5918V593.646H43.3535V590.372C42.3145 589.832 41.6855 588.957 41.6855 587.85C41.6855 585.97 43.5312 584.732 46.1289 584.719C48.7266 584.732 50.5723 585.97 50.5723 587.85C50.5723 588.937 49.9639 589.798 48.959 590.338V593.646H51.7207ZM42.7246 587.85C42.7178 589.21 44.1328 590.119 46.1289 590.119C48.1045 590.119 49.5332 589.21 49.5332 587.85C49.5332 586.489 48.1045 585.594 46.1289 585.607C44.1328 585.594 42.7178 586.489 42.7246 587.85ZM44.4062 593.646H47.8789V590.755C47.3525 590.892 46.7646 590.967 46.1289 590.967C45.5068 590.967 44.9258 590.898 44.4062 590.762V593.646ZM56.9707 587.221C56.9639 589.422 58.3789 591.637 60.1426 592.443L59.5 593.318C58.1191 592.607 56.9775 591.158 56.4375 589.429C55.8975 591.247 54.7559 592.806 53.375 593.537L52.6777 592.676C54.4619 591.801 55.8701 589.463 55.877 587.221V585.006H56.9707V587.221ZM58.8164 588.984V588.109H61.7012V583.953H62.7676V596.135H61.7012V588.984H58.8164ZM75.9062 591.213V592.074H72.9805V596.107H71.9141V592.074H68.7695V596.107H67.6895V592.074H64.7773V591.213H75.9062ZM66.1172 585.32V584.432H74.5527V587.549H67.2246V589.066H74.8125V589.955H66.1445V586.715H73.459V585.32H66.1172ZM89.8926 583.967V587.645H91.7109V588.547H89.8926V592.115H88.8125V583.967H89.8926ZM80.3496 590.871C81.3203 590.871 82.4551 590.871 83.6445 590.837V589.941C82.2295 589.812 81.3135 589.162 81.3203 588.15C81.3135 587.043 82.4551 586.359 84.1641 586.359C85.8867 586.359 87.0078 587.043 87.0215 588.15C87.0078 589.155 86.1191 589.805 84.7109 589.941V590.796C85.8457 590.741 86.9941 590.646 88.0605 590.488L88.1562 591.268C85.5176 591.732 82.6123 591.753 80.4727 591.746L80.3496 590.871ZM80.6504 585.895V585.074H83.6445V583.857H84.7109V585.074H87.6914V585.895H80.6504ZM81.8398 593.578V592.717H89.8926V596.107H88.8125V593.578H81.8398ZM82.3457 588.15C82.3389 588.786 83.043 589.217 84.1641 589.203C85.2852 589.217 85.9961 588.786 85.9961 588.15C85.9961 587.508 85.2852 587.111 84.1641 587.125C83.043 587.111 82.3389 587.508 82.3457 588.15ZM102.539 583.967V592.854H101.473V583.967H102.539ZM92.791 587.795C92.7842 586.045 94.1582 584.821 95.9766 584.814C97.7949 584.821 99.1553 586.045 99.1621 587.795C99.1553 589.565 97.7949 590.796 95.9766 590.789C94.1582 590.796 92.7842 589.565 92.791 587.795ZM93.8438 587.795C93.8301 589.005 94.7461 589.846 95.9766 589.846C97.1865 589.846 98.1094 589.005 98.1094 587.795C98.1094 586.605 97.1865 585.758 95.9766 585.758C94.7461 585.758 93.8301 586.605 93.8438 587.795ZM94.6914 595.848V591.951H95.7578V594.945H102.922V595.848H94.6914ZM114.01 583.953V588.971H116.047V589.859H114.01V596.107H112.943V583.953H114.01ZM104.535 586.797V585.908H107.666V584.104H108.732V585.908H111.768V586.797H104.535ZM105.232 590.598C105.226 588.957 106.483 587.809 108.213 587.809C109.929 587.809 111.18 588.957 111.193 590.598C111.18 592.245 109.929 593.387 108.213 593.387C106.483 593.387 105.226 592.245 105.232 590.598ZM106.258 590.598C106.251 591.705 107.078 592.484 108.213 592.471C109.334 592.484 110.154 591.705 110.168 590.598C110.154 589.497 109.334 588.704 108.213 588.711C107.078 588.704 106.251 589.497 106.258 590.598ZM126.752 583.953V596.107H125.672V583.953H126.752ZM116.854 592.949C120.142 591.391 121.823 589.06 122.062 586.154H117.414V585.279H123.156C123.143 588.772 121.516 591.869 117.441 593.824L116.854 592.949Z" fill="black"/>
<path d="M9.624 5.384V8.504C9.624 12.128 10.176 14.744 11.304 16.328C12.24 17.672 13.464 18.608 14.976 19.088V21.824C12.432 21.368 10.344 20.192 8.76 18.272C8.424 17.888 8.136 17.48 7.872 17C7.584 17.48 7.296 17.888 6.984 18.272C5.376 20.192 3.312 21.368 0.768 21.824V19.088C2.256 18.608 3.48 17.672 4.44 16.328C5.544 14.744 6.12 12.128 6.12 8.504V5.384H9.624ZM17.544 26.168V14H12.384V11.192H17.544V5.072H21.072V26.168H17.544ZM26.2551 12.824V9.344H39.7191V7.976H26.2551V5.312H42.1191C42.8631 5.312 43.2471 5.696 43.2471 6.464V11.984H29.7831V12.68C29.7831 13.256 30.2151 13.544 31.0791 13.544H43.4631V16.208H30.0951C27.5271 16.208 26.2551 15.08 26.2551 12.824ZM45.7431 20.48H40.4871V26.168H36.9351V20.48H32.7831V26.168H29.2311V20.48H24.0231V17.72H45.7431V20.48ZM65.7898 5.12C66.5338 5.12 66.9178 5.48 66.9178 6.176V10.352H53.4538V10.616C53.4538 11.048 53.8378 11.24 54.6298 11.24H67.1338V13.424H53.7658C51.1978 13.424 49.9258 12.536 49.9258 10.736V8.168H63.3898V7.328H49.9258V5.12H65.7898ZM47.7418 14.456H69.4618V16.832H47.7418V14.456ZM50.2618 22.88V20.84H63.3898V20.024H50.2618V17.84H66.2938C66.7018 17.84 66.9178 18.032 66.9178 18.416V23.024H53.7898V23.192C53.7898 23.672 54.2218 23.888 55.0858 23.888H66.9658V26.12H54.2458C51.5818 26.12 50.2618 25.04 50.2618 22.88ZM20.208 44.376H6.84C4.344 44.376 3.12 43.224 3.12 40.872V36.312H20.016V38.904H6.672V40.728C6.672 41.448 7.08 41.784 7.92 41.784H20.208V44.376ZM0.984 45.648H22.704V48.36H0.984V45.648ZM20.376 53.4C20.376 54.84 19.608 55.872 18.096 56.52C16.56 57.192 14.496 57.504 11.88 57.504C9.24 57.504 7.176 57.192 5.664 56.52C4.128 55.872 3.384 54.84 3.384 53.4C3.384 51.96 4.128 50.904 5.664 50.232C7.176 49.584 9.24 49.248 11.88 49.248C14.496 49.248 16.56 49.584 18.096 50.232C19.608 50.904 20.376 51.96 20.376 53.4ZM11.856 54.888C13.392 54.888 14.592 54.768 15.456 54.528C16.296 54.312 16.728 53.952 16.728 53.424C16.728 52.896 16.296 52.488 15.456 52.224C14.592 51.984 13.392 51.864 11.856 51.864C10.32 51.864 9.144 51.984 8.304 52.224C7.44 52.488 7.008 52.896 7.008 53.424C7.008 53.952 7.44 54.312 8.304 54.528C9.144 54.768 10.32 54.888 11.856 54.888ZM42.7508 36.216C43.4948 36.216 43.8788 36.6 43.8788 37.368V42.048H30.4148V42.528C30.4148 42.984 30.7988 43.2 31.5908 43.2H44.0948V45.624H37.3508V46.92H46.4228V49.44H24.7028V46.92H33.7508V45.624H30.7268C28.1588 45.624 26.8867 44.64 26.8867 42.624V39.648H40.3508V38.64H26.8867V36.216H42.7508ZM27.0548 50.784H42.2948C43.3988 50.784 43.9748 51.36 43.9748 52.488V57.312H40.4228V53.256H27.0548V50.784ZM50.7495 36.096H57.3255V38.76H50.7495V36.096ZM59.8695 42.144H48.1575V39.504H59.8695V42.144ZM59.4135 48.168C59.4135 49.704 58.9095 51 57.9015 52.032C56.8935 53.088 55.5975 53.616 54.0135 53.616C52.4295 53.616 51.1575 53.088 50.1735 52.032C49.1655 51 48.6615 49.704 48.6615 48.168C48.6615 46.632 49.1655 45.336 50.1735 44.28C51.1575 43.248 52.4295 42.72 54.0135 42.72C55.5975 42.72 56.8935 43.248 57.9015 44.28C58.9095 45.336 59.4135 46.632 59.4135 48.168ZM56.1015 48.168C56.1015 47.28 55.9095 46.584 55.5255 46.08C55.1415 45.6 54.6135 45.336 53.9895 45.336C53.3655 45.336 52.8855 45.576 52.5255 46.056C52.1415 46.56 51.9735 47.256 51.9735 48.168C51.9735 49.08 52.1415 49.776 52.5255 50.256C52.8855 50.76 53.3655 51 53.9895 51C54.6135 51 55.1415 50.76 55.5255 50.256C55.9095 49.776 56.1015 49.08 56.1015 48.168ZM65.5095 36.072H68.8455V57.168H65.5095V45.744H64.0215V57.168H60.7335V36.072H64.0215V42.984H65.5095V36.072ZM91.3326 39.096H84.2046C84.4686 40.536 85.3086 41.736 86.7246 42.696C88.0926 43.656 89.7246 44.184 91.6446 44.232V46.92C89.0046 46.944 86.6766 46.32 84.6126 45.048C83.7006 44.496 82.9326 43.848 82.3326 43.08C81.7086 43.848 80.9406 44.496 80.0286 45.048C77.9646 46.32 75.6126 46.944 72.9966 46.92V44.232C74.8926 44.184 76.5246 43.656 77.9166 42.696C79.3086 41.736 80.1486 40.536 80.4366 39.096H73.3326V36.384H91.3326V39.096ZM93.1806 51H84.1086V57.168H80.5086V51H71.4606V48.24H93.1806V51ZM102.475 39.504C102.475 43.176 102.955 45.792 103.939 47.352C104.707 48.624 105.667 49.488 106.795 49.92V52.92C104.731 52.368 102.979 51.168 101.563 49.344C101.275 49.008 101.035 48.624 100.819 48.192C100.579 48.624 100.339 49.008 100.075 49.344C98.6353 51.168 96.9073 52.368 94.8433 52.92V49.92C95.9473 49.488 96.9073 48.624 97.6993 47.352C98.6593 45.792 99.1633 43.176 99.1633 39.528V36.384H102.475V39.504ZM112.267 36.072H115.603V57.168H112.267V36.072ZM107.707 36.072H110.995V57.168H107.707V45H104.275V42.192H107.707V36.072ZM120.306 42.648C120.306 40.92 121.098 39.432 122.706 38.184C124.29 36.984 126.426 36.36 129.066 36.36C131.706 36.36 133.818 36.984 135.426 38.184C137.01 39.432 137.826 40.92 137.826 42.648C137.826 44.616 136.794 46.272 134.754 47.568V52.272H139.938V55.032H118.218V52.272H123.426V47.592C121.338 46.296 120.306 44.64 120.306 42.648ZM131.202 48.792C130.53 48.888 129.81 48.936 129.066 48.936C128.322 48.936 127.626 48.888 126.978 48.792V52.272H131.202V48.792ZM134.202 42.648C134.202 41.616 133.722 40.752 132.762 40.08C131.802 39.408 130.554 39.072 129.066 39.072C127.53 39.072 126.306 39.408 125.37 40.08C124.41 40.752 123.93 41.616 123.93 42.648C123.93 43.704 124.41 44.544 125.37 45.216C126.306 45.888 127.53 46.224 129.066 46.224C130.554 46.224 131.802 45.888 132.762 45.216C133.722 44.544 134.202 43.704 134.202 42.648Z" fill="black"/>
<path d="M4.56641 93.2207C4.56641 95.3604 5.98145 97.5684 7.71094 98.416L7.05469 99.2773C5.71484 98.5801 4.59375 97.1377 4.05371 95.4492C3.51367 97.2402 2.36523 98.7783 0.998047 99.5098L0.314453 98.6484C2.0918 97.7734 3.5 95.4424 3.51367 93.2207V91.0059H4.56641V93.2207ZM8.83203 102.107V89.9531H9.89844V94.8887H11.9355V95.8184H9.89844V102.107H8.83203ZM16.9668 92.5645C16.9736 94.2051 18.2656 95.6816 20.084 96.2559L19.5371 97.1172C18.1221 96.6318 17.001 95.6338 16.4473 94.3555C15.9209 95.7363 14.7793 96.8301 13.3301 97.3633L12.7695 96.502C14.5947 95.8662 15.8799 94.2871 15.8867 92.5645V91.8535H13.043V90.9785H19.7695V91.8535H16.9668V92.5645ZM14.7793 101.848V98.0332H15.8457V100.945H23.0098V101.848H14.7793ZM21.5605 98.8809V89.9668H22.627V98.8809H21.5605ZM35.7656 96.3652V97.2402H24.6914V96.3652H35.7656ZM25.9219 92.7969C25.9219 91.2725 27.5898 90.377 30.2285 90.3906C32.8398 90.377 34.5146 91.2725 34.5215 92.7969C34.5146 94.3076 32.8398 95.2168 30.2285 95.2168C27.5898 95.2168 25.9219 94.3076 25.9219 92.7969ZM26.127 101.848V98.3066H27.207V100.945H34.5352V101.848H26.127ZM27.0293 92.7969C27.0225 93.7607 28.2666 94.3418 30.2285 94.3418C32.1768 94.3418 33.4209 93.7607 33.4277 92.7969C33.4209 91.8467 32.1768 91.252 30.2285 91.252C28.2666 91.252 27.0225 91.8467 27.0293 92.7969ZM44.2422 91.1016V101H42.998V92.3867H42.9434L40.5371 93.9863V92.7422L42.998 91.1016H44.2422ZM50.1211 101.137C47.9268 101.137 46.6553 99.291 46.6621 96.0508C46.6553 92.8379 47.9404 90.9648 50.1211 90.9648C52.2949 90.9648 53.5801 92.8379 53.5801 96.0508C53.5801 99.291 52.3154 101.137 50.1211 101.137ZM47.8516 96.0508C47.8584 98.6143 48.6855 100.043 50.1211 100.043C51.5498 100.043 52.3838 98.6143 52.377 96.0508C52.3838 93.4873 51.543 92.0381 50.1211 92.0312C48.6992 92.0381 47.8584 93.4873 47.8516 96.0508ZM58.8984 92.2637C58.9053 93.8564 60.0947 95.2783 61.8789 95.8594L61.373 96.707C59.9717 96.2422 58.9121 95.2783 58.3857 94.0547C57.8662 95.4492 56.7451 96.5361 55.2891 97.0625L54.7422 96.2012C56.5605 95.5859 57.832 94.0205 57.8457 92.2637V91.7441H55.0703V90.8555H61.6328V91.7441H58.8984V92.2637ZM56.3555 99.8379C56.3623 98.4365 57.8867 97.623 60.3887 97.623C62.8838 97.623 64.3945 98.4365 64.3945 99.8379C64.3945 101.26 62.8838 102.08 60.3887 102.08C57.8867 102.08 56.3623 101.26 56.3555 99.8379ZM57.4355 99.8379C57.4219 100.713 58.5566 101.226 60.3887 101.219C62.2275 101.226 63.3486 100.713 63.3555 99.8379C63.3486 98.9902 62.2275 98.4844 60.3887 98.4844C58.5566 98.4844 57.4219 98.9902 57.4355 99.8379ZM63.2188 97.2949V89.9531H64.2852V93.0566H66.1172V93.959H64.2852V97.2949H63.2188ZM68.8789 100.084L67.8125 103.803H66.8008L67.5527 100.084H68.8789ZM74.5801 101V91.1016H77.9434C80.2607 91.1016 81.3203 92.4824 81.3203 94.2461C81.3203 96.0029 80.2607 97.4043 77.957 97.4043H75.8105V101H74.5801ZM75.8105 96.3105H77.9023C79.4814 96.3105 80.0967 95.4219 80.1035 94.2461C80.0967 93.0635 79.4814 92.1953 77.8887 92.1953H75.8105V96.3105ZM86.1191 101H83.043V91.1016H86.2422C89.1338 91.1016 90.8359 92.9541 90.8359 96.0371C90.8359 99.127 89.1338 101 86.1191 101ZM84.2734 99.9062H86.0371C88.4639 99.9062 89.6328 98.4365 89.6328 96.0371C89.6328 93.6445 88.4639 92.1953 86.1602 92.1953H84.2734V99.9062ZM92.6406 101V91.1016H98.6016V92.1953H93.8711V95.5039H98.1504V96.584H93.8711V101H92.6406ZM109.662 93.6445V94.5059H101.336V90.4043H102.402V93.6445H109.662ZM99.8184 97.0352V96.1602H110.947V97.0352H99.8184ZM101.268 101.807V98.2793H102.334V100.918H109.73V101.807H101.268ZM115.883 101L115.869 100.098L119.246 96.543C120.415 95.2988 120.976 94.6289 120.982 93.7129C120.976 92.6943 120.128 92.0381 119.014 92.0312C117.831 92.0381 117.093 92.7832 117.086 93.8906H115.924C115.91 92.1406 117.264 90.9648 119.055 90.9648C120.853 90.9648 122.124 92.1748 122.131 93.7129C122.124 94.8203 121.611 95.6816 119.861 97.4863L117.592 99.8242V99.9062H122.309V101H115.883ZM127.34 101.137C125.146 101.137 123.874 99.291 123.881 96.0508C123.874 92.8379 125.159 90.9648 127.34 90.9648C129.514 90.9648 130.799 92.8379 130.799 96.0508C130.799 99.291 129.534 101.137 127.34 101.137ZM125.07 96.0508C125.077 98.6143 125.904 100.043 127.34 100.043C128.769 100.043 129.603 98.6143 129.596 96.0508C129.603 93.4873 128.762 92.0381 127.34 92.0312C125.918 92.0381 125.077 93.4873 125.07 96.0508ZM136.117 92.2637C136.124 93.8564 137.313 95.2783 139.098 95.8594L138.592 96.707C137.19 96.2422 136.131 95.2783 135.604 94.0547C135.085 95.4492 133.964 96.5361 132.508 97.0625L131.961 96.2012C133.779 95.5859 135.051 94.0205 135.064 92.2637V91.7441H132.289V90.8555H138.852V91.7441H136.117V92.2637ZM133.574 99.8379C133.581 98.4365 135.105 97.623 137.607 97.623C140.103 97.623 141.613 98.4365 141.613 99.8379C141.613 101.26 140.103 102.08 137.607 102.08C135.105 102.08 133.581 101.26 133.574 99.8379ZM134.654 99.8379C134.641 100.713 135.775 101.226 137.607 101.219C139.446 101.226 140.567 100.713 140.574 99.8379C140.567 98.9902 139.446 98.4844 137.607 98.4844C135.775 98.4844 134.641 98.9902 134.654 99.8379ZM140.438 97.2949V89.9531H141.504V93.0566H143.336V93.959H141.504V97.2949H140.438ZM153.727 89.9531V94.9707H155.572V95.873H153.727V102.107H152.646V89.9531H153.727ZM144.061 98.7441C145.893 96.8643 146.638 94.6016 146.774 92.1816H144.443V91.2793H147.793C147.779 94.1709 147.13 97.0283 144.922 99.3594L144.061 98.7441ZM147.547 99.5645C149.447 97.418 150.015 94.7178 150.117 92.1816H148.176V91.2793H151.129C151.122 94.1641 150.698 97.5205 148.422 100.166L147.547 99.5645ZM160.549 93.6855C160.556 95.75 162.053 97.8486 163.844 98.6211L163.242 99.4688C161.82 98.8262 160.597 97.4248 160.029 95.7432C159.462 97.5273 158.231 99.0723 156.844 99.7695L156.201 98.9219C157.944 98.0879 159.462 95.791 159.469 93.6855V92.0996H156.598V91.2109H163.447V92.0996H160.549V93.6855ZM165.143 102.107V89.9531H166.223V102.107H165.143ZM181.221 89.9531V94.9023H183.189V95.8047H181.221V102.107H180.154V89.9531H181.221ZM171.896 98.9492C175.034 97.3906 176.743 95.0459 176.989 92.168H172.457V91.2656H178.076C178.069 94.7041 176.456 97.8418 172.498 99.7969L171.896 98.9492ZM193.73 93.3574V94.2461H185.432V90.1992H186.498V93.3574H193.73ZM183.914 96.5566V95.668H195.002V96.5566H183.914ZM185.254 99.8516C185.247 98.4365 186.826 97.6436 189.451 97.6504C192.056 97.6436 193.621 98.4365 193.635 99.8516C193.621 101.26 192.056 102.053 189.451 102.053C186.826 102.053 185.247 101.26 185.254 99.8516ZM186.348 99.8516C186.334 100.699 187.503 101.212 189.451 101.219C191.379 101.212 192.548 100.699 192.555 99.8516C192.548 98.9902 191.379 98.5049 189.451 98.498C187.503 98.5049 186.334 98.9902 186.348 99.8516ZM202.084 92.0586V92.9336H195.986V92.0586H198.516V90.3223H199.582V92.0586H202.084ZM196.424 96.5156C196.424 94.9023 197.524 93.7607 199.035 93.7539C200.566 93.7607 201.66 94.9023 201.674 96.5156C201.66 98.1494 200.566 99.2979 199.035 99.3047C197.524 99.2979 196.424 98.1494 196.424 96.5156ZM197.381 96.5156C197.381 97.5957 198.071 98.3682 199.035 98.3613C200.006 98.3682 200.717 97.5957 200.717 96.5156C200.717 95.4492 200.006 94.6699 199.035 94.6562C198.071 94.6699 197.381 95.4492 197.381 96.5156ZM202.713 101.506V90.2539H203.725V95.0801H205.338V89.9531H206.363V102.107H205.338V95.9688H203.725V101.506H202.713ZM219.242 99.6465V100.549H208.113V99.6465H210.875V96.3721C209.836 95.832 209.207 94.957 209.207 93.8496C209.207 91.9697 211.053 90.7324 213.65 90.7188C216.248 90.7324 218.094 91.9697 218.094 93.8496C218.094 94.9365 217.485 95.7979 216.48 96.3379V99.6465H219.242ZM210.246 93.8496C210.239 95.21 211.654 96.1191 213.65 96.1191C215.626 96.1191 217.055 95.21 217.055 93.8496C217.055 92.4893 215.626 91.5938 213.65 91.6074C211.654 91.5938 210.239 92.4893 210.246 93.8496ZM211.928 99.6465H215.4V96.7549C214.874 96.8916 214.286 96.9668 213.65 96.9668C213.028 96.9668 212.447 96.8984 211.928 96.7617V99.6465Z" fill="#666666"/>
<rect x="0.5" y="138.5" width="334" height="79" rx="15.5" fill="#F4F4F4"/>
<rect x="0.5" y="138.5" width="334" height="79" rx="15.5" stroke="#E8E8E8" stroke-dasharray="2 2"/>
<path fill-rule="evenodd" clip-rule="evenodd" d="M132.5 178.5C132.5 182.09 135.41 185 139 185C142.59 185 145.5 182.09 145.5 178.5C145.5 174.91 142.59 172 139 172C135.41 172 132.5 174.91 132.5 178.5ZM139 170.5C134.582 170.5 131 174.082 131 178.5C131 182.918 134.582 186.5 139 186.5C143.418 186.5 147 182.918 147 178.5C147 174.082 143.418 170.5 139 170.5ZM139 173.75C139.414 173.75 139.75 174.086 139.75 174.5V177.75H143C143.414 177.75 143.75 178.086 143.75 178.5C143.75 178.914 143.414 179.25 143 179.25H139.75V182.5C139.75 182.914 139.414 183.25 139 183.25C138.586 183.25 138.25 182.914 138.25 182.5V179.25H135C134.586 179.25 134.25 178.914 134.25 178.5C134.25 178.086 134.586 177.75 135 177.75H138.25V174.5C138.25 174.086 138.586 173.75 139 173.75Z" fill="#FF6600"/>
<path d="M159.703 175.029C159.689 177.196 160.954 179.418 162.779 180.307L161.973 181.346C160.64 180.648 159.607 179.281 159.067 177.647C158.521 179.384 157.447 180.854 156.053 181.578L155.246 180.525C157.126 179.623 158.397 177.271 158.404 175.029V172.938H159.703V175.029ZM163.695 184.162V171.912H164.994V176.793H166.963V177.9H164.994V184.162H163.695ZM172.09 174.469C172.09 176.055 173.259 177.545 175.152 178.146L174.482 179.158C173.074 178.693 172.015 177.729 171.454 176.506C170.907 177.839 169.813 178.892 168.357 179.404L167.688 178.379C169.595 177.729 170.771 176.144 170.777 174.469V173.936H168.029V172.883H174.783V173.936H172.09V174.469ZM169.697 183.902V180.02H171.01V182.85H178.078V183.902H169.697ZM176.41 180.867V171.926H177.709V180.867H176.41ZM190.834 177.668V178.734H179.65V177.668H190.834ZM180.977 181.92C180.977 180.498 182.569 179.691 185.229 179.691C187.867 179.691 189.446 180.498 189.453 181.92C189.446 183.342 187.867 184.142 185.229 184.135C182.569 184.142 180.977 183.342 180.977 181.92ZM181.045 176.602V172.35H189.453V173.416H182.33V175.549H189.535V176.602H181.045ZM182.289 181.92C182.282 182.706 183.355 183.13 185.229 183.137C187.074 183.13 188.154 182.706 188.154 181.92C188.154 181.141 187.074 180.703 185.229 180.689C183.355 180.703 182.282 181.141 182.289 181.92ZM202.947 178.598V179.65H191.736V178.598H196.699V177.436H193.172V174.318H200.24V173.225H193.145V172.199H201.539V175.275H194.457V176.424H201.785V177.436H197.984V178.598H202.947ZM192.994 181.551V180.512H201.607V184.066H200.295V181.551H192.994Z" fill="#888888"/>
</svg>
