<svg width="375" height="80" viewBox="0 0 375 80" fill="none" xmlns="http://www.w3.org/2000/svg">
<g clip-path="url(#clip0_2070_371)">
<rect width="375" height="80" fill="white"/>
<rect x="20" y="15" width="335" height="50" rx="25" fill="#FF6600"/>
<path d="M147.328 33.2344V43.6094H145.328V33.2344H147.328ZM135.375 40.0938C137.758 39.2969 138.797 37.3203 138.797 35.3906V34.0156H140.875V35.3906C140.859 37.2734 141.867 39.1094 144.203 39.8594L143.188 41.4219C141.578 40.8906 140.477 39.8281 139.844 38.4766C139.203 39.9297 138.07 41.1016 136.406 41.6719L135.375 40.0938ZM137.797 47.1875V42.6094H139.812V45.5938H147.703V47.1875H137.797ZM160.547 34V34.9531C160.539 36.1484 160.539 37.7812 160.172 40.125H162.219V41.7344H159.141V47.4375H157.156V41.7344H154.203V47.4375H152.203V41.7344H149.25V40.125H158.156C158.523 38.2031 158.586 36.7266 158.602 35.6094H150.797V34H160.547ZM178.75 33.2188V41H176.766V38.0312H174.516V36.4062H176.766V33.2188H178.75ZM166.688 39.6875C168.93 38.9375 170 37.2188 170.102 35.4844H167.25V33.8594H174.969V35.4844H172.148C172.234 37.0703 173.258 38.7109 175.406 39.4219L174.422 40.9531C172.852 40.4375 171.766 39.4141 171.148 38.1406C170.516 39.5625 169.383 40.7031 167.703 41.25L166.688 39.6875ZM169.266 47.2812V41.5469H171.234V42.8906H176.766V41.5469H178.75V47.2812H169.266ZM171.234 45.6875H176.766V44.4219H171.234V45.6875ZM188.141 34.3281C188.133 36.0078 189.852 37.8594 193.109 38.2656L192.328 39.875C189.844 39.5156 188.023 38.3672 187.094 36.8281C186.156 38.3594 184.344 39.5156 181.891 39.875L181.094 38.2656C184.328 37.8594 186.039 36.0078 186.047 34.3281V33.6406H188.141V34.3281ZM180.594 42.5781V40.9531H193.562V42.5781H188.031V47.4375H186.062V42.5781H180.594ZM207.438 44.2188V45.8594H194.422V44.2188H199.906V42.0781H195.922V37.2969H203.969V35.7344H195.906V34.1406H205.938V38.8594H197.922V40.4531H206.266V42.0781H201.891V44.2188H207.438ZM217.484 36.0312C217.477 37.7266 218.539 39.4609 220.875 40.1719L219.859 41.7344C218.266 41.2266 217.148 40.2031 216.508 38.9219C215.859 40.3281 214.703 41.4453 213.031 42L212 40.4375C214.367 39.6797 215.453 37.8281 215.453 36.0312V35.8281H212.531V34.2344H220.344V35.8281H217.484V36.0312ZM214.312 47.1875V42.5781H216.328V45.5938H224.219V47.1875H214.312ZM221.844 43.5156V33.2344H223.844V43.5156H221.844ZM237.984 33.2188V42.1406H236.094V38.3594H234.953V41.6719H233.094V33.4844H234.953V36.7344H236.094V33.2188H237.984ZM225.688 36.2344V34.6875H228.203V33.3438H230.188V34.6875H232.672V36.2344H225.688ZM226.125 39.1875C226.117 37.6953 227.422 36.7031 229.203 36.7031C231.008 36.7031 232.305 37.6953 232.312 39.1875C232.305 40.6641 231.008 41.6484 229.203 41.6562C227.422 41.6484 226.117 40.6641 226.125 39.1875ZM227.906 39.1875C227.898 39.8438 228.422 40.2422 229.203 40.2344C229.977 40.2422 230.508 39.8438 230.516 39.1875C230.508 38.5234 229.977 38.1328 229.203 38.1406C228.43 38.1328 227.898 38.5234 227.906 39.1875ZM228.203 44.8594C228.195 43.2109 230.062 42.2734 233.125 42.2656C236.195 42.2734 238.047 43.2109 238.062 44.8594C238.047 46.5 236.195 47.4453 233.125 47.4375C230.062 47.4453 228.195 46.5 228.203 44.8594ZM230.203 44.8594C230.188 45.5781 231.195 45.9375 233.125 45.9375C235.062 45.9375 236.047 45.5781 236.047 44.8594C236.047 44.1094 235.062 43.7578 233.125 43.7656C231.195 43.7578 230.188 44.1094 230.203 44.8594Z" fill="white"/>
</g>
<defs>
<clipPath id="clip0_2070_371">
<rect width="375" height="80" fill="white"/>
</clipPath>
</defs>
</svg>
