<svg width="335" height="602" viewBox="0 0 335 602" fill="none" xmlns="http://www.w3.org/2000/svg">
<circle cx="12" cy="590" r="9" fill="#303030"/>
<rect x="11" y="589" width="2" height="5.5" rx="1" fill="white"/>
<rect x="10.7998" y="585.5" width="2.4" height="2.4" rx="1.2" fill="white"/>
<path d="M38.8965 583.953V596.107H37.8711V583.953H38.8965ZM28.4785 592.703C31.124 591.138 32.4502 588.943 32.6621 586.4H29.0254V585.512H33.7285C33.7285 586.134 33.6738 586.749 33.5645 587.344H35.4102V584.281H36.4355V595.492H35.4102V591.281H33.1543V590.393H35.4102V588.232H33.3525C32.7646 590.29 31.4316 592.108 29.1348 593.482L28.4785 592.703ZM51.8984 585.84V586.715H50.0938V588.424H51.8984V589.34H50.0938V591.186H49.0273V583.953H50.0938V585.84H51.8984ZM40.8242 587.549C40.8174 585.86 42.1709 584.685 44.0098 584.691C45.8623 584.685 47.1953 585.86 47.209 587.549C47.1953 589.258 45.8623 590.427 44.0098 590.434C42.1709 590.427 40.8174 589.258 40.8242 587.549ZM41.877 587.549C41.8701 588.718 42.7793 589.518 44.0098 589.504C45.2539 589.518 46.1494 588.718 46.1562 587.549C46.1494 586.407 45.2539 585.614 44.0098 585.607C42.7793 585.614 41.8701 586.407 41.877 587.549ZM42.1367 592.635V591.746H50.0938V596.107H49.0273V592.635H42.1367ZM67.334 593.646V594.549H56.2051V593.646H61.2227V590.693H62.3027V593.646H67.334ZM56.752 590.256C58.8096 589.907 61.1953 588.205 61.1953 586.264V585.963H57.1211V585.061H66.377V585.963H62.3027V586.264C62.3096 588.205 64.7021 589.873 66.8008 590.215L66.3633 591.062C64.5039 590.693 62.542 589.511 61.7627 587.829C60.9834 589.531 59.0283 590.741 57.2031 591.117L56.752 590.256ZM78.2715 583.953V596.107H77.2051V583.953H78.2715ZM68.373 592.867C69.4121 592.86 70.6016 592.854 71.832 592.812V591.486C70.3691 591.336 69.4258 590.502 69.4395 589.285C69.4258 587.911 70.5947 587.022 72.3516 587.029C74.1084 587.022 75.2979 587.911 75.291 589.285C75.2979 590.488 74.3545 591.322 72.9121 591.486V592.771C74.0879 592.717 75.2773 592.635 76.3984 592.484L76.4805 593.305C73.7666 593.742 70.793 593.783 68.5371 593.783L68.373 592.867ZM68.6328 586.332V585.457H71.832V583.967H72.9121V585.457H76.084V586.332H68.6328ZM70.4375 589.285C70.4307 590.126 71.2236 590.68 72.3516 590.666C73.4863 590.68 74.2725 590.126 74.2656 589.285C74.2725 588.438 73.4863 587.863 72.3516 587.863C71.2236 587.863 70.4307 588.438 70.4375 589.285ZM89.8105 583.953V588.902H91.7793V589.805H89.8105V596.107H88.7441V583.953H89.8105ZM80.4863 592.949C83.624 591.391 85.333 589.046 85.5791 586.168H81.0469V585.266H86.666C86.6592 588.704 85.0459 591.842 81.0879 593.797L80.4863 592.949ZM105.52 583.953V587.658H107.352V588.561H105.52V592.922H104.453V583.953H105.52ZM96.25 587.809C96.2432 586.045 97.624 584.821 99.4355 584.814C101.261 584.821 102.621 586.045 102.635 587.809C102.621 589.565 101.261 590.803 99.4355 590.803C97.624 590.803 96.2432 589.565 96.25 587.809ZM97.3027 587.809C97.2959 589.005 98.2324 589.859 99.4355 589.859C100.659 589.859 101.575 589.005 101.582 587.809C101.575 586.605 100.659 585.758 99.4355 585.758C98.2324 585.758 97.2959 586.605 97.3027 587.809ZM97.918 595.848V591.992H98.9707V594.945H106.08V595.848H97.918ZM115.363 589.203V590.092H112.697V592.484C113.887 592.437 115.083 592.354 116.211 592.225L116.293 593.031C113.6 593.421 110.66 593.476 108.336 593.469L108.186 592.566C109.245 592.566 110.421 592.56 111.631 592.525V590.092H109.115V585.115H115.309V585.99H110.168V589.203H115.363ZM117.018 596.135V583.953H118.084V596.135H117.018ZM124.537 587.221C124.53 589.442 126.041 591.671 127.832 592.484L127.176 593.332C125.788 592.662 124.592 591.22 124.011 589.49C123.45 591.322 122.254 592.86 120.832 593.578L120.148 592.676C121.96 591.849 123.457 589.524 123.471 587.221V585.006H124.537V587.221ZM129.158 596.135V583.953H130.238V596.135H129.158ZM143.691 588.807V589.709H141.723V596.107H140.656V583.953H141.723V588.807H143.691ZM132.822 593.018V585.156H133.889V592.115C135.666 592.115 137.478 591.979 139.48 591.555L139.617 592.471C137.519 592.895 135.632 593.018 133.793 593.018H132.822ZM155.545 593.646V594.549H144.416V593.646H147.178V590.372C146.139 589.832 145.51 588.957 145.51 587.85C145.51 585.97 147.355 584.732 149.953 584.719C152.551 584.732 154.396 585.97 154.396 587.85C154.396 588.937 153.788 589.798 152.783 590.338V593.646H155.545ZM146.549 587.85C146.542 589.21 147.957 590.119 149.953 590.119C151.929 590.119 153.357 589.21 153.357 587.85C153.357 586.489 151.929 585.594 149.953 585.607C147.957 585.594 146.542 586.489 146.549 587.85ZM148.23 593.646H151.703V590.755C151.177 590.892 150.589 590.967 149.953 590.967C149.331 590.967 148.75 590.898 148.23 590.762V593.646ZM158.457 592.143C158.471 590.311 159.031 589.75 159.975 589.176C160.542 588.834 160.973 588.287 160.973 587.521C160.973 586.592 160.248 585.997 159.346 586.004C158.566 585.997 157.78 586.462 157.705 587.59H156.461C156.529 585.929 157.78 584.965 159.346 584.965C161.062 584.965 162.176 586.065 162.176 587.576C162.176 588.649 161.67 589.395 160.822 589.914C159.968 590.434 159.66 590.96 159.633 592.143V592.211H158.457V592.143ZM158.211 594.193C158.197 593.715 158.607 593.318 159.086 593.318C159.571 593.318 159.968 593.715 159.961 594.193C159.968 594.679 159.571 595.075 159.086 595.082C158.607 595.075 158.197 594.679 158.211 594.193Z" fill="black"/>
<rect x="0.5" y="86.5" width="334" height="79" rx="15.5" fill="white"/>
<rect x="0.5" y="86.5" width="334" height="79" rx="15.5" stroke="#303030"/>
<path d="M35.7031 118.734V123.094H37.625V124.719H35.7031V129.344H33.7031V118.734H35.7031ZM24.4219 121.797V120.219H27.6562V118.703H29.6406V120.219H32.8594V121.797H24.4219ZM25.1094 125.047C25.1094 123.398 26.5703 122.297 28.6406 122.297C30.7031 122.297 32.1406 123.398 32.1406 125.047C32.1406 126.688 30.7031 127.766 28.6406 127.766C26.5703 127.766 25.1094 126.688 25.1094 125.047ZM26.4844 132.688V128.531H28.4688V131.094H36.2188V132.688H26.4844ZM27.0625 125.047C27.0547 125.828 27.6875 126.25 28.6406 126.25C29.6016 126.25 30.25 125.828 30.25 125.047C30.25 124.258 29.6016 123.82 28.6406 123.812C27.6875 123.82 27.0547 124.258 27.0625 125.047ZM49.305 118.719V124.5H51.1644V126.156H49.305V132.938H47.2894V118.719H49.305ZM37.7581 128.922C38.7972 128.922 40.0081 128.922 41.2738 128.891V127.672C39.7659 127.375 38.7816 126.414 38.7894 125.094C38.7816 123.508 40.2191 122.422 42.2894 122.422C44.3206 122.422 45.7738 123.508 45.7894 125.094C45.7738 126.414 44.7738 127.383 43.2738 127.672V128.82C44.3988 128.758 45.5316 128.664 46.5863 128.516L46.7113 129.969C43.6878 130.531 40.4222 130.555 38.0238 130.547L37.7581 128.922ZM38.0394 121.859V120.297H41.2738V118.797H43.2738V120.297H46.4769V121.859H38.0394ZM40.68 125.094C40.6722 125.844 41.3128 126.25 42.2894 126.25C43.2347 126.25 43.8675 125.844 43.8675 125.094C43.8675 124.359 43.2347 123.945 42.2894 123.938C41.3128 123.945 40.6722 124.359 40.68 125.094ZM60.3369 121.938C60.3291 124.547 61.5166 127.164 63.9306 128.188L62.7588 129.781C61.1338 129.047 60.0088 127.625 59.3603 125.867C58.7197 127.789 57.5556 129.336 55.8213 130.125L54.6181 128.469C57.1025 127.422 58.3134 124.695 58.3213 121.938V119.812H60.3369V121.938ZM64.6963 132.969V118.719H66.7119V132.969H64.6963ZM79.6888 120.031V121.734C79.6809 123.688 79.6809 125.617 79.1731 128.562L77.1575 128.391C77.6966 125.656 77.6966 123.625 77.7044 121.734V121.625H69.6575V120.031H79.6888ZM68.3138 131.078V129.438H81.2825V131.078H68.3138ZM93.775 118.719V132.938H91.7906V118.719H93.775ZM82.5875 129.422V120.078H84.5563V127.727C86.4781 127.695 88.5406 127.516 90.6344 127.109L90.8844 128.75C88.3922 129.273 86.0328 129.43 83.8375 129.422H82.5875ZM107.346 118.719V132.969H105.346V125.781H102.783V124.188H105.346V118.719H107.346ZM95.2675 128.75C97.5566 127.727 98.6659 125.305 98.6738 123.172V122.625H95.7206V121.031H98.6738V119.031H100.674V121.031H103.549V122.625H100.658V123.172C100.65 125.227 101.791 127.523 104.111 128.531L103.049 130.062C101.432 129.391 100.299 128.031 99.6738 126.414C99.0644 128.133 97.9394 129.578 96.3144 130.281L95.2675 128.75ZM116.128 119.719C117.409 119.719 118.471 120.414 119.12 121.641H122.237V118.719H124.206V132.969H122.237V127.641H119.268C118.635 129.047 117.503 129.859 116.128 129.859C113.971 129.859 112.424 127.906 112.44 124.781C112.424 121.68 113.971 119.719 116.128 119.719ZM114.346 124.781C114.338 126.898 115.065 128.055 116.128 128.047C117.198 128.055 117.909 126.898 117.909 124.781C117.909 122.672 117.198 121.516 116.128 121.516C115.065 121.516 114.338 122.672 114.346 124.781ZM119.674 123.25C119.768 123.719 119.815 124.234 119.815 124.781C119.815 125.227 119.784 125.648 119.721 126.047H122.237V123.25H119.674ZM131.089 120.656C131.081 122.555 132.058 124.312 134.339 125.016L133.292 126.578C131.761 126.047 130.722 125.07 130.12 123.789C129.495 125.273 128.347 126.438 126.636 127.016L125.589 125.422C128.018 124.641 129.065 122.734 129.073 120.75V119.453H131.089V120.656ZM127.948 130.188C127.948 128.438 129.808 127.414 132.839 127.422C135.878 127.414 137.737 128.438 137.745 130.188C137.737 131.945 135.878 132.945 132.839 132.938C129.808 132.945 127.948 131.945 127.948 130.188ZM129.933 130.188C129.933 130.977 130.956 131.391 132.839 131.391C134.729 131.391 135.753 130.977 135.761 130.188C135.753 129.375 134.729 128.969 132.839 128.969C130.956 128.969 129.933 129.375 129.933 130.188ZM133.042 122.953V121.328H135.714V118.719H137.698V127.047H135.714V122.953H133.042ZM154.574 118.734V129.125H152.589V124.484H150.043V122.844H152.589V118.734H154.574ZM142.777 126.125C145.722 125.203 147.628 123.5 147.996 121.406H143.511V119.781H150.168C150.168 123.594 147.746 126.414 143.589 127.703L142.777 126.125ZM145.199 132.688V128.078H147.23V131.094H154.933V132.688H145.199ZM167.379 118.719V122.062H169.301V123.688H167.379V126.969H165.379V118.719H167.379ZM156.004 125.672C159.137 124.844 160.926 123.219 161.238 121.25H156.676V119.656H163.41C163.418 123.445 161.035 126.102 156.801 127.281L156.004 125.672ZM157.926 130.047C157.91 128.266 159.848 127.141 162.738 127.141C165.637 127.141 167.527 128.266 167.535 130.047C167.527 131.844 165.637 132.953 162.738 132.953C159.848 132.953 157.91 131.844 157.926 130.047ZM159.894 130.047C159.887 130.906 160.949 131.398 162.738 131.391C164.504 131.398 165.566 130.906 165.566 130.047C165.566 129.172 164.504 128.688 162.738 128.688C160.949 128.688 159.887 129.172 159.894 130.047ZM182.621 129.656V131.281H169.606V129.656H175.09V127.031H170.981V119.625H172.981V121.828H179.184V119.625H181.168V127.031H177.074V129.656H182.621ZM172.981 125.438H179.184V123.422H172.981V125.438ZM195.098 118.719V127.312H193.114V124.516H191.27V122.891H193.114V118.719H195.098ZM183.145 121.547V119.953H186.364V118.594H188.333V119.953H191.52V121.547H183.145ZM183.926 124.562C183.926 123.078 185.356 122.016 187.348 122.016C189.348 122.016 190.754 123.078 190.754 124.562C190.754 126.117 189.34 127.133 187.348 127.141C185.356 127.133 183.926 126.117 183.926 124.562ZM185.536 132.781V127.922H195.098V132.781H185.536ZM185.848 124.562C185.833 125.281 186.418 125.664 187.348 125.672C188.254 125.664 188.848 125.281 188.848 124.562C188.848 123.891 188.254 123.508 187.348 123.516C186.418 123.508 185.833 123.891 185.848 124.562ZM187.536 131.188H193.145V129.484H187.536V131.188ZM200.458 131.5L200.443 129.797L204.505 126.062C205.56 125.055 206.13 124.43 206.13 123.531C206.13 122.523 205.372 121.898 204.333 121.906C203.271 121.898 202.575 122.57 202.583 123.656H200.349C200.341 121.445 201.982 120.031 204.364 120.031C206.786 120.031 208.396 121.414 208.396 123.375C208.396 124.664 207.771 125.719 205.443 127.828L203.724 129.5V129.562H208.552V131.5H200.458ZM211.279 131.641C210.544 131.641 209.951 131.055 209.966 130.328C209.951 129.609 210.544 129.023 211.279 129.031C211.974 129.023 212.576 129.609 212.576 130.328C212.576 131.055 211.974 131.641 211.279 131.641ZM218.021 131.656C215.185 131.656 213.474 129.547 213.474 125.844C213.474 122.148 215.201 120.031 218.021 120.031C220.842 120.031 222.568 122.148 222.568 125.844C222.568 129.562 220.849 131.656 218.021 131.656ZM215.881 125.844C215.865 128.453 216.709 129.719 218.021 129.719C219.334 129.719 220.17 128.453 220.162 125.844C220.17 123.258 219.326 121.961 218.021 121.953C216.717 121.961 215.881 123.258 215.881 125.844Z" fill="black"/>
<g clip-path="url(#clip0_114_15173)">
<path fill-rule="evenodd" clip-rule="evenodd" d="M310.627 120.74C310.203 120.387 309.553 120.428 309.175 120.831L302.235 128.246L298.802 125.009C298.4 124.63 297.748 124.63 297.346 125.009L297.301 125.052C296.9 125.43 296.9 126.045 297.301 126.423L301.549 130.427C301.931 130.787 302.537 130.805 302.942 130.482C302.999 130.441 303.053 130.395 303.102 130.343L310.766 122.154C311.144 121.751 311.105 121.138 310.681 120.785L310.627 120.74Z" fill="#FF6600"/>
</g>
<rect x="0.5" y="174.5" width="334" height="79" rx="15.5" fill="white"/>
<rect x="0.5" y="174.5" width="334" height="79" rx="15.5" stroke="#E8E8E8"/>
<path d="M35.7031 206.734V211.094H37.625V212.719H35.7031V217.344H33.7031V206.734H35.7031ZM24.4219 209.797V208.219H27.6562V206.703H29.6406V208.219H32.8594V209.797H24.4219ZM25.1094 213.047C25.1094 211.398 26.5703 210.297 28.6406 210.297C30.7031 210.297 32.1406 211.398 32.1406 213.047C32.1406 214.688 30.7031 215.766 28.6406 215.766C26.5703 215.766 25.1094 214.688 25.1094 213.047ZM26.4844 220.688V216.531H28.4688V219.094H36.2188V220.688H26.4844ZM27.0625 213.047C27.0547 213.828 27.6875 214.25 28.6406 214.25C29.6016 214.25 30.25 213.828 30.25 213.047C30.25 212.258 29.6016 211.82 28.6406 211.812C27.6875 211.82 27.0547 212.258 27.0625 213.047ZM49.305 206.719V212.5H51.1644V214.156H49.305V220.938H47.2894V206.719H49.305ZM37.7581 216.922C38.7972 216.922 40.0081 216.922 41.2738 216.891V215.672C39.7659 215.375 38.7816 214.414 38.7894 213.094C38.7816 211.508 40.2191 210.422 42.2894 210.422C44.3206 210.422 45.7738 211.508 45.7894 213.094C45.7738 214.414 44.7738 215.383 43.2738 215.672V216.82C44.3988 216.758 45.5316 216.664 46.5863 216.516L46.7113 217.969C43.6878 218.531 40.4222 218.555 38.0238 218.547L37.7581 216.922ZM38.0394 209.859V208.297H41.2738V206.797H43.2738V208.297H46.4769V209.859H38.0394ZM40.68 213.094C40.6722 213.844 41.3128 214.25 42.2894 214.25C43.2347 214.25 43.8675 213.844 43.8675 213.094C43.8675 212.359 43.2347 211.945 42.2894 211.938C41.3128 211.945 40.6722 212.359 40.68 213.094ZM59.4619 219.656C56.9775 219.656 55.1963 218.289 55.1494 216.312H57.5244C57.5634 217.156 58.3838 217.711 59.4775 217.719C60.6025 217.711 61.4072 217.086 61.3994 216.172C61.4072 215.25 60.5869 214.602 59.2588 214.594H58.2119V212.859H59.2588C60.3759 212.859 61.1572 212.25 61.1494 211.359C61.1572 210.492 60.4931 209.898 59.4931 209.906C58.4931 209.898 57.6728 210.461 57.6338 211.328H55.3838C55.4228 209.383 57.1728 208.031 59.4931 208.031C61.8525 208.031 63.4228 209.43 63.415 211.219C63.4228 212.484 62.54 213.383 61.2744 213.609V213.703C62.9384 213.906 63.8525 214.914 63.8369 216.328C63.8525 218.266 62.0166 219.656 59.4619 219.656ZM69.3606 219.656C66.8763 219.656 65.095 218.289 65.0481 216.312H67.4231C67.4622 217.156 68.2825 217.711 69.3763 217.719C70.5013 217.711 71.3059 217.086 71.2981 216.172C71.3059 215.25 70.4856 214.602 69.1575 214.594H68.1106V212.859H69.1575C70.2747 212.859 71.0559 212.25 71.0481 211.359C71.0559 210.492 70.3919 209.898 69.3919 209.906C68.3919 209.898 67.5716 210.461 67.5325 211.328H65.2825C65.3216 209.383 67.0716 208.031 69.3919 208.031C71.7513 208.031 73.3216 209.43 73.3138 211.219C73.3216 212.484 72.4388 213.383 71.1731 213.609V213.703C72.8372 213.906 73.7513 214.914 73.7356 216.328C73.7513 218.266 71.9153 219.656 69.3606 219.656ZM79.2594 219.656C76.775 219.656 74.9938 218.289 74.9469 216.312H77.3219C77.3609 217.156 78.1813 217.711 79.275 217.719C80.4 217.711 81.2047 217.086 81.1969 216.172C81.2047 215.25 80.3844 214.602 79.0563 214.594H78.0094V212.859H79.0563C80.1734 212.859 80.9547 212.25 80.9469 211.359C80.9547 210.492 80.2906 209.898 79.2906 209.906C78.2906 209.898 77.4703 210.461 77.4313 211.328H75.1813C75.2203 209.383 76.9703 208.031 79.2906 208.031C81.65 208.031 83.2203 209.43 83.2125 211.219C83.2203 212.484 82.3375 213.383 81.0719 213.609V213.703C82.7359 213.906 83.65 214.914 83.6344 216.328C83.65 218.266 81.8141 219.656 79.2594 219.656ZM90.9319 219.5L87.6975 208.188H90.26L92.1662 216.094H92.26L94.3381 208.188H96.5412L98.6194 216.109H98.7131L100.619 208.188H103.182L99.9475 219.5H97.6506L95.4944 212.031H95.4006L93.2287 219.5H90.9319ZM104.065 219.5V208.188H111.659V210.125H106.409V212.875H111.268V214.812H106.409V217.562H111.674V219.5H104.065ZM113.167 219.5V208.188H115.511V217.562H120.386V219.5H113.167ZM121.581 219.5V208.188H123.925V217.562H128.8V219.5H121.581ZM134.089 208.188V219.5H131.73V210.422H131.668L129.074 212.047V209.969L131.871 208.188H134.089ZM140.785 219.656C137.949 219.656 136.238 217.547 136.238 213.844C136.238 210.148 137.965 208.031 140.785 208.031C143.605 208.031 145.332 210.148 145.332 213.844C145.332 217.562 143.613 219.656 140.785 219.656ZM138.644 213.844C138.629 216.453 139.473 217.719 140.785 217.719C142.098 217.719 142.933 216.453 142.926 213.844C142.933 211.258 142.09 209.961 140.785 209.953C139.48 209.961 138.644 211.258 138.644 213.844ZM151.027 219.656C148.192 219.656 146.481 217.547 146.481 213.844C146.481 210.148 148.207 208.031 151.027 208.031C153.848 208.031 155.574 210.148 155.574 213.844C155.574 217.562 153.856 219.656 151.027 219.656ZM148.887 213.844C148.871 216.453 149.715 217.719 151.027 217.719C152.34 217.719 153.176 216.453 153.168 213.844C153.176 211.258 152.332 209.961 151.027 209.953C149.723 209.961 148.887 211.258 148.887 213.844ZM171.669 206.719V213.922H169.684V206.719H171.669ZM159.716 212.391C162.091 211.68 163.153 209.891 163.153 208.125V207.031H165.231V208.125C165.216 209.852 166.247 211.5 168.575 212.172L167.606 213.703C165.973 213.234 164.848 212.242 164.2 210.977C163.559 212.359 162.395 213.445 160.7 213.953L159.716 212.391ZM162.137 216.078V214.531H171.684V218.391H164.122V219.266H172.075V220.844H162.169V216.906H169.7V216.078H162.137ZM186.255 213.641V215.234H173.286V213.641H178.771V211.75H180.739V213.641H186.255ZM173.958 211.047C177.099 210.648 178.732 209.023 178.739 207.422V206.953H180.771V207.422C180.763 209.086 182.357 210.648 185.568 211.047L184.802 212.594C182.396 212.234 180.63 211.227 179.732 209.805C178.825 211.219 177.06 212.242 174.661 212.594L173.958 211.047ZM174.724 217.781V216.234H184.677V220.938H182.693V217.781H174.724ZM201.443 206.719V210.703H203.365V212.344H201.443V216.906H199.428V206.719H201.443ZM190.068 213.938C193.256 213.055 195.06 211.406 195.373 209.406H190.693V207.781H197.568C197.56 211.625 195.162 214.312 190.896 215.516L190.068 213.938ZM192.193 220.688V215.859H194.209V219.094H201.928V220.688H192.193ZM215.654 206.719V217.188H213.67V213.688H211.857V212.047H213.67V210.812H211.857V209.219H213.67V206.719H215.654ZM203.67 213.844C204.139 213.844 204.654 213.844 205.186 213.836V209.328H204.029V207.734H211.607V209.328H210.436V213.648C210.912 213.609 211.381 213.562 211.826 213.516L211.904 214.969C209.24 215.406 206.131 215.469 203.873 215.469L203.67 213.844ZM206.201 220.688V216.406H208.201V219.094H215.998V220.688H206.201ZM207.107 213.805L208.529 213.758V209.328H207.107V213.805ZM229.163 206.734V217.125H227.178V212.484H224.631V210.844H227.178V206.734H229.163ZM217.366 214.125C220.311 213.203 222.217 211.5 222.584 209.406H218.1V207.781H224.756C224.756 211.594 222.334 214.414 218.178 215.703L217.366 214.125ZM219.788 220.688V216.078H221.819V219.094H229.522V220.688H219.788ZM241.967 206.719V210.062H243.889V211.688H241.967V214.969H239.967V206.719H241.967ZM230.592 213.672C233.725 212.844 235.514 211.219 235.827 209.25H231.264V207.656H237.999C238.007 211.445 235.624 214.102 231.389 215.281L230.592 213.672ZM232.514 218.047C232.499 216.266 234.436 215.141 237.327 215.141C240.225 215.141 242.116 216.266 242.124 218.047C242.116 219.844 240.225 220.953 237.327 220.953C234.436 220.953 232.499 219.844 232.514 218.047ZM234.483 218.047C234.475 218.906 235.538 219.398 237.327 219.391C239.092 219.398 240.155 218.906 240.155 218.047C240.155 217.172 239.092 216.688 237.327 216.688C235.538 216.688 234.475 217.172 234.483 218.047ZM257.21 217.656V219.281H244.194V217.656H249.679V215.031H245.569V207.625H247.569V209.828H253.773V207.625H255.757V215.031H251.663V217.656H257.21ZM247.569 213.438H253.773V211.422H247.569V213.438ZM269.687 206.719V215.312H267.702V212.516H265.859V210.891H267.702V206.719H269.687ZM257.734 209.547V207.953H260.952V206.594H262.921V207.953H266.109V209.547H257.734ZM258.515 212.562C258.515 211.078 259.945 210.016 261.937 210.016C263.937 210.016 265.343 211.078 265.343 212.562C265.343 214.117 263.929 215.133 261.937 215.141C259.945 215.133 258.515 214.117 258.515 212.562ZM260.124 220.781V215.922H269.687V220.781H260.124ZM260.437 212.562C260.421 213.281 261.007 213.664 261.937 213.672C262.843 213.664 263.437 213.281 263.437 212.562C263.437 211.891 262.843 211.508 261.937 211.516C261.007 211.508 260.421 211.891 260.437 212.562ZM262.124 219.188H267.734V217.484H262.124V219.188Z" fill="black"/>
<g clip-path="url(#clip1_114_15173)">
<path fill-rule="evenodd" clip-rule="evenodd" d="M310.627 208.74C310.203 208.387 309.553 208.428 309.175 208.831L302.235 216.246L298.802 213.009C298.4 212.63 297.748 212.63 297.346 213.009L297.301 213.052C296.9 213.43 296.9 214.045 297.301 214.423L301.549 218.427C301.931 218.787 302.537 218.805 302.942 218.482C302.999 218.442 303.053 218.395 303.102 218.343L310.766 210.154C311.144 209.751 311.105 209.138 310.681 208.785L310.627 208.74Z" fill="#DDDDDD"/>
</g>
<path d="M8.208 12.608C7.872 13.064 7.464 13.472 7.032 13.808C5.4 15.104 3.432 15.896 1.128 16.136V13.568C2.568 13.352 3.792 12.752 4.776 11.768C5.64 10.904 6.168 9.656 6.36 7.976H1.608V5.408H14.808V7.976H10.056C10.248 9.656 10.776 10.904 11.64 11.768C12.6 12.752 13.824 13.352 15.288 13.568V16.136C12.96 15.896 10.992 15.104 9.384 13.808C8.928 13.472 8.544 13.064 8.208 12.608ZM21.072 5.072V15.896H17.544V11.672H13.008V8.96H17.544V5.072H21.072ZM8.28 16.664V19.112H17.544V16.664H21.072V26.12H8.328C5.928 26.12 4.752 25.016 4.752 22.808V16.664H8.28ZM8.28 21.584V22.424C8.28 23.216 8.64 23.6 9.384 23.6H17.544V21.584H8.28ZM36.6711 5.336C36.6711 7.736 37.4631 9.656 39.0951 11.048C40.4391 12.248 42.2151 12.968 44.3751 13.208V15.872C41.2311 15.632 38.6871 14.768 36.7671 13.328C36.0231 12.8 35.3991 12.176 34.8951 11.48C34.3671 12.176 33.7191 12.8 32.9991 13.328C31.0551 14.768 28.5111 15.632 25.3911 15.872V13.208C27.5511 12.968 29.3031 12.248 30.6711 11.048C32.2791 9.656 33.0951 7.736 33.0951 5.336V5.12H36.6711V5.336ZM45.7431 20H36.6711V26.168H33.0711V20H24.0231V17.24H45.7431V20ZM62.5028 13.544C63.5348 11.864 64.1108 10.064 64.2308 8.12H56.0468V5.408H66.2228C67.4708 5.408 68.0468 6.224 67.9988 7.856C67.8548 10.88 66.9427 13.52 65.2868 15.776C63.1748 18.656 59.9348 20.72 55.5188 21.92V19.088C58.6388 17.888 60.9668 16.04 62.5028 13.544ZM77.1428 14.744H73.9508V26.168H70.4228V5.072H73.9508V11.96H77.1428V14.744ZM84.1575 5.264V9.296C84.1575 10.256 84.6855 10.712 85.7415 10.712H97.6455V13.328H84.7815C81.9975 13.328 80.6055 12.224 80.6055 9.968V5.264H84.1575ZM78.4215 14.648H100.142V17.36H78.4215V14.648ZM97.8135 22.4C97.8135 23.84 97.0455 24.872 95.5335 25.52C93.9975 26.192 91.9335 26.504 89.3175 26.504C86.6775 26.504 84.6135 26.192 83.1015 25.52C81.5655 24.872 80.8215 23.84 80.8215 22.4C80.8215 20.96 81.5655 19.904 83.1015 19.232C84.6135 18.584 86.6775 18.248 89.3175 18.248C91.9335 18.248 93.9975 18.584 95.5335 19.232C97.0455 19.904 97.8135 20.96 97.8135 22.4ZM89.2935 23.888C90.8295 23.888 92.0295 23.768 92.8935 23.528C93.7335 23.312 94.1655 22.952 94.1655 22.424C94.1655 21.896 93.7335 21.488 92.8935 21.224C92.0295 20.984 90.8295 20.864 89.2935 20.864C87.7575 20.864 86.5815 20.984 85.7415 21.224C84.8775 21.488 84.4455 21.896 84.4455 22.424C84.4455 22.952 84.8775 23.312 85.7415 23.528C86.5815 23.768 87.7575 23.888 89.2935 23.888ZM105.572 4.64H112.868V7.064H105.572V4.64ZM116.012 10.04H102.428V7.64H116.012V10.04ZM109.22 19.064C107.444 19.064 106.028 18.656 104.972 17.84C103.892 17.024 103.364 16.016 103.364 14.816C103.364 13.616 103.892 12.608 104.972 11.768C106.028 10.952 107.444 10.544 109.22 10.544C110.996 10.544 112.412 10.952 113.492 11.768C114.548 12.608 115.076 13.616 115.076 14.816C115.076 16.016 114.548 17.024 113.492 17.84C112.412 18.656 110.996 19.064 109.22 19.064ZM109.22 16.808C109.868 16.808 110.444 16.64 110.924 16.256C111.38 15.896 111.62 15.416 111.62 14.816C111.62 14.24 111.38 13.736 110.924 13.352C110.444 12.992 109.868 12.8 109.22 12.8C108.548 12.8 107.996 12.992 107.54 13.352C107.06 13.736 106.82 14.24 106.82 14.816C106.82 15.416 107.06 15.896 107.54 16.256C107.996 16.64 108.548 16.808 109.22 16.808ZM121.604 10.352H124.58V13.088H121.604V20.36H118.076V5.072H121.604V10.352ZM110.54 23.576H121.7V26.12H109.34C106.652 26.12 105.332 24.872 105.332 22.352V19.88H108.884V21.872C108.884 23.024 109.436 23.576 110.54 23.576ZM138.676 13.544C139.54 11.888 140.044 10.088 140.188 8.12H133.684V5.408H141.796C143.044 5.408 143.668 6.152 143.668 7.616C143.668 8.072 143.644 8.528 143.596 8.96H145.156V5.072H148.444V26.168H145.156V17.456H141.052V16.04C139.204 18.704 136.588 20.672 133.204 21.944V19.112C135.604 17.768 137.428 15.896 138.676 13.544ZM143.116 11.696C142.804 12.752 142.396 13.76 141.868 14.72H145.156V11.696H143.116ZM149.692 5.072H153.028V26.168H149.692V5.072ZM156.483 11.096C156.483 9.464 157.083 8.048 158.307 6.872C159.507 5.72 161.067 5.12 162.987 5.12C164.883 5.12 166.443 5.72 167.667 6.872C168.867 8.048 169.491 9.464 169.491 11.096C169.491 12.704 168.867 14.072 167.667 15.224C166.443 16.4 164.883 16.976 162.987 16.976C161.067 16.976 159.507 16.4 158.307 15.224C157.083 14.072 156.483 12.704 156.483 11.096ZM165.963 11.096C165.963 10.136 165.651 9.32 165.075 8.672C164.475 8.048 163.779 7.712 162.987 7.712C162.171 7.712 161.475 8.048 160.899 8.672C160.299 9.32 160.011 10.136 160.011 11.096C160.011 12.056 160.299 12.824 160.899 13.448C161.475 14.072 162.171 14.384 162.987 14.384C163.779 14.384 164.475 14.072 165.075 13.448C165.651 12.824 165.963 12.056 165.963 11.096ZM175.275 5.072V7.616H178.299V10.208H175.275V12.008H178.299V14.6H175.275V17.192H171.747V5.072H175.275ZM158.979 18.128H173.595C174.699 18.128 175.275 18.704 175.275 19.832V26.312H171.723V20.744H158.979V18.128ZM185.29 8.96C185.29 9.512 185.698 9.896 186.538 10.088C187.354 10.304 188.626 10.4 190.402 10.4C192.13 10.4 193.45 10.304 194.314 10.088C195.154 9.896 195.586 9.512 195.586 8.96C195.586 8.432 195.154 8.024 194.29 7.76C193.426 7.52 192.13 7.376 190.402 7.376C188.674 7.376 187.378 7.52 186.562 7.76C185.698 8.024 185.29 8.432 185.29 8.96ZM181.666 8.936C181.666 7.592 182.41 6.584 183.946 5.936C185.434 5.312 187.594 5 190.426 5C193.258 5 195.418 5.312 196.954 5.912C198.442 6.536 199.21 7.544 199.21 8.912C199.21 10.304 198.442 11.288 196.954 11.864C195.418 12.464 193.258 12.752 190.426 12.752C187.594 12.752 185.434 12.464 183.946 11.864C182.41 11.288 181.666 10.328 181.666 8.936ZM179.578 13.616H201.298V16.088H179.578V13.616ZM182.098 22.616V20.504H195.226V19.664H182.098V17.312H198.13C198.538 17.312 198.754 17.528 198.754 17.96V22.832H185.626V23C185.626 23.504 186.058 23.744 186.922 23.744H198.802V26.12H186.082C183.418 26.12 182.098 24.968 182.098 22.616ZM9.504 36.384V37.536C9.504 40.584 10.152 42.888 11.448 44.424C12.456 45.624 13.608 46.416 14.856 46.8V49.464C12.696 49.08 10.776 48.096 9.12 46.512C8.592 46.032 8.136 45.456 7.752 44.832C7.368 45.456 6.912 46.032 6.384 46.512C4.704 48.096 2.808 49.08 0.648 49.464V46.8C1.896 46.416 3.024 45.624 4.056 44.424C5.352 42.888 6 40.584 6 37.536V36.384H9.504ZM17.544 36.072H21.072V51.36H17.544V42.816H12.408V40.056H17.544V36.072ZM10.152 54.456H21.312V57.12H8.952C6.264 57.12 4.944 55.872 4.944 53.328V49.968H8.496V52.752C8.496 53.904 9.048 54.456 10.152 54.456ZM36.3351 47.496C35.5191 48.024 34.3911 48.264 32.9271 48.24H28.3191C25.7751 48.24 24.5271 47.088 24.5271 44.736V36.24H33.7671V38.76H27.8151V40.872H33.6951V43.368H27.8151V44.376C27.8151 45.288 28.2711 45.72 29.2071 45.72H32.7831C34.7031 45.72 35.9031 45.12 36.3351 43.896V36.072H39.6231V40.8H41.1111V36.072H44.4471V48.792H41.1111V43.536H39.6231V48.792H36.3351V47.496ZM27.9111 49.728H42.7671C43.8711 49.728 44.4471 50.304 44.4471 51.408V57.312H40.8951V52.272H27.9111V49.728ZM49.3901 36.096H55.9661V38.76H49.3901V36.096ZM58.5101 42.144H46.7981V39.504H58.5101V42.144ZM58.0541 48.168C58.0541 49.704 57.5501 51 56.5421 52.032C55.5341 53.088 54.2381 53.616 52.6541 53.616C51.0701 53.616 49.7981 53.088 48.8141 52.032C47.8061 51 47.3021 49.704 47.3021 48.168C47.3021 46.632 47.8061 45.336 48.8141 44.28C49.7981 43.248 51.0701 42.72 52.6541 42.72C54.2381 42.72 55.5341 43.248 56.5421 44.28C57.5501 45.336 58.0541 46.632 58.0541 48.168ZM54.7421 48.168C54.7421 47.28 54.5501 46.584 54.1661 46.08C53.7821 45.6 53.2541 45.336 52.6301 45.336C52.0061 45.336 51.5261 45.576 51.1661 46.056C50.7821 46.56 50.6141 47.256 50.6141 48.168C50.6141 49.08 50.7821 49.776 51.1661 50.256C51.5261 50.76 52.0061 51 52.6301 51C53.2541 51 53.7821 50.76 54.1661 50.256C54.5501 49.776 54.7421 49.08 54.7421 48.168ZM64.1501 36.072H67.4861V57.168H64.1501V45.744H62.6621V57.168H59.3741V36.072H62.6621V42.984H64.1501V36.072ZM89.9732 39.096H82.8452C83.1092 40.536 83.9492 41.736 85.3652 42.696C86.7332 43.656 88.3652 44.184 90.2852 44.232V46.92C87.6452 46.944 85.3172 46.32 83.2532 45.048C82.3412 44.496 81.5732 43.848 80.9732 43.08C80.3492 43.848 79.5812 44.496 78.6692 45.048C76.6052 46.32 74.2532 46.944 71.6372 46.92V44.232C73.5332 44.184 75.1652 43.656 76.5572 42.696C77.9492 41.736 78.7892 40.536 79.0772 39.096H71.9732V36.384H89.9732V39.096ZM91.8212 51H82.7492V57.168H79.1492V51H70.1012V48.24H91.8212V51ZM101.116 39.504C101.116 43.176 101.596 45.792 102.58 47.352C103.348 48.624 104.308 49.488 105.436 49.92V52.92C103.372 52.368 101.62 51.168 100.204 49.344C99.9159 49.008 99.6759 48.624 99.4599 48.192C99.2199 48.624 98.9799 49.008 98.7159 49.344C97.2759 51.168 95.5479 52.368 93.4839 52.92V49.92C94.5879 49.488 95.5479 48.624 96.3399 47.352C97.2999 45.792 97.8039 43.176 97.8039 39.528V36.384H101.116V39.504ZM110.908 36.072H114.244V57.168H110.908V36.072ZM106.348 36.072H109.636V57.168H106.348V45H102.916V42.192H106.348V36.072ZM118.947 42.648C118.947 40.92 119.739 39.432 121.347 38.184C122.931 36.984 125.067 36.36 127.707 36.36C130.347 36.36 132.459 36.984 134.067 38.184C135.651 39.432 136.467 40.92 136.467 42.648C136.467 44.616 135.435 46.272 133.395 47.568V52.272H138.579V55.032H116.859V52.272H122.067V47.592C119.979 46.296 118.947 44.64 118.947 42.648ZM129.843 48.792C129.171 48.888 128.451 48.936 127.707 48.936C126.963 48.936 126.267 48.888 125.619 48.792V52.272H129.843V48.792ZM132.843 42.648C132.843 41.616 132.363 40.752 131.403 40.08C130.443 39.408 129.195 39.072 127.707 39.072C126.171 39.072 124.947 39.408 124.011 40.08C123.051 40.752 122.571 41.616 122.571 42.648C122.571 43.704 123.051 44.544 124.011 45.216C124.947 45.888 126.171 46.224 127.707 46.224C129.195 46.224 130.443 45.888 131.403 45.216C132.363 44.544 132.843 43.704 132.843 42.648Z" fill="black"/>
<defs>
<clipPath id="clip0_114_15173">
<rect width="14" height="14" fill="white" transform="translate(297 119)"/>
</clipPath>
<clipPath id="clip1_114_15173">
<rect width="14" height="14" fill="white" transform="translate(297 207)"/>
</clipPath>
</defs>
</svg>
