<svg width="375" height="80" viewBox="0 0 375 80" fill="none" xmlns="http://www.w3.org/2000/svg">
<g clip-path="url(#clip0_2070_890)">
<rect width="375" height="80" fill="white"/>
<rect x="20" y="15" width="335" height="50" rx="25" fill="#EEEEEE"/>
<path d="M185.141 33.2188V38.5H187.234V40.125H185.141V47.4688H183.141V33.2188H185.141ZM174.484 44.0156V34.5312H181.156V36.1406H176.469V42.375C178.531 42.3594 180.234 42.25 182.125 41.9219L182.344 43.5938C180.133 43.9688 178.195 44.0234 175.688 44.0156H174.484ZM194.234 33.4844C197.398 33.4766 199.398 34.5312 199.406 36.2656C199.398 37.9922 197.398 39.0234 194.234 39.0156C191.086 39.0234 189.047 37.9922 189.047 36.2656C189.047 34.5312 191.086 33.4766 194.234 33.4844ZM187.75 41.4375V39.8438H200.719V41.4375H187.75ZM189.25 47.2812V42.4375H199.172V47.2812H189.25ZM191.125 36.2656C191.109 37.0625 192.242 37.4688 194.234 37.4688C196.195 37.4688 197.344 37.0625 197.344 36.2656C197.344 35.4453 196.195 35.0312 194.234 35.0312C192.242 35.0312 191.109 35.4453 191.125 36.2656ZM191.219 45.6875H197.219V44.0156H191.219V45.6875Z" fill="#CCCCCC"/>
</g>
<defs>
<clipPath id="clip0_2070_890">
<rect width="375" height="80" fill="white"/>
</clipPath>
</defs>
</svg>
