<svg width="375" height="80" viewBox="0 0 375 80" fill="none" xmlns="http://www.w3.org/2000/svg">
<g clip-path="url(#clip0_2070_472)">
<rect width="375" height="80" fill="white"/>
<rect x="192" y="15" width="163" height="50" rx="25" fill="#FF6600"/>
<path d="M271.469 33.2344V37.2969H273.281V38.9375H271.469V42.8906H269.469V33.2344H271.469ZM259.938 41.0625C260.977 41.0625 262.156 41.0625 263.391 41.0312V40.2344C261.844 40.0156 260.883 39.2578 260.891 38.1719C260.883 36.8516 262.266 36.0391 264.375 36.0469C266.469 36.0391 267.852 36.8516 267.859 38.1719C267.852 39.2578 266.898 40.0078 265.375 40.2266V40.9609C266.547 40.8984 267.719 40.8125 268.812 40.6719L268.953 42.0469C265.945 42.5781 262.648 42.6094 260.141 42.6094L259.938 41.0625ZM260.312 35.7188V34.2656H263.391V33.1094H265.375V34.2656H268.453V35.7188H260.312ZM261.75 45V43.4688H271.469V47.4375H269.469V45H261.75ZM262.797 38.1719C262.789 38.6875 263.359 38.9922 264.375 38.9844C265.375 38.9922 265.945 38.6875 265.953 38.1719C265.945 37.6172 265.375 37.375 264.375 37.375C263.359 37.375 262.789 37.6172 262.797 38.1719ZM285.828 33.2344V43.4531H283.828V33.2344H285.828ZM274.141 37.7188C274.141 35.6328 275.844 34.1328 278.031 34.1406C280.211 34.1328 281.914 35.6328 281.922 37.7188C281.914 39.8359 280.211 41.3281 278.031 41.3281C275.844 41.3281 274.141 39.8359 274.141 37.7188ZM276.094 37.7188C276.078 38.9062 276.914 39.5938 278.031 39.5938C279.109 39.5938 279.945 38.9062 279.953 37.7188C279.945 36.5625 279.109 35.8672 278.031 35.875C276.914 35.8672 276.078 36.5625 276.094 37.7188ZM276.297 47.1875V42.4219H278.312V45.5938H286.203V47.1875H276.297Z" fill="white"/>
<rect x="20.5" y="15.5" width="161" height="49" rx="24.5" fill="white"/>
<rect x="20.5" y="15.5" width="161" height="49" rx="24.5" stroke="#FF6600" stroke-miterlimit="0" stroke-linejoin="bevel"/>
<path d="M86.625 41.7656V42.9844H80.9688V47.3438H79.5V42.9844H73.8594V41.7656H86.625ZM74.6094 39.6094C77.2656 39.2734 79.4062 37.7891 79.5 36.2188H75.0625V35.0156H79.5V33.3281H80.9688V35.0156H85.4062V36.2188H80.9844C81.0625 37.7734 83.1797 39.2734 85.8438 39.6094L85.3125 40.7969C83.0625 40.4844 81.1484 39.4297 80.2422 38C79.3359 39.4453 77.4141 40.4844 75.1562 40.7969L74.6094 39.6094ZM98.5938 33.3281V38.9062H100.766V40.1406H98.5938V47.3125H97.1094V33.3281H98.5938ZM87.7031 43.5781C91.2109 41.8281 93.1172 39.2969 93.4219 36.0312H88.4062V34.7969H94.9375C94.9219 38.8438 93.1406 42.4609 88.5312 44.7344L87.7031 43.5781ZM113.172 33.3281V40.9531H111.703V37.8594H109.078V36.6406H111.703V33.3281H113.172ZM101.531 40.0156C103.68 39.2656 105.023 37.4297 105.016 35.5V35.3125H101.984V34.1094H109.531V35.3125H106.531V35.5156C106.523 37.25 107.789 39.0078 109.906 39.7188L109.141 40.875C107.562 40.3125 106.406 39.2031 105.797 37.8281C105.188 39.3672 103.961 40.6016 102.297 41.1875L101.531 40.0156ZM104.062 47.1562V41.5781H105.531V43.1875H111.703V41.5781H113.172V47.1562H104.062ZM105.531 45.9531H111.703V44.3438H105.531V45.9531ZM122.516 34.5625C122.508 36.4219 124.781 38.1641 127.531 38.5312L126.953 39.75C124.664 39.3828 122.656 38.1953 121.742 36.5469C120.828 38.1953 118.82 39.3828 116.547 39.75L115.953 38.5312C118.695 38.1641 120.961 36.4453 120.969 34.5625V33.7969H122.516V34.5625ZM115.344 42.3438V41.125H128.109V42.3438H122.422V47.3281H120.969V42.3438H115.344Z" fill="#FF6600"/>
</g>
<defs>
<clipPath id="clip0_2070_472">
<rect width="375" height="80" fill="white"/>
</clipPath>
</defs>
</svg>
