<svg width="335" height="448" viewBox="0 0 335 448" fill="none" xmlns="http://www.w3.org/2000/svg">
<path d="M264.458 200.395V211H263.125V201.771H263.066L260.488 203.485V202.152L263.125 200.395H264.458Z" fill="black"/>
<path d="M307.594 211L307.58 210.033L311.198 206.225C312.45 204.892 313.051 204.174 313.058 203.192C313.051 202.101 312.143 201.398 310.949 201.391C309.682 201.398 308.891 202.196 308.883 203.383H307.638C307.624 201.508 309.074 200.248 310.993 200.248C312.919 200.248 314.281 201.544 314.289 203.192C314.281 204.379 313.732 205.302 311.857 207.235L309.425 209.74V209.828H314.479V211H307.594Z" fill="black"/>
<path d="M23.0293 255.146C20.9199 255.146 19.4038 254.019 19.3379 252.334H20.6709C20.7441 253.345 21.7476 253.975 23.0146 253.975C24.4136 253.975 25.4243 253.22 25.4316 252.114C25.4243 250.957 24.5015 250.144 22.8535 250.137H21.9893V248.979H22.8535C24.1426 248.979 25.0435 248.254 25.0361 247.163C25.0435 246.101 24.2671 245.398 23.0586 245.391C21.9233 245.398 20.8906 246.021 20.832 247.061H19.5576C19.6235 245.376 21.1909 244.248 23.0732 244.248C25.0947 244.248 26.3252 245.574 26.3105 247.09C26.3252 248.298 25.6221 249.177 24.5088 249.492V249.565C25.8931 249.778 26.728 250.767 26.7207 252.114C26.728 253.857 25.146 255.146 23.0293 255.146Z" fill="black"/>
<path d="M67.0522 252.832V251.748L71.8276 244.395H73.4536V251.675H74.9331V252.832H73.4536V255H72.1938V252.832H67.0522ZM68.4731 251.675H72.1938V246.064H72.062L68.4731 251.587V251.675Z" fill="black"/>
<circle cx="119" cy="250" r="17" fill="#303030"/>
<path d="M119.029 255.146C116.817 255.146 115.199 253.843 115.162 252.012H117.301C117.352 252.839 118.106 253.411 119.029 253.403C120.128 253.411 120.912 252.634 120.904 251.528C120.912 250.4 120.113 249.617 119 249.609C118.202 249.609 117.645 249.91 117.33 250.503H115.338L115.909 244.395H122.442V246.196H117.726L117.433 248.877H117.521C117.909 248.357 118.714 247.976 119.645 247.983C121.593 247.976 123.043 249.434 123.043 251.47C123.043 253.616 121.417 255.146 119.029 255.146Z" fill="white"/>
<path d="M167.088 255.146C165.25 255.125 163.221 254.033 163.221 250.107C163.221 246.35 164.759 244.248 167.249 244.248C169.117 244.248 170.42 245.398 170.691 247.061H169.388C169.146 246.123 168.428 245.42 167.249 245.42C165.506 245.42 164.458 246.907 164.466 249.463H164.598C165.206 248.577 166.18 248.057 167.322 248.057C169.205 248.057 170.779 249.521 170.779 251.572C170.779 253.572 169.322 255.168 167.088 255.146ZM164.642 251.602C164.649 252.847 165.667 253.982 167.088 253.989C168.458 253.982 169.498 252.905 169.505 251.587C169.498 250.283 168.501 249.221 167.117 249.214C165.726 249.221 164.656 250.349 164.642 251.602Z" fill="black"/>
<path d="M212.195 255L217.058 245.64V245.566H211.448V244.395H218.42V245.625L213.572 255H212.195Z" fill="black"/>
<path d="M262.993 255.146C260.759 255.146 259.221 253.909 259.228 252.188C259.221 250.818 260.173 249.683 261.381 249.492V249.434C260.327 249.192 259.631 248.218 259.638 247.061C259.631 245.442 261.052 244.248 262.993 244.248C264.926 244.248 266.347 245.442 266.362 247.061C266.347 248.218 265.644 249.192 264.604 249.434V249.492C265.805 249.683 266.757 250.818 266.772 252.188C266.757 253.909 265.205 255.146 262.993 255.146ZM260.546 252.114C260.524 253.228 261.469 253.982 262.993 253.989C264.509 253.982 265.454 253.228 265.454 252.114C265.454 250.942 264.421 250.078 262.993 250.078C261.572 250.078 260.524 250.942 260.546 252.114ZM260.913 247.163C260.92 248.232 261.777 248.958 262.993 248.965C264.201 248.958 265.073 248.232 265.073 247.163C265.073 246.101 264.23 245.383 262.993 245.391C261.733 245.383 260.92 246.101 260.913 247.163Z" fill="black"/>
<path d="M310.927 244.248C312.75 244.27 314.779 245.369 314.779 249.272C314.779 253.044 313.234 255.146 310.751 255.146C308.883 255.146 307.572 254.004 307.309 252.319H308.612C308.847 253.271 309.572 253.975 310.751 253.975C312.479 253.975 313.534 252.48 313.549 249.902H313.402C312.794 250.781 311.82 251.309 310.692 251.309C308.795 251.309 307.221 249.851 307.221 247.808C307.221 245.83 308.671 244.226 310.927 244.248ZM308.51 247.793C308.502 249.104 309.499 250.151 310.883 250.151C312.267 250.151 313.344 249.009 313.344 247.764C313.344 246.548 312.326 245.405 310.927 245.405C309.542 245.405 308.495 246.482 308.51 247.793Z" fill="black"/>
<path d="M19.9897 288.395V299H18.6567V289.771H18.5981L16.02 291.485V290.152L18.6567 288.395H19.9897ZM26.2886 299.146C23.9375 299.146 22.5752 297.169 22.5825 293.697C22.5752 290.255 23.9521 288.248 26.2886 288.248C28.6177 288.248 29.9946 290.255 29.9946 293.697C29.9946 297.169 28.6396 299.146 26.2886 299.146ZM23.8569 293.697C23.8643 296.444 24.7505 297.975 26.2886 297.975C27.8193 297.975 28.7129 296.444 28.7056 293.697C28.7129 290.951 27.812 289.398 26.2886 289.391C24.7651 289.398 23.8643 290.951 23.8569 293.697Z" fill="black"/>
<path d="M69.1689 288.395V299H67.8359V289.771H67.7773L65.1992 291.485V290.152L67.8359 288.395H69.1689ZM75.7461 288.395V299H74.4131V289.771H74.3545L71.7764 291.485V290.152L74.4131 288.395H75.7461Z" fill="black"/>
<path d="M116.056 288.395V299H114.723V289.771H114.664L112.086 291.485V290.152L114.723 288.395H116.056ZM118.883 299L118.868 298.033L122.486 294.225C123.739 292.892 124.339 292.174 124.347 291.192C124.339 290.101 123.431 289.398 122.237 289.391C120.97 289.398 120.179 290.196 120.172 291.383H118.927C118.912 289.508 120.362 288.248 122.281 288.248C124.208 288.248 125.57 289.544 125.577 291.192C125.57 292.379 125.021 293.302 123.146 295.235L120.714 297.74V297.828H125.768V299H118.883Z" fill="black"/>
<path d="M163.829 288.395V299H162.496V289.771H162.437L159.859 291.485V290.152L162.496 288.395H163.829ZM170.318 299.146C168.208 299.146 166.692 298.019 166.626 296.334H167.959C168.033 297.345 169.036 297.975 170.303 297.975C171.702 297.975 172.713 297.22 172.72 296.114C172.713 294.957 171.79 294.144 170.142 294.137H169.278V292.979H170.142C171.431 292.979 172.332 292.254 172.325 291.163C172.332 290.101 171.556 289.398 170.347 289.391C169.212 289.398 168.179 290.021 168.121 291.061H166.846C166.912 289.376 168.479 288.248 170.362 288.248C172.383 288.248 173.614 289.574 173.599 291.09C173.614 292.298 172.911 293.177 171.797 293.492V293.565C173.182 293.778 174.017 294.767 174.009 296.114C174.017 297.857 172.435 299.146 170.318 299.146Z" fill="black"/>
<path d="M211.777 288.395V299H210.444V289.771H210.386L207.808 291.485V290.152L210.444 288.395H211.777ZM214.341 296.832V295.748L219.116 288.395H220.742V295.675H222.222V296.832H220.742V299H219.482V296.832H214.341ZM215.762 295.675H219.482V290.064H219.351L215.762 295.587V295.675Z" fill="black"/>
<path d="M259.982 288.395V299H258.649V289.771H258.591L256.013 291.485V290.152L258.649 288.395H259.982ZM266.267 299.146C264.355 299.146 262.905 297.967 262.824 296.334H264.099C264.194 297.279 265.117 297.982 266.267 297.989C267.644 297.982 268.64 296.979 268.64 295.646C268.64 294.269 267.607 293.25 266.179 293.243C265.285 293.229 264.589 293.507 264.201 294.195H262.927L263.674 288.395H269.416V289.566H264.772L264.377 292.672H264.479C264.956 292.306 265.666 292.057 266.413 292.057C268.435 292.057 269.921 293.551 269.929 295.616C269.921 297.667 268.383 299.146 266.267 299.146Z" fill="black"/>
<path d="M307.858 288.395V299H306.525V289.771H306.466L303.888 291.485V290.152L306.525 288.395H307.858ZM314.376 299.146C312.538 299.125 310.509 298.033 310.509 294.107C310.509 290.35 312.047 288.248 314.538 288.248C316.405 288.248 317.709 289.398 317.98 291.061H316.676C316.435 290.123 315.717 289.42 314.538 289.42C312.794 289.42 311.747 290.907 311.754 293.463H311.886C312.494 292.577 313.468 292.057 314.611 292.057C316.493 292.057 318.068 293.521 318.068 295.572C318.068 297.572 316.61 299.168 314.376 299.146ZM311.93 295.602C311.938 296.847 312.956 297.982 314.376 297.989C315.746 297.982 316.786 296.905 316.793 295.587C316.786 294.283 315.79 293.221 314.406 293.214C313.014 293.221 311.945 294.349 311.93 295.602Z" fill="black"/>
<path d="M20.3193 332.395V343H18.9863V333.771H18.9277L16.3496 335.485V334.152L18.9863 332.395H20.3193ZM23.4834 343L28.3467 333.64V333.566H22.7363V332.395H29.709V333.625L24.8604 343H23.4834Z" fill="black"/>
<path d="M67.9092 332.395V343H66.5762V333.771H66.5176L63.9395 335.485V334.152L66.5762 332.395H67.9092ZM74.2812 343.146C72.0474 343.146 70.5093 341.909 70.5166 340.188C70.5093 338.818 71.4614 337.683 72.6699 337.492V337.434C71.6152 337.192 70.9194 336.218 70.9268 335.061C70.9194 333.442 72.3403 332.248 74.2812 332.248C76.2148 332.248 77.6357 333.442 77.6504 335.061C77.6357 336.218 76.9326 337.192 75.8926 337.434V337.492C77.0938 337.683 78.0459 338.818 78.0605 340.188C78.0459 341.909 76.4932 343.146 74.2812 343.146ZM71.835 340.114C71.813 341.228 72.7578 341.982 74.2812 341.989C75.7974 341.982 76.7422 341.228 76.7422 340.114C76.7422 338.942 75.7095 338.078 74.2812 338.078C72.8604 338.078 71.813 338.942 71.835 340.114ZM72.2012 335.163C72.2085 336.232 73.0654 336.958 74.2812 336.965C75.4897 336.958 76.3613 336.232 76.3613 335.163C76.3613 334.101 75.519 333.383 74.2812 333.391C73.0215 333.383 72.2085 334.101 72.2012 335.163Z" fill="black"/>
<path d="M115.858 332.395V343H114.525V333.771H114.466L111.888 335.485V334.152L114.525 332.395H115.858ZM122.215 332.248C124.039 332.27 126.068 333.369 126.068 337.272C126.068 341.044 124.522 343.146 122.04 343.146C120.172 343.146 118.861 342.004 118.597 340.319H119.901C120.135 341.271 120.86 341.975 122.04 341.975C123.768 341.975 124.823 340.48 124.837 337.902H124.691C124.083 338.781 123.109 339.309 121.981 339.309C120.084 339.309 118.509 337.851 118.509 335.808C118.509 333.83 119.959 332.226 122.215 332.248ZM119.798 335.793C119.791 337.104 120.787 338.151 122.171 338.151C123.556 338.151 124.632 337.009 124.632 335.764C124.632 334.548 123.614 333.405 122.215 333.405C120.831 333.405 119.784 334.482 119.798 335.793Z" fill="black"/>
<path d="M159.126 343L159.112 342.033L162.73 338.225C163.982 336.892 164.583 336.174 164.59 335.192C164.583 334.101 163.675 333.398 162.481 333.391C161.214 333.398 160.423 334.196 160.416 335.383H159.17C159.156 333.508 160.606 332.248 162.525 332.248C164.451 332.248 165.813 333.544 165.821 335.192C165.813 336.379 165.264 337.302 163.389 339.235L160.958 341.74V341.828H166.011V343H159.126ZM171.402 343.146C169.051 343.146 167.688 341.169 167.696 337.697C167.688 334.255 169.065 332.248 171.402 332.248C173.731 332.248 175.108 334.255 175.108 337.697C175.108 341.169 173.753 343.146 171.402 343.146ZM168.97 337.697C168.978 340.444 169.864 341.975 171.402 341.975C172.933 341.975 173.826 340.444 173.819 337.697C173.826 334.951 172.925 333.398 171.402 333.391C169.878 333.398 168.978 334.951 168.97 337.697Z" fill="black"/>
<path d="M208.306 343L208.291 342.033L211.909 338.225C213.162 336.892 213.762 336.174 213.77 335.192C213.762 334.101 212.854 333.398 211.66 333.391C210.393 333.398 209.602 334.196 209.595 335.383H208.35C208.335 333.508 209.785 332.248 211.704 332.248C213.63 332.248 214.993 333.544 215 335.192C214.993 336.379 214.443 337.302 212.568 339.235L210.137 341.74V341.828H215.19V343H208.306ZM220.859 332.395V343H219.526V333.771H219.468L216.89 335.485V334.152L219.526 332.395H220.859Z" fill="black"/>
<path d="M255.192 343L255.178 342.033L258.796 338.225C260.048 336.892 260.649 336.174 260.656 335.192C260.649 334.101 259.741 333.398 258.547 333.391C257.28 333.398 256.489 334.196 256.481 335.383H255.236C255.222 333.508 256.672 332.248 258.591 332.248C260.517 332.248 261.879 333.544 261.887 335.192C261.879 336.379 261.33 337.302 259.455 339.235L257.023 341.74V341.828H262.077V343H255.192ZM263.996 343L263.981 342.033L267.6 338.225C268.852 336.892 269.453 336.174 269.46 335.192C269.453 334.101 268.544 333.398 267.351 333.391C266.083 333.398 265.292 334.196 265.285 335.383H264.04C264.025 333.508 265.476 332.248 267.395 332.248C269.321 332.248 270.683 333.544 270.69 335.192C270.683 336.379 270.134 337.302 268.259 339.235L265.827 341.74V341.828H270.881V343H263.996Z" fill="black"/>
<path d="M302.965 343L302.951 342.033L306.569 338.225C307.821 336.892 308.422 336.174 308.429 335.192C308.422 334.101 307.514 333.398 306.32 333.391C305.053 333.398 304.262 334.196 304.254 335.383H303.009C302.995 333.508 304.445 332.248 306.364 332.248C308.29 332.248 309.652 333.544 309.66 335.192C309.652 336.379 309.103 337.302 307.228 339.235L304.796 341.74V341.828H309.85V343H302.965ZM315.431 343.146C313.322 343.146 311.806 342.019 311.74 340.334H313.073C313.146 341.345 314.149 341.975 315.417 341.975C316.815 341.975 317.826 341.22 317.833 340.114C317.826 338.957 316.903 338.144 315.255 338.137H314.391V336.979H315.255C316.544 336.979 317.445 336.254 317.438 335.163C317.445 334.101 316.669 333.398 315.46 333.391C314.325 333.398 313.292 334.021 313.234 335.061H311.959C312.025 333.376 313.593 332.248 315.475 332.248C317.497 332.248 318.727 333.574 318.712 335.09C318.727 336.298 318.024 337.177 316.911 337.492V337.565C318.295 337.778 319.13 338.767 319.123 340.114C319.13 341.857 317.548 343.146 315.431 343.146Z" fill="black"/>
<path d="M15.0312 387L15.0166 386.033L18.6348 382.225C19.8872 380.892 20.4878 380.174 20.4951 379.192C20.4878 378.101 19.5796 377.398 18.3857 377.391C17.1187 377.398 16.3276 378.196 16.3203 379.383H15.0752C15.0605 377.508 16.5107 376.248 18.4297 376.248C20.356 376.248 21.7183 377.544 21.7256 379.192C21.7183 380.379 21.1689 381.302 19.2939 383.235L16.8623 385.74V385.828H21.916V387H15.0312ZM23.3369 384.832V383.748L28.1123 376.395H29.7383V383.675H31.2178V384.832H29.7383V387H28.4785V384.832H23.3369ZM24.7578 383.675H28.4785V378.064H28.3467L24.7578 383.587V383.675Z" fill="black"/>
<path d="M63.1191 387L63.1045 386.033L66.7227 382.225C67.9751 380.892 68.5757 380.174 68.583 379.192C68.5757 378.101 67.6675 377.398 66.4736 377.391C65.2065 377.398 64.4155 378.196 64.4082 379.383H63.1631C63.1484 377.508 64.5986 376.248 66.5176 376.248C68.4438 376.248 69.8062 377.544 69.8135 379.192C69.8062 380.379 69.2568 381.302 67.3818 383.235L64.9502 385.74V385.828H70.0039V387H63.1191ZM75.3799 387.146C73.4683 387.146 72.0181 385.967 71.9375 384.334H73.2119C73.3071 385.279 74.23 385.982 75.3799 385.989C76.7568 385.982 77.7529 384.979 77.7529 383.646C77.7529 382.269 76.7202 381.25 75.292 381.243C74.3984 381.229 73.7026 381.507 73.3145 382.195H72.04L72.7871 376.395H78.5293V377.566H73.8857L73.4902 380.672H73.5928C74.0688 380.306 74.7793 380.057 75.5264 380.057C77.5479 380.057 79.0347 381.551 79.042 383.616C79.0347 385.667 77.4966 387.146 75.3799 387.146Z" fill="black"/>
<path d="M110.995 387L110.98 386.033L114.598 382.225C115.851 380.892 116.451 380.174 116.458 379.192C116.451 378.101 115.543 377.398 114.349 377.391C113.082 377.398 112.291 378.196 112.284 379.383H111.039C111.024 377.508 112.474 376.248 114.393 376.248C116.319 376.248 117.682 377.544 117.689 379.192C117.682 380.379 117.132 381.302 115.257 383.235L112.826 385.74V385.828H117.879V387H110.995ZM123.49 387.146C121.651 387.125 119.623 386.033 119.623 382.107C119.623 378.35 121.161 376.248 123.651 376.248C125.519 376.248 126.822 377.398 127.093 379.061H125.79C125.548 378.123 124.83 377.42 123.651 377.42C121.908 377.42 120.86 378.907 120.868 381.463H121C121.607 380.577 122.582 380.057 123.724 380.057C125.606 380.057 127.181 381.521 127.181 383.572C127.181 385.572 125.724 387.168 123.49 387.146ZM121.043 383.602C121.051 384.847 122.069 385.982 123.49 385.989C124.859 385.982 125.899 384.905 125.907 383.587C125.899 382.283 124.903 381.221 123.519 381.214C122.127 381.221 121.058 382.349 121.043 383.602Z" fill="black"/>
<path d="M159.456 387L159.441 386.033L163.06 382.225C164.312 380.892 164.913 380.174 164.92 379.192C164.913 378.101 164.004 377.398 162.811 377.391C161.543 377.398 160.752 378.196 160.745 379.383H159.5C159.485 377.508 160.936 376.248 162.854 376.248C164.781 376.248 166.143 377.544 166.15 379.192C166.143 380.379 165.594 381.302 163.719 383.235L161.287 385.74V385.828H166.341V387H159.456ZM168.597 387L173.46 377.64V377.566H167.85V376.395H174.822V377.625L169.974 387H168.597Z" fill="black"/>
<circle cx="215" cy="382" r="17" fill="#F2F5F9"/>
<path d="M206.431 387L206.416 385.403L210.225 381.902C211.213 380.958 211.748 380.372 211.748 379.529C211.748 378.584 211.038 377.999 210.063 378.006C209.067 377.999 208.416 378.628 208.423 379.646H206.328C206.321 377.574 207.859 376.248 210.093 376.248C212.363 376.248 213.872 377.544 213.872 379.383C213.872 380.591 213.286 381.58 211.104 383.558L209.492 385.125V385.184H214.019V387H206.431ZM219.57 387.146C217.146 387.146 215.41 385.872 215.41 384.144C215.41 382.811 216.436 381.727 217.754 381.521V381.448C216.604 381.229 215.813 380.269 215.82 379.104C215.813 377.457 217.402 376.248 219.57 376.248C221.738 376.248 223.328 377.457 223.335 379.104C223.328 380.269 222.515 381.229 221.401 381.448V381.521C222.69 381.727 223.73 382.811 223.73 384.144C223.73 385.872 221.987 387.146 219.57 387.146ZM217.71 383.924C217.703 384.832 218.45 385.469 219.57 385.462C220.691 385.469 221.438 384.832 221.431 383.924C221.438 383.008 220.647 382.334 219.57 382.327C218.494 382.334 217.703 383.001 217.71 383.924ZM217.974 379.324C217.966 380.174 218.633 380.767 219.57 380.774C220.5 380.767 221.174 380.174 221.182 379.324C221.174 378.497 220.515 377.918 219.57 377.918C218.618 377.918 217.966 378.497 217.974 379.324Z" fill="black"/>
<path d="M254.995 387L254.98 386.033L258.598 382.225C259.851 380.892 260.451 380.174 260.458 379.192C260.451 378.101 259.543 377.398 258.349 377.391C257.082 377.398 256.291 378.196 256.284 379.383H255.039C255.024 377.508 256.474 376.248 258.393 376.248C260.319 376.248 261.682 377.544 261.689 379.192C261.682 380.379 261.132 381.302 259.257 383.235L256.826 385.74V385.828H261.879V387H254.995ZM267.329 376.248C269.152 376.27 271.181 377.369 271.181 381.272C271.181 385.044 269.636 387.146 267.153 387.146C265.285 387.146 263.974 386.004 263.71 384.319H265.014C265.249 385.271 265.974 385.975 267.153 385.975C268.881 385.975 269.936 384.48 269.951 381.902H269.804C269.196 382.781 268.222 383.309 267.094 383.309C265.197 383.309 263.623 381.851 263.623 379.808C263.623 377.83 265.073 376.226 267.329 376.248ZM264.912 379.793C264.904 381.104 265.9 382.151 267.285 382.151C268.669 382.151 269.746 381.009 269.746 379.764C269.746 378.548 268.728 377.405 267.329 377.405C265.944 377.405 264.897 378.482 264.912 379.793Z" fill="#CCCCCC"/>
<path d="M306.562 387.146C304.452 387.146 302.936 386.019 302.87 384.334H304.203C304.276 385.345 305.28 385.975 306.547 385.975C307.946 385.975 308.957 385.22 308.964 384.114C308.957 382.957 308.034 382.144 306.386 382.137H305.521V380.979H306.386C307.675 380.979 308.576 380.254 308.568 379.163C308.576 378.101 307.799 377.398 306.591 377.391C305.456 377.398 304.423 378.021 304.364 379.061H303.09C303.156 377.376 304.723 376.248 306.605 376.248C308.627 376.248 309.857 377.574 309.843 379.09C309.857 380.298 309.154 381.177 308.041 381.492V381.565C309.425 381.778 310.26 382.767 310.253 384.114C310.26 385.857 308.678 387.146 306.562 387.146ZM315.629 387.146C313.278 387.146 311.916 385.169 311.923 381.697C311.916 378.255 313.292 376.248 315.629 376.248C317.958 376.248 319.335 378.255 319.335 381.697C319.335 385.169 317.98 387.146 315.629 387.146ZM313.197 381.697C313.205 384.444 314.091 385.975 315.629 385.975C317.16 385.975 318.053 384.444 318.046 381.697C318.053 378.951 317.152 377.398 315.629 377.391C314.105 377.398 313.205 378.951 313.197 381.697Z" fill="#CCCCCC"/>
<path d="M19.7407 431.146C17.6313 431.146 16.1152 430.019 16.0493 428.334H17.3823C17.4556 429.345 18.459 429.975 19.7261 429.975C21.125 429.975 22.1357 429.22 22.1431 428.114C22.1357 426.957 21.2129 426.144 19.5649 426.137H18.7007V424.979H19.5649C20.854 424.979 21.7549 424.254 21.7476 423.163C21.7549 422.101 20.9785 421.398 19.77 421.391C18.6348 421.398 17.6021 422.02 17.5435 423.061H16.269C16.335 421.376 17.9023 420.248 19.7847 420.248C21.8062 420.248 23.0366 421.574 23.022 423.09C23.0366 424.298 22.3335 425.177 21.2202 425.492V425.565C22.6045 425.778 23.4395 426.767 23.4321 428.114C23.4395 429.857 21.8574 431.146 19.7407 431.146ZM29.0864 420.395V431H27.7534V421.771H27.6948L25.1167 423.485V422.152L27.7534 420.395H29.0864Z" fill="#CCCCCC"/>
<rect width="44" height="20" transform="translate(1 152)" fill="white"/>
<path d="M21.0386 157.161C22.7271 157.167 23.9521 158.196 23.9585 159.662C23.9521 161.135 22.7271 162.15 21.0386 162.15C19.3311 162.15 18.0996 161.135 18.106 159.662C18.0996 158.196 19.3311 157.167 21.0386 157.161ZM19.0835 159.662C19.0708 160.652 19.9023 161.338 21.0386 161.338C22.1558 161.338 22.9937 160.652 22.9937 159.662C22.9937 158.685 22.1558 157.993 21.0386 157.999C19.9023 157.993 19.0708 158.685 19.0835 159.662ZM19.8198 163.89V163.09H27.1577V165.807H20.8228V167.076H27.564V167.876H19.8452V165.058H26.1675V163.89H19.8198ZM26.1675 162.544V156.742H27.1577V162.544H26.1675Z" fill="black"/>
<rect width="44" height="20" transform="translate(49 152)" fill="white"/>
<path d="M75.145 156.755V163.407H74.1421V162.785H71.8569V162.125H74.1421V156.755H75.145ZM65.8013 161.008C67.9849 161.021 70.7778 160.995 73.2153 160.729L73.2788 161.376C72.1743 161.535 71.0254 161.63 69.9019 161.681V163.445H68.9243V161.719C67.8579 161.757 66.8296 161.757 65.9155 161.757L65.8013 161.008ZM66.6772 158.672C66.6772 157.625 67.7817 156.971 69.4829 156.971C71.165 156.971 72.2759 157.625 72.2886 158.672C72.2759 159.726 71.165 160.354 69.4829 160.36C67.7817 160.354 66.6772 159.726 66.6772 158.672ZM67.5278 164.537V163.813H75.145V166.149H68.5562V167.165H75.5132V167.901H67.5786V165.451H74.1548V164.537H67.5278ZM67.6167 158.672C67.6104 159.269 68.3467 159.675 69.4829 159.675C70.6064 159.675 71.3428 159.269 71.3491 158.672C71.3428 158.069 70.6064 157.663 69.4829 157.669C68.3467 157.663 67.6104 158.069 67.6167 158.672Z" fill="#666666"/>
<rect width="44" height="20" transform="translate(97 152)" fill="white"/>
<path d="M122.599 156.742V161.554H124.402V162.392H122.599V168.028H121.596V156.742H122.599ZM113.7 165.02C114.62 165.02 115.693 165.013 116.81 164.981V163.737C115.496 163.585 114.639 162.811 114.652 161.693C114.639 160.417 115.718 159.592 117.318 159.599C118.892 159.592 119.99 160.417 119.997 161.693C119.99 162.817 119.121 163.585 117.813 163.737V164.943C118.86 164.893 119.927 164.804 120.911 164.664L120.974 165.426C118.511 165.845 115.845 165.87 113.865 165.87L113.7 165.02ZM113.903 158.938V158.126H116.81V156.768H117.813V158.126H120.708V158.938H113.903ZM115.579 161.693C115.585 162.474 116.271 162.988 117.318 162.976C118.346 162.988 119.038 162.474 119.044 161.693C119.038 160.906 118.346 160.373 117.318 160.373C116.271 160.373 115.585 160.906 115.579 161.693Z" fill="#666666"/>
<rect width="44" height="20" transform="translate(145 152)" fill="white"/>
<path d="M171.746 160.747L171.304 161.605C169.497 161.293 167.742 160.279 166.988 158.875C166.26 160.292 164.505 161.293 162.685 161.605L162.256 160.747C164.375 160.435 166.429 159.031 166.429 157.367V156.717H167.547V157.367C167.547 158.992 169.627 160.435 171.746 160.747ZM172.253 162.866L172.266 163.75H167.495V167.975H166.429V163.75H161.723V162.866H172.253Z" fill="#666666"/>
<rect width="44" height="20" transform="translate(193 152)" fill="white"/>
<path d="M218.815 157.225V161.033H215.476V162.48H220.123V163.293H209.839V162.48H214.486V161.033H211.172V157.225H218.815ZM210.982 165.273V164.474H218.853V168.028H217.85V165.273H210.982ZM212.15 160.233H217.825V158.024H212.15V160.233Z" fill="#666666"/>
<rect width="44" height="20" transform="translate(241 152)" fill="white"/>
<path d="M260.05 164.517V166.948H265.913V164.517H260.05ZM259.01 167.806V163.659H266.966V167.806H259.01ZM266.615 161.215H268.292V162.073H257.697V161.215H265.536C265.874 159.759 265.874 158.693 265.874 157.783H259.049V156.925H266.927V157.783C266.927 158.693 266.927 159.759 266.615 161.215Z" fill="#666666"/>
<rect width="44" height="20" transform="translate(289 152)" fill="white"/>
<path d="M314.98 162.62V163.433H311.476V165.794H316.173V166.619H305.839V165.794H310.486V163.433H307.172V157.669H314.853V158.494H308.188V160.106H314.612V160.919H308.188V162.62H314.98Z" fill="black"/>
<path fill-rule="evenodd" clip-rule="evenodd" d="M329.586 116L324.293 121.293L325.707 122.707L332.414 116L325.707 109.293L324.293 110.707L329.586 116Z" fill="#DDDDDD"/>
<path d="M111.913 121L111.896 119.084L116.466 114.883C117.652 113.749 118.294 113.046 118.294 112.035C118.294 110.901 117.441 110.198 116.272 110.207C115.077 110.198 114.295 110.954 114.304 112.176H111.79C111.781 109.688 113.627 108.098 116.308 108.098C119.032 108.098 120.843 109.653 120.843 111.859C120.843 113.31 120.14 114.496 117.521 116.869L115.587 118.75V118.82H121.019V121H111.913ZM127.839 121.176C124.648 121.176 122.724 118.803 122.724 114.637C122.724 110.479 124.666 108.098 127.839 108.098C131.012 108.098 132.954 110.479 132.954 114.637C132.954 118.82 131.021 121.176 127.839 121.176ZM125.431 114.637C125.413 117.572 126.362 118.996 127.839 118.996C129.315 118.996 130.256 117.572 130.247 114.637C130.256 111.728 129.307 110.269 127.839 110.26C126.371 110.269 125.431 111.728 125.431 114.637ZM134.782 121L134.765 119.084L139.335 114.883C140.521 113.749 141.163 113.046 141.163 112.035C141.163 110.901 140.311 110.198 139.142 110.207C137.946 110.198 137.164 110.954 137.173 112.176H134.659C134.65 109.688 136.496 108.098 139.177 108.098C141.901 108.098 143.712 109.653 143.712 111.859C143.712 113.31 143.009 114.496 140.39 116.869L138.456 118.75V118.82H143.888V121H134.782ZM145.276 118.75V116.658L150.655 108.273H153.978V116.623H155.595V118.75H153.978V121H151.464V118.75H145.276ZM147.948 116.623H151.499V111.174H151.376L147.948 116.518V116.623ZM170.272 106.639V118.398H168.04V113.16H164.067V111.402H168.04V110.172H164.067V108.414H168.04V106.639H170.272ZM157.687 116.324V107.641H159.901V114.479C161.853 114.452 163.698 114.329 165.685 113.969L165.913 115.779C163.514 116.236 161.36 116.315 158.97 116.324H157.687ZM159.638 122.336V117.344H161.888V120.543H170.659V122.336H159.638ZM181.733 121.176C178.938 121.176 176.935 119.638 176.882 117.414H179.554C179.598 118.363 180.521 118.987 181.751 118.996C183.017 118.987 183.922 118.284 183.913 117.256C183.922 116.219 182.999 115.489 181.505 115.48H180.327V113.529H181.505C182.762 113.529 183.641 112.844 183.632 111.842C183.641 110.866 182.894 110.198 181.769 110.207C180.644 110.198 179.721 110.831 179.677 111.807H177.146C177.189 109.618 179.158 108.098 181.769 108.098C184.423 108.098 186.189 109.671 186.181 111.684C186.189 113.107 185.196 114.118 183.772 114.373V114.479C185.645 114.707 186.673 115.841 186.655 117.432C186.673 119.611 184.607 121.176 181.733 121.176ZM201.544 106.639V115.902H199.294V115.393H196.394V114.039H199.294V106.639H201.544ZM187.991 112.264C191.085 112.272 194.917 112.255 198.345 111.93L198.45 113.318C197.035 113.503 195.585 113.626 194.161 113.705V115.938H191.946V113.784C190.637 113.819 189.38 113.819 188.22 113.811L187.991 112.264ZM189.081 109.258C189.081 107.816 190.698 106.858 193.142 106.85C195.523 106.858 197.158 107.816 197.167 109.258C197.158 110.743 195.523 111.657 193.142 111.648C190.698 111.657 189.081 110.743 189.081 109.258ZM190.276 117.889V116.377H201.544V120.121H192.544V120.947H201.913V122.512H190.347V118.68H199.312V117.889H190.276ZM191.208 109.258C191.19 109.847 191.929 110.181 193.142 110.189C194.319 110.181 195.066 109.847 195.075 109.258C195.066 108.669 194.319 108.317 193.142 108.326C191.929 108.317 191.19 108.669 191.208 109.258Z" fill="black"/>
<path fill-rule="evenodd" clip-rule="evenodd" d="M218.558 116.232L213.265 110.939L211.851 112.354L218.558 119.061L225.265 112.354L223.851 110.939L218.558 116.232Z" fill="black"/>
<path fill-rule="evenodd" clip-rule="evenodd" d="M5.41436 116L10.7073 110.707L9.29305 109.293L2.58594 116L9.29305 122.707L10.7073 121.293L5.41436 116Z" fill="black"/>
<path d="M9.96 5.384V8.504C9.96 12.128 10.512 14.744 11.64 16.328C12.576 17.672 13.8 18.608 15.312 19.088V21.824C12.768 21.368 10.68 20.192 9.096 18.272C8.76 17.888 8.472 17.48 8.208 17C7.92 17.48 7.632 17.888 7.32 18.272C5.712 20.192 3.648 21.368 1.104 21.824V19.088C2.592 18.608 3.816 17.672 4.776 16.328C5.88 14.744 6.456 12.128 6.456 8.504V5.384H9.96ZM23.424 14.72H20.352V26.168H16.824V5.072H20.352V11.936H23.424V14.72ZM40.1588 5.696C42.6548 5.696 43.9268 6.968 43.9268 9.464V19.232H40.3988V10.208C40.3988 9.056 39.7988 8.456 38.6228 8.456H26.8867V5.696H40.1588ZM36.0788 13.448V21.272H46.4228V24.032H24.7028V21.272H32.4788V13.448H36.0788ZM48.4695 15.608C48.4695 13.448 48.8535 11.456 49.6215 9.632C50.3895 7.808 51.4695 6.224 52.8615 4.832H56.3895C54.7815 6.68 53.6295 8.504 52.9575 10.28C52.2615 12.08 51.9255 13.856 51.9255 15.608C51.9255 17.36 52.2615 19.136 52.9575 20.936C53.6295 22.76 54.7815 24.56 56.3895 26.384H52.8615C51.4695 25.04 50.3895 23.456 49.6215 21.584C48.8535 19.76 48.4695 17.768 48.4695 15.608ZM66.8139 13.184V10.448H61.6059V11.864C61.6059 12.752 62.0619 13.184 62.9979 13.184H66.8139ZM70.2939 15.68H62.1339C59.4459 15.68 58.1019 14.552 58.1019 12.248V5.24H61.6059V7.976H66.8139V5.24H70.2939V15.68ZM76.4859 9.152H79.5099V11.864H76.4859V15.896H72.9579V5.072H76.4859V9.152ZM76.4859 22.64H63.6939V22.856C63.6939 23.36 64.1259 23.6 64.9899 23.6H76.5339V26.12H64.1499C61.4859 26.12 60.1659 24.896 60.1659 22.424V20.168H72.9579V19.28H60.1659V16.784H75.8619C76.2699 16.784 76.4859 17 76.4859 17.432V22.64ZM90.3167 13.376V10.544H85.1087V11.888C85.1087 12.896 85.5647 13.376 86.5007 13.376H90.3167ZM93.7967 15.872H85.6367C82.9487 15.872 81.6047 14.624 81.6047 12.08V5.36H85.1087V8.072H90.3167V5.36H93.7967V7.328H97.3487V5.072H100.877V16.664H97.3487V14.12H93.7967V15.872ZM93.7967 9.92V11.528H97.3487V9.92H93.7967ZM100.709 21.512C100.709 22.976 100.085 24.224 98.8367 25.256C97.5887 26.312 95.9327 26.84 93.8687 26.84C91.8047 26.84 90.1727 26.312 88.9247 25.256C87.6527 24.224 87.0287 22.976 87.0287 21.512C87.0287 20.072 87.6527 18.824 88.9247 17.792C90.1727 16.784 91.8047 16.256 93.8687 16.256C95.9327 16.256 97.5887 16.784 98.8367 17.792C100.085 18.824 100.709 20.072 100.709 21.512ZM93.8687 18.848C92.8607 18.848 92.0447 19.112 91.4687 19.64C90.8447 20.168 90.5567 20.792 90.5567 21.512C90.5567 22.232 90.8447 22.88 91.4687 23.408C92.0447 23.96 92.8607 24.224 93.8687 24.224C94.8527 24.224 95.6447 23.96 96.2687 23.408C96.8687 22.88 97.1807 22.256 97.1807 21.512C97.1807 20.792 96.8687 20.168 96.2687 19.64C95.6447 19.112 94.8527 18.848 93.8687 18.848ZM110.452 15.608C110.452 17.768 110.068 19.76 109.3 21.584C108.532 23.456 107.452 25.04 106.06 26.384H102.532C104.116 24.56 105.268 22.76 105.964 20.936C106.636 19.136 106.996 17.36 106.996 15.608C106.996 13.856 106.636 12.08 105.964 10.28C105.268 8.504 104.116 6.68 102.532 4.832H106.06C107.452 6.224 108.532 7.808 109.3 9.632C110.068 11.456 110.452 13.448 110.452 15.608ZM119.34 15.992C117.396 15.992 115.836 15.488 114.636 14.432C113.436 13.4 112.836 12.104 112.836 10.568C112.836 8.984 113.436 7.688 114.636 6.632C115.836 5.6 117.396 5.072 119.34 5.072C121.26 5.072 122.844 5.6 124.044 6.632C125.244 7.688 125.844 8.984 125.844 10.568C125.844 12.104 125.244 13.4 124.044 14.432C122.844 15.488 121.26 15.992 119.34 15.992ZM119.34 13.448C120.156 13.448 120.852 13.184 121.452 12.656C122.028 12.128 122.316 11.432 122.316 10.568C122.316 9.68 122.028 8.96 121.452 8.408C120.852 7.88 120.156 7.592 119.34 7.592C118.524 7.592 117.828 7.88 117.252 8.408C116.652 8.96 116.364 9.68 116.364 10.568C116.364 11.432 116.652 12.128 117.252 12.656C117.828 13.184 118.524 13.448 119.34 13.448ZM128.412 15.896V5.072H131.964V15.896H128.412ZM131.964 22.64H119.172V22.856C119.172 23.36 119.604 23.6 120.468 23.6H132.012V26.12H119.628C116.964 26.12 115.644 24.896 115.644 22.424V20.168H128.436V19.28H115.644V16.784H131.34C131.748 16.784 131.964 17 131.964 17.432V22.64ZM140.501 8.96C140.501 9.512 140.909 9.896 141.749 10.088C142.565 10.304 143.837 10.4 145.613 10.4C147.341 10.4 148.661 10.304 149.525 10.088C150.365 9.896 150.797 9.512 150.797 8.96C150.797 8.432 150.365 8.024 149.501 7.76C148.637 7.52 147.341 7.376 145.613 7.376C143.885 7.376 142.589 7.52 141.773 7.76C140.909 8.024 140.501 8.432 140.501 8.96ZM136.877 8.936C136.877 7.592 137.621 6.584 139.157 5.936C140.645 5.312 142.805 5 145.637 5C148.469 5 150.629 5.312 152.165 5.912C153.653 6.536 154.421 7.544 154.421 8.912C154.421 10.304 153.653 11.288 152.165 11.864C150.629 12.464 148.469 12.752 145.637 12.752C142.805 12.752 140.645 12.464 139.157 11.864C137.621 11.288 136.877 10.328 136.877 8.936ZM134.789 13.616H156.509V16.088H134.789V13.616ZM137.309 22.616V20.504H150.437V19.664H137.309V17.312H153.341C153.749 17.312 153.965 17.528 153.965 17.96V22.832H140.837V23C140.837 23.504 141.269 23.744 142.133 23.744H154.013V26.12H141.293C138.629 26.12 137.309 24.968 137.309 22.616ZM9.504 36.384V37.536C9.504 40.584 10.152 42.888 11.448 44.424C12.456 45.624 13.608 46.416 14.856 46.8V49.464C12.696 49.08 10.776 48.096 9.12 46.512C8.592 46.032 8.136 45.456 7.752 44.832C7.368 45.456 6.912 46.032 6.384 46.512C4.704 48.096 2.808 49.08 0.648 49.464V46.8C1.896 46.416 3.024 45.624 4.056 44.424C5.352 42.888 6 40.584 6 37.536V36.384H9.504ZM17.544 36.072H21.072V51.36H17.544V42.816H12.408V40.056H17.544V36.072ZM10.152 54.456H21.312V57.12H8.952C6.264 57.12 4.944 55.872 4.944 53.328V49.968H8.496V52.752C8.496 53.904 9.048 54.456 10.152 54.456ZM36.3351 47.496C35.5191 48.024 34.3911 48.264 32.9271 48.24H28.3191C25.7751 48.24 24.5271 47.088 24.5271 44.736V36.24H33.7671V38.76H27.8151V40.872H33.6951V43.368H27.8151V44.376C27.8151 45.288 28.2711 45.72 29.2071 45.72H32.7831C34.7031 45.72 35.9031 45.12 36.3351 43.896V36.072H39.6231V40.8H41.1111V36.072H44.4471V48.792H41.1111V43.536H39.6231V48.792H36.3351V47.496ZM27.9111 49.728H42.7671C43.8711 49.728 44.4471 50.304 44.4471 51.408V57.312H40.8951V52.272H27.9111V49.728ZM49.3901 36.096H55.9661V38.76H49.3901V36.096ZM58.5101 42.144H46.7981V39.504H58.5101V42.144ZM58.0541 48.168C58.0541 49.704 57.5501 51 56.5421 52.032C55.5341 53.088 54.2381 53.616 52.6541 53.616C51.0701 53.616 49.7981 53.088 48.8141 52.032C47.8061 51 47.3021 49.704 47.3021 48.168C47.3021 46.632 47.8061 45.336 48.8141 44.28C49.7981 43.248 51.0701 42.72 52.6541 42.72C54.2381 42.72 55.5341 43.248 56.5421 44.28C57.5501 45.336 58.0541 46.632 58.0541 48.168ZM54.7421 48.168C54.7421 47.28 54.5501 46.584 54.1661 46.08C53.7821 45.6 53.2541 45.336 52.6301 45.336C52.0061 45.336 51.5261 45.576 51.1661 46.056C50.7821 46.56 50.6141 47.256 50.6141 48.168C50.6141 49.08 50.7821 49.776 51.1661 50.256C51.5261 50.76 52.0061 51 52.6301 51C53.2541 51 53.7821 50.76 54.1661 50.256C54.5501 49.776 54.7421 49.08 54.7421 48.168ZM64.1501 36.072H67.4861V57.168H64.1501V45.744H62.6621V57.168H59.3741V36.072H62.6621V42.984H64.1501V36.072ZM89.9732 39.096H82.8452C83.1092 40.536 83.9492 41.736 85.3652 42.696C86.7332 43.656 88.3652 44.184 90.2852 44.232V46.92C87.6452 46.944 85.3172 46.32 83.2532 45.048C82.3412 44.496 81.5732 43.848 80.9732 43.08C80.3492 43.848 79.5812 44.496 78.6692 45.048C76.6052 46.32 74.2532 46.944 71.6372 46.92V44.232C73.5332 44.184 75.1652 43.656 76.5572 42.696C77.9492 41.736 78.7892 40.536 79.0772 39.096H71.9732V36.384H89.9732V39.096ZM91.8212 51H82.7492V57.168H79.1492V51H70.1012V48.24H91.8212V51ZM101.116 39.504C101.116 43.176 101.596 45.792 102.58 47.352C103.348 48.624 104.308 49.488 105.436 49.92V52.92C103.372 52.368 101.62 51.168 100.204 49.344C99.9159 49.008 99.6759 48.624 99.4599 48.192C99.2199 48.624 98.9799 49.008 98.7159 49.344C97.2759 51.168 95.5479 52.368 93.4839 52.92V49.92C94.5879 49.488 95.5479 48.624 96.3399 47.352C97.2999 45.792 97.8039 43.176 97.8039 39.528V36.384H101.116V39.504ZM110.908 36.072H114.244V57.168H110.908V36.072ZM106.348 36.072H109.636V57.168H106.348V45H102.916V42.192H106.348V36.072ZM118.947 42.648C118.947 40.92 119.739 39.432 121.347 38.184C122.931 36.984 125.067 36.36 127.707 36.36C130.347 36.36 132.459 36.984 134.067 38.184C135.651 39.432 136.467 40.92 136.467 42.648C136.467 44.616 135.435 46.272 133.395 47.568V52.272H138.579V55.032H116.859V52.272H122.067V47.592C119.979 46.296 118.947 44.64 118.947 42.648ZM129.843 48.792C129.171 48.888 128.451 48.936 127.707 48.936C126.963 48.936 126.267 48.888 125.619 48.792V52.272H129.843V48.792ZM132.843 42.648C132.843 41.616 132.363 40.752 131.403 40.08C130.443 39.408 129.195 39.072 127.707 39.072C126.171 39.072 124.947 39.408 124.011 40.08C123.051 40.752 122.571 41.616 122.571 42.648C122.571 43.704 123.051 44.544 124.011 45.216C124.947 45.888 126.171 46.224 127.707 46.224C129.195 46.224 130.443 45.888 131.403 45.216C132.363 44.544 132.843 43.704 132.843 42.648Z" fill="black"/>
</svg>
