<svg width="335" height="602" viewBox="0 0 335 602" fill="none" xmlns="http://www.w3.org/2000/svg">
<circle cx="1.5" cy="530.5" r="1.5" fill="#BBBBBB"/>
<path d="M9.46973 530.262L10.46 526.809H11.3994L10.7012 530.262H9.46973ZM23.1094 532.572V533.41H18.4502V537.054H17.4727V533.41H12.8262V532.572H23.1094ZM13.4736 530.896C15.4858 530.624 17.4663 529.392 17.4727 527.977V527.964H13.8291V527.151H17.4727V525.742H18.4502V527.151H22.1191V527.964H18.4629V527.977C18.4629 529.386 20.4307 530.624 22.4492 530.896L22.0811 531.696C20.3354 531.43 18.6914 530.554 17.9741 529.329C17.2568 530.566 15.5874 531.43 13.8418 531.696L13.4736 530.896ZM33.2959 525.742V530.338H35.124V531.176H33.2959V537.028H32.3057V525.742H33.2959ZM24.6377 534.096C27.5513 532.648 29.1382 530.471 29.3667 527.799H25.1582V526.961H30.376C30.3696 530.154 28.8716 533.067 25.1963 534.883L24.6377 534.096ZM49.4033 525.742V531.874H48.4131V529.322H46.1279V528.484H48.4131V525.742H49.4033ZM40.1104 531.277C41.7734 530.674 42.9795 529.183 42.9795 527.583V527.253H40.4277V526.428H46.5088V527.253H43.9824V527.583C43.9824 529.03 45.1123 530.452 46.7627 531.023L46.2422 531.798C44.9727 531.334 43.9888 530.389 43.5 529.233C43.0176 530.528 41.9702 531.576 40.6309 532.064L40.1104 531.277ZM42.1416 536.876V532.42H43.1445V533.829H48.4131V532.42H49.4033V536.876H42.1416ZM43.1445 536.063H48.4131V534.629H43.1445V536.063ZM57.457 526.796C57.4634 528.389 59.5327 529.76 61.5703 530.046L61.1641 530.858C59.4121 530.566 57.6729 529.595 56.9492 528.211C56.2256 529.608 54.4927 530.566 52.7344 530.858L52.3281 530.046C54.3657 529.76 56.4287 528.415 56.4287 526.796V526.148H57.457V526.796ZM51.7949 532.94V532.103H62.0781V532.94H57.4062V537.028H56.4287V532.94H51.7949ZM65.4727 526.821L64.4824 530.274H63.543L64.2412 526.821H65.4727ZM79.3965 525.742V530.401H81.2881V531.227H79.3965V537.028H78.4062V525.742H79.3965ZM70.5986 528.383V527.558H73.5059V525.882H74.4961V527.558H77.3145V528.383H70.5986ZM71.2461 531.912C71.2397 530.389 72.4077 529.322 74.0137 529.322C75.6069 529.322 76.7686 530.389 76.7812 531.912C76.7686 533.442 75.6069 534.502 74.0137 534.502C72.4077 534.502 71.2397 533.442 71.2461 531.912ZM72.1982 531.912C72.1919 532.94 72.96 533.664 74.0137 533.651C75.0547 533.664 75.8164 532.94 75.8291 531.912C75.8164 530.89 75.0547 530.154 74.0137 530.16C72.96 530.154 72.1919 530.89 72.1982 531.912ZM86.4092 528.776C86.4028 530.839 87.8057 532.909 89.4688 533.664L88.8594 534.451C87.5708 533.829 86.46 532.49 85.9204 530.884C85.3999 532.585 84.2891 534.013 82.9688 534.68L82.334 533.842C84.0161 533.074 85.4062 530.916 85.4189 528.776V526.72H86.4092V528.776ZM90.7002 537.054V525.742H91.7031V537.054H90.7002ZM99.8457 526.732V527.735H102.486V525.755H103.489V533.994H102.486V530.985H99.8457V532.001H94.666V526.732H99.8457ZM95.6562 531.201H98.8682V527.558H95.6562V531.201ZM96.1895 536.787V533.258H97.1924V535.949H103.743V536.787H96.1895ZM99.8457 530.16H102.486V528.573H99.8457V530.16ZM113.604 528.776C113.598 530.82 114.912 532.877 116.55 533.626L115.953 534.438C114.671 533.778 113.611 532.433 113.109 530.827C112.608 532.515 111.548 533.962 110.266 534.642L109.618 533.842C111.275 533.029 112.583 530.858 112.589 528.776V526.72H113.604V528.776ZM115.318 530.414V529.602H117.997V525.742H118.987V537.054H117.997V530.414H115.318ZM131.688 532.483V533.283H128.971V537.028H127.98V533.283H125.061V537.028H124.058V533.283H121.354V532.483H131.688ZM122.598 527.012V526.187H130.431V529.081H123.626V530.49H130.672V531.315H122.623V528.307H129.415V527.012H122.598ZM147.16 531.112V531.95H136.864V531.112H147.16ZM138.108 534.972C138.102 533.677 139.568 532.94 142.006 532.94C144.424 532.94 145.878 533.677 145.891 534.972C145.878 536.279 144.424 537.003 142.006 537.003C139.568 537.003 138.102 536.279 138.108 534.972ZM138.172 530.033V526.199H145.878V527.037H139.149V529.221H145.954V530.033H138.172ZM139.124 534.972C139.111 535.765 140.197 536.216 142.006 536.216C143.796 536.216 144.881 535.765 144.888 534.972C144.881 534.185 143.796 533.728 142.006 533.715C140.197 533.728 139.111 534.185 139.124 534.972ZM158.921 531.963V532.788H148.587V531.963H153.259V530.77H149.933V528.015H156.585V526.847H149.895V526.034H157.588V528.764H150.923V529.97H157.829V530.77H154.236V531.963H158.921ZM149.742 534.464V533.651H157.651V536.927H156.648V534.464H149.742ZM166.035 526.771V531.963H160.817V526.771H166.035ZM161.795 531.163H165.07V527.583H161.795V531.163ZM162.1 536.787V533.232H163.077V535.949H169.679V536.787H162.1ZM168.168 534.02V525.742H169.158V529.183H170.859V530.021H169.158V534.02H168.168ZM177.212 526.479C179.567 526.485 181.338 527.716 181.338 529.576C181.338 531.455 179.567 532.687 177.212 532.674C174.857 532.687 173.086 531.455 173.086 529.576C173.086 527.716 174.857 526.485 177.212 526.479ZM172.07 535.53V534.692H182.404V535.53H172.07ZM174.038 529.576C174.025 530.947 175.39 531.861 177.212 531.861C179.021 531.861 180.373 530.947 180.373 529.576C180.373 528.224 179.021 527.285 177.212 527.291C175.39 527.285 174.025 528.224 174.038 529.576ZM194.14 534.794V535.632H183.806V534.794H188.452V532.661H185.101V529.183H191.854V527.405H185.075V526.58H192.832V529.995H186.091V531.836H193.099V532.661H189.43V534.794H194.14ZM208.127 525.742V529.183H209.828V530.021H208.127V534.007H207.124V525.742H208.127ZM199.316 531.899C202.027 531.055 203.785 529.449 203.995 527.456H199.786V526.618H205.08C205.08 529.525 203.004 531.684 199.748 532.699L199.316 531.899ZM201.056 536.787V533.169H202.046V535.949H208.647V536.787H201.056ZM220.396 525.742V534.146H219.393V530.871H217.463V530.033H219.393V528.726H217.463V527.9H219.393V525.742H220.396ZM211.064 531.582C211.515 531.582 212.004 531.576 212.524 531.569V527.481H211.382V526.669H217.374V527.481H216.219V531.436C216.739 531.404 217.253 531.36 217.742 531.303L217.793 532.052C215.603 532.388 213.026 532.426 211.191 532.433L211.064 531.582ZM213.121 536.787V533.448H214.124V535.949H220.7V536.787H213.121ZM213.489 531.55C214.067 531.538 214.664 531.519 215.254 531.493V527.481H213.489V531.55ZM231.509 525.742V530.401H233.4V531.227H231.509V537.028H230.519V525.742H231.509ZM222.711 528.383V527.558H225.618V525.882H226.608V527.558H229.427V528.383H222.711ZM223.358 531.912C223.352 530.389 224.52 529.322 226.126 529.322C227.719 529.322 228.881 530.389 228.894 531.912C228.881 533.442 227.719 534.502 226.126 534.502C224.52 534.502 223.352 533.442 223.358 531.912ZM224.311 531.912C224.304 532.94 225.072 533.664 226.126 533.651C227.167 533.664 227.929 532.94 227.941 531.912C227.929 530.89 227.167 530.154 226.126 530.16C225.072 530.154 224.304 530.89 224.311 531.912ZM244.171 525.742V537.028H243.219V525.742H244.171ZM234.522 533.867C236.973 532.414 238.204 530.376 238.395 528.015H235.005V527.189H239.385C239.385 528.3 239.207 529.373 238.82 530.376H240.845V526.047H241.797V536.457H240.845V531.188H238.452C237.772 532.502 236.681 533.664 235.106 534.591L234.522 533.867ZM260.342 534.756V535.581H250.008V534.756H254.654V532.318H251.227V526.542H252.229V528.586H258.095V526.542H259.072V532.318H255.632V534.756H260.342ZM252.229 531.506H258.095V529.398H252.229V531.506ZM271.1 525.742V532.585H270.097V530.008H268.18V529.183H270.097V525.742H271.1ZM261.756 527.748V526.936H264.562V525.641H265.539V526.936H268.345V527.748H261.756ZM262.429 530.338C262.429 529.157 263.514 528.332 265.044 528.332C266.58 528.332 267.659 529.157 267.672 530.338C267.659 531.557 266.58 532.356 265.044 532.356C263.514 532.356 262.429 531.557 262.429 530.338ZM263.381 530.338C263.381 531.087 264.06 531.582 265.044 531.595C266.028 531.582 266.707 531.087 266.707 530.338C266.707 529.614 266.028 529.106 265.044 529.106C264.06 529.106 263.381 529.614 263.381 530.338ZM263.724 536.876V533.194H271.1V536.876H263.724ZM264.714 536.063H270.122V533.994H264.714V536.063ZM282.454 526.352V527.189C282.454 528.065 282.454 529.094 282.156 530.503H283.812V531.328H273.479V530.503H281.153C281.47 529.081 281.47 528.065 281.464 527.189V527.177H274.786V526.352H282.454ZM274.748 536.876V532.89H282.505V536.876H274.748ZM275.738 536.063H281.515V533.677H275.738V536.063ZM290.355 525.945C292.863 525.945 294.335 526.637 294.342 527.888C294.335 529.17 292.863 529.862 290.355 529.868C287.835 529.862 286.356 529.17 286.356 527.888C286.356 526.637 287.835 525.945 290.355 525.945ZM285.214 531.442V530.63H295.497V531.442H285.214ZM286.458 533.182V532.42H294.177V534.946H287.474V536.114H294.52V536.901H286.483V534.21H293.199V533.182H286.458ZM287.397 527.888C287.385 528.675 288.483 529.106 290.355 529.106C292.228 529.106 293.32 528.675 293.326 527.888C293.32 527.145 292.228 526.701 290.355 526.694C288.483 526.701 287.385 527.145 287.397 527.888ZM304.559 528.167C304.565 529.57 305.777 530.839 307.44 531.328L306.958 532.103C305.65 531.709 304.609 530.858 304.095 529.748C303.613 530.979 302.578 531.95 301.232 532.395L300.75 531.633C302.407 531.074 303.575 529.697 303.581 528.167V527.926H301.029V527.126H303.581V525.691H304.584V527.126H307.11V527.926H304.559V528.167ZM302.54 534.946C302.534 533.632 303.975 532.883 306.323 532.89C308.666 532.883 310.106 533.632 310.106 534.946C310.106 536.254 308.666 537.003 306.323 537.003C303.975 537.003 302.534 536.254 302.54 534.946ZM303.53 534.946C303.524 535.733 304.59 536.216 306.323 536.216C308.056 536.216 309.116 535.733 309.116 534.946C309.116 534.14 308.056 533.677 306.323 533.664C304.59 533.677 303.524 534.14 303.53 534.946ZM306.755 529.805V528.979H309.065V525.742H310.068V532.585H309.065V529.805H306.755ZM321.372 526.479V527.469C321.372 528.535 321.372 529.709 321.048 531.328H322.73V532.153H318.071V537.054H317.068V532.153H312.447V531.328H320.039C320.382 529.703 320.382 528.522 320.382 527.469V527.304H313.742V526.479H321.372ZM332.917 525.742V530.401H334.809V531.227H332.917V537.028H331.927V525.742H332.917ZM324.119 528.383V527.558H327.026V525.882H328.017V527.558H330.835V528.383H324.119ZM324.767 531.912C324.76 530.389 325.928 529.322 327.534 529.322C329.127 529.322 330.289 530.389 330.302 531.912C330.289 533.442 329.127 534.502 327.534 534.502C325.928 534.502 324.76 533.442 324.767 531.912ZM325.719 531.912C325.712 532.94 326.48 533.664 327.534 533.651C328.575 533.664 329.337 532.94 329.35 531.912C329.337 530.89 328.575 530.154 327.534 530.16C326.48 530.154 325.712 530.89 325.719 531.912ZM18.7627 543.742V549.595H17.7852V543.742H18.7627ZM9.5332 548.693C11.2344 548.103 12.4404 546.592 12.4404 544.936V544.072H13.4561V544.936C13.4434 546.529 14.6621 547.938 16.3379 548.49L15.8428 549.265C14.5161 548.814 13.4688 547.868 12.9609 546.649C12.4531 547.963 11.3931 548.998 10.0537 549.48L9.5332 548.693ZM11.4375 550.966V550.166H18.7754V552.87H12.4404V554.089H19.1816V554.901H11.4629V552.096H17.7852V550.966H11.4375ZM30.6172 544.796C30.6235 546.389 32.6929 547.76 34.7305 548.046L34.3242 548.858C32.5723 548.566 30.833 547.595 30.1094 546.211C29.3857 547.608 27.6528 548.566 25.8945 548.858L25.4883 548.046C27.5259 547.76 29.5889 546.415 29.5889 544.796V544.148H30.6172V544.796ZM24.9551 550.94V550.103H35.2383V550.94H30.5664V555.028H29.5889V550.94H24.9551ZM44.2744 551.321C44.2681 552.318 44.8076 553.378 45.8804 553.987C46.9595 553.321 47.5308 552.191 47.5244 551.321V550.699H48.502V551.321C48.4956 552.483 49.3525 553.638 50.7998 554.14L50.3047 554.876C49.1748 554.476 48.3877 553.689 47.9941 552.743C47.645 553.657 46.9531 554.527 45.9121 554.965C44.814 554.546 44.1157 553.721 43.7793 552.775C43.373 553.683 42.5986 554.47 41.5195 554.876L41.0117 554.14C42.4399 553.606 43.2969 552.4 43.3096 551.321V550.699H44.2744V551.321ZM40.7197 547.056C40.7134 545.481 41.9639 544.409 43.6777 544.415C45.3916 544.409 46.6294 545.481 46.6357 547.056C46.6294 548.604 45.3916 549.671 43.6777 549.671C41.9639 549.671 40.7134 548.604 40.7197 547.056ZM41.6973 547.056C41.6846 548.103 42.5161 548.839 43.6777 548.846C44.8267 548.839 45.6582 548.103 45.6582 547.056C45.6582 546.002 44.8267 545.253 43.6777 545.266C42.5161 545.253 41.6846 546.002 41.6973 547.056ZM48.7812 550.204V543.755H49.7715V550.204H48.7812ZM55.2227 544.618C56.7588 544.625 57.8696 545.945 58.022 548.059H60.5547V543.742H61.5449V555.054H60.5547V548.884H58.0347C57.9268 551.099 56.7969 552.483 55.2227 552.477C53.5532 552.483 52.3853 550.959 52.3916 548.554C52.3853 546.154 53.5532 544.625 55.2227 544.618ZM53.3438 548.554C53.3501 550.388 54.1118 551.594 55.2227 551.588C56.3271 551.594 57.1016 550.388 57.1016 548.554C57.1016 546.719 56.3271 545.513 55.2227 545.507C54.1118 545.513 53.3501 546.719 53.3438 548.554ZM74.2578 552.743V553.581H63.9238V552.743H66.4883V549.703C65.5234 549.201 64.9395 548.389 64.9395 547.36C64.9395 545.615 66.6533 544.466 69.0654 544.453C71.4775 544.466 73.1914 545.615 73.1914 547.36C73.1914 548.37 72.6265 549.169 71.6934 549.671V552.743H74.2578ZM65.9043 547.36C65.8979 548.624 67.2119 549.468 69.0654 549.468C70.8999 549.468 72.2266 548.624 72.2266 547.36C72.2266 546.097 70.8999 545.266 69.0654 545.278C67.2119 545.266 65.8979 546.097 65.9043 547.36ZM67.4658 552.743H70.6904V550.058C70.2017 550.185 69.6558 550.255 69.0654 550.255C68.4878 550.255 67.9482 550.191 67.4658 550.064V552.743ZM76.8525 554.076C76.4082 554.07 76.0273 553.702 76.04 553.251C76.0273 552.807 76.4082 552.438 76.8525 552.438C77.3032 552.438 77.6714 552.807 77.665 553.251C77.6714 553.702 77.3032 554.07 76.8525 554.076Z" fill="#999999"/>
<circle cx="1.5" cy="574.5" r="1.5" fill="#BBBBBB"/>
<path d="M18.7881 569.742V581.028H17.7852V569.742H18.7881ZM9.59668 578.096C12.6499 576.648 14.2114 574.484 14.4336 571.786H10.1172V570.974H15.4492C15.4365 574.217 13.9258 577.093 10.1426 578.908L9.59668 578.096ZM26.9814 571.151C26.9751 572.548 28.8667 573.69 30.8662 573.944L30.4727 574.757C28.6509 574.478 26.9434 573.57 26.334 572.237C25.7183 573.57 24.0234 574.478 22.1953 574.757L21.8271 573.944C23.814 573.69 25.6929 572.548 25.6865 571.151V571.126H22.1318V570.301H30.5615V571.126H26.9814V571.151ZM21.1924 576.661V575.836H25.8389V573.944H26.8164V575.836H31.5137V576.661H21.1924ZM22.5254 580.787V577.575H23.5283V579.949H30.333V580.787H22.5254ZM46.0342 569.742V575.874H45.0439V573.322H42.7588V572.484H45.0439V569.742H46.0342ZM36.7412 575.277C38.4043 574.674 39.6104 573.183 39.6104 571.583V571.253H37.0586V570.428H43.1396V571.253H40.6133V571.583C40.6133 573.03 41.7432 574.452 43.3936 575.023L42.873 575.798C41.6035 575.334 40.6196 574.389 40.1309 573.233C39.6484 574.528 38.6011 575.576 37.2617 576.064L36.7412 575.277ZM38.7725 580.876V576.42H39.7754V577.829H45.0439V576.42H46.0342V580.876H38.7725ZM39.7754 580.063H45.0439V578.629H39.7754V580.063ZM54.0879 570.796C54.0942 572.389 56.1636 573.76 58.2012 574.046L57.7949 574.858C56.043 574.566 54.3037 573.595 53.5801 572.211C52.8564 573.608 51.1235 574.566 49.3652 574.858L48.959 574.046C50.9966 573.76 53.0596 572.415 53.0596 570.796V570.148H54.0879V570.796ZM48.4258 576.94V576.103H58.709V576.94H54.0371V581.028H53.0596V576.94H48.4258ZM69.7969 569.742V581.028H68.8193V575.188H67.1943V580.444H66.2549V569.996H67.1943V574.338H68.8193V569.742H69.7969ZM60.7324 578.108V571.126H61.7227V577.22C62.8398 577.213 64.0459 577.131 65.417 576.852L65.5439 577.74C63.9697 578.026 62.6748 578.108 61.4307 578.108H60.7324ZM81.2529 577.017V581.028H80.25V577.816H73.6611V577.017H81.2529ZM72.0742 573.081C72.0679 571.507 73.3184 570.383 75.0068 570.39C75.9844 570.383 76.8159 570.771 77.3364 571.405H80.25V569.742H81.2529V576.395H80.25V574.77H77.3428C76.8223 575.411 75.9907 575.792 75.0068 575.785C73.3184 575.798 72.0679 574.687 72.0742 573.081ZM73.0264 573.081C73.0264 574.179 73.8516 574.947 75.0068 574.947C76.1177 574.947 76.9619 574.179 76.9619 573.081C76.9619 572.021 76.1177 571.24 75.0068 571.24C73.8516 571.24 73.0264 572.021 73.0264 573.081ZM77.7935 573.944H80.25V572.23H77.7871C77.876 572.497 77.9268 572.776 77.9268 573.081C77.9268 573.386 77.876 573.678 77.7935 573.944ZM92.9375 569.742V581.054H91.9346V569.742H92.9375ZM84.0508 574.554C84.0571 572.154 85.2505 570.625 86.9326 570.618C88.6084 570.625 89.8208 572.154 89.8145 574.554C89.8208 576.959 88.6084 578.483 86.9326 578.477C85.2505 578.483 84.0571 576.959 84.0508 574.554ZM85.0156 574.554C85.0156 576.388 85.8027 577.594 86.9326 577.588C88.0688 577.594 88.8496 576.388 88.8496 574.554C88.8496 572.719 88.0688 571.513 86.9326 571.507C85.8027 571.513 85.0156 572.719 85.0156 574.554ZM102.951 577.321C102.945 578.318 103.484 579.378 104.557 579.987C105.636 579.321 106.208 578.191 106.201 577.321V576.699H107.179V577.321C107.172 578.483 108.029 579.638 109.477 580.14L108.981 580.876C107.852 580.476 107.064 579.689 106.671 578.743C106.322 579.657 105.63 580.527 104.589 580.965C103.491 580.546 102.792 579.721 102.456 578.775C102.05 579.683 101.275 580.47 100.196 580.876L99.6885 580.14C101.117 579.606 101.974 578.4 101.986 577.321V576.699H102.951V577.321ZM99.3965 573.056C99.3901 571.481 100.641 570.409 102.354 570.415C104.068 570.409 105.306 571.481 105.312 573.056C105.306 574.604 104.068 575.671 102.354 575.671C100.641 575.671 99.3901 574.604 99.3965 573.056ZM100.374 573.056C100.361 574.103 101.193 574.839 102.354 574.846C103.503 574.839 104.335 574.103 104.335 573.056C104.335 572.002 103.503 571.253 102.354 571.266C101.193 571.253 100.361 572.002 100.374 573.056ZM107.458 576.204V569.755H108.448V576.204H107.458ZM119.993 573.17V573.97H112.262V570.161H113.252V573.17H119.993ZM110.853 576.318V575.506H121.187V576.318H110.853ZM112.198 580.749V577.474H113.188V579.924H120.057V580.749H112.198ZM132.262 569.742V581.028H131.297V569.742H132.262ZM123.045 578.312V571.139H127.298V571.964H124.01V577.474C125.641 577.461 126.669 577.404 127.882 577.131L127.983 577.981C126.676 578.248 125.571 578.305 123.756 578.312H123.045ZM126.536 574.896V574.059H128.999V570.021H129.951V580.444H128.999V574.896H126.536ZM147.417 569.755V578.032H146.427V569.755H147.417ZM138.213 575.62C139.92 574.954 141.082 573.303 141.082 571.52V570.39H142.098V571.52C142.085 573.24 143.259 574.782 144.941 575.392L144.421 576.191C143.113 575.69 142.098 574.674 141.596 573.373C141.107 574.757 140.079 575.868 138.759 576.395L138.213 575.62ZM140.13 580.787V577.271H141.12V579.949H147.772V580.787H140.13ZM158.695 570.479V571.342C158.695 572.351 158.695 573.614 158.378 575.404H160.117V576.229H157.4V581.028H156.41V576.229H153.516V581.028H152.525V576.229H149.834V575.404H157.356C157.724 573.633 157.724 572.345 157.73 571.342V571.304H151.154V570.479H158.695ZM174.676 569.742V575.874H173.686V573.322H171.4V572.484H173.686V569.742H174.676ZM165.383 575.277C167.046 574.674 168.252 573.183 168.252 571.583V571.253H165.7V570.428H171.781V571.253H169.255V571.583C169.255 573.03 170.385 574.452 172.035 575.023L171.515 575.798C170.245 575.334 169.261 574.389 168.772 573.233C168.29 574.528 167.243 575.576 165.903 576.064L165.383 575.277ZM167.414 580.876V576.42H168.417V577.829H173.686V576.42H174.676V580.876H167.414ZM168.417 580.063H173.686V578.629H168.417V580.063ZM182.729 570.796C182.736 572.389 184.805 573.76 186.843 574.046L186.437 574.858C184.685 574.566 182.945 573.595 182.222 572.211C181.498 573.608 179.765 574.566 178.007 574.858L177.601 574.046C179.638 573.76 181.701 572.415 181.701 570.796V570.148H182.729V570.796ZM177.067 576.94V576.103H187.351V576.94H182.679V581.028H181.701V576.94H177.067ZM199.137 578.794V579.632H188.803V578.794H193.449V576.661H190.098V573.183H196.852V571.405H190.072V570.58H197.829V573.995H191.088V575.836H198.096V576.661H194.427V578.794H199.137ZM208.363 572.167C208.37 573.69 209.569 575.062 211.258 575.595L210.75 576.395C209.436 575.944 208.395 575.017 207.881 573.83C207.392 575.112 206.332 576.128 204.986 576.623L204.466 575.823C206.161 575.233 207.354 573.767 207.36 572.167V571.507H204.72V570.694H210.966V571.507H208.363V572.167ZM206.332 580.787V577.245H207.322V579.949H213.975V580.787H206.332ZM212.629 578.032V569.755H213.619V578.032H212.629ZM225.621 569.742V576.89H224.669V573.652H223.158V576.483H222.219V569.971H223.158V572.827H224.669V569.742H225.621ZM215.973 571.9V571.101H218.385V569.831H219.375V571.101H221.762V571.9H215.973ZM216.468 574.439C216.461 573.259 217.458 572.503 218.88 572.51C220.308 572.503 221.298 573.259 221.305 574.439C221.298 575.601 220.308 576.356 218.88 576.356C217.458 576.356 216.461 575.601 216.468 574.439ZM217.356 574.439C217.356 575.131 217.979 575.607 218.88 575.607C219.781 575.607 220.403 575.131 220.403 574.439C220.403 573.722 219.781 573.246 218.88 573.246C217.979 573.246 217.356 573.722 217.356 574.439ZM218.105 579.061C218.093 577.791 219.508 577.08 221.889 577.08C224.263 577.08 225.678 577.791 225.685 579.061C225.678 580.298 224.263 581.003 221.889 581.003C219.508 581.003 218.093 580.298 218.105 579.061ZM219.096 579.061C219.083 579.791 220.13 580.235 221.889 580.229C223.641 580.235 224.682 579.791 224.694 579.061C224.682 578.286 223.641 577.854 221.889 577.867C220.13 577.854 219.083 578.286 219.096 579.061ZM231.783 572.776C231.777 574.839 233.18 576.909 234.843 577.664L234.233 578.451C232.945 577.829 231.834 576.49 231.294 574.884C230.774 576.585 229.663 578.013 228.343 578.68L227.708 577.842C229.39 577.074 230.78 574.916 230.793 572.776V570.72H231.783V572.776ZM236.074 581.054V569.742H237.077V581.054H236.074ZM253.604 578.756V579.581H243.27V578.756H247.916V576.318H244.488V570.542H245.491V572.586H251.356V570.542H252.334V576.318H248.894V578.756H253.604ZM245.491 575.506H251.356V573.398H245.491V575.506ZM264.361 569.742V576.585H263.358V574.008H261.441V573.183H263.358V569.742H264.361ZM255.018 571.748V570.936H257.823V569.641H258.801V570.936H261.606V571.748H255.018ZM255.69 574.338C255.69 573.157 256.776 572.332 258.306 572.332C259.842 572.332 260.921 573.157 260.934 574.338C260.921 575.557 259.842 576.356 258.306 576.356C256.776 576.356 255.69 575.557 255.69 574.338ZM256.643 574.338C256.643 575.087 257.322 575.582 258.306 575.595C259.29 575.582 259.969 575.087 259.969 574.338C259.969 573.614 259.29 573.106 258.306 573.106C257.322 573.106 256.643 573.614 256.643 574.338ZM256.985 580.876V577.194H264.361V580.876H256.985ZM257.976 580.063H263.384V577.994H257.976V580.063ZM275.716 570.352V571.189C275.716 572.065 275.716 573.094 275.417 574.503H277.074V575.328H266.74V574.503H274.415C274.732 573.081 274.732 572.065 274.726 571.189V571.177H268.048V570.352H275.716ZM268.01 580.876V576.89H275.767V580.876H268.01ZM269 580.063H274.776V577.677H269V580.063ZM286.275 573.208C286.282 575.125 287.672 577.074 289.335 577.791L288.776 578.578C287.456 577.981 286.32 576.68 285.793 575.119C285.266 576.775 284.124 578.21 282.835 578.857L282.238 578.07C283.857 577.296 285.266 575.163 285.272 573.208V571.735H282.606V570.91H288.967V571.735H286.275V573.208ZM290.541 581.028V569.742H291.544V581.028H290.541ZM296.31 576.204V577.702H301.959V576.204H302.949V580.876H295.319V576.204H296.31ZM293.974 575.188V574.363H301.661C301.965 572.96 301.965 571.951 301.959 571.088H295.281V570.263H302.949V571.088C302.949 571.951 302.949 572.954 302.638 574.363H304.308V575.188H293.974ZM296.31 580.063H301.959V578.489H296.31V580.063ZM315.015 569.742V581.054H314.012V569.742H315.015ZM306.128 574.554C306.134 572.154 307.328 570.625 309.01 570.618C310.686 570.625 311.898 572.154 311.892 574.554C311.898 576.959 310.686 578.483 309.01 578.477C307.328 578.483 306.134 576.959 306.128 574.554ZM307.093 574.554C307.093 576.388 307.88 577.594 309.01 577.588C310.146 577.594 310.927 576.388 310.927 574.554C310.927 572.719 310.146 571.513 309.01 571.507C307.88 571.513 307.093 572.719 307.093 574.554ZM325.244 573.208C325.25 575.125 326.641 577.074 328.304 577.791L327.745 578.578C326.425 577.981 325.289 576.68 324.762 575.119C324.235 576.775 323.092 578.21 321.804 578.857L321.207 578.07C322.826 577.296 324.235 575.163 324.241 573.208V571.735H321.575V570.91H327.936V571.735H325.244V573.208ZM329.51 581.028V569.742H330.513V581.028H329.51ZM18.8135 587.755V596.096H17.8105V593.049H14.8906C14.3701 593.715 13.5322 594.115 12.5674 594.115C10.8789 594.115 9.62842 592.947 9.63477 591.297C9.62842 589.64 10.8789 588.472 12.5674 588.466C13.5259 588.472 14.3511 588.866 14.8779 589.52H17.8105V587.755H18.8135ZM10.5869 591.297C10.5869 592.427 11.4121 593.233 12.5674 593.227C13.6782 593.233 14.5225 592.427 14.5225 591.297C14.5225 590.173 13.6782 589.361 12.5674 589.354C11.4121 589.361 10.5869 590.173 10.5869 591.297ZM11.5645 598.787V595.22H12.5674V597.949H19.1309V598.787H11.5645ZM15.3286 590.345C15.4302 590.637 15.4873 590.954 15.4873 591.297C15.4873 591.627 15.4302 591.938 15.335 592.224H17.8105V590.345H15.3286ZM27.7559 590.726V591.513H25.4834V592.662C26.5498 592.611 27.6226 592.535 28.6191 592.414L28.6699 593.112C26.2578 593.487 23.5347 593.557 21.3955 593.557L21.2559 592.757C22.2461 592.757 23.3506 592.744 24.4805 592.7V591.513H22.2969V588.237H27.6289V589.012H23.3252V590.726H27.7559ZM23.0205 595.144V594.344H30.5107V596.959H24.0361V598.089H30.917V598.901H23.0459V596.197H29.5332V595.144H23.0205ZM29.5205 593.836V587.755H30.5107V593.836H29.5205ZM42.3525 588.796C42.3589 590.389 44.4282 591.76 46.4658 592.046L46.0596 592.858C44.3076 592.566 42.5684 591.595 41.8447 590.211C41.1211 591.608 39.3882 592.566 37.6299 592.858L37.2236 592.046C39.2612 591.76 41.3242 590.415 41.3242 588.796V588.148H42.3525V588.796ZM36.6904 594.94V594.103H46.9736V594.94H42.3018V599.028H41.3242V594.94H36.6904ZM56.0098 595.321C56.0034 596.318 56.543 597.378 57.6157 597.987C58.6948 597.321 59.2661 596.191 59.2598 595.321V594.699H60.2373V595.321C60.231 596.483 61.0879 597.638 62.5352 598.14L62.04 598.876C60.9102 598.476 60.123 597.689 59.7295 596.743C59.3804 597.657 58.6885 598.527 57.6475 598.965C56.5493 598.546 55.8511 597.721 55.5146 596.775C55.1084 597.683 54.334 598.47 53.2549 598.876L52.7471 598.14C54.1753 597.606 55.0322 596.4 55.0449 595.321V594.699H56.0098V595.321ZM52.4551 591.056C52.4487 589.481 53.6992 588.409 55.4131 588.415C57.127 588.409 58.3647 589.481 58.3711 591.056C58.3647 592.604 57.127 593.671 55.4131 593.671C53.6992 593.671 52.4487 592.604 52.4551 591.056ZM53.4326 591.056C53.4199 592.103 54.2515 592.839 55.4131 592.846C56.562 592.839 57.3936 592.103 57.3936 591.056C57.3936 590.002 56.562 589.253 55.4131 589.266C54.2515 589.253 53.4199 590.002 53.4326 591.056ZM60.5166 594.204V587.755H61.5068V594.204H60.5166ZM66.958 588.618C68.4941 588.625 69.605 589.945 69.7573 592.059H72.29V587.742H73.2803V599.054H72.29V592.884H69.77C69.6621 595.099 68.5322 596.483 66.958 596.477C65.2886 596.483 64.1206 594.959 64.127 592.554C64.1206 590.154 65.2886 588.625 66.958 588.618ZM65.0791 592.554C65.0854 594.388 65.8472 595.594 66.958 595.588C68.0625 595.594 68.8369 594.388 68.8369 592.554C68.8369 590.719 68.0625 589.513 66.958 589.507C65.8472 589.513 65.0854 590.719 65.0791 592.554ZM85.9932 596.743V597.581H75.6592V596.743H78.2236V593.703C77.2588 593.201 76.6748 592.389 76.6748 591.36C76.6748 589.615 78.3887 588.466 80.8008 588.453C83.2129 588.466 84.9268 589.615 84.9268 591.36C84.9268 592.37 84.3618 593.169 83.4287 593.671V596.743H85.9932ZM77.6396 591.36C77.6333 592.624 78.9473 593.468 80.8008 593.468C82.6353 593.468 83.9619 592.624 83.9619 591.36C83.9619 590.097 82.6353 589.266 80.8008 589.278C78.9473 589.266 77.6333 590.097 77.6396 591.36ZM79.2012 596.743H82.4258V594.058C81.937 594.185 81.3911 594.255 80.8008 594.255C80.2231 594.255 79.6836 594.191 79.2012 594.064V596.743ZM89.2227 588.809L89.1338 595.41H88.0674L87.9785 588.809H89.2227ZM87.7881 597.251C87.7754 596.807 88.1562 596.438 88.6006 596.438C89.0513 596.438 89.4194 596.807 89.4131 597.251C89.4194 597.702 89.0513 598.07 88.6006 598.076C88.1562 598.07 87.7754 597.702 87.7881 597.251Z" fill="#999999"/>
<path d="M11.5664 96.3086V97.2109H6.54883V101.135H5.49609V97.2109H0.492188V96.3086H11.5664ZM1.18945 94.5039C3.35645 94.21 5.48926 92.8838 5.49609 91.3594V91.3457H1.57227V90.4707H5.49609V88.9531H6.54883V90.4707H10.5V91.3457H6.5625V91.3594C6.5625 92.877 8.68164 94.21 10.8555 94.5039L10.459 95.3652C8.5791 95.0781 6.80859 94.1348 6.03613 92.8154C5.26367 94.1484 3.46582 95.0781 1.58594 95.3652L1.18945 94.5039ZM21.998 88.9531V93.9023H23.9668V94.8047H21.998V101.107H20.9316V88.9531H21.998ZM12.6738 97.9492C15.8115 96.3906 17.5205 94.0459 17.7666 91.168H13.2344V90.2656H18.8535C18.8467 93.7041 17.2334 96.8418 13.2754 98.7969L12.6738 97.9492ZM38.2676 88.9531V95.5566H37.2012V92.8086H34.7402V91.9062H37.2012V88.9531H38.2676ZM28.2598 94.9141C30.0508 94.2646 31.3496 92.6582 31.3496 90.9355V90.5801H28.6016V89.6914H35.1504V90.5801H32.4297V90.9355C32.4297 92.4941 33.6465 94.0254 35.4238 94.6406L34.8633 95.4746C33.4961 94.9756 32.4365 93.957 31.9102 92.7129C31.3906 94.1074 30.2627 95.2354 28.8203 95.7617L28.2598 94.9141ZM30.4473 100.943V96.1445H31.5273V97.6621H37.2012V96.1445H38.2676V100.943H30.4473ZM31.5273 100.068H37.2012V98.5234H31.5273V100.068ZM46.4023 90.0879C46.4092 91.8037 48.6377 93.2803 50.832 93.5879L50.3945 94.4629C48.5078 94.1484 46.6348 93.1025 45.8555 91.6123C45.0762 93.1162 43.21 94.1484 41.3164 94.4629L40.8789 93.5879C43.0732 93.2803 45.2949 91.8311 45.2949 90.0879V89.3906H46.4023V90.0879ZM40.3047 96.7051V95.8027H51.3789V96.7051H46.3477V101.107H45.2949V96.7051H40.3047ZM65.3242 88.9531V93.9023H67.293V94.8047H65.3242V101.107H64.2578V88.9531H65.3242ZM56 97.9492C59.1377 96.3906 60.8467 94.0459 61.0928 91.168H56.5605V90.2656H62.1797C62.1729 93.7041 60.5596 96.8418 56.6016 98.7969L56 97.9492ZM77.834 92.3574V93.2461H69.5352V89.1992H70.6016V92.3574H77.834ZM68.0176 95.5566V94.668H79.1055V95.5566H68.0176ZM69.3574 98.8516C69.3506 97.4365 70.9297 96.6436 73.5547 96.6504C76.1592 96.6436 77.7246 97.4365 77.7383 98.8516C77.7246 100.26 76.1592 101.053 73.5547 101.053C70.9297 101.053 69.3506 100.26 69.3574 98.8516ZM70.4512 98.8516C70.4375 99.6992 71.6064 100.212 73.5547 100.219C75.4824 100.212 76.6514 99.6992 76.6582 98.8516C76.6514 97.9902 75.4824 97.5049 73.5547 97.498C71.6064 97.5049 70.4375 97.9902 70.4512 98.8516ZM89.6191 88.9668V92.9727H91.4512V93.875H89.6191V98.0723H88.5527V88.9668H89.6191ZM80.1445 91.332V90.457H83.2344V88.9668H84.3008V90.457H87.3906V91.332H80.1445ZM80.8418 94.2715C80.835 92.8906 82.0107 92.002 83.7676 92.002C85.5039 92.002 86.6797 92.8906 86.6934 94.2715C86.6797 95.6387 85.5039 96.5205 83.7676 96.5137C82.0107 96.5205 80.835 95.6387 80.8418 94.2715ZM81.8672 94.2715C81.8604 95.126 82.6191 95.6797 83.7676 95.666C84.9023 95.6797 85.668 95.126 85.6816 94.2715C85.668 93.4033 84.9023 92.8428 83.7676 92.8496C82.6191 92.8428 81.8604 93.4033 81.8672 94.2715ZM82.0176 100.848V97.3477H83.0703V99.9453H90.1797V100.848H82.0176ZM106.107 88.9531V101.107H105.055V94.8184H103.305V100.479H102.293V89.2266H103.305V93.9023H105.055V88.9531H106.107ZM96.3457 97.9629V90.4434H97.4121V97.0059C98.6152 96.999 99.9141 96.9102 101.391 96.6094L101.527 97.5664C99.832 97.874 98.4375 97.9629 97.0977 97.9629H96.3457ZM117.906 96.7871V101.107H116.826V97.6484H109.73V96.7871H117.906ZM108.021 92.5488C108.015 90.8535 109.361 89.6436 111.18 89.6504C112.232 89.6436 113.128 90.0605 113.688 90.7441H116.826V88.9531H117.906V96.1172H116.826V94.3672H113.695C113.135 95.0576 112.239 95.4678 111.18 95.4609C109.361 95.4746 108.015 94.2783 108.021 92.5488ZM109.047 92.5488C109.047 93.7314 109.936 94.5586 111.18 94.5586C112.376 94.5586 113.285 93.7314 113.285 92.5488C113.285 91.4072 112.376 90.5664 111.18 90.5664C109.936 90.5664 109.047 91.4072 109.047 92.5488ZM114.181 93.4785H116.826V91.6328H114.174C114.27 91.9199 114.324 92.2207 114.324 92.5488C114.324 92.877 114.27 93.1914 114.181 93.4785Z" fill="#999999"/>
<rect x="0.5" y="112.5" width="333.997" height="79" rx="15.5" fill="white"/>
<rect x="0.5" y="112.5" width="333.997" height="79" rx="15.5" stroke="#E8E8E8"/>
<path d="M35.7031 133.734V138.094H37.625V139.719H35.7031V144.344H33.7031V133.734H35.7031ZM24.4219 136.797V135.219H27.6562V133.703H29.6406V135.219H32.8594V136.797H24.4219ZM25.1094 140.047C25.1094 138.398 26.5703 137.297 28.6406 137.297C30.7031 137.297 32.1406 138.398 32.1406 140.047C32.1406 141.688 30.7031 142.766 28.6406 142.766C26.5703 142.766 25.1094 141.688 25.1094 140.047ZM26.4844 147.688V143.531H28.4688V146.094H36.2188V147.688H26.4844ZM27.0625 140.047C27.0547 140.828 27.6875 141.25 28.6406 141.25C29.6016 141.25 30.25 140.828 30.25 140.047C30.25 139.258 29.6016 138.82 28.6406 138.812C27.6875 138.82 27.0547 139.258 27.0625 140.047ZM49.625 133.719V139.5H51.4844V141.156H49.625V147.938H47.6094V133.719H49.625ZM38.0781 143.922C39.1172 143.922 40.3281 143.922 41.5938 143.891V142.672C40.0859 142.375 39.1016 141.414 39.1094 140.094C39.1016 138.508 40.5391 137.422 42.6094 137.422C44.6406 137.422 46.0938 138.508 46.1094 140.094C46.0938 141.414 45.0938 142.383 43.5938 142.672V143.82C44.7188 143.758 45.8516 143.664 46.9062 143.516L47.0312 144.969C44.0078 145.531 40.7422 145.555 38.3438 145.547L38.0781 143.922ZM38.3594 136.859V135.297H41.5938V133.797H43.5938V135.297H46.7969V136.859H38.3594ZM41 140.094C40.9922 140.844 41.6328 141.25 42.6094 141.25C43.5547 141.25 44.1875 140.844 44.1875 140.094C44.1875 139.359 43.5547 138.945 42.6094 138.938C41.6328 138.945 40.9922 139.359 41 140.094ZM61.2969 136.938C61.2891 139.547 62.4766 142.164 64.8906 143.188L63.7188 144.781C62.0938 144.047 60.9688 142.625 60.3203 140.867C59.6797 142.789 58.5156 144.336 56.7812 145.125L55.5781 143.469C58.0625 142.422 59.2734 139.695 59.2812 136.938V134.812H61.2969V136.938ZM65.6562 147.969V133.719H67.6719V147.969H65.6562ZM80.9688 135.031V136.734C80.9609 138.688 80.9609 140.617 80.4531 143.562L78.4375 143.391C78.9766 140.656 78.9766 138.625 78.9844 136.734V136.625H70.9375V135.031H80.9688ZM69.5938 146.078V144.438H82.5625V146.078H69.5938ZM95.375 133.719V147.938H93.3906V133.719H95.375ZM84.1875 144.422V135.078H86.1562V142.727C88.0781 142.695 90.1406 142.516 92.2344 142.109L92.4844 143.75C89.9922 144.273 87.6328 144.43 85.4375 144.422H84.1875ZM109.266 133.719V147.969H107.266V140.781H104.703V139.188H107.266V133.719H109.266ZM97.1875 143.75C99.4766 142.727 100.586 140.305 100.594 138.172V137.625H97.6406V136.031H100.594V134.031H102.594V136.031H105.469V137.625H102.578V138.172C102.57 140.227 103.711 142.523 106.031 143.531L104.969 145.062C103.352 144.391 102.219 143.031 101.594 141.414C100.984 143.133 99.8594 144.578 98.2344 145.281L97.1875 143.75ZM118.688 134.719C119.969 134.719 121.031 135.414 121.68 136.641H124.797V133.719H126.766V147.969H124.797V142.641H121.828C121.195 144.047 120.062 144.859 118.688 144.859C116.531 144.859 114.984 142.906 115 139.781C114.984 136.68 116.531 134.719 118.688 134.719ZM116.906 139.781C116.898 141.898 117.625 143.055 118.688 143.047C119.758 143.055 120.469 141.898 120.469 139.781C120.469 137.672 119.758 136.516 118.688 136.516C117.625 136.516 116.898 137.672 116.906 139.781ZM122.234 138.25C122.328 138.719 122.375 139.234 122.375 139.781C122.375 140.227 122.344 140.648 122.281 141.047H124.797V138.25H122.234ZM133.969 135.656C133.961 137.555 134.938 139.312 137.219 140.016L136.172 141.578C134.641 141.047 133.602 140.07 133 138.789C132.375 140.273 131.227 141.438 129.516 142.016L128.469 140.422C130.898 139.641 131.945 137.734 131.953 135.75V134.453H133.969V135.656ZM130.828 145.188C130.828 143.438 132.688 142.414 135.719 142.422C138.758 142.414 140.617 143.438 140.625 145.188C140.617 146.945 138.758 147.945 135.719 147.938C132.688 147.945 130.828 146.945 130.828 145.188ZM132.812 145.188C132.812 145.977 133.836 146.391 135.719 146.391C137.609 146.391 138.633 145.977 138.641 145.188C138.633 144.375 137.609 143.969 135.719 143.969C133.836 143.969 132.812 144.375 132.812 145.188ZM135.922 137.953V136.328H138.594V133.719H140.578V142.047H138.594V137.953H135.922ZM158.094 133.734V144.125H156.109V139.484H153.562V137.844H156.109V133.734H158.094ZM146.297 141.125C149.242 140.203 151.148 138.5 151.516 136.406H147.031V134.781H153.688C153.688 138.594 151.266 141.414 147.109 142.703L146.297 141.125ZM148.719 147.688V143.078H150.75V146.094H158.453V147.688H148.719ZM171.219 133.719V137.062H173.141V138.688H171.219V141.969H169.219V133.719H171.219ZM159.844 140.672C162.977 139.844 164.766 138.219 165.078 136.25H160.516V134.656H167.25C167.258 138.445 164.875 141.102 160.641 142.281L159.844 140.672ZM161.766 145.047C161.75 143.266 163.688 142.141 166.578 142.141C169.477 142.141 171.367 143.266 171.375 145.047C171.367 146.844 169.477 147.953 166.578 147.953C163.688 147.953 161.75 146.844 161.766 145.047ZM163.734 145.047C163.727 145.906 164.789 146.398 166.578 146.391C168.344 146.398 169.406 145.906 169.406 145.047C169.406 144.172 168.344 143.688 166.578 143.688C164.789 143.688 163.727 144.172 163.734 145.047ZM186.781 144.656V146.281H173.766V144.656H179.25V142.031H175.141V134.625H177.141V136.828H183.344V134.625H185.328V142.031H181.234V144.656H186.781ZM177.141 140.438H183.344V138.422H177.141V140.438ZM199.578 133.719V142.312H197.594V139.516H195.75V137.891H197.594V133.719H199.578ZM187.625 136.547V134.953H190.844V133.594H192.812V134.953H196V136.547H187.625ZM188.406 139.562C188.406 138.078 189.836 137.016 191.828 137.016C193.828 137.016 195.234 138.078 195.234 139.562C195.234 141.117 193.82 142.133 191.828 142.141C189.836 142.133 188.406 141.117 188.406 139.562ZM190.016 147.781V142.922H199.578V147.781H190.016ZM190.328 139.562C190.312 140.281 190.898 140.664 191.828 140.672C192.734 140.664 193.328 140.281 193.328 139.562C193.328 138.891 192.734 138.508 191.828 138.516C190.898 138.508 190.312 138.891 190.328 139.562ZM192.016 146.188H197.625V144.484H192.016V146.188ZM205.578 146.5L205.562 144.797L209.625 141.062C210.68 140.055 211.25 139.43 211.25 138.531C211.25 137.523 210.492 136.898 209.453 136.906C208.391 136.898 207.695 137.57 207.703 138.656H205.469C205.461 136.445 207.102 135.031 209.484 135.031C211.906 135.031 213.516 136.414 213.516 138.375C213.516 139.664 212.891 140.719 210.562 142.828L208.844 144.5V144.562H213.672V146.5H205.578ZM216.719 146.641C215.984 146.641 215.391 146.055 215.406 145.328C215.391 144.609 215.984 144.023 216.719 144.031C217.414 144.023 218.016 144.609 218.016 145.328C218.016 146.055 217.414 146.641 216.719 146.641ZM223.781 146.656C220.945 146.656 219.234 144.547 219.234 140.844C219.234 137.148 220.961 135.031 223.781 135.031C226.602 135.031 228.328 137.148 228.328 140.844C228.328 144.562 226.609 146.656 223.781 146.656ZM221.641 140.844C221.625 143.453 222.469 144.719 223.781 144.719C225.094 144.719 225.93 143.453 225.922 140.844C225.93 138.258 225.086 136.961 223.781 136.953C222.477 136.961 221.641 138.258 221.641 140.844Z" fill="black"/>
<path d="M24.9297 169.5L24.916 168.598L28.293 165.043C29.4619 163.799 30.0225 163.129 30.0293 162.213C30.0225 161.194 29.1748 160.538 28.0605 160.531C26.8779 160.538 26.1396 161.283 26.1328 162.391H24.9707C24.957 160.641 26.3105 159.465 28.1016 159.465C29.8994 159.465 31.1709 160.675 31.1777 162.213C31.1709 163.32 30.6582 164.182 28.9082 165.986L26.6387 168.324V168.406H31.3555V169.5H24.9297ZM36.3867 169.637C34.1924 169.637 32.9209 167.791 32.9277 164.551C32.9209 161.338 34.2061 159.465 36.3867 159.465C38.5605 159.465 39.8457 161.338 39.8457 164.551C39.8457 167.791 38.5811 169.637 36.3867 169.637ZM34.1172 164.551C34.124 167.114 34.9512 168.543 36.3867 168.543C37.8154 168.543 38.6494 167.114 38.6426 164.551C38.6494 161.987 37.8086 160.538 36.3867 160.531C34.9648 160.538 34.124 161.987 34.1172 164.551ZM41.4863 169.5L41.4727 168.598L44.8496 165.043C46.0186 163.799 46.5791 163.129 46.5859 162.213C46.5791 161.194 45.7314 160.538 44.6172 160.531C43.4346 160.538 42.6963 161.283 42.6895 162.391H41.5273C41.5137 160.641 42.8672 159.465 44.6582 159.465C46.4561 159.465 47.7275 160.675 47.7344 162.213C47.7275 163.32 47.2148 164.182 45.4648 165.986L43.1953 168.324V168.406H47.9121V169.5H41.4863ZM53.1211 169.637C51.1523 169.637 49.7373 168.584 49.6758 167.012H50.9199C50.9883 167.955 51.9248 168.543 53.1074 168.543C54.4131 168.543 55.3564 167.839 55.3633 166.807C55.3564 165.727 54.4951 164.968 52.957 164.961H52.1504V163.881H52.957C54.1602 163.881 55.001 163.204 54.9941 162.186C55.001 161.194 54.2764 160.538 53.1484 160.531C52.0889 160.538 51.125 161.119 51.0703 162.09H49.8809C49.9424 160.518 51.4053 159.465 53.1621 159.465C55.0488 159.465 56.1973 160.702 56.1836 162.117C56.1973 163.245 55.541 164.065 54.502 164.359V164.428C55.7939 164.626 56.5732 165.549 56.5664 166.807C56.5732 168.434 55.0967 169.637 53.1211 169.637ZM58.877 169.582C58.3984 169.575 57.9883 169.179 58.002 168.693C57.9883 168.215 58.3984 167.818 58.877 167.818C59.3623 167.818 59.7588 168.215 59.752 168.693C59.7588 169.179 59.3623 169.575 58.877 169.582ZM64.4688 169.637C62.2744 169.637 61.0029 167.791 61.0098 164.551C61.0029 161.338 62.2881 159.465 64.4688 159.465C66.6426 159.465 67.9277 161.338 67.9277 164.551C67.9277 167.791 66.6631 169.637 64.4688 169.637ZM62.1992 164.551C62.2061 167.114 63.0332 168.543 64.4688 168.543C65.8975 168.543 66.7314 167.114 66.7246 164.551C66.7314 161.987 65.8906 160.538 64.4688 160.531C63.0469 160.538 62.2061 161.987 62.1992 164.551ZM72.9863 169.637C71.0176 169.637 69.6025 168.584 69.541 167.012H70.7852C70.8535 167.955 71.79 168.543 72.9727 168.543C74.2783 168.543 75.2217 167.839 75.2285 166.807C75.2217 165.727 74.3604 164.968 72.8223 164.961H72.0156V163.881H72.8223C74.0254 163.881 74.8662 163.204 74.8594 162.186C74.8662 161.194 74.1416 160.538 73.0137 160.531C71.9541 160.538 70.9902 161.119 70.9355 162.09H69.7461C69.8076 160.518 71.2705 159.465 73.0273 159.465C74.9141 159.465 76.0625 160.702 76.0488 162.117C76.0625 163.245 75.4062 164.065 74.3672 164.359V164.428C75.6592 164.626 76.4385 165.549 76.4316 166.807C76.4385 168.434 74.9619 169.637 72.9863 169.637ZM78.7422 169.582C78.2637 169.575 77.8535 169.179 77.8672 168.693C77.8535 168.215 78.2637 167.818 78.7422 167.818C79.2275 167.818 79.624 168.215 79.6172 168.693C79.624 169.179 79.2275 169.575 78.7422 169.582ZM84.334 169.637C82.1396 169.637 80.8682 167.791 80.875 164.551C80.8682 161.338 82.1533 159.465 84.334 159.465C86.5078 159.465 87.793 161.338 87.793 164.551C87.793 167.791 86.5283 169.637 84.334 169.637ZM82.0645 164.551C82.0713 167.114 82.8984 168.543 84.334 168.543C85.7627 168.543 86.5967 167.114 86.5898 164.551C86.5967 161.987 85.7559 160.538 84.334 160.531C82.9121 160.538 82.0713 161.987 82.0645 164.551ZM92.6602 169.637C90.876 169.637 89.5225 168.536 89.4473 167.012H90.6367C90.7256 167.894 91.5869 168.55 92.6602 168.557C93.9453 168.55 94.875 167.613 94.875 166.369C94.875 165.084 93.9111 164.134 92.5781 164.127C91.7441 164.113 91.0947 164.373 90.7324 165.016H89.543L90.2402 159.602H95.5996V160.695H91.2656L90.8965 163.594H90.9922C91.4365 163.252 92.0996 163.02 92.7969 163.02C94.6836 163.02 96.0713 164.414 96.0781 166.342C96.0713 168.256 94.6357 169.637 92.6602 169.637ZM125.719 158.467V167.381H124.652V158.467H125.719ZM115.807 164.783C117.646 164.065 118.896 162.288 118.896 160.367V159.15H119.99V160.367C119.977 162.22 121.241 163.881 123.053 164.537L122.492 165.398C121.084 164.858 119.99 163.765 119.45 162.363C118.924 163.854 117.816 165.05 116.395 165.617L115.807 164.783ZM117.871 170.348V166.561H118.938V169.445H126.102V170.348H117.871ZM131.926 161.064C131.933 162.575 133.238 163.942 135.029 164.469L134.51 165.303C133.102 164.879 131.98 163.963 131.427 162.767C130.907 164.093 129.793 165.139 128.344 165.617L127.824 164.797C129.608 164.195 130.866 162.712 130.873 161.064V160.805H128.125V159.943H130.873V158.398H131.953V159.943H134.674V160.805H131.926V161.064ZM129.752 168.365C129.745 166.95 131.297 166.144 133.826 166.15C136.349 166.144 137.9 166.95 137.9 168.365C137.9 169.773 136.349 170.58 133.826 170.58C131.297 170.58 129.745 169.773 129.752 168.365ZM130.818 168.365C130.812 169.213 131.96 169.732 133.826 169.732C135.692 169.732 136.834 169.213 136.834 168.365C136.834 167.497 135.692 166.998 133.826 166.984C131.96 166.998 130.812 167.497 130.818 168.365ZM134.291 162.828V161.939H136.779V158.453H137.859V165.822H136.779V162.828H134.291ZM143.588 159.027C145.365 159.027 146.603 159.984 146.609 161.434C146.603 162.691 145.625 163.594 144.162 163.778V164.968C145.297 164.906 146.452 164.804 147.512 164.646L147.594 165.453C145.017 165.911 142.104 165.952 140.006 165.945L139.869 165.057C140.812 165.063 141.92 165.057 143.082 165.016V163.785C141.578 163.621 140.573 162.712 140.58 161.434C140.573 159.984 141.811 159.027 143.588 159.027ZM141.592 161.434C141.578 162.356 142.405 162.985 143.588 162.992C144.777 162.985 145.591 162.356 145.598 161.434C145.591 160.49 144.777 159.861 143.588 159.861C142.405 159.861 141.578 160.49 141.592 161.434ZM141.646 170.334V166.957H142.727V169.432H149.809V170.334H141.646ZM148.291 167.764V158.467H149.371V162.582H151.189V163.498H149.371V167.764H148.291ZM163.111 168.201V169.104H151.982V168.201H155.113V165.891H153.377V162.145H160.65V160.244H153.35V159.355H161.703V163.033H154.443V165.002H161.99V165.891H160.09V168.201H163.111ZM156.166 168.201H159.037V165.891H156.166V168.201Z" fill="#999999"/>
<path d="M106.537 158.207V170.895H105.525V158.207H106.537Z" fill="#DDDDDD"/>
<path d="M304.293 146.293C304.654 145.932 305.221 145.905 305.613 146.21L305.707 146.293L310.704 151.293C311.064 151.654 311.092 152.221 310.787 152.613L310.704 152.707L305.707 157.707C305.317 158.098 304.684 158.098 304.293 157.707C303.933 157.347 303.905 156.78 304.21 156.387L304.293 156.293L308.583 151.999L304.293 147.707C303.932 147.346 303.905 146.779 304.21 146.387L304.293 146.293Z" fill="#FF6600"/>
<rect x="0.5" y="200.5" width="333.997" height="79" rx="15.5" fill="white"/>
<rect x="0.5" y="200.5" width="333.997" height="79" rx="15.5" stroke="#E8E8E8"/>
<path d="M35.7031 221.734V226.094H37.625V227.719H35.7031V232.344H33.7031V221.734H35.7031ZM24.4219 224.797V223.219H27.6562V221.703H29.6406V223.219H32.8594V224.797H24.4219ZM25.1094 228.047C25.1094 226.398 26.5703 225.297 28.6406 225.297C30.7031 225.297 32.1406 226.398 32.1406 228.047C32.1406 229.688 30.7031 230.766 28.6406 230.766C26.5703 230.766 25.1094 229.688 25.1094 228.047ZM26.4844 235.688V231.531H28.4688V234.094H36.2188V235.688H26.4844ZM27.0625 228.047C27.0547 228.828 27.6875 229.25 28.6406 229.25C29.6016 229.25 30.25 228.828 30.25 228.047C30.25 227.258 29.6016 226.82 28.6406 226.812C27.6875 226.82 27.0547 227.258 27.0625 228.047ZM49.625 221.719V227.5H51.4844V229.156H49.625V235.938H47.6094V221.719H49.625ZM38.0781 231.922C39.1172 231.922 40.3281 231.922 41.5938 231.891V230.672C40.0859 230.375 39.1016 229.414 39.1094 228.094C39.1016 226.508 40.5391 225.422 42.6094 225.422C44.6406 225.422 46.0938 226.508 46.1094 228.094C46.0938 229.414 45.0938 230.383 43.5938 230.672V231.82C44.7188 231.758 45.8516 231.664 46.9062 231.516L47.0312 232.969C44.0078 233.531 40.7422 233.555 38.3438 233.547L38.0781 231.922ZM38.3594 224.859V223.297H41.5938V221.797H43.5938V223.297H46.7969V224.859H38.3594ZM41 228.094C40.9922 228.844 41.6328 229.25 42.6094 229.25C43.5547 229.25 44.1875 228.844 44.1875 228.094C44.1875 227.359 43.5547 226.945 42.6094 226.938C41.6328 226.945 40.9922 227.359 41 228.094ZM60.4219 234.656C57.9375 234.656 56.1562 233.289 56.1094 231.312H58.4844C58.5234 232.156 59.3438 232.711 60.4375 232.719C61.5625 232.711 62.3672 232.086 62.3594 231.172C62.3672 230.25 61.5469 229.602 60.2188 229.594H59.1719V227.859H60.2188C61.3359 227.859 62.1172 227.25 62.1094 226.359C62.1172 225.492 61.4531 224.898 60.4531 224.906C59.4531 224.898 58.6328 225.461 58.5938 226.328H56.3438C56.3828 224.383 58.1328 223.031 60.4531 223.031C62.8125 223.031 64.3828 224.43 64.375 226.219C64.3828 227.484 63.5 228.383 62.2344 228.609V228.703C63.8984 228.906 64.8125 229.914 64.7969 231.328C64.8125 233.266 62.9766 234.656 60.4219 234.656ZM70.6406 234.656C68.1562 234.656 66.375 233.289 66.3281 231.312H68.7031C68.7422 232.156 69.5625 232.711 70.6562 232.719C71.7812 232.711 72.5859 232.086 72.5781 231.172C72.5859 230.25 71.7656 229.602 70.4375 229.594H69.3906V227.859H70.4375C71.5547 227.859 72.3359 227.25 72.3281 226.359C72.3359 225.492 71.6719 224.898 70.6719 224.906C69.6719 224.898 68.8516 225.461 68.8125 226.328H66.5625C66.6016 224.383 68.3516 223.031 70.6719 223.031C73.0312 223.031 74.6016 224.43 74.5938 226.219C74.6016 227.484 73.7188 228.383 72.4531 228.609V228.703C74.1172 228.906 75.0312 229.914 75.0156 231.328C75.0312 233.266 73.1953 234.656 70.6406 234.656ZM80.8594 234.656C78.375 234.656 76.5938 233.289 76.5469 231.312H78.9219C78.9609 232.156 79.7812 232.711 80.875 232.719C82 232.711 82.8047 232.086 82.7969 231.172C82.8047 230.25 81.9844 229.602 80.6562 229.594H79.6094V227.859H80.6562C81.7734 227.859 82.5547 227.25 82.5469 226.359C82.5547 225.492 81.8906 224.898 80.8906 224.906C79.8906 224.898 79.0703 225.461 79.0312 226.328H76.7812C76.8203 224.383 78.5703 223.031 80.8906 223.031C83.25 223.031 84.8203 224.43 84.8125 226.219C84.8203 227.484 83.9375 228.383 82.6719 228.609V228.703C84.3359 228.906 85.25 229.914 85.2344 231.328C85.25 233.266 83.4141 234.656 80.8594 234.656ZM93.1719 234.5L89.9375 223.188H92.5L94.4062 231.094H94.5L96.5781 223.188H98.7812L100.859 231.109H100.953L102.859 223.188H105.422L102.188 234.5H99.8906L97.7344 227.031H97.6406L95.4688 234.5H93.1719ZM106.625 234.5V223.188H114.219V225.125H108.969V227.875H113.828V229.812H108.969V232.562H114.234V234.5H106.625ZM116.047 234.5V223.188H118.391V232.562H123.266V234.5H116.047ZM124.781 234.5V223.188H127.125V232.562H132V234.5H124.781ZM137.609 223.188V234.5H135.25V225.422H135.188L132.594 227.047V224.969L135.391 223.188H137.609ZM144.625 234.656C141.789 234.656 140.078 232.547 140.078 228.844C140.078 225.148 141.805 223.031 144.625 223.031C147.445 223.031 149.172 225.148 149.172 228.844C149.172 232.562 147.453 234.656 144.625 234.656ZM142.484 228.844C142.469 231.453 143.312 232.719 144.625 232.719C145.938 232.719 146.773 231.453 146.766 228.844C146.773 226.258 145.93 224.961 144.625 224.953C143.32 224.961 142.484 226.258 142.484 228.844ZM155.188 234.656C152.352 234.656 150.641 232.547 150.641 228.844C150.641 225.148 152.367 223.031 155.188 223.031C158.008 223.031 159.734 225.148 159.734 228.844C159.734 232.562 158.016 234.656 155.188 234.656ZM153.047 228.844C153.031 231.453 153.875 232.719 155.188 232.719C156.5 232.719 157.336 231.453 157.328 228.844C157.336 226.258 156.492 224.961 155.188 224.953C153.883 224.961 153.047 226.258 153.047 228.844ZM176.469 221.719V228.922H174.484V221.719H176.469ZM164.516 227.391C166.891 226.68 167.953 224.891 167.953 223.125V222.031H170.031V223.125C170.016 224.852 171.047 226.5 173.375 227.172L172.406 228.703C170.773 228.234 169.648 227.242 169 225.977C168.359 227.359 167.195 228.445 165.5 228.953L164.516 227.391ZM166.938 231.078V229.531H176.484V233.391H168.922V234.266H176.875V235.844H166.969V231.906H174.5V231.078H166.938ZM191.375 228.641V230.234H178.406V228.641H183.891V226.75H185.859V228.641H191.375ZM179.078 226.047C182.219 225.648 183.852 224.023 183.859 222.422V221.953H185.891V222.422C185.883 224.086 187.477 225.648 190.688 226.047L189.922 227.594C187.516 227.234 185.75 226.227 184.852 224.805C183.945 226.219 182.18 227.242 179.781 227.594L179.078 226.047ZM179.844 232.781V231.234H189.797V235.938H187.812V232.781H179.844ZM207.203 221.719V225.703H209.125V227.344H207.203V231.906H205.188V221.719H207.203ZM195.828 228.938C199.016 228.055 200.82 226.406 201.133 224.406H196.453V222.781H203.328C203.32 226.625 200.922 229.312 196.656 230.516L195.828 228.938ZM197.953 235.688V230.859H199.969V234.094H207.688V235.688H197.953ZM221.734 221.719V232.188H219.75V228.688H217.938V227.047H219.75V225.812H217.938V224.219H219.75V221.719H221.734ZM209.75 228.844C210.219 228.844 210.734 228.844 211.266 228.836V224.328H210.109V222.734H217.688V224.328H216.516V228.648C216.992 228.609 217.461 228.562 217.906 228.516L217.984 229.969C215.32 230.406 212.211 230.469 209.953 230.469L209.75 228.844ZM212.281 235.688V231.406H214.281V234.094H222.078V235.688H212.281ZM213.188 228.805L214.609 228.758V224.328H213.188V228.805ZM235.562 221.734V232.125H233.578V227.484H231.031V225.844H233.578V221.734H235.562ZM223.766 229.125C226.711 228.203 228.617 226.5 228.984 224.406H224.5V222.781H231.156C231.156 226.594 228.734 229.414 224.578 230.703L223.766 229.125ZM226.188 235.688V231.078H228.219V234.094H235.922V235.688H226.188ZM248.688 221.719V225.062H250.609V226.688H248.688V229.969H246.688V221.719H248.688ZM237.312 228.672C240.445 227.844 242.234 226.219 242.547 224.25H237.984V222.656H244.719C244.727 226.445 242.344 229.102 238.109 230.281L237.312 228.672ZM239.234 233.047C239.219 231.266 241.156 230.141 244.047 230.141C246.945 230.141 248.836 231.266 248.844 233.047C248.836 234.844 246.945 235.953 244.047 235.953C241.156 235.953 239.219 234.844 239.234 233.047ZM241.203 233.047C241.195 233.906 242.258 234.398 244.047 234.391C245.812 234.398 246.875 233.906 246.875 233.047C246.875 232.172 245.812 231.688 244.047 231.688C242.258 231.688 241.195 232.172 241.203 233.047ZM264.25 232.656V234.281H251.234V232.656H256.719V230.031H252.609V222.625H254.609V224.828H260.812V222.625H262.797V230.031H258.703V232.656H264.25ZM254.609 228.438H260.812V226.422H254.609V228.438ZM277.047 221.719V230.312H275.062V227.516H273.219V225.891H275.062V221.719H277.047ZM265.094 224.547V222.953H268.312V221.594H270.281V222.953H273.469V224.547H265.094ZM265.875 227.562C265.875 226.078 267.305 225.016 269.297 225.016C271.297 225.016 272.703 226.078 272.703 227.562C272.703 229.117 271.289 230.133 269.297 230.141C267.305 230.133 265.875 229.117 265.875 227.562ZM267.484 235.781V230.922H277.047V235.781H267.484ZM267.797 227.562C267.781 228.281 268.367 228.664 269.297 228.672C270.203 228.664 270.797 228.281 270.797 227.562C270.797 226.891 270.203 226.508 269.297 226.516C268.367 226.508 267.781 226.891 267.797 227.562ZM269.484 234.188H275.094V232.484H269.484V234.188Z" fill="black"/>
<path d="M24.9297 257.5L24.916 256.598L28.293 253.043C29.4619 251.799 30.0225 251.129 30.0293 250.213C30.0225 249.194 29.1748 248.538 28.0605 248.531C26.8779 248.538 26.1396 249.283 26.1328 250.391H24.9707C24.957 248.641 26.3105 247.465 28.1016 247.465C29.8994 247.465 31.1709 248.675 31.1777 250.213C31.1709 251.32 30.6582 252.182 28.9082 253.986L26.6387 256.324V256.406H31.3555V257.5H24.9297ZM36.3867 257.637C34.1924 257.637 32.9209 255.791 32.9277 252.551C32.9209 249.338 34.2061 247.465 36.3867 247.465C38.5605 247.465 39.8457 249.338 39.8457 252.551C39.8457 255.791 38.5811 257.637 36.3867 257.637ZM34.1172 252.551C34.124 255.114 34.9512 256.543 36.3867 256.543C37.8154 256.543 38.6494 255.114 38.6426 252.551C38.6494 249.987 37.8086 248.538 36.3867 248.531C34.9648 248.538 34.124 249.987 34.1172 252.551ZM41.4863 257.5L41.4727 256.598L44.8496 253.043C46.0186 251.799 46.5791 251.129 46.5859 250.213C46.5791 249.194 45.7314 248.538 44.6172 248.531C43.4346 248.538 42.6963 249.283 42.6895 250.391H41.5273C41.5137 248.641 42.8672 247.465 44.6582 247.465C46.4561 247.465 47.7275 248.675 47.7344 250.213C47.7275 251.32 47.2148 252.182 45.4648 253.986L43.1953 256.324V256.406H47.9121V257.5H41.4863ZM53.1211 257.637C51.1523 257.637 49.7373 256.584 49.6758 255.012H50.9199C50.9883 255.955 51.9248 256.543 53.1074 256.543C54.4131 256.543 55.3564 255.839 55.3633 254.807C55.3564 253.727 54.4951 252.968 52.957 252.961H52.1504V251.881H52.957C54.1602 251.881 55.001 251.204 54.9941 250.186C55.001 249.194 54.2764 248.538 53.1484 248.531C52.0889 248.538 51.125 249.119 51.0703 250.09H49.8809C49.9424 248.518 51.4053 247.465 53.1621 247.465C55.0488 247.465 56.1973 248.702 56.1836 250.117C56.1973 251.245 55.541 252.065 54.502 252.359V252.428C55.7939 252.626 56.5732 253.549 56.5664 254.807C56.5732 256.434 55.0967 257.637 53.1211 257.637ZM58.877 257.582C58.3984 257.575 57.9883 257.179 58.002 256.693C57.9883 256.215 58.3984 255.818 58.877 255.818C59.3623 255.818 59.7588 256.215 59.752 256.693C59.7588 257.179 59.3623 257.575 58.877 257.582ZM64.4688 257.637C62.2744 257.637 61.0029 255.791 61.0098 252.551C61.0029 249.338 62.2881 247.465 64.4688 247.465C66.6426 247.465 67.9277 249.338 67.9277 252.551C67.9277 255.791 66.6631 257.637 64.4688 257.637ZM62.1992 252.551C62.2061 255.114 63.0332 256.543 64.4688 256.543C65.8975 256.543 66.7314 255.114 66.7246 252.551C66.7314 249.987 65.8906 248.538 64.4688 248.531C63.0469 248.538 62.2061 249.987 62.1992 252.551ZM72.9863 257.637C71.0176 257.637 69.6025 256.584 69.541 255.012H70.7852C70.8535 255.955 71.79 256.543 72.9727 256.543C74.2783 256.543 75.2217 255.839 75.2285 254.807C75.2217 253.727 74.3604 252.968 72.8223 252.961H72.0156V251.881H72.8223C74.0254 251.881 74.8662 251.204 74.8594 250.186C74.8662 249.194 74.1416 248.538 73.0137 248.531C71.9541 248.538 70.9902 249.119 70.9355 250.09H69.7461C69.8076 248.518 71.2705 247.465 73.0273 247.465C74.9141 247.465 76.0625 248.702 76.0488 250.117C76.0625 251.245 75.4062 252.065 74.3672 252.359V252.428C75.6592 252.626 76.4385 253.549 76.4316 254.807C76.4385 256.434 74.9619 257.637 72.9863 257.637ZM78.7422 257.582C78.2637 257.575 77.8535 257.179 77.8672 256.693C77.8535 256.215 78.2637 255.818 78.7422 255.818C79.2275 255.818 79.624 256.215 79.6172 256.693C79.624 257.179 79.2275 257.575 78.7422 257.582ZM84.334 257.637C82.1396 257.637 80.8682 255.791 80.875 252.551C80.8682 249.338 82.1533 247.465 84.334 247.465C86.5078 247.465 87.793 249.338 87.793 252.551C87.793 255.791 86.5283 257.637 84.334 257.637ZM82.0645 252.551C82.0713 255.114 82.8984 256.543 84.334 256.543C85.7627 256.543 86.5967 255.114 86.5898 252.551C86.5967 249.987 85.7559 248.538 84.334 248.531C82.9121 248.538 82.0713 249.987 82.0645 252.551ZM92.6602 257.637C90.876 257.637 89.5225 256.536 89.4473 255.012H90.6367C90.7256 255.894 91.5869 256.55 92.6602 256.557C93.9453 256.55 94.875 255.613 94.875 254.369C94.875 253.084 93.9111 252.134 92.5781 252.127C91.7441 252.113 91.0947 252.373 90.7324 253.016H89.543L90.2402 247.602H95.5996V248.695H91.2656L90.8965 251.594H90.9922C91.4365 251.252 92.0996 251.02 92.7969 251.02C94.6836 251.02 96.0713 252.414 96.0781 254.342C96.0713 256.256 94.6357 257.637 92.6602 257.637ZM125.719 246.467V255.381H124.652V246.467H125.719ZM115.807 252.783C117.646 252.065 118.896 250.288 118.896 248.367V247.15H119.99V248.367C119.977 250.22 121.241 251.881 123.053 252.537L122.492 253.398C121.084 252.858 119.99 251.765 119.45 250.363C118.924 251.854 117.816 253.05 116.395 253.617L115.807 252.783ZM117.871 258.348V254.561H118.938V257.445H126.102V258.348H117.871ZM131.926 249.064C131.933 250.575 133.238 251.942 135.029 252.469L134.51 253.303C133.102 252.879 131.98 251.963 131.427 250.767C130.907 252.093 129.793 253.139 128.344 253.617L127.824 252.797C129.608 252.195 130.866 250.712 130.873 249.064V248.805H128.125V247.943H130.873V246.398H131.953V247.943H134.674V248.805H131.926V249.064ZM129.752 256.365C129.745 254.95 131.297 254.144 133.826 254.15C136.349 254.144 137.9 254.95 137.9 256.365C137.9 257.773 136.349 258.58 133.826 258.58C131.297 258.58 129.745 257.773 129.752 256.365ZM130.818 256.365C130.812 257.213 131.96 257.732 133.826 257.732C135.692 257.732 136.834 257.213 136.834 256.365C136.834 255.497 135.692 254.998 133.826 254.984C131.96 254.998 130.812 255.497 130.818 256.365ZM134.291 250.828V249.939H136.779V246.453H137.859V253.822H136.779V250.828H134.291ZM143.588 247.027C145.365 247.027 146.603 247.984 146.609 249.434C146.603 250.691 145.625 251.594 144.162 251.778V252.968C145.297 252.906 146.452 252.804 147.512 252.646L147.594 253.453C145.017 253.911 142.104 253.952 140.006 253.945L139.869 253.057C140.812 253.063 141.92 253.057 143.082 253.016V251.785C141.578 251.621 140.573 250.712 140.58 249.434C140.573 247.984 141.811 247.027 143.588 247.027ZM141.592 249.434C141.578 250.356 142.405 250.985 143.588 250.992C144.777 250.985 145.591 250.356 145.598 249.434C145.591 248.49 144.777 247.861 143.588 247.861C142.405 247.861 141.578 248.49 141.592 249.434ZM141.646 258.334V254.957H142.727V257.432H149.809V258.334H141.646ZM148.291 255.764V246.467H149.371V250.582H151.189V251.498H149.371V255.764H148.291ZM163.111 256.201V257.104H151.982V256.201H155.113V253.891H153.377V250.145H160.65V248.244H153.35V247.355H161.703V251.033H154.443V253.002H161.99V253.891H160.09V256.201H163.111ZM156.166 256.201H159.037V253.891H156.166V256.201Z" fill="#999999"/>
<path d="M106.537 246.207V258.895H105.525V246.207H106.537Z" fill="#DDDDDD"/>
<path d="M304.293 234.293C304.654 233.932 305.221 233.905 305.613 234.21L305.707 234.293L310.704 239.293C311.064 239.654 311.092 240.221 310.787 240.613L310.704 240.707L305.707 245.707C305.317 246.098 304.684 246.098 304.293 245.707C303.933 245.347 303.905 244.78 304.21 244.387L304.293 244.293L308.583 239.999L304.293 235.707C303.932 235.346 303.905 234.779 304.21 234.387L304.293 234.293Z" fill="#FF6600"/>
<path d="M20.928 10.904H14.088C14.424 11.552 15 12.152 15.768 12.68C17.088 13.616 18.912 14.072 21.24 14.072V16.712C18.264 16.688 15.864 16.184 14.088 15.176C13.176 14.696 12.432 14.144 11.856 13.544C11.256 14.144 10.512 14.696 9.624 15.176C7.824 16.184 5.448 16.688 2.472 16.712V14.072C4.776 14.072 6.6 13.616 7.944 12.68C8.712 12.152 9.264 11.552 9.624 10.904H2.76V8.264H20.928V10.904ZM7.008 4.832H16.656V7.472H7.008V4.832ZM22.704 20.48H13.632V26.168H10.032V20.48H0.984V17.72H22.704V20.48ZM32.5028 13.544C33.5348 11.864 34.1108 10.064 34.2308 8.12H26.0468V5.408H36.2228C37.4708 5.408 38.0468 6.224 37.9988 7.856C37.8548 10.88 36.9427 13.52 35.2868 15.776C33.1748 18.656 29.9348 20.72 25.5188 21.92V19.088C28.6388 17.888 30.9668 16.04 32.5028 13.544ZM47.1428 14.744H43.9508V26.168H40.4228V5.072H43.9508V11.96H47.1428V14.744ZM62.6064 12.608C62.2704 13.064 61.8624 13.472 61.4304 13.808C59.7984 15.104 57.8304 15.896 55.5264 16.136V13.568C56.9664 13.352 58.1904 12.752 59.1744 11.768C60.0384 10.904 60.5664 9.656 60.7584 7.976H56.0064V5.408H69.2064V7.976H64.4544C64.6464 9.656 65.1744 10.904 66.0384 11.768C66.9984 12.752 68.2224 13.352 69.6864 13.568V16.136C67.3584 15.896 65.3904 15.104 63.7824 13.808C63.3264 13.472 62.9424 13.064 62.6064 12.608ZM75.4704 5.072V15.896H71.9424V11.672H67.4064V8.96H71.9424V5.072H75.4704ZM62.6784 16.664V19.112H71.9424V16.664H75.4704V26.12H62.7264C60.3264 26.12 59.1504 25.016 59.1504 22.808V16.664H62.6784ZM62.6784 21.584V22.424C62.6784 23.216 63.0384 23.6 63.7824 23.6H71.9424V21.584H62.6784ZM91.0695 5.336C91.0695 7.736 91.8615 9.656 93.4935 11.048C94.8375 12.248 96.6135 12.968 98.7735 13.208V15.872C95.6295 15.632 93.0855 14.768 91.1655 13.328C90.4215 12.8 89.7975 12.176 89.2935 11.48C88.7655 12.176 88.1175 12.8 87.3975 13.328C85.4535 14.768 82.9095 15.632 79.7895 15.872V13.208C81.9495 12.968 83.7015 12.248 85.0695 11.048C86.6775 9.656 87.4935 7.736 87.4935 5.336V5.12H91.0695V5.336ZM100.142 20H91.0695V26.168H87.4695V20H78.4215V17.24H100.142V20ZM120.188 5.6C120.932 5.6 121.316 5.984 121.316 6.752V13.232H107.852V14.816C107.852 15.44 108.284 15.752 109.148 15.752H121.412V18.44H114.788V21.536H123.86V24.152H102.14V21.536H111.188V18.44H108.164C105.596 18.44 104.324 17.336 104.324 15.08V10.568H117.788V8.288H104.324V5.6H120.188ZM8.112 45.072C7.776 45.6 7.392 46.056 6.96 46.464C5.376 47.976 3.384 48.912 1.032 49.248V46.656C2.472 46.344 3.672 45.576 4.656 44.376C5.616 43.176 6.192 41.4 6.336 39.024H1.512V36.408H14.712V39.024H9.888C10.032 41.4 10.584 43.176 11.568 44.376C12.528 45.576 13.752 46.344 15.192 46.656V49.248C12.816 48.912 10.848 47.976 9.264 46.464C8.832 46.056 8.448 45.6 8.112 45.072ZM16.92 51.36V36.072H20.472V51.36H16.92ZM9.648 54.456H20.808V57.12H8.448C5.76 57.12 4.44 55.872 4.44 53.328V49.968H7.992V52.752C7.992 53.904 8.544 54.456 9.648 54.456ZM25.5765 35.688H32.2005V37.992H25.5765V35.688ZM34.6965 40.848H22.9845V38.568H34.6965V40.848ZM28.8645 41.304C30.4485 41.304 31.7685 41.688 32.7765 42.432C33.7845 43.2 34.2885 44.208 34.2885 45.408C34.2885 46.608 33.7845 47.592 32.7765 48.336C31.7685 49.104 30.4485 49.464 28.8645 49.464C27.2805 49.464 25.9845 49.104 25.0005 48.336C23.9925 47.592 23.4885 46.608 23.4885 45.408C23.4885 44.208 23.9925 43.2 25.0005 42.432C25.9845 41.688 27.2805 41.304 28.8645 41.304ZM28.8645 43.512C28.2405 43.512 27.7605 43.68 27.3765 44.016C26.9925 44.376 26.8005 44.832 26.8005 45.408C26.8005 45.984 26.9925 46.416 27.3765 46.752C27.7605 47.088 28.2405 47.256 28.8645 47.256C29.4885 47.256 29.9925 47.088 30.4005 46.752C30.7845 46.416 30.9765 45.984 30.9765 45.408C30.9765 44.832 30.7845 44.376 30.4005 44.016C29.9925 43.68 29.4885 43.512 28.8645 43.512ZM40.3845 36.072H43.7205V48.672H40.3845V43.728H38.8965V48.24H35.6085V36.072H38.8965V40.992H40.3845V36.072ZM43.0005 53.352C43.0005 54.696 42.3525 55.776 41.0565 56.592C39.7365 57.432 38.0805 57.84 36.0885 57.84C34.0965 57.84 32.4405 57.432 31.1445 56.592C29.8245 55.776 29.1765 54.696 29.1765 53.352C29.1765 52.008 29.8245 50.928 31.1445 50.112C32.4405 49.296 34.0965 48.888 36.0885 48.888C38.0805 48.888 39.7365 49.296 41.0565 50.112C42.3525 50.928 43.0005 52.008 43.0005 53.352ZM36.0885 51.264C35.0565 51.264 34.2405 51.456 33.6405 51.84C33.0165 52.248 32.7045 52.752 32.7045 53.352C32.7045 53.976 32.9925 54.456 33.6165 54.84C34.2165 55.248 35.0325 55.44 36.0885 55.44C37.0965 55.44 37.9365 55.248 38.5605 54.864C39.1605 54.504 39.4725 54 39.4725 53.352C39.4725 52.752 39.1605 52.248 38.5365 51.84C37.9125 51.456 37.0965 51.264 36.0885 51.264ZM49.7436 36.096H57.0396V38.76H49.7436V36.096ZM60.1836 42.144H46.5996V39.504H60.1836V42.144ZM47.3196 48.168C47.3196 46.704 47.8716 45.432 49.0236 44.328C50.1516 43.272 51.6156 42.72 53.3916 42.72C55.1676 42.72 56.6076 43.272 57.7596 44.328C58.8876 45.432 59.4636 46.704 59.4636 48.168C59.4636 49.656 58.8876 50.928 57.7596 51.984C56.6076 53.088 55.1676 53.616 53.3916 53.616C51.6156 53.616 50.1516 53.088 49.0236 51.984C47.8716 50.928 47.3196 49.656 47.3196 48.168ZM50.8236 48.168C50.8236 49.032 51.0876 49.704 51.6156 50.208C52.1196 50.736 52.7196 51 53.3916 51C54.0636 51 54.6636 50.736 55.1916 50.208C55.6956 49.704 55.9596 49.032 55.9596 48.168C55.9596 47.328 55.6956 46.632 55.1916 46.104C54.6636 45.6 54.0636 45.336 53.3916 45.336C52.7196 45.336 52.1196 45.6 51.6156 46.104C51.0876 46.632 50.8236 47.328 50.8236 48.168ZM68.7756 46.344H65.7036V57.168H62.1756V36.072H65.7036V43.56H68.7756V46.344ZM78.5743 36.96C78.5743 39.696 79.1503 41.64 80.3503 42.744C81.2623 43.632 82.4623 44.136 83.9263 44.232V46.776C81.5263 46.728 79.4863 45.984 77.7823 44.52C77.4223 44.232 77.1103 43.896 76.8223 43.512C76.5343 43.896 76.1983 44.232 75.8623 44.52C74.1343 45.984 72.0943 46.728 69.7183 46.776V44.232C71.1583 44.136 72.3583 43.632 73.2943 42.744C74.4703 41.64 75.0703 39.696 75.0703 36.96V36.336H78.5743V36.96ZM85.9903 46.896V36.072H89.5423V46.896H85.9903ZM89.5423 53.64H76.7503V53.856C76.7503 54.36 77.1823 54.6 78.0463 54.6H89.5903V57.12H77.2063C74.5423 57.12 73.2223 55.896 73.2223 53.424V51.168H86.0143V50.28H73.2223V47.784H88.9183C89.3263 47.784 89.5423 48 89.5423 48.432V53.64ZM111.976 36.336C111.976 38.736 112.768 40.656 114.4 42.048C115.744 43.248 117.52 43.968 119.68 44.208V46.872C116.536 46.632 113.992 45.768 112.072 44.328C111.328 43.8 110.704 43.176 110.2 42.48C109.672 43.176 109.024 43.8 108.304 44.328C106.36 45.768 103.816 46.632 100.696 46.872V44.208C102.856 43.968 104.608 43.248 105.976 42.048C107.584 40.656 108.4 38.736 108.4 36.336V36.12H111.976V36.336ZM121.048 51H111.976V57.168H108.376V51H99.3278V48.24H121.048V51ZM130.367 42.096C130.367 40.464 130.967 39.048 132.191 37.872C133.391 36.72 134.951 36.12 136.871 36.12C138.767 36.12 140.327 36.72 141.551 37.872C142.751 39.048 143.375 40.464 143.375 42.096C143.375 43.704 142.751 45.072 141.551 46.224C140.327 47.4 138.767 47.976 136.871 47.976C134.951 47.976 133.391 47.4 132.191 46.224C130.967 45.072 130.367 43.704 130.367 42.096ZM139.847 42.096C139.847 41.136 139.535 40.32 138.959 39.672C138.359 39.048 137.663 38.712 136.871 38.712C136.055 38.712 135.359 39.048 134.783 39.672C134.183 40.32 133.895 41.136 133.895 42.096C133.895 43.056 134.183 43.824 134.783 44.448C135.359 45.072 136.055 45.384 136.871 45.384C137.663 45.384 138.359 45.072 138.959 44.448C139.535 43.824 139.847 43.056 139.847 42.096ZM145.943 48.192V36.072H149.495V48.192H145.943ZM137.423 54.792C137.279 54.936 137.159 55.08 137.039 55.176C135.623 56.472 133.823 57.144 131.639 57.24V54.648C132.959 54.552 134.039 54.024 134.855 53.064C135.479 52.344 135.791 51.144 135.791 49.44V48.912H139.223V49.464C139.223 51.24 139.511 52.464 140.087 53.16C140.519 53.712 140.975 54.072 141.407 54.264C141.839 54.072 142.271 53.712 142.727 53.16C143.303 52.464 143.591 51.216 143.591 49.44V48.912H147.023V49.464C147.023 51.144 147.335 52.344 147.959 53.064C148.775 54.024 149.831 54.552 151.175 54.648V57.24C148.967 57.144 147.167 56.472 145.775 55.176C145.631 55.08 145.511 54.936 145.391 54.792C145.199 55.008 145.055 55.176 144.935 55.272C143.927 56.232 142.751 56.88 141.407 57.24C140.039 56.88 138.863 56.232 137.879 55.272C137.711 55.128 137.567 54.984 137.423 54.792ZM152.776 44.52C152.776 41.976 153.328 39.936 154.456 38.4C155.56 36.888 157.168 36.12 159.28 36.12C161.392 36.12 163 36.888 164.128 38.4C164.992 39.6 165.52 41.136 165.712 42.984H168.88V36.072H172.408V57.168H168.88V45.768H165.736C165.568 47.76 165.04 49.392 164.128 50.64C163 52.176 161.392 52.92 159.28 52.92C157.168 52.92 155.56 52.176 154.456 50.64C153.328 49.128 152.776 47.088 152.776 44.52ZM156.304 44.544C156.304 46.464 156.544 47.88 157.072 48.792C157.576 49.752 158.296 50.208 159.256 50.208C160.216 50.208 160.96 49.752 161.488 48.792C161.992 47.88 162.256 46.464 162.256 44.544C162.256 42.624 161.992 41.208 161.488 40.248C160.96 39.312 160.216 38.832 159.256 38.832C158.296 38.832 157.576 39.312 157.072 40.248C156.544 41.208 156.304 42.624 156.304 44.544ZM177.447 42.648C177.447 40.92 178.239 39.432 179.847 38.184C181.431 36.984 183.567 36.36 186.207 36.36C188.847 36.36 190.959 36.984 192.567 38.184C194.151 39.432 194.967 40.92 194.967 42.648C194.967 44.616 193.935 46.272 191.895 47.568V52.272H197.079V55.032H175.359V52.272H180.567V47.592C178.479 46.296 177.447 44.64 177.447 42.648ZM188.343 48.792C187.671 48.888 186.951 48.936 186.207 48.936C185.463 48.936 184.767 48.888 184.119 48.792V52.272H188.343V48.792ZM191.343 42.648C191.343 41.616 190.863 40.752 189.903 40.08C188.943 39.408 187.695 39.072 186.207 39.072C184.671 39.072 183.447 39.408 182.511 40.08C181.551 40.752 181.071 41.616 181.071 42.648C181.071 43.704 181.551 44.544 182.511 45.216C183.447 45.888 184.671 46.224 186.207 46.224C187.695 46.224 188.943 45.888 189.903 45.216C190.863 44.544 191.343 43.704 191.343 42.648ZM199.99 36.168H203.566V50.88H199.99V36.168ZM203.998 54.48C203.998 55.08 203.782 55.56 203.374 55.944C202.942 56.328 202.39 56.52 201.766 56.52C201.118 56.52 200.59 56.328 200.182 55.944C199.75 55.56 199.534 55.08 199.534 54.48C199.534 53.904 199.75 53.4 200.182 53.016C200.59 52.632 201.118 52.44 201.766 52.44C202.39 52.44 202.942 52.632 203.374 53.016C203.782 53.4 203.998 53.904 203.998 54.48Z" fill="black"/>
</svg>
