<svg width="336" height="606" viewBox="0 0 336 606" fill="none" xmlns="http://www.w3.org/2000/svg">
<circle cx="1.5" cy="578.5" r="1.5" fill="#BBBBBB"/>
<path d="M19.791 582.756V583.581H9.45703V582.756H14.1035V580.318H10.6758V574.542H11.6787V576.586H17.5439V574.542H18.5215V580.318H15.0811V582.756H19.791ZM11.6787 579.506H17.5439V577.398H11.6787V579.506ZM30.5488 573.742V580.585H29.5459V578.008H27.6289V577.183H29.5459V573.742H30.5488ZM21.2051 575.748V574.936H24.0107V573.641H24.9883V574.936H27.7939V575.748H21.2051ZM21.8779 578.338C21.8779 577.157 22.9634 576.332 24.4932 576.332C26.0293 576.332 27.1084 577.157 27.1211 578.338C27.1084 579.557 26.0293 580.356 24.4932 580.356C22.9634 580.356 21.8779 579.557 21.8779 578.338ZM22.8301 578.338C22.8301 579.087 23.5093 579.582 24.4932 579.595C25.4771 579.582 26.1562 579.087 26.1562 578.338C26.1562 577.614 25.4771 577.106 24.4932 577.106C23.5093 577.106 22.8301 577.614 22.8301 578.338ZM23.1729 584.876V581.194H30.5488V584.876H23.1729ZM24.1631 584.063H29.5713V581.994H24.1631V584.063ZM41.9033 574.352V575.189C41.9033 576.065 41.9033 577.094 41.605 578.503H43.2617V579.328H32.9277V578.503H40.6021C40.9194 577.081 40.9194 576.065 40.9131 575.189V575.177H34.2354V574.352H41.9033ZM34.1973 584.876V580.89H41.9541V584.876H34.1973ZM35.1875 584.063H40.9639V581.677H35.1875V584.063ZM57.7695 573.742V579.874H56.7793V577.322H54.4941V576.484H56.7793V573.742H57.7695ZM48.4766 579.277C50.1396 578.674 51.3457 577.183 51.3457 575.583V575.253H48.7939V574.428H54.875V575.253H52.3486V575.583C52.3486 577.03 53.4785 578.452 55.1289 579.023L54.6084 579.798C53.3389 579.334 52.355 578.389 51.8662 577.233C51.3838 578.528 50.3364 579.576 48.9971 580.064L48.4766 579.277ZM50.5078 584.876V580.42H51.5107V581.829H56.7793V580.42H57.7695V584.876H50.5078ZM51.5107 584.063H56.7793V582.629H51.5107V584.063ZM65.8232 574.796C65.8296 576.389 67.8989 577.76 69.9365 578.046L69.5303 578.858C67.7783 578.566 66.0391 577.595 65.3154 576.211C64.5918 577.608 62.8589 578.566 61.1006 578.858L60.6943 578.046C62.7319 577.76 64.7949 576.415 64.7949 574.796V574.148H65.8232V574.796ZM60.1611 580.94V580.103H70.4443V580.94H65.7725V585.028H64.7949V580.94H60.1611ZM84.4824 573.742V577.183H86.1836V578.021H84.4824V582.07H83.4922V573.742H84.4824ZM75.875 577.322C75.8687 575.685 77.1509 574.548 78.833 574.542C80.5278 574.548 81.791 575.685 81.8037 577.322C81.791 578.954 80.5278 580.103 78.833 580.103C77.1509 580.103 75.8687 578.954 75.875 577.322ZM76.8525 577.322C76.8462 578.433 77.7158 579.227 78.833 579.227C79.9692 579.227 80.8198 578.433 80.8262 577.322C80.8198 576.205 79.9692 575.418 78.833 575.418C77.7158 575.418 76.8462 576.205 76.8525 577.322ZM77.4238 584.787V581.207H78.4014V583.949H85.0029V584.787H77.4238ZM97.0303 573.742V585.028H96.0527V579.188H94.4277V584.444H93.4883V573.996H94.4277V578.338H96.0527V573.742H97.0303ZM87.9658 582.108V575.126H88.9561V581.22C90.0732 581.213 91.2793 581.131 92.6504 580.852L92.7773 581.74C91.2031 582.026 89.9082 582.108 88.6641 582.108H87.9658ZM108.783 574.479V579.074H103.489V574.479H108.783ZM104.302 584.216C106.244 584 108.11 582.902 108.11 581.778H104.771V581.004H108.123V579.899H109.113V581.004H112.49V581.778H109.139C109.132 582.876 110.948 583.975 112.884 584.216L112.541 584.99C110.846 584.755 109.297 583.956 108.625 582.915C107.945 583.981 106.358 584.755 104.657 584.99L104.302 584.216ZM104.467 578.287H107.806V575.291H104.467V578.287ZM111.221 580.229V573.742H112.198V580.229H111.221ZM124.053 574.796C124.059 576.389 126.128 577.76 128.166 578.046L127.76 578.858C126.008 578.566 124.269 577.595 123.545 576.211C122.821 577.608 121.088 578.566 119.33 578.858L118.924 578.046C120.961 577.76 123.024 576.415 123.024 574.796V574.148H124.053V574.796ZM118.391 580.94V580.103H128.674V580.94H124.002V585.028H123.024V580.94H118.391ZM135.483 574.39V577.551H131.599V579.277C133.719 579.277 134.817 579.233 136.144 578.985L136.245 579.811C134.842 580.058 133.693 580.103 131.408 580.09H130.608V576.751H134.493V575.215H130.583V574.39H135.483ZM131.954 583.022C131.948 581.702 133.389 580.928 135.75 580.928C138.099 580.928 139.527 581.702 139.521 583.022C139.527 584.343 138.099 585.098 135.75 585.092C133.389 585.098 131.948 584.343 131.954 583.022ZM132.97 583.022C132.957 583.841 134.004 584.305 135.75 584.305C137.47 584.305 138.549 583.841 138.543 583.022C138.549 582.197 137.47 581.721 135.75 581.715C134.004 581.721 132.957 582.197 132.97 583.022ZM136.245 578.655V577.817H138.479V576.345H136.245V575.532H138.479V573.755H139.482V580.737H138.479V578.655H136.245ZM149.636 576.776C149.629 578.839 151.032 580.909 152.695 581.664L152.086 582.451C150.797 581.829 149.687 580.49 149.147 578.884C148.626 580.585 147.516 582.013 146.195 582.68L145.561 581.842C147.243 581.074 148.633 578.916 148.646 576.776V574.72H149.636V576.776ZM153.927 585.054V573.742H154.93V585.054H153.927ZM169.945 573.742V577.183H171.646V578.021H169.945V582.07H168.955V573.742H169.945ZM161.338 577.322C161.332 575.685 162.614 574.548 164.296 574.542C165.991 574.548 167.254 575.685 167.267 577.322C167.254 578.954 165.991 580.103 164.296 580.103C162.614 580.103 161.332 578.954 161.338 577.322ZM162.315 577.322C162.309 578.433 163.179 579.227 164.296 579.227C165.432 579.227 166.283 578.433 166.289 577.322C166.283 576.205 165.432 575.418 164.296 575.418C163.179 575.418 162.309 576.205 162.315 577.322ZM162.887 584.787V581.207H163.864V583.949H170.466V584.787H162.887ZM182.493 573.742V585.028H181.516V579.188H179.891V584.444H178.951V573.996H179.891V578.338H181.516V573.742H182.493ZM173.429 582.108V575.126H174.419V581.22C175.536 581.213 176.742 581.131 178.113 580.852L178.24 581.74C176.666 582.026 175.371 582.108 174.127 582.108H173.429ZM193.416 573.742V576.472H195.117V577.31H193.416V580.344H192.426V573.742H193.416ZM185.075 579.633V574.39H186.053V576.116H189.341V574.39H190.331V579.633H185.075ZM186.053 578.833H189.341V576.916H186.053V578.833ZM186.332 584.876V580.979H193.505V581.778H187.322V584.063H193.721V584.876H186.332ZM201.47 573.945C203.977 573.945 205.45 574.637 205.456 575.888C205.45 577.17 203.977 577.862 201.47 577.868C198.95 577.862 197.471 577.17 197.471 575.888C197.471 574.637 198.95 573.945 201.47 573.945ZM196.328 579.442V578.63H206.611V579.442H196.328ZM197.572 581.182V580.42H205.291V582.946H198.588V584.114H205.634V584.901H197.598V582.21H204.313V581.182H197.572ZM198.512 575.888C198.499 576.675 199.597 577.106 201.47 577.106C203.342 577.106 204.434 576.675 204.44 575.888C204.434 575.145 203.342 574.701 201.47 574.694C199.597 574.701 198.499 575.145 198.512 575.888ZM221.183 573.755V582.096H220.18V579.049H217.26C216.739 579.715 215.901 580.115 214.937 580.115C213.248 580.115 211.998 578.947 212.004 577.297C211.998 575.64 213.248 574.472 214.937 574.466C215.895 574.472 216.72 574.866 217.247 575.52H220.18V573.755H221.183ZM212.956 577.297C212.956 578.427 213.781 579.233 214.937 579.227C216.047 579.233 216.892 578.427 216.892 577.297C216.892 576.173 216.047 575.361 214.937 575.354C213.781 575.361 212.956 576.173 212.956 577.297ZM213.934 584.787V581.22H214.937V583.949H221.5V584.787H213.934ZM217.698 576.345C217.799 576.637 217.856 576.954 217.856 577.297C217.856 577.627 217.799 577.938 217.704 578.224H220.18V576.345H217.698ZM229.16 574.428V577.538H225.047V579.176C227.053 579.169 228.506 579.1 230.265 578.808L230.366 579.633C228.557 579.931 227.046 580.007 224.945 580.001H224.069V576.751H228.183V575.24H224.044V574.428H229.16ZM224.996 582.02V581.207H232.385V585.028H231.395V582.02H224.996ZM231.395 580.61V573.755H232.385V576.649H234.099V577.487H232.385V580.61H231.395ZM244.653 573.742V585.054H243.65V579.112H241.175V578.287H243.65V573.742H244.653ZM235.322 582.07C236.979 581.296 238.217 579.366 238.217 577.424V576.522H235.627V575.71H238.217V573.958H239.207V575.71H241.759V576.522H239.194V577.424C239.194 579.284 240.47 581.118 242.14 581.867L241.568 582.642C240.28 582.058 239.22 580.82 238.718 579.334C238.229 580.909 237.182 582.223 235.894 582.845L235.322 582.07ZM250.435 574.479C252.167 574.491 253.437 575.558 253.443 577.132C253.437 578.547 252.409 579.55 250.942 579.741V581.658C251.996 581.613 253.056 581.537 254.04 581.41L254.104 582.159C251.71 582.565 249.044 582.591 247.058 582.578L246.893 581.74C247.8 581.734 248.848 581.728 249.939 581.696V579.741C248.441 579.563 247.419 578.554 247.426 577.132C247.419 575.558 248.67 574.491 250.435 574.479ZM248.403 577.132C248.391 578.192 249.248 578.928 250.435 578.922C251.603 578.928 252.453 578.192 252.466 577.132C252.453 576.072 251.603 575.348 250.435 575.342C249.248 575.348 248.391 576.072 248.403 577.132ZM254.764 585.028V573.742H255.754V578.401H257.595V579.265H255.754V585.028H254.764ZM271.836 573.742V585.054H270.833V573.742H271.836ZM262.949 578.554C262.956 576.154 264.149 574.625 265.831 574.618C267.507 574.625 268.719 576.154 268.713 578.554C268.719 580.959 267.507 582.483 265.831 582.477C264.149 582.483 262.956 580.959 262.949 578.554ZM263.914 578.554C263.914 580.388 264.701 581.594 265.831 581.588C266.967 581.594 267.748 580.388 267.748 578.554C267.748 576.719 266.967 575.513 265.831 575.507C264.701 575.513 263.914 576.719 263.914 578.554ZM279.001 575.062V578.008H280.715V573.983H281.667V584.457H280.715V578.833H279.001V581.994H274.685V575.062H279.001ZM275.624 581.194H278.062V575.862H275.624V581.194ZM282.975 585.028V573.742H283.939V585.028H282.975ZM289.2 574.161C290.889 574.167 292.114 575.196 292.12 576.662C292.114 578.135 290.889 579.15 289.2 579.15C287.493 579.15 286.261 578.135 286.268 576.662C286.261 575.196 287.493 574.167 289.2 574.161ZM287.245 576.662C287.232 577.652 288.064 578.338 289.2 578.338C290.317 578.338 291.155 577.652 291.155 576.662C291.155 575.685 290.317 574.993 289.2 574.999C288.064 574.993 287.232 575.685 287.245 576.662ZM287.981 580.89V580.09H295.319V582.807H288.984V584.076H295.726V584.876H288.007V582.058H294.329V580.89H287.981ZM294.329 579.544V573.742H295.319V579.544H294.329ZM302.878 573.945C305.385 573.945 306.858 574.637 306.864 575.888C306.858 577.17 305.385 577.862 302.878 577.868C300.358 577.862 298.879 577.17 298.879 575.888C298.879 574.637 300.358 573.945 302.878 573.945ZM297.736 579.442V578.63H308.02V579.442H297.736ZM298.98 581.182V580.42H306.699V582.946H299.996V584.114H307.042V584.901H299.006V582.21H305.722V581.182H298.98ZM299.92 575.888C299.907 576.675 301.005 577.106 302.878 577.106C304.75 577.106 305.842 576.675 305.849 575.888C305.842 575.145 304.75 574.701 302.878 574.694C301.005 574.701 299.907 575.145 299.92 575.888ZM322.045 573.755V577.17H323.733V578.008H322.045V581.321H321.042V573.755H322.045ZM313.184 580.166C314.085 580.166 315.139 580.166 316.243 580.134V579.303C314.929 579.182 314.079 578.579 314.085 577.64C314.079 576.611 315.139 575.977 316.726 575.977C318.325 575.977 319.366 576.611 319.379 577.64C319.366 578.573 318.541 579.176 317.233 579.303V580.096C318.287 580.045 319.354 579.957 320.344 579.811L320.433 580.534C317.982 580.966 315.285 580.985 313.298 580.979L313.184 580.166ZM313.463 575.545V574.783H316.243V573.653H317.233V574.783H320.001V575.545H313.463ZM314.567 582.68V581.88H322.045V585.028H321.042V582.68H314.567ZM315.037 577.64C315.031 578.23 315.685 578.63 316.726 578.617C317.767 578.63 318.427 578.23 318.427 577.64C318.427 577.043 317.767 576.675 316.726 576.688C315.685 576.675 315.031 577.043 315.037 577.64ZM18.7754 591.755V600.007H17.7852V591.755H18.7754ZM9.72363 595.31C9.71729 593.685 10.9932 592.548 12.6816 592.542C14.3701 592.548 15.6333 593.685 15.6396 595.31C15.6333 596.954 14.3701 598.096 12.6816 598.09C10.9932 598.096 9.71729 596.954 9.72363 595.31ZM10.7012 595.31C10.6885 596.433 11.5391 597.214 12.6816 597.214C13.8052 597.214 14.6621 596.433 14.6621 595.31C14.6621 594.205 13.8052 593.418 12.6816 593.418C11.5391 593.418 10.6885 594.205 10.7012 595.31ZM11.4883 602.787V599.169H12.4785V601.949H19.1309V602.787H11.4883ZM26.8291 593.697V594.51H21.167V593.697H23.5156V592.085H24.5059V593.697H26.8291ZM21.5732 597.836C21.5732 596.338 22.5952 595.278 23.998 595.271C25.4199 595.278 26.4355 596.338 26.4482 597.836C26.4355 599.353 25.4199 600.419 23.998 600.426C22.5952 600.419 21.5732 599.353 21.5732 597.836ZM22.4619 597.836C22.4619 598.839 23.103 599.556 23.998 599.55C24.8994 599.556 25.5596 598.839 25.5596 597.836C25.5596 596.846 24.8994 596.122 23.998 596.109C23.103 596.122 22.4619 596.846 22.4619 597.836ZM27.4131 602.47V592.021H28.3525V596.503H29.8506V591.742H30.8027V603.028H29.8506V597.328H28.3525V602.47H27.4131ZM42.3906 593.342C42.3843 594.853 44.3965 596.135 46.3643 596.427L45.9961 597.214C44.2378 596.916 42.5176 595.976 41.832 594.618C41.1465 595.976 39.4263 596.916 37.6934 597.214L37.2998 596.427C39.2612 596.135 41.2671 594.853 41.2734 593.342V593.266H37.6553V592.453H45.9961V593.266H42.3906V593.342ZM36.6904 599.004V598.179H46.9736V599.004H42.3018V603.028H41.3242V599.004H36.6904ZM51.7773 594.954C51.7773 596.75 52.6533 598.687 54.1514 599.575L53.5801 600.35C52.4883 599.689 51.7075 598.483 51.314 597.106C50.9014 598.61 50.0635 599.905 48.9336 600.591L48.2988 599.842C49.8604 598.928 50.8125 596.928 50.8125 594.992V592.809H51.7773V594.954ZM52.9072 596.643V595.792H54.8242V591.983H55.7637V602.457H54.8242V596.643H52.9072ZM57.1348 603.028V591.742H58.0996V603.028H57.1348ZM70.4951 600.743V601.581H60.1611V600.743H62.7256V597.703C61.7607 597.201 61.1768 596.389 61.1768 595.36C61.1768 593.615 62.8906 592.466 65.3027 592.453C67.7148 592.466 69.4287 593.615 69.4287 595.36C69.4287 596.37 68.8638 597.169 67.9307 597.671V600.743H70.4951ZM62.1416 595.36C62.1353 596.624 63.4492 597.468 65.3027 597.468C67.1372 597.468 68.4639 596.624 68.4639 595.36C68.4639 594.097 67.1372 593.266 65.3027 593.278C63.4492 593.266 62.1353 594.097 62.1416 595.36ZM63.7031 600.743H66.9277V598.058C66.439 598.185 65.8931 598.255 65.3027 598.255C64.7251 598.255 64.1855 598.191 63.7031 598.064V600.743ZM73.0898 602.076C72.6455 602.07 72.2646 601.702 72.2773 601.251C72.2646 600.807 72.6455 600.438 73.0898 600.438C73.5405 600.438 73.9087 600.807 73.9023 601.251C73.9087 601.702 73.5405 602.07 73.0898 602.076Z" fill="#999999"/>
<rect x="0.5" y="86.5" width="334" height="163.732" rx="15.5" fill="white"/>
<rect x="0.5" y="86.5" width="334" height="163.732" rx="15.5" stroke="#E8E8E8"/>
<path fill-rule="evenodd" clip-rule="evenodd" d="M301 108C301 106.895 301.895 106 303 106H305C306.105 106 307 106.895 307 108H308.5H310H310.25C310.664 108 311 108.336 311 108.75C311 109.164 310.664 109.5 310.25 109.5H310V117.5C310 118.881 308.881 120 307.5 120H300.5C299.119 120 298 118.881 298 117.5V109.5H297.75C297.336 109.5 297 109.164 297 108.75C297 108.336 297.336 108 297.75 108H298H299.5H301ZM302.5 108H305.5C305.5 107.724 305.276 107.5 305 107.5H303C302.724 107.5 302.5 107.724 302.5 108ZM299.5 109.5V117.5C299.5 118.052 299.948 118.5 300.5 118.5H307.5C308.052 118.5 308.5 118.052 308.5 117.5V109.5H299.5ZM306.5 112.75C306.5 112.336 306.164 112 305.75 112C305.336 112 305 112.336 305 112.75V115.25C305 115.664 305.336 116 305.75 116C306.164 116 306.5 115.664 306.5 115.25V112.75ZM302.25 112C302.664 112 303 112.336 303 112.75V115.25C303 115.664 302.664 116 302.25 116C301.836 116 301.5 115.664 301.5 115.25V112.75C301.5 112.336 301.836 112 302.25 112Z" fill="#BBBBBB"/>
<path fill-rule="evenodd" clip-rule="evenodd" d="M268.395 115.339L268.334 117.484L270.557 117.484L275.99 112.051L273.836 109.897L268.395 115.339ZM274.897 108.836L277.051 110.99L277.941 110.1C278.536 109.505 278.536 108.541 277.941 107.946C277.346 107.351 276.381 107.351 275.787 107.946L274.897 108.836ZM267.123 114.489L274.726 106.886C275.907 105.705 277.821 105.705 279.001 106.885C280.182 108.066 280.182 109.98 279.001 111.161L272.662 117.5H280.251C280.665 117.5 281.001 117.836 281.001 118.25C281.001 118.664 280.665 119 280.251 119H267.751C267.698 119 267.645 118.994 267.595 118.984H267.563C267.36 118.984 267.166 118.902 267.025 118.757C266.884 118.611 266.807 118.415 266.813 118.213L266.904 114.998C266.909 114.807 266.987 114.624 267.123 114.489Z" fill="#BBBBBB"/>
<path d="M28.4053 114.861C28.4053 116.2 29.5034 117.451 31.2363 117.933L30.665 118.873C29.3447 118.498 28.3545 117.686 27.834 116.632C27.3389 117.806 26.3486 118.739 24.9902 119.165L24.4189 118.238C26.1455 117.686 27.2119 116.327 27.2119 114.861V114.721H24.7363V113.756H27.2119V112.385H28.418V113.756H30.8809V114.721H28.4053V114.861ZM26.2471 121.678C26.2407 120.345 27.707 119.59 30.0938 119.584C32.4741 119.59 33.9341 120.345 33.9404 121.678C33.9341 123.018 32.4741 123.792 30.0938 123.786C27.707 123.792 26.2407 123.018 26.2471 121.678ZM27.4404 121.678C27.4341 122.415 28.4243 122.853 30.0938 122.859C31.7632 122.853 32.7407 122.415 32.7471 121.678C32.7407 120.942 31.7632 120.523 30.0938 120.523C28.4243 120.523 27.4341 120.942 27.4404 121.678ZM30.5254 116.613V115.623H32.6963V112.436H33.9023V119.33H32.6963V116.613H30.5254ZM44.7061 113.147V114.15C44.7061 115.229 44.7061 116.403 44.3887 118.022H46.0264V119.012H41.418V123.824H40.1992V119.012H35.6543V118.022H43.1699C43.5063 116.397 43.5063 115.21 43.5127 114.15V114.137H36.9238V113.147H44.7061ZM56.6523 112.436V123.811H55.4971V117.933H54.0244V123.227H52.9199V112.665H54.0244V116.943H55.4971V112.436H56.6523ZM47.2705 121.082V113.807H51.5361V114.785H48.4766V120.053C49.873 120.047 50.9268 119.983 52.1455 119.749L52.2344 120.739C50.8696 121.024 49.689 121.069 48.0322 121.082H47.2705ZM62.0479 114.252C62.0415 115.743 63.0952 117.133 64.79 117.692L64.1426 118.644C62.8984 118.206 61.9653 117.317 61.4702 116.194C60.9751 117.47 60.0103 118.473 58.6836 118.961L58.0361 117.997C59.8135 117.368 60.8418 115.851 60.8545 114.15V113.033H62.0479V114.252ZM59.5723 121.678C59.5723 120.345 61.0259 119.565 63.3936 119.571C65.7295 119.565 67.1641 120.345 67.1641 121.678C67.1641 123.024 65.7295 123.792 63.3936 123.786C61.0259 123.792 59.5723 123.024 59.5723 121.678ZM60.7783 121.678C60.772 122.427 61.7495 122.834 63.3936 122.846C65.0249 122.834 65.9897 122.427 65.9834 121.678C65.9897 120.955 65.0249 120.523 63.3936 120.523C61.7495 120.523 60.772 120.955 60.7783 121.678ZM65.8564 119.304V112.436H67.0625V115.293H68.7129V116.308H67.0625V119.304H65.8564ZM73.3213 115.788C73.3149 117.584 74.502 119.59 76.2285 120.409L75.543 121.348C74.2671 120.739 73.2515 119.457 72.7373 117.971C72.2168 119.59 71.1504 120.993 69.8555 121.64L69.1445 120.688C70.8711 119.857 72.1216 117.711 72.1279 115.788V114.582H69.5635V113.579H75.7969V114.582H73.3213V115.788ZM77.0156 123.811V112.436H78.2217V116.943H80.0498V117.959H78.2217V123.811H77.0156ZM84.4805 113.541V122.732H83.0713V114.937H83.0205L80.8242 116.372V115.039L83.1094 113.541H84.4805Z" fill="#FF6600"/>
<path d="M33.9609 139.791C33.9609 144.478 30.8945 147.681 25.582 149.048L24.625 147.115C28.6289 146.089 30.8945 144.117 31.2852 141.724H25.6602V139.791H33.9609ZM27.5547 156.314V149.419H39.4102V156.314H27.5547ZM30.0352 154.361H36.9688V151.373H30.0352V154.361ZM36.9102 148.697V138.775H39.4102V148.697H36.9102ZM55.9141 138.775V144.224H58.3164V146.255H55.9141V152.037H53.4141V138.775H55.9141ZM41.8125 142.603V140.63H45.8555V138.736H48.3359V140.63H52.3594V142.603H41.8125ZM42.6719 146.666C42.6719 144.605 44.498 143.228 47.0859 143.228C49.6641 143.228 51.4609 144.605 51.4609 146.666C51.4609 148.716 49.6641 150.064 47.0859 150.064C44.498 150.064 42.6719 148.716 42.6719 146.666ZM44.3906 156.216V151.021H46.8711V154.224H56.5586V156.216H44.3906ZM45.1133 146.666C45.1035 147.642 45.8945 148.169 47.0859 148.169C48.2871 148.169 49.0977 147.642 49.0977 146.666C49.0977 145.679 48.2871 145.132 47.0859 145.123C45.8945 145.132 45.1035 145.679 45.1133 146.666ZM73.3164 138.755V145.982H75.6406V148.052H73.3164V156.529H70.7969V138.755H73.3164ZM58.8828 151.509C60.1816 151.509 61.6953 151.509 63.2773 151.47V149.947C61.3926 149.576 60.1621 148.375 60.1719 146.724C60.1621 144.742 61.959 143.384 64.5469 143.384C67.0859 143.384 68.9023 144.742 68.9219 146.724C68.9023 148.375 67.6523 149.586 65.7773 149.947V151.382C67.1836 151.304 68.5996 151.187 69.918 151.002L70.0742 152.818C66.2949 153.521 62.2129 153.55 59.2148 153.541L58.8828 151.509ZM59.2344 142.681V140.728H63.2773V138.853H65.7773V140.728H69.7812V142.681H59.2344ZM62.5352 146.724C62.5254 147.662 63.3262 148.169 64.5469 148.169C65.7285 148.169 66.5195 147.662 66.5195 146.724C66.5195 145.806 65.7285 145.289 64.5469 145.279C63.3262 145.289 62.5254 145.806 62.5352 146.724Z" fill="black"/>
<path d="M25.2441 182.732L29.7832 173.996V173.927H24.5469V172.834H31.0547V173.982L26.5293 182.732H25.2441ZM35.6758 182.869C33.4814 182.869 32.21 181.023 32.2168 177.783C32.21 174.57 33.4951 172.697 35.6758 172.697C37.8496 172.697 39.1348 174.57 39.1348 177.783C39.1348 181.023 37.8701 182.869 35.6758 182.869ZM33.4062 177.783C33.4131 180.346 34.2402 181.775 35.6758 181.775C37.1045 181.775 37.9385 180.346 37.9316 177.783C37.9385 175.219 37.0977 173.77 35.6758 173.763C34.2539 173.77 33.4131 175.219 33.4062 177.783ZM44.0156 182.869C41.8213 182.869 40.5498 181.023 40.5566 177.783C40.5498 174.57 41.835 172.697 44.0156 172.697C46.1895 172.697 47.4746 174.57 47.4746 177.783C47.4746 181.023 46.21 182.869 44.0156 182.869ZM41.7461 177.783C41.7529 180.346 42.5801 181.775 44.0156 181.775C45.4443 181.775 46.2783 180.346 46.2715 177.783C46.2783 175.219 45.4375 173.77 44.0156 173.763C42.5938 173.77 41.7529 175.219 41.7461 177.783ZM52.6152 172.834V182.732H51.3711V174.119H51.3164L48.9102 175.718V174.474L51.3711 172.834H52.6152ZM58.4941 182.869C56.2998 182.869 55.0283 181.023 55.0352 177.783C55.0283 174.57 56.3135 172.697 58.4941 172.697C60.668 172.697 61.9531 174.57 61.9531 177.783C61.9531 181.023 60.6885 182.869 58.4941 182.869ZM56.2246 177.783C56.2314 180.346 57.0586 181.775 58.4941 181.775C59.9229 181.775 60.7568 180.346 60.75 177.783C60.7568 175.219 59.916 173.77 58.4941 173.763C57.0723 173.77 56.2314 175.219 56.2246 177.783ZM67.0938 172.834V182.732H65.8496V174.119H65.7949L63.3887 175.718V174.474L65.8496 172.834H67.0938ZM77.5117 177.25V178.33H73.1777V177.25H77.5117ZM86.3164 172.834V182.732H85.0723V174.119H85.0176L82.6113 175.718V174.474L85.0723 172.834H86.3164Z" fill="#999999"/>
<circle cx="95" cy="177.732" r="4" fill="#999999"/>
<circle cx="105" cy="177.732" r="4" fill="#999999"/>
<circle cx="115" cy="177.732" r="4" fill="#999999"/>
<circle cx="125" cy="177.732" r="4" fill="#999999"/>
<circle cx="135" cy="177.732" r="4" fill="#999999"/>
<circle cx="145" cy="177.732" r="4" fill="#999999"/>
<path d="M28.1699 204.869C25.9756 204.869 24.7041 203.023 24.7109 199.783C24.7041 196.57 25.9893 194.697 28.1699 194.697C30.3438 194.697 31.6289 196.57 31.6289 199.783C31.6289 203.023 30.3643 204.869 28.1699 204.869ZM25.9004 199.783C25.9072 202.346 26.7344 203.775 28.1699 203.775C29.5986 203.775 30.4326 202.346 30.4258 199.783C30.4326 197.219 29.5918 195.77 28.1699 195.763C26.748 195.77 25.9072 197.219 25.9004 199.783ZM36.7695 194.834V204.732H35.5254V196.119H35.4707L33.0645 197.718V196.474L35.5254 194.834H36.7695ZM42.6484 204.869C40.4541 204.869 39.1826 203.023 39.1895 199.783C39.1826 196.57 40.4678 194.697 42.6484 194.697C44.8223 194.697 46.1074 196.57 46.1074 199.783C46.1074 203.023 44.8428 204.869 42.6484 204.869ZM40.3789 199.783C40.3857 202.346 41.2129 203.775 42.6484 203.775C44.0771 203.775 44.9111 202.346 44.9043 199.783C44.9111 197.219 44.0703 195.77 42.6484 195.763C41.2266 195.77 40.3857 197.219 40.3789 199.783ZM55.5273 199.25V200.33H51.1934V199.25H55.5273ZM64.332 194.834V204.732H63.0879V196.119H63.0332L60.627 197.718V196.474L63.0879 194.834H64.332ZM66.9707 204.732L66.957 203.83L70.334 200.275C71.5029 199.031 72.0635 198.361 72.0703 197.445C72.0635 196.426 71.2158 195.77 70.1016 195.763C68.9189 195.77 68.1807 196.515 68.1738 197.623H67.0117C66.998 195.873 68.3516 194.697 70.1426 194.697C71.9404 194.697 73.2119 195.907 73.2188 197.445C73.2119 198.552 72.6992 199.414 70.9492 201.218L68.6797 203.556V203.638H73.3965V204.732H66.9707ZM78.6055 204.869C76.6367 204.869 75.2217 203.816 75.1602 202.244H76.4043C76.4727 203.187 77.4092 203.775 78.5918 203.775C79.8975 203.775 80.8408 203.071 80.8477 202.039C80.8408 200.959 79.9795 200.2 78.4414 200.193H77.6348V199.113H78.4414C79.6445 199.113 80.4854 198.436 80.4785 197.418C80.4854 196.426 79.7607 195.77 78.6328 195.763C77.5732 195.77 76.6094 196.351 76.5547 197.322H75.3652C75.4268 195.75 76.8896 194.697 78.6465 194.697C80.5332 194.697 81.6816 195.934 81.668 197.349C81.6816 198.477 81.0254 199.297 79.9863 199.591V199.66C81.2783 199.858 82.0576 200.781 82.0508 202.039C82.0576 203.666 80.5811 204.869 78.6055 204.869ZM83.582 202.709V201.697L88.0391 194.834H89.5566V201.628H90.9375V202.709H89.5566V204.732H88.3809V202.709H83.582ZM84.9082 201.628H88.3809V196.392H88.2578L84.9082 201.546V201.628ZM96.8301 199.25V200.33H92.4961V199.25H96.8301ZM105.361 204.869C103.577 204.869 102.224 203.768 102.148 202.244H103.338C103.427 203.126 104.288 203.782 105.361 203.789C106.646 203.782 107.576 202.845 107.576 201.601C107.576 200.316 106.612 199.366 105.279 199.359C104.445 199.345 103.796 199.605 103.434 200.248H102.244L102.941 194.834H108.301V195.927H103.967L103.598 198.826H103.693C104.138 198.484 104.801 198.252 105.498 198.252C107.385 198.252 108.772 199.646 108.779 201.574C108.772 203.488 107.337 204.869 105.361 204.869ZM113.934 204.869C112.218 204.848 110.324 203.83 110.324 200.166C110.324 196.659 111.76 194.697 114.084 194.697C115.827 194.697 117.044 195.77 117.297 197.322H116.08C115.854 196.447 115.185 195.791 114.084 195.791C112.457 195.791 111.479 197.178 111.486 199.564H111.609C112.177 198.737 113.086 198.252 114.152 198.252C115.909 198.252 117.379 199.619 117.379 201.533C117.379 203.399 116.019 204.889 113.934 204.869ZM111.65 201.56C111.657 202.722 112.607 203.782 113.934 203.789C115.212 203.782 116.183 202.777 116.189 201.546C116.183 200.33 115.253 199.338 113.961 199.332C112.662 199.338 111.664 200.391 111.65 201.56ZM119.389 204.732L123.928 195.996V195.927H118.691V194.834H125.199V195.982L120.674 204.732H119.389ZM129.916 204.869C127.831 204.869 126.396 203.713 126.402 202.107C126.396 200.829 127.284 199.769 128.412 199.591V199.537C127.428 199.311 126.778 198.402 126.785 197.322C126.778 195.811 128.104 194.697 129.916 194.697C131.721 194.697 133.047 195.811 133.061 197.322C133.047 198.402 132.391 199.311 131.42 199.537V199.591C132.541 199.769 133.43 200.829 133.443 202.107C133.43 203.713 131.98 204.869 129.916 204.869ZM127.633 202.039C127.612 203.078 128.494 203.782 129.916 203.789C131.331 203.782 132.213 203.078 132.213 202.039C132.213 200.945 131.249 200.138 129.916 200.138C128.59 200.138 127.612 200.945 127.633 202.039ZM127.975 197.418C127.981 198.416 128.781 199.092 129.916 199.099C131.044 199.092 131.857 198.416 131.857 197.418C131.857 196.426 131.071 195.756 129.916 195.763C128.74 195.756 127.981 196.426 127.975 197.418Z" fill="#999999"/>
<path d="M26.1191 222.275V226.732H24.9434V216.834H26.1191V220.47H26.2148C26.5635 219.705 27.2266 219.212 28.4023 219.212C29.9199 219.212 30.9316 220.108 30.9316 222.015V226.732H29.7559V222.097C29.7559 220.928 29.1133 220.265 28.0469 220.265C26.9395 220.265 26.1191 220.99 26.1191 222.275ZM32.4629 224.627C32.4629 222.924 33.9668 222.535 35.252 222.439C35.7305 222.405 36.9268 222.336 37.2617 222.33V221.728C37.2617 220.785 36.7012 220.238 35.5801 220.238C34.6436 220.238 34.0762 220.669 33.9121 221.236H32.6816C32.832 220.04 33.9941 219.212 35.6348 219.212C36.6055 219.212 38.4307 219.5 38.4238 221.837V226.732H37.2617V225.72H37.207C36.9609 226.219 36.2842 226.903 34.9922 226.91C33.584 226.903 32.4629 226.076 32.4629 224.627ZM33.6387 224.681C33.6455 225.467 34.2949 225.864 35.1973 225.857C36.5234 225.864 37.2617 224.975 37.2617 224.039V223.294C36.9131 223.314 35.7441 223.403 35.3887 223.423C34.3223 223.492 33.6455 223.868 33.6387 224.681ZM41.4863 222.275V226.732H40.3105V219.308H41.4453V220.47H41.541C41.8896 219.711 42.5869 219.212 43.7148 219.212C45.2188 219.212 46.2236 220.128 46.2168 222.015V226.732H45.041V222.097C45.041 220.949 44.4121 220.265 43.3594 220.265C42.2793 220.265 41.4863 220.99 41.4863 222.275ZM49.2793 222.275V226.732H48.1035V216.834H49.2793V220.47H49.375C49.7236 219.705 50.3867 219.212 51.5625 219.212C53.0801 219.212 54.0918 220.108 54.0918 222.015V226.732H52.916V222.097C52.916 220.928 52.2734 220.265 51.207 220.265C50.0996 220.265 49.2793 220.99 49.2793 222.275ZM57.6465 226.732L55.3906 219.308H56.6348L58.2207 224.968H58.2891L59.8613 219.308H61.1191L62.6641 224.941H62.7461L64.332 219.308H65.5625L63.3066 226.732H62.1445L60.5312 221.072H60.4219L58.8223 226.732H57.6465ZM66.5059 224.627C66.5059 222.924 68.0098 222.535 69.2949 222.439C69.7734 222.405 70.9697 222.336 71.3047 222.33V221.728C71.3047 220.785 70.7441 220.238 69.623 220.238C68.6865 220.238 68.1191 220.669 67.9551 221.236H66.7246C66.875 220.04 68.0371 219.212 69.6777 219.212C70.6484 219.212 72.4736 219.5 72.4668 221.837V226.732H71.3047V225.72H71.25C71.0039 226.219 70.3271 226.903 69.0352 226.91C67.627 226.903 66.5059 226.076 66.5059 224.627ZM67.6816 224.681C67.6885 225.467 68.3379 225.864 69.2402 225.857C70.5664 225.864 71.3047 224.975 71.3047 224.039V223.294C70.9561 223.314 69.7871 223.403 69.4316 223.423C68.3652 223.492 67.6885 223.868 67.6816 224.681ZM74.3535 226.732V216.834H75.5293V222.589H75.666L78.8789 219.308H80.3281L77.1973 222.487L80.5605 226.732H79.0703L76.3154 223.232L75.5293 223.963V226.732H74.3535ZM86.4805 225.433C85.1064 225.426 84.1152 224.326 84.1152 222.548C84.1152 220.785 85.127 219.684 86.4941 219.677C87.4785 219.684 87.8818 220.313 88.0527 220.621H88.1211V219.787H89.1602V223.779C89.1807 224.312 89.3994 224.579 89.8438 224.572C90.6914 224.579 91.2588 223.587 91.2656 222.166C91.2793 219.588 89.4131 217.907 86.7949 217.9C84.0879 217.914 82.3447 220.005 82.3379 222.548C82.3379 225.331 83.8555 227.238 86.7402 227.211C87.6973 227.197 88.3262 227.135 89.1602 226.91V227.839C88.4424 228.031 87.6426 228.154 86.7402 228.154C83.3975 228.154 81.3467 226.014 81.3535 222.548C81.3398 219.315 83.6094 216.957 86.7949 216.957C90.0625 216.957 92.2637 219.178 92.25 222.125C92.2568 224.251 91.1631 225.488 89.7754 225.488C88.9141 225.488 88.2646 225.003 88.21 224.367H88.1211C87.9639 224.674 87.5469 225.426 86.4805 225.433ZM85.1816 222.535C85.1748 223.601 85.708 224.428 86.6582 224.435C87.6357 224.428 88.1279 223.669 88.1348 222.535C88.1279 221.427 87.6426 220.682 86.6582 220.675C85.7012 220.682 85.1748 221.489 85.1816 222.535ZM96.9121 229.671C95.1143 229.671 93.8975 228.885 93.7676 227.511H94.998C95.1553 228.27 95.8594 228.646 96.9121 228.646C98.1836 228.646 98.9629 228.092 98.9629 226.869V225.365H98.8672C98.6143 225.775 98.1426 226.616 96.707 226.623C94.9023 226.616 93.5488 225.255 93.5488 222.918C93.5488 220.634 94.8545 219.212 96.7207 219.212C98.1631 219.212 98.6279 220.087 98.8945 220.484H98.9902V219.308H100.139V226.937C100.132 228.851 98.7236 229.671 96.9121 229.671ZM94.7383 222.959C94.7383 224.497 95.4629 225.57 96.8711 225.57C98.2314 225.57 98.9834 224.592 98.9902 222.959C98.9834 221.366 98.252 220.265 96.8711 220.265C95.4424 220.265 94.7383 221.461 94.7383 222.959ZM102.012 226.732V219.308H103.146V220.47H103.242C103.55 219.677 104.268 219.212 105.238 219.212C106.209 219.212 106.872 219.677 107.221 220.47H107.303C107.679 219.705 108.465 219.212 109.531 219.212C110.851 219.212 111.801 220.019 111.801 221.769V226.732H110.625V221.783C110.618 220.689 109.935 220.265 109.121 220.265C108.089 220.265 107.501 220.962 107.494 221.906V226.732H106.305V221.66C106.312 220.826 105.71 220.265 104.855 220.265C103.967 220.265 103.188 221.017 103.188 222.097V226.732H102.012ZM113.332 224.627C113.332 222.924 114.836 222.535 116.121 222.439C116.6 222.405 117.796 222.336 118.131 222.33V221.728C118.131 220.785 117.57 220.238 116.449 220.238C115.513 220.238 114.945 220.669 114.781 221.236H113.551C113.701 220.04 114.863 219.212 116.504 219.212C117.475 219.212 119.3 219.5 119.293 221.837V226.732H118.131V225.72H118.076C117.83 226.219 117.153 226.903 115.861 226.91C114.453 226.903 113.332 226.076 113.332 224.627ZM114.508 224.681C114.515 225.467 115.164 225.864 116.066 225.857C117.393 225.864 118.131 224.975 118.131 224.039V223.294C117.782 223.314 116.613 223.403 116.258 223.423C115.191 223.492 114.515 223.868 114.508 224.681ZM121.18 226.732V219.308H122.355V226.732H121.18ZM120.947 217.298C120.94 216.861 121.316 216.512 121.768 216.519C122.219 216.512 122.595 216.861 122.602 217.298C122.595 217.729 122.219 218.078 121.768 218.078C121.316 218.078 120.94 217.729 120.947 217.298ZM125.404 216.834V226.732H124.229V216.834H125.404ZM128.111 226.814C127.633 226.807 127.223 226.411 127.236 225.925C127.223 225.447 127.633 225.05 128.111 225.05C128.597 225.05 128.993 225.447 128.986 225.925C128.993 226.411 128.597 226.807 128.111 226.814ZM133.867 226.882C131.762 226.889 130.477 225.283 130.477 223.054C130.477 220.798 131.823 219.212 133.84 219.212C135.419 219.212 136.608 220.149 136.793 221.55H135.617C135.446 220.874 134.858 220.252 133.867 220.252C132.541 220.252 131.659 221.345 131.652 223.013C131.659 224.729 132.521 225.83 133.867 225.83C134.742 225.83 135.412 225.358 135.617 224.544H136.793C136.608 225.871 135.515 226.889 133.867 226.882ZM141.277 226.882C139.254 226.889 137.887 225.358 137.887 223.054C137.887 220.737 139.254 219.212 141.277 219.212C143.294 219.212 144.647 220.737 144.641 223.054C144.647 225.358 143.294 226.889 141.277 226.882ZM139.062 223.054C139.069 224.538 139.767 225.843 141.277 225.843C142.774 225.843 143.465 224.538 143.465 223.054C143.465 221.578 142.774 220.252 141.277 220.252C139.767 220.252 139.069 221.578 139.062 223.054ZM146.186 226.732V219.308H147.32V220.47H147.416C147.724 219.677 148.441 219.212 149.412 219.212C150.383 219.212 151.046 219.677 151.395 220.47H151.477C151.853 219.705 152.639 219.212 153.705 219.212C155.024 219.212 155.975 220.019 155.975 221.769V226.732H154.799V221.783C154.792 220.689 154.108 220.265 153.295 220.265C152.263 220.265 151.675 220.962 151.668 221.906V226.732H150.479V221.66C150.485 220.826 149.884 220.265 149.029 220.265C148.141 220.265 147.361 221.017 147.361 222.097V226.732H146.186Z" fill="#999999"/>
<rect x="0.5" y="259.232" width="334.188" height="160" rx="15.5" fill="white"/>
<rect x="0.5" y="259.232" width="334.188" height="160" rx="15.5" stroke="#E8E8E8"/>
<path fill-rule="evenodd" clip-rule="evenodd" d="M301.188 281C301.188 279.895 302.083 279 303.188 279H305.188C306.292 279 307.188 279.895 307.188 281H308.688H310.188H310.438C310.852 281 311.188 281.336 311.188 281.75C311.188 282.164 310.852 282.5 310.438 282.5H310.188V290.5C310.188 291.881 309.068 293 307.688 293H300.687C299.307 293 298.188 291.881 298.188 290.5V282.5H297.938C297.523 282.5 297.188 282.164 297.188 281.75C297.188 281.336 297.523 281 297.938 281H298.188H299.688H301.188ZM302.688 281H305.688C305.688 280.724 305.464 280.5 305.188 280.5H303.188C302.911 280.5 302.688 280.724 302.688 281ZM299.688 282.5V290.5C299.688 291.052 300.135 291.5 300.687 291.5H307.688C308.24 291.5 308.688 291.052 308.688 290.5V282.5H299.688ZM306.688 285.75C306.688 285.336 306.352 285 305.938 285C305.523 285 305.188 285.336 305.188 285.75V288.25C305.188 288.664 305.523 289 305.938 289C306.352 289 306.688 288.664 306.688 288.25V285.75ZM302.438 285C302.852 285 303.188 285.336 303.188 285.75V288.25C303.188 288.664 302.852 289 302.438 289C302.023 289 301.688 288.664 301.688 288.25V285.75C301.688 285.336 302.023 285 302.438 285Z" fill="#BBBBBB"/>
<path fill-rule="evenodd" clip-rule="evenodd" d="M268.582 288.339L268.521 290.484L270.745 290.484L276.178 285.051L274.024 282.897L268.582 288.339ZM275.084 281.836L277.239 283.99L278.128 283.1C278.723 282.505 278.723 281.541 278.128 280.946C277.533 280.351 276.569 280.351 275.974 280.946L275.084 281.836ZM267.31 287.489L274.913 279.886C276.094 278.705 278.008 278.705 279.189 279.885C280.37 281.066 280.37 282.98 279.189 284.161L272.85 290.5H280.438C280.853 290.5 281.188 290.836 281.188 291.25C281.188 291.664 280.853 292 280.438 292H267.938C267.885 292 267.833 291.994 267.783 291.984H267.75C267.547 291.984 267.353 291.902 267.212 291.757C267.071 291.611 266.995 291.415 267 291.213L267.091 287.998C267.096 287.807 267.175 287.624 267.31 287.489Z" fill="#BBBBBB"/>
<path d="M28.4053 283.861C28.4053 285.2 29.5034 286.451 31.2363 286.933L30.665 287.873C29.3447 287.498 28.3545 286.686 27.834 285.632C27.3389 286.806 26.3486 287.739 24.9902 288.165L24.4189 287.238C26.1455 286.686 27.2119 285.327 27.2119 283.861V283.721H24.7363V282.756H27.2119V281.385H28.418V282.756H30.8809V283.721H28.4053V283.861ZM26.2471 290.678C26.2407 289.345 27.707 288.59 30.0938 288.584C32.4741 288.59 33.9341 289.345 33.9404 290.678C33.9341 292.018 32.4741 292.792 30.0938 292.786C27.707 292.792 26.2407 292.018 26.2471 290.678ZM27.4404 290.678C27.4341 291.415 28.4243 291.853 30.0938 291.859C31.7632 291.853 32.7407 291.415 32.7471 290.678C32.7407 289.942 31.7632 289.523 30.0938 289.523C28.4243 289.523 27.4341 289.942 27.4404 290.678ZM30.5254 285.613V284.623H32.6963V281.436H33.9023V288.33H32.6963V285.613H30.5254ZM44.7061 282.147V283.15C44.7061 284.229 44.7061 285.403 44.3887 287.022H46.0264V288.012H41.418V292.824H40.1992V288.012H35.6543V287.022H43.1699C43.5063 285.397 43.5063 284.21 43.5127 283.15V283.137H36.9238V282.147H44.7061ZM56.6523 281.436V292.811H55.4971V286.933H54.0244V292.227H52.9199V281.665H54.0244V285.943H55.4971V281.436H56.6523ZM47.2705 290.082V282.807H51.5361V283.785H48.4766V289.053C49.873 289.047 50.9268 288.983 52.1455 288.749L52.2344 289.739C50.8696 290.024 49.689 290.069 48.0322 290.082H47.2705ZM62.0479 283.252C62.0415 284.743 63.0952 286.133 64.79 286.692L64.1426 287.644C62.8984 287.206 61.9653 286.317 61.4702 285.194C60.9751 286.47 60.0103 287.473 58.6836 287.961L58.0361 286.997C59.8135 286.368 60.8418 284.851 60.8545 283.15V282.033H62.0479V283.252ZM59.5723 290.678C59.5723 289.345 61.0259 288.565 63.3936 288.571C65.7295 288.565 67.1641 289.345 67.1641 290.678C67.1641 292.024 65.7295 292.792 63.3936 292.786C61.0259 292.792 59.5723 292.024 59.5723 290.678ZM60.7783 290.678C60.772 291.427 61.7495 291.834 63.3936 291.846C65.0249 291.834 65.9897 291.427 65.9834 290.678C65.9897 289.955 65.0249 289.523 63.3936 289.523C61.7495 289.523 60.772 289.955 60.7783 290.678ZM65.8564 288.304V281.436H67.0625V284.293H68.7129V285.308H67.0625V288.304H65.8564ZM73.3213 284.788C73.3149 286.584 74.502 288.59 76.2285 289.409L75.543 290.348C74.2671 289.739 73.2515 288.457 72.7373 286.971C72.2168 288.59 71.1504 289.993 69.8555 290.64L69.1445 289.688C70.8711 288.857 72.1216 286.711 72.1279 284.788V283.582H69.5635V282.579H75.7969V283.582H73.3213V284.788ZM77.0156 292.811V281.436H78.2217V285.943H80.0498V286.959H78.2217V292.811H77.0156ZM80.9893 291.732V290.716L84.1758 287.504C85.1851 286.457 85.6865 285.873 85.6865 285.067C85.6865 284.159 84.9502 283.582 83.9854 283.582C82.9634 283.582 82.3159 284.229 82.3096 285.207H80.9893C80.9766 283.524 82.2588 282.414 84.0107 282.414C85.7817 282.414 87.0068 283.537 87.0195 285.029C87.0068 286.057 86.5244 286.876 84.7979 288.571L82.9316 290.462V290.539H87.1719V291.732H80.9893Z" fill="#FF6600"/>
<path d="M33.9609 308.791C33.9609 313.478 30.8945 316.681 25.582 318.048L24.625 316.115C28.6289 315.089 30.8945 313.117 31.2852 310.724H25.6602V308.791H33.9609ZM27.5547 325.314V318.419H39.4102V325.314H27.5547ZM30.0352 323.361H36.9688V320.373H30.0352V323.361ZM36.9102 317.697V307.775H39.4102V317.697H36.9102ZM48.375 312.599C48.3652 315.304 49.8105 318.429 52.7305 319.787L51.3438 321.74C49.3613 320.832 47.9551 319.015 47.1543 316.886C46.3633 319.23 44.8984 321.222 42.8477 322.189L41.4023 320.216C44.3613 318.839 45.8555 315.539 45.875 312.599V311.505H42.1055V309.474H51.9492V311.505H48.375V312.599ZM53.3359 325.529V307.755H55.8359V314.533H58.4531V316.623H55.8359V325.529H53.3359ZM74.1172 307.755V325.568H71.6367V317.462H66.8516V315.451H71.6367V313.478H66.8516V311.486H71.6367V307.755H74.1172ZM60.0156 321.72V309.611H62.5156V319.64C65.0156 319.611 66.959 319.494 69.0781 319.084L69.3125 321.134C66.832 321.613 64.5859 321.72 61.4805 321.72H60.0156Z" fill="black"/>
<path d="M28.4297 341.834V351.732H27.1855V343.119H27.1309L24.7246 344.718V343.474L27.1855 341.834H28.4297ZM34.5684 341.834V351.732H33.3242V343.119H33.2695L30.8633 344.718V343.474L33.3242 341.834H34.5684ZM40.4473 351.869C38.2529 351.869 36.9814 350.023 36.9883 346.783C36.9814 343.57 38.2666 341.697 40.4473 341.697C42.6211 341.697 43.9062 343.57 43.9062 346.783C43.9062 350.023 42.6416 351.869 40.4473 351.869ZM38.1777 346.783C38.1846 349.346 39.0117 350.775 40.4473 350.775C41.876 350.775 42.71 349.346 42.7031 346.783C42.71 344.219 41.8691 342.77 40.4473 342.763C39.0254 342.77 38.1846 344.219 38.1777 346.783ZM49.0469 341.834V351.732H47.8027V343.119H47.748L45.3418 344.718V343.474L47.8027 341.834H49.0469ZM54.9258 351.869C52.7314 351.869 51.46 350.023 51.4668 346.783C51.46 343.57 52.7451 341.697 54.9258 341.697C57.0996 341.697 58.3848 343.57 58.3848 346.783C58.3848 350.023 57.1201 351.869 54.9258 351.869ZM52.6562 346.783C52.6631 349.346 53.4902 350.775 54.9258 350.775C56.3545 350.775 57.1885 349.346 57.1816 346.783C57.1885 344.219 56.3477 342.77 54.9258 342.763C53.5039 342.77 52.6631 344.219 52.6562 346.783ZM63.5254 341.834V351.732H62.2812V343.119H62.2266L59.8203 344.718V343.474L62.2812 341.834H63.5254ZM73.9434 346.25V347.33H69.6094V346.25H73.9434ZM79.248 351.732L79.2344 350.83L82.6113 347.275C83.7803 346.031 84.3408 345.361 84.3477 344.445C84.3408 343.426 83.4932 342.77 82.3789 342.763C81.1963 342.77 80.458 343.515 80.4512 344.623H79.2891C79.2754 342.873 80.6289 341.697 82.4199 341.697C84.2178 341.697 85.4893 342.907 85.4961 344.445C85.4893 345.552 84.9766 346.414 83.2266 348.218L80.957 350.556V350.638H85.6738V351.732H79.248Z" fill="#999999"/>
<circle cx="93" cy="346.732" r="4" fill="#999999"/>
<circle cx="103" cy="346.732" r="4" fill="#999999"/>
<circle cx="113" cy="346.732" r="4" fill="#999999"/>
<circle cx="123" cy="346.732" r="4" fill="#999999"/>
<circle cx="133" cy="346.732" r="4" fill="#999999"/>
<circle cx="143" cy="346.732" r="4" fill="#999999"/>
<path d="M28.1699 373.869C25.9756 373.869 24.7041 372.023 24.7109 368.783C24.7041 365.57 25.9893 363.697 28.1699 363.697C30.3438 363.697 31.6289 365.57 31.6289 368.783C31.6289 372.023 30.3643 373.869 28.1699 373.869ZM25.9004 368.783C25.9072 371.346 26.7344 372.775 28.1699 372.775C29.5986 372.775 30.4326 371.346 30.4258 368.783C30.4326 366.219 29.5918 364.77 28.1699 364.763C26.748 364.77 25.9072 366.219 25.9004 368.783ZM36.7695 363.834V373.732H35.5254V365.119H35.4707L33.0645 366.718V365.474L35.5254 363.834H36.7695ZM42.6484 373.869C40.4541 373.869 39.1826 372.023 39.1895 368.783C39.1826 365.57 40.4678 363.697 42.6484 363.697C44.8223 363.697 46.1074 365.57 46.1074 368.783C46.1074 372.023 44.8428 373.869 42.6484 373.869ZM40.3789 368.783C40.3857 371.346 41.2129 372.775 42.6484 372.775C44.0771 372.775 44.9111 371.346 44.9043 368.783C44.9111 366.219 44.0703 364.77 42.6484 364.763C41.2266 364.77 40.3857 366.219 40.3789 368.783ZM55.5273 368.25V369.33H51.1934V368.25H55.5273ZM64.0723 373.869C61.8779 373.869 60.6064 372.023 60.6133 368.783C60.6064 365.57 61.8916 363.697 64.0723 363.697C66.2461 363.697 67.5312 365.57 67.5312 368.783C67.5312 372.023 66.2666 373.869 64.0723 373.869ZM61.8027 368.783C61.8096 371.346 62.6367 372.775 64.0723 372.775C65.501 372.775 66.335 371.346 66.3281 368.783C66.335 366.219 65.4941 364.77 64.0723 364.763C62.6504 364.77 61.8096 366.219 61.8027 368.783ZM72.4668 363.697C74.1689 363.717 76.0625 364.743 76.0625 368.386C76.0625 371.907 74.6201 373.869 72.3027 373.869C70.5596 373.869 69.3359 372.802 69.0898 371.23H70.3066C70.5254 372.119 71.2021 372.775 72.3027 372.775C73.916 372.775 74.9004 371.38 74.9141 368.974H74.7773C74.21 369.794 73.3008 370.287 72.248 370.287C70.4775 370.287 69.0078 368.926 69.0078 367.019C69.0078 365.173 70.3613 363.676 72.4668 363.697ZM70.2109 367.005C70.2041 368.229 71.1338 369.207 72.4258 369.207C73.7178 369.207 74.7227 368.14 74.7227 366.978C74.7227 365.843 73.7725 364.777 72.4668 364.777C71.1748 364.777 70.1973 365.782 70.2109 367.005ZM81.0664 373.869C78.9814 373.869 77.5459 372.713 77.5527 371.107C77.5459 369.829 78.4346 368.769 79.5625 368.591V368.537C78.5781 368.311 77.9287 367.402 77.9355 366.322C77.9287 364.811 79.2549 363.697 81.0664 363.697C82.8711 363.697 84.1973 364.811 84.2109 366.322C84.1973 367.402 83.541 368.311 82.5703 368.537V368.591C83.6914 368.769 84.5801 369.829 84.5938 371.107C84.5801 372.713 83.1309 373.869 81.0664 373.869ZM78.7832 371.039C78.7627 372.078 79.6445 372.782 81.0664 372.789C82.4814 372.782 83.3633 372.078 83.3633 371.039C83.3633 369.945 82.3994 369.138 81.0664 369.138C79.7402 369.138 78.7627 369.945 78.7832 371.039ZM79.125 366.418C79.1318 367.416 79.9316 368.092 81.0664 368.099C82.1943 368.092 83.0078 367.416 83.0078 366.418C83.0078 365.426 82.2217 364.756 81.0664 364.763C79.8906 364.756 79.1318 365.426 79.125 366.418ZM86.5625 373.732L91.1016 364.996V364.927H85.8652V363.834H92.373V364.982L87.8477 373.732H86.5625ZM98.2383 368.25V369.33H93.9043V368.25H98.2383ZM106.988 373.869C105.272 373.848 103.379 372.83 103.379 369.166C103.379 365.659 104.814 363.697 107.139 363.697C108.882 363.697 110.099 364.77 110.352 366.322H109.135C108.909 365.447 108.239 364.791 107.139 364.791C105.512 364.791 104.534 366.178 104.541 368.564H104.664C105.231 367.737 106.141 367.252 107.207 367.252C108.964 367.252 110.434 368.619 110.434 370.533C110.434 372.399 109.073 373.889 106.988 373.869ZM104.705 370.56C104.712 371.722 105.662 372.782 106.988 372.789C108.267 372.782 109.237 371.777 109.244 370.546C109.237 369.33 108.308 368.338 107.016 368.332C105.717 368.338 104.719 369.391 104.705 370.56ZM115.355 373.869C113.571 373.869 112.218 372.768 112.143 371.244H113.332C113.421 372.126 114.282 372.782 115.355 372.789C116.641 372.782 117.57 371.845 117.57 370.601C117.57 369.316 116.606 368.366 115.273 368.359C114.439 368.345 113.79 368.605 113.428 369.248H112.238L112.936 363.834H118.295V364.927H113.961L113.592 367.826H113.688C114.132 367.484 114.795 367.252 115.492 367.252C117.379 367.252 118.767 368.646 118.773 370.574C118.767 372.488 117.331 373.869 115.355 373.869ZM120.236 371.709V370.697L124.693 363.834H126.211V370.628H127.592V371.709H126.211V373.732H125.035V371.709H120.236ZM121.562 370.628H125.035V365.392H124.912L121.562 370.546V370.628ZM132.637 373.869C130.668 373.869 129.253 372.816 129.191 371.244H130.436C130.504 372.187 131.44 372.775 132.623 372.775C133.929 372.775 134.872 372.071 134.879 371.039C134.872 369.959 134.011 369.2 132.473 369.193H131.666V368.113H132.473C133.676 368.113 134.517 367.436 134.51 366.418C134.517 365.426 133.792 364.77 132.664 364.763C131.604 364.77 130.641 365.351 130.586 366.322H129.396C129.458 364.75 130.921 363.697 132.678 363.697C134.564 363.697 135.713 364.934 135.699 366.349C135.713 367.477 135.057 368.297 134.018 368.591V368.66C135.31 368.858 136.089 369.781 136.082 371.039C136.089 372.666 134.612 373.869 132.637 373.869Z" fill="#999999"/>
<path d="M34.5137 384.685V396.867H33.4336V384.685H34.5137ZM24.9434 389.867C24.9502 387.283 26.2354 385.635 28.0469 385.628C29.8516 385.635 31.1572 387.283 31.1504 389.867C31.1572 392.458 29.8516 394.098 28.0469 394.091C26.2354 394.098 24.9502 392.458 24.9434 389.867ZM25.9824 389.867C25.9824 391.842 26.8301 393.141 28.0469 393.134C29.2705 393.141 30.1113 391.842 30.1113 389.867C30.1113 387.891 29.2705 386.592 28.0469 386.586C26.8301 386.592 25.9824 387.891 25.9824 389.867ZM41.6914 386.107V389.279H43.5371V384.945H44.5625V396.224H43.5371V390.168H41.6914V393.572H37.043V386.107H41.6914ZM38.0547 392.711H40.6797V386.968H38.0547V392.711ZM45.9707 396.839V384.685H47.0098V396.839H45.9707ZM52.1367 385.136C53.9551 385.143 55.2744 386.251 55.2812 387.83C55.2744 389.416 53.9551 390.509 52.1367 390.509C50.2979 390.509 48.9717 389.416 48.9785 387.83C48.9717 386.251 50.2979 385.143 52.1367 385.136ZM50.0312 387.83C50.0176 388.896 50.9131 389.634 52.1367 389.634C53.3398 389.634 54.2422 388.896 54.2422 387.83C54.2422 386.777 53.3398 386.032 52.1367 386.039C50.9131 386.032 50.0176 386.777 50.0312 387.83ZM50.8242 392.382V391.521H58.7266V394.447H51.9043V395.814H59.1641V396.675H50.8516V393.64H57.6602V392.382H50.8242ZM57.6602 390.933V384.685H58.7266V390.933H57.6602ZM61.543 391.959C61.5566 389.381 62.2539 387.235 63.5117 385.41H64.5508C63.6279 386.756 62.7666 389.525 62.7598 391.959C62.7666 394.399 63.6279 397.161 64.5508 398.521H63.5117C62.2539 396.689 61.5566 394.543 61.543 391.959ZM69.7188 386.982C69.7188 388.677 70.9492 390.277 72.7266 390.919L72.125 391.753C70.792 391.227 69.7256 390.174 69.2061 388.848C68.6934 390.318 67.5859 391.48 66.1504 392.054L65.5762 391.179C67.4014 390.509 68.6592 388.807 68.666 386.941V385.437H69.7188V386.982ZM67.7773 396.58V392.765H68.8574V395.677H75.9121V396.58H67.7773ZM71.8516 388.459V387.556H74.5586V384.699H75.6387V393.804H74.5586V388.459H71.8516ZM82.9258 385.574V386.476H79.2344V387.994H82.7891V388.841H79.2344V390.523C81.0049 390.516 82.1123 390.448 83.418 390.195L83.5273 391.084C82.0986 391.364 80.9502 391.419 78.9746 391.425H78.209V385.574H82.9258ZM79.7949 393.572V392.697H87.9844V396.839H86.9316V393.572H79.7949ZM84.252 391.986V384.931H85.25V387.871H86.959V384.699H87.9844V392.068H86.959V388.746H85.25V391.986H84.252ZM92.7969 391.959C92.7832 394.543 92.0859 396.689 90.8281 398.521H89.7891C90.7119 397.161 91.5732 394.399 91.5801 391.959C91.5732 389.525 90.7119 386.756 89.7891 385.41H90.8281C92.0859 387.235 92.7832 389.381 92.7969 391.959Z" fill="#999999"/>
<path fill-rule="evenodd" clip-rule="evenodd" d="M111 452.232C111 455.822 113.91 458.732 117.5 458.732C121.09 458.732 124 455.822 124 452.232C124 448.642 121.09 445.732 117.5 445.732C113.91 445.732 111 448.642 111 452.232ZM117.5 444.232C113.082 444.232 109.5 447.814 109.5 452.232C109.5 456.65 113.082 460.232 117.5 460.232C121.918 460.232 125.5 456.65 125.5 452.232C125.5 447.814 121.918 444.232 117.5 444.232ZM117.5 447.482C117.914 447.482 118.25 447.818 118.25 448.232V451.482H121.5C121.914 451.482 122.25 451.818 122.25 452.232C122.25 452.646 121.914 452.982 121.5 452.982H118.25V456.232C118.25 456.646 117.914 456.982 117.5 456.982C117.086 456.982 116.75 456.646 116.75 456.232V452.982H113.5C113.086 452.982 112.75 452.646 112.75 452.232C112.75 451.818 113.086 451.482 113.5 451.482H116.75V448.232C116.75 447.818 117.086 447.482 117.5 447.482Z" fill="#FF6600"/>
<path d="M138.244 448.255C138.244 449.698 139.427 451.044 141.293 451.564L140.678 452.576C139.256 452.172 138.189 451.297 137.629 450.163C137.096 451.427 136.029 452.432 134.566 452.89L133.951 451.892C135.811 451.297 136.959 449.835 136.959 448.255V448.105H134.293V447.066H136.959V445.589H138.258V447.066H140.91V448.105H138.244V448.255ZM135.92 455.597C135.913 454.162 137.492 453.348 140.062 453.341C142.626 453.348 144.198 454.162 144.205 455.597C144.198 457.04 142.626 457.874 140.062 457.867C137.492 457.874 135.913 457.04 135.92 455.597ZM137.205 455.597C137.198 456.39 138.265 456.862 140.062 456.869C141.86 456.862 142.913 456.39 142.92 455.597C142.913 454.804 141.86 454.353 140.062 454.353C138.265 454.353 137.198 454.804 137.205 455.597ZM140.527 450.142V449.076H142.865V445.644H144.164V453.068H142.865V450.142H140.527ZM155.799 446.41V447.49C155.799 448.652 155.799 449.917 155.457 451.66H157.221V452.726H152.258V457.908H150.945V452.726H146.051V451.66H154.145C154.507 449.91 154.507 448.631 154.514 447.49V447.476H147.418V446.41H155.799ZM172.082 445.644V457.894H170.838V451.564H169.252V457.265H168.062V445.89H169.252V450.498H170.838V445.644H172.082ZM161.979 454.955V447.121H166.572V448.173H163.277V453.847C164.781 453.84 165.916 453.772 167.229 453.519L167.324 454.586C165.854 454.893 164.583 454.941 162.799 454.955H161.979ZM177.893 447.599C177.886 449.206 179.021 450.703 180.846 451.304L180.148 452.33C178.809 451.858 177.804 450.901 177.271 449.691C176.737 451.065 175.698 452.145 174.27 452.671L173.572 451.632C175.486 450.956 176.594 449.322 176.607 447.49V446.287H177.893V447.599ZM175.227 455.597C175.227 454.162 176.792 453.321 179.342 453.328C181.857 453.321 183.402 454.162 183.402 455.597C183.402 457.046 181.857 457.874 179.342 457.867C176.792 457.874 175.227 457.046 175.227 455.597ZM176.525 455.597C176.519 456.404 177.571 456.841 179.342 456.855C181.099 456.841 182.138 456.404 182.131 455.597C182.138 454.818 181.099 454.353 179.342 454.353C177.571 454.353 176.519 454.818 176.525 455.597ZM181.994 453.041V445.644H183.293V448.72H185.07V449.814H183.293V453.041H181.994ZM190.033 449.253C190.026 451.188 191.305 453.348 193.164 454.23L192.426 455.242C191.052 454.586 189.958 453.205 189.404 451.605C188.844 453.348 187.695 454.859 186.301 455.556L185.535 454.531C187.395 453.635 188.741 451.325 188.748 449.253V447.955H185.986V446.875H192.699V447.955H190.033V449.253ZM194.012 457.894V445.644H195.311V450.498H197.279V451.591H195.311V457.894H194.012ZM212.455 453.027V454.093H207.506V457.908H206.221V454.093H201.285V453.027H212.455ZM201.941 451.14C204.266 450.846 206.139 449.547 206.221 448.173H202.338V447.121H206.221V445.644H207.506V447.121H211.389V448.173H207.52C207.588 449.534 209.44 450.846 211.771 451.14L211.307 452.179C209.338 451.906 207.663 450.983 206.87 449.732C206.077 450.997 204.396 451.906 202.42 452.179L201.941 451.14ZM222.928 445.644V450.525H224.828V451.605H222.928V457.88H221.629V445.644H222.928ZM213.398 454.613C216.468 453.082 218.136 450.867 218.402 448.009H214.014V446.929H219.729C219.715 450.47 218.156 453.635 214.123 455.625L213.398 454.613Z" fill="#888888"/>
<path d="M14.976 10.328H9.936C9.984 11.624 10.536 12.68 11.568 13.496C12.552 14.336 13.824 14.744 15.384 14.744V17.168C12.96 17.168 10.872 16.568 9.12 15.344C8.76 15.104 8.448 14.84 8.184 14.552C7.896 14.84 7.584 15.104 7.248 15.344C5.472 16.568 3.384 17.168 0.984 17.168V14.744C2.52 14.744 3.792 14.336 4.8 13.496C5.808 12.68 6.36 11.624 6.432 10.328H1.392V7.904H14.976V10.328ZM4.272 4.688H12.096V7.136H4.272V4.688ZM17.544 5.072H21.072V17.576H17.544V13.64H13.488V10.952H17.544V5.072ZM20.904 22.016C20.904 23.336 20.28 24.464 19.032 25.4C17.76 26.36 16.104 26.84 14.064 26.84C12.024 26.84 10.368 26.36 9.12 25.4C7.848 24.464 7.224 23.336 7.224 22.016C7.224 20.696 7.848 19.568 9.12 18.608C10.368 17.696 12.024 17.216 14.064 17.216C16.104 17.216 17.76 17.696 19.032 18.608C20.28 19.568 20.904 20.696 20.904 22.016ZM14.064 19.712C13.056 19.712 12.264 19.928 11.664 20.36C11.04 20.792 10.752 21.344 10.752 22.016C10.752 22.688 11.04 23.24 11.664 23.672C12.24 24.104 13.056 24.32 14.064 24.32C15.048 24.32 15.84 24.128 16.464 23.696C17.064 23.288 17.376 22.736 17.376 22.016C17.376 21.344 17.064 20.792 16.464 20.36C15.84 19.928 15.024 19.712 14.064 19.712ZM39.3591 5.384C41.8551 5.384 43.1271 6.656 43.1271 9.176V16.256H39.5751V9.896C39.5751 8.744 38.9751 8.144 37.7991 8.144H26.1111V5.384H39.3591ZM45.7431 19.88H36.6711V26.168H33.0711V19.88H24.0231V17.12H45.7431V19.88ZM51.1498 5.096H58.4458V7.76H51.1498V5.096ZM61.5898 11.144H48.0058V8.504H61.5898V11.144ZM48.7258 17.168C48.7258 15.704 49.2778 14.432 50.4298 13.328C51.5578 12.272 53.0218 11.72 54.7978 11.72C56.5738 11.72 58.0138 12.272 59.1658 13.328C60.2938 14.432 60.8698 15.704 60.8698 17.168C60.8698 18.656 60.2938 19.928 59.1658 20.984C58.0138 22.088 56.5738 22.616 54.7978 22.616C53.0218 22.616 51.5578 22.088 50.4298 20.984C49.2778 19.928 48.7258 18.656 48.7258 17.168ZM52.2298 17.168C52.2298 18.032 52.4938 18.704 53.0218 19.208C53.5258 19.736 54.1258 20 54.7978 20C55.4698 20 56.0698 19.736 56.5978 19.208C57.1018 18.704 57.3658 18.032 57.3658 17.168C57.3658 16.328 57.1018 15.632 56.5978 15.104C56.0698 14.6 55.4698 14.336 54.7978 14.336C54.1258 14.336 53.5258 14.6 53.0218 15.104C52.4938 15.632 52.2298 16.328 52.2298 17.168ZM70.1818 15.344H67.1098V26.168H63.5818V5.072H67.1098V12.56H70.1818V15.344ZM80.1006 5.384V8.504C80.1006 12.128 80.6526 14.744 81.7806 16.328C82.7166 17.672 83.9406 18.608 85.4526 19.088V21.824C82.9086 21.368 80.8206 20.192 79.2366 18.272C78.9006 17.888 78.6126 17.48 78.3486 17C78.0606 17.48 77.7726 17.888 77.4606 18.272C75.8526 20.192 73.7886 21.368 71.2446 21.824V19.088C72.7326 18.608 73.9566 17.672 74.9166 16.328C76.0206 14.744 76.5966 12.128 76.5966 8.504V5.384H80.1006ZM87.3246 26.168V5.072H90.8766V26.168H87.3246ZM99.5091 5.312V10.04C99.5091 11 100.037 11.456 101.093 11.456H112.997V14.12H100.133C97.3491 14.12 95.9571 12.992 95.9571 10.736V5.312H99.5091ZM115.493 18.416H93.7731V15.656H115.493V18.416ZM101.525 23.408H113.213V26.12H100.085C97.5411 26.12 96.2931 24.752 96.2931 22.016V19.568H99.8451V21.584C99.8451 22.808 100.397 23.408 101.525 23.408ZM126.589 11.504V5.216H130.117V7.832H140.053V5.216H143.581V14.96H130.309C127.813 14.96 126.589 13.808 126.589 11.504ZM130.117 11.384C130.117 12.056 130.501 12.392 131.293 12.392H140.053V10.376H130.117V11.384ZM146.173 18.584H137.557V21.944H134.005V18.584H124.453V15.896H146.173V18.584ZM132.205 23.456H143.893V26.12H130.765C128.221 26.12 126.973 24.776 126.973 22.04V20H130.525V21.632C130.525 22.856 131.077 23.456 132.205 23.456ZM149.564 11.384C149.564 9.656 150.188 8.192 151.436 6.992C152.684 5.816 154.316 5.216 156.332 5.216C158.348 5.216 159.98 5.816 161.228 6.992C162.476 8.192 163.1 9.656 163.1 11.384C163.1 13.112 162.476 14.552 161.228 15.728C159.98 16.928 158.348 17.504 156.332 17.504C154.316 17.504 152.684 16.928 151.436 15.728C150.188 14.552 149.564 13.112 149.564 11.384ZM159.548 11.384C159.548 10.376 159.236 9.536 158.636 8.888C158.012 8.264 157.244 7.928 156.332 7.928C155.396 7.928 154.628 8.264 154.028 8.888C153.404 9.536 153.116 10.376 153.116 11.384C153.116 12.392 153.404 13.208 154.028 13.832C154.628 14.48 155.396 14.792 156.332 14.792C157.244 14.792 158.012 14.48 158.636 13.832C159.236 13.208 159.548 12.392 159.548 11.384ZM148.7 19.856H160.411C163.292 19.856 164.732 18.8 164.732 16.688V5.072H168.284V26.168H164.732V21.752C163.988 22.376 162.836 22.664 161.299 22.664H148.7V19.856ZM185.396 12.608C185.06 13.064 184.652 13.472 184.22 13.808C182.588 15.104 180.62 15.896 178.316 16.136V13.568C179.756 13.352 180.98 12.752 181.964 11.768C182.828 10.904 183.355 9.656 183.548 7.976H178.796V5.408H191.996V7.976H187.244C187.436 9.656 187.964 10.904 188.828 11.768C189.788 12.752 191.012 13.352 192.476 13.568V16.136C190.148 15.896 188.18 15.104 186.572 13.808C186.116 13.472 185.732 13.064 185.396 12.608ZM194.732 5.072H198.26V16.664H194.732V11.792H190.196V9.056H194.732V5.072ZM198.092 21.512C198.092 22.976 197.468 24.224 196.22 25.256C194.972 26.312 193.316 26.84 191.252 26.84C189.188 26.84 187.556 26.312 186.308 25.256C185.036 24.224 184.412 22.976 184.412 21.512C184.412 20.072 185.036 18.824 186.308 17.792C187.556 16.784 189.188 16.256 191.252 16.256C193.316 16.256 194.972 16.784 196.22 17.792C197.468 18.824 198.092 20.072 198.092 21.512ZM191.252 18.848C190.244 18.848 189.428 19.112 188.852 19.64C188.228 20.168 187.94 20.792 187.94 21.512C187.94 22.232 188.228 22.88 188.852 23.408C189.428 23.96 190.244 24.224 191.252 24.224C192.236 24.224 193.028 23.96 193.652 23.408C194.252 22.88 194.564 22.256 194.564 21.512C194.564 20.792 194.252 20.168 193.652 19.64C193.028 19.112 192.236 18.848 191.252 18.848ZM220.339 17.72H213.859V21.272H222.931V24.032H201.211V21.272H210.259V17.72H207.163C204.619 17.72 203.347 16.448 203.347 13.904V5.552H206.875V9.2H216.811V5.552H220.339V17.72ZM216.811 15.008V11.888H206.875V13.688C206.875 14.576 207.355 15.008 208.339 15.008H216.811ZM242.977 5.12C243.721 5.12 244.105 5.48 244.105 6.176V10.352H230.641V10.616C230.641 11.048 231.025 11.24 231.817 11.24H244.321V13.424H230.953C228.385 13.424 227.113 12.536 227.113 10.736V8.168H240.577V7.328H227.113V5.12H242.977ZM224.929 14.456H246.649V16.832H224.929V14.456ZM227.449 22.88V20.84H240.577V20.024H227.449V17.84H243.481C243.889 17.84 244.105 18.032 244.105 18.416V23.024H230.977V23.192C230.977 23.672 231.409 23.888 232.273 23.888H244.153V26.12H231.433C228.769 26.12 227.449 25.04 227.449 22.88ZM4.56 35.712H12.336V37.968H4.56V35.712ZM15.432 40.896H13.632C14.064 41.496 14.304 42.144 14.304 42.84C14.304 43.944 13.752 44.904 12.672 45.72C11.976 46.248 11.16 46.584 10.224 46.776V47.736H12.984C15.6 47.736 16.92 46.752 16.92 44.784V36.072H20.448V42.888H23.424V45.312H20.448V50.808H16.92V49.416C16.224 49.944 15.072 50.184 13.488 50.184H0.984V47.736H6.672V46.776C5.712 46.584 4.896 46.248 4.224 45.72C3.12 44.904 2.592 43.944 2.592 42.84C2.592 42.144 2.808 41.496 3.264 40.896H1.368V38.64H15.432V40.896ZM8.448 44.808C9.12 44.808 9.696 44.64 10.176 44.28C10.608 43.944 10.848 43.464 10.848 42.84C10.848 42.24 10.608 41.76 10.176 41.4C9.696 41.064 9.12 40.896 8.448 40.896C7.752 40.896 7.176 41.064 6.744 41.4C6.264 41.76 6.048 42.24 6.048 42.84C6.048 43.464 6.264 43.944 6.744 44.28C7.176 44.64 7.752 44.808 8.448 44.808ZM3.528 51.336H18.768C19.872 51.336 20.448 51.864 20.448 52.872V57.312H16.896V53.688H3.528V51.336ZM31.5668 48.84C29.6468 48.84 28.0868 48.24 26.9108 47.016C25.7108 45.816 25.1108 44.328 25.1108 42.552C25.1108 40.776 25.7108 39.288 26.9108 38.04C28.0868 36.84 29.6468 36.216 31.5668 36.216C33.4868 36.216 35.0468 36.84 36.2468 38.04C37.4228 39.288 38.0228 40.776 38.0228 42.552C38.0228 44.328 37.4228 45.816 36.2468 47.016C35.0468 48.24 33.4868 48.84 31.5668 48.84ZM31.5668 46.2C32.3828 46.2 33.0788 45.864 33.6548 45.168C34.2068 44.496 34.4948 43.632 34.4948 42.552C34.4948 41.472 34.2068 40.584 33.6548 39.888C33.0788 39.216 32.3828 38.856 31.5668 38.856C30.7268 38.856 30.0308 39.216 29.4788 39.888C28.9028 40.584 28.6388 41.472 28.6388 42.552C28.6388 43.632 28.9028 44.496 29.4788 45.168C30.0308 45.864 30.7268 46.2 31.5668 46.2ZM40.6388 51.36V36.072H44.1908V51.36H40.6388ZM33.3668 54.456H44.5268V57.12H32.1668C29.4788 57.12 28.1588 55.872 28.1588 53.328V49.968H31.7108V52.752C31.7108 53.904 32.2628 54.456 33.3668 54.456ZM49.3433 36.096H55.9193V38.76H49.3433V36.096ZM58.4633 42.144H46.7513V39.504H58.4633V42.144ZM58.0073 48.168C58.0073 49.704 57.5033 51 56.4953 52.032C55.4873 53.088 54.1913 53.616 52.6073 53.616C51.0233 53.616 49.7513 53.088 48.7673 52.032C47.7593 51 47.2553 49.704 47.2553 48.168C47.2553 46.632 47.7593 45.336 48.7673 44.28C49.7513 43.248 51.0233 42.72 52.6073 42.72C54.1913 42.72 55.4873 43.248 56.4953 44.28C57.5033 45.336 58.0073 46.632 58.0073 48.168ZM54.6953 48.168C54.6953 47.28 54.5033 46.584 54.1193 46.08C53.7353 45.6 53.2073 45.336 52.5833 45.336C51.9593 45.336 51.4793 45.576 51.1193 46.056C50.7353 46.56 50.5673 47.256 50.5673 48.168C50.5673 49.08 50.7353 49.776 51.1193 50.256C51.4793 50.76 51.9593 51 52.5833 51C53.2073 51 53.7353 50.76 54.1193 50.256C54.5033 49.776 54.6953 49.08 54.6953 48.168ZM64.1033 36.072H67.4393V57.168H64.1033V45.744H62.6153V57.168H59.3273V36.072H62.6153V42.984H64.1033V36.072ZM89.9263 39.096H82.7983C83.0623 40.536 83.9023 41.736 85.3183 42.696C86.6863 43.656 88.3183 44.184 90.2383 44.232V46.92C87.5983 46.944 85.2703 46.32 83.2063 45.048C82.2943 44.496 81.5263 43.848 80.9263 43.08C80.3023 43.848 79.5343 44.496 78.6223 45.048C76.5583 46.32 74.2063 46.944 71.5903 46.92V44.232C73.4863 44.184 75.1183 43.656 76.5103 42.696C77.9023 41.736 78.7423 40.536 79.0303 39.096H71.9263V36.384H89.9263V39.096ZM91.7743 51H82.7023V57.168H79.1023V51H70.0543V48.24H91.7743V51ZM101.069 39.504C101.069 43.176 101.549 45.792 102.533 47.352C103.301 48.624 104.261 49.488 105.389 49.92V52.92C103.325 52.368 101.573 51.168 100.157 49.344C99.8691 49.008 99.6291 48.624 99.4131 48.192C99.1731 48.624 98.9331 49.008 98.6691 49.344C97.2291 51.168 95.5011 52.368 93.4371 52.92V49.92C94.5411 49.488 95.5011 48.624 96.2931 47.352C97.2531 45.792 97.7571 43.176 97.7571 39.528V36.384H101.069V39.504ZM110.861 36.072H114.197V57.168H110.861V36.072ZM106.301 36.072H109.589V57.168H106.301V45H102.869V42.192H106.301V36.072ZM118.9 42.648C118.9 40.92 119.692 39.432 121.3 38.184C122.884 36.984 125.02 36.36 127.66 36.36C130.3 36.36 132.412 36.984 134.02 38.184C135.604 39.432 136.42 40.92 136.42 42.648C136.42 44.616 135.388 46.272 133.348 47.568V52.272H138.532V55.032H116.812V52.272H122.02V47.592C119.932 46.296 118.9 44.64 118.9 42.648ZM129.796 48.792C129.124 48.888 128.404 48.936 127.66 48.936C126.916 48.936 126.22 48.888 125.572 48.792V52.272H129.796V48.792ZM132.796 42.648C132.796 41.616 132.316 40.752 131.356 40.08C130.396 39.408 129.148 39.072 127.66 39.072C126.124 39.072 124.9 39.408 123.964 40.08C123.004 40.752 122.524 41.616 122.524 42.648C122.524 43.704 123.004 44.544 123.964 45.216C124.9 45.888 126.124 46.224 127.66 46.224C129.148 46.224 130.396 45.888 131.356 45.216C132.316 44.544 132.796 43.704 132.796 42.648Z" fill="black"/>
</svg>
