<svg width="335" height="602" viewBox="0 0 335 602" fill="none" xmlns="http://www.w3.org/2000/svg">
<circle cx="1.5" cy="574.5" r="1.5" fill="#BBBBBB"/>
<path d="M13.2402 572.776C13.2402 574.763 14.5542 576.813 16.1602 577.601L15.5508 578.4C14.3066 577.753 13.2656 576.414 12.7642 574.846C12.2627 576.509 11.1963 577.937 9.92676 578.616L9.29199 577.816C10.9424 577.004 12.25 574.839 12.2627 572.776V570.72H13.2402V572.776ZM17.2012 581.028V569.742H18.1914V574.325H20.083V575.188H18.1914V581.028H17.2012ZM30.2441 570.885V572.015C30.2314 573.398 30.2314 574.947 29.8252 577.22L28.8096 577.105C29.2349 574.947 29.2349 573.367 29.2412 572.015V571.71H22.2842V570.885H30.2441ZM21.1924 579.429V578.604H25.2295V574.566H26.207V578.604H31.4756V579.429H21.1924ZM46.3262 569.742V581.028H45.3486V575.188H43.7236V580.444H42.7842V569.996H43.7236V574.338H45.3486V569.742H46.3262ZM37.2617 578.108V571.126H38.252V577.22C39.3691 577.213 40.5752 577.131 41.9463 576.852L42.0732 577.74C40.499 578.026 39.2041 578.108 37.96 578.108H37.2617ZM58.709 575.328V576.153H48.4258V575.328H50.9775V573.735C50.0762 573.386 49.5684 572.814 49.5684 572.053C49.5684 570.726 51.0918 569.964 53.5674 569.958C56.0239 569.964 57.5474 570.726 57.5537 572.053C57.5474 572.808 57.0459 573.379 56.1572 573.735V575.328H58.709ZM49.6699 579.01C49.6636 577.721 51.1172 577.01 53.5674 577.017C55.9858 577.01 57.4395 577.721 57.4521 579.01C57.4395 580.298 55.9858 581.003 53.5674 581.003C51.1172 581.003 49.6636 580.298 49.6699 579.01ZM50.5967 572.053C50.5903 572.878 51.7202 573.354 53.5674 573.36C55.3955 573.354 56.5317 572.878 56.5381 572.053C56.5317 571.24 55.3955 570.745 53.5674 570.745C51.7202 570.745 50.5903 571.24 50.5967 572.053ZM50.6855 579.01C50.6729 579.778 51.7583 580.235 53.5674 580.229C55.3574 580.235 56.4429 579.778 56.4492 579.01C56.4429 578.242 55.3574 577.791 53.5674 577.778C51.7583 577.791 50.6729 578.242 50.6855 579.01ZM51.9678 575.328H55.167V574.001C54.6909 574.09 54.1577 574.135 53.5674 574.135C52.9771 574.135 52.4438 574.09 51.9678 574.008V575.328ZM73.4326 574.985V575.798H69.3447V570.821H73.293V571.634H70.3477V574.985H73.4326ZM63.9238 579.581V578.756H68.5576V576.369H69.5352V578.756H74.2578V579.581H63.9238ZM64.8252 575.798V570.821H68.6592V571.646H65.8154V574.973C66.7676 574.966 67.7134 574.896 68.7607 574.655L68.8496 575.493C67.6118 575.772 66.5708 575.804 65.4473 575.798H64.8252ZM84.7871 573.17V573.97H77.0557V570.161H78.0459V573.17H84.7871ZM75.6465 576.318V575.506H85.9805V576.318H75.6465ZM76.9922 580.749V577.474H77.9824V579.924H84.8506V580.749H76.9922ZM95.2197 572.167C95.2261 573.69 96.4258 575.062 98.1143 575.595L97.6064 576.395C96.2925 575.944 95.2515 575.017 94.7373 573.83C94.2485 575.112 93.1885 576.128 91.8428 576.623L91.3223 575.823C93.0171 575.233 94.2104 573.767 94.2168 572.167V571.507H91.5762V570.694H97.8223V571.507H95.2197V572.167ZM93.1885 580.787V577.245H94.1787V579.949H100.831V580.787H93.1885ZM99.4854 578.032V569.755H100.476V578.032H99.4854ZM111.716 569.742V573.106H113.43V573.944H111.716V577.918H110.726V569.742H111.716ZM103.426 575.912V570.72H108.453V571.558H104.416V575.074C106.682 575.081 107.971 575.011 109.481 574.706L109.608 575.531C108.021 575.836 106.676 575.912 104.302 575.912H103.426ZM104.657 580.787V577.093H105.635V579.949H112.236V580.787H104.657ZM123.984 569.742V576.433H122.981V574.655H120.341V575.62H115.161V570.605H120.341V571.583H122.981V569.742H123.984ZM116.151 574.808H119.363V571.418H116.151V574.808ZM116.456 578.896C116.45 577.537 117.891 576.756 120.239 576.763C122.582 576.756 124.022 577.537 124.022 578.896C124.022 580.241 122.582 581.003 120.239 581.003C117.891 581.003 116.45 580.241 116.456 578.896ZM117.446 578.896C117.44 579.714 118.506 580.216 120.239 580.216C121.966 580.216 123.032 579.714 123.032 578.896C123.032 578.045 121.966 577.55 120.239 577.537C118.506 577.55 117.44 578.045 117.446 578.896ZM120.341 573.817H122.981V572.408H120.341V573.817ZM139.8 569.742V581.028H138.835V569.742H139.8ZM130.266 574.617C130.272 572.218 131.224 570.701 132.69 570.694C133.655 570.701 134.398 571.354 134.804 572.484H136.601V569.983H137.553V580.457H136.601V576.75H134.804C134.404 577.886 133.655 578.546 132.69 578.54C131.224 578.546 130.272 577.017 130.266 574.617ZM131.192 574.617C131.186 576.445 131.764 577.601 132.69 577.588C133.611 577.601 134.201 576.445 134.201 574.617C134.201 572.783 133.611 571.634 132.69 571.634C131.764 571.634 131.186 572.783 131.192 574.617ZM135.014 573.31C135.09 573.709 135.128 574.147 135.128 574.617C135.128 575.081 135.09 575.519 135.02 575.912H136.601V573.31H135.014ZM145.873 572.776C145.867 574.839 147.27 576.909 148.933 577.664L148.323 578.451C147.035 577.829 145.924 576.49 145.384 574.884C144.864 576.585 143.753 578.013 142.433 578.68L141.798 577.842C143.48 577.074 144.87 574.916 144.883 572.776V570.72H145.873V572.776ZM150.164 581.054V569.742H151.167V581.054H150.164ZM19.1309 587.742V599.028H18.166V587.742H19.1309ZM9.59668 592.617C9.60303 590.218 10.5552 588.701 12.0215 588.694C12.9863 588.701 13.729 589.354 14.1353 590.484H15.9316V587.983H16.8838V598.457H15.9316V594.75H14.1353C13.7354 595.886 12.9863 596.546 12.0215 596.54C10.5552 596.546 9.60303 595.017 9.59668 592.617ZM10.5234 592.617C10.5171 594.445 11.0947 595.601 12.0215 595.588C12.9419 595.601 13.5322 594.445 13.5322 592.617C13.5322 590.783 12.9419 589.634 12.0215 589.634C11.0947 589.634 10.5171 590.783 10.5234 592.617ZM14.3447 591.31C14.4209 591.709 14.459 592.147 14.459 592.617C14.459 593.081 14.4209 593.519 14.3511 593.912H15.9316V591.31H14.3447ZM24.0107 594.496C23.998 596.896 23.3506 598.889 22.1826 600.59H21.2178C22.0747 599.327 22.8745 596.762 22.8809 594.496C22.8745 592.236 22.0747 589.666 21.2178 588.415H22.1826C23.3506 590.11 23.998 592.103 24.0107 594.496ZM33.707 589.888C33.7134 591.367 34.8179 592.687 36.4746 593.227L36.0049 594.014C34.7036 593.582 33.7197 592.687 33.231 591.551C32.7485 592.846 31.7075 593.855 30.3555 594.344L29.8477 593.544C31.5361 592.973 32.7168 591.519 32.7295 589.888V589.405H30.1523V588.58H36.2461V589.405H33.707V589.888ZM31.3457 596.921C31.3521 595.62 32.7676 594.864 35.0908 594.864C37.4077 594.864 38.8105 595.62 38.8105 596.921C38.8105 598.241 37.4077 599.003 35.0908 599.003C32.7676 599.003 31.3521 598.241 31.3457 596.921ZM32.3486 596.921C32.3359 597.733 33.3896 598.209 35.0908 598.203C36.7983 598.209 37.8394 597.733 37.8457 596.921C37.8394 596.134 36.7983 595.664 35.0908 595.664C33.3896 595.664 32.3359 596.134 32.3486 596.921ZM37.7188 594.56V587.742H38.709V590.624H40.4102V591.462H38.709V594.56H37.7188ZM44.7314 588.402C45.6963 588.396 46.5151 588.758 47.0356 589.367H49.9746V587.742H50.9775V594.229H49.9746V592.744H47.0356C46.5151 593.354 45.6963 593.715 44.7314 593.722C43.043 593.715 41.7925 592.624 41.7988 591.056C41.7925 589.488 43.043 588.396 44.7314 588.402ZM42.751 591.056C42.751 592.122 43.5762 592.871 44.7314 592.884C45.8486 592.871 46.6865 592.122 46.6865 591.056C46.6865 590.008 45.8486 589.24 44.7314 589.24C43.5762 589.24 42.751 590.008 42.751 591.056ZM43.6016 598.876V594.813H50.9775V598.876H43.6016ZM44.5918 598.063H50V595.626H44.5918V598.063ZM47.5054 590.192C47.6006 590.459 47.6514 590.751 47.6514 591.056C47.6514 591.354 47.6006 591.633 47.5181 591.894H49.9746V590.192H47.5054ZM63.0303 587.742V599.028H62.0654V587.742H63.0303ZM53.4961 592.617C53.5024 590.218 54.4546 588.701 55.9209 588.694C57.292 588.701 58.2188 590.021 58.3457 592.147H59.8057V587.983H60.7578V598.457H59.8057V592.973H58.3521C58.2568 595.169 57.311 596.546 55.9209 596.54C54.4546 596.546 53.5024 595.017 53.4961 592.617ZM54.4355 592.617C54.4229 594.445 55.0068 595.601 55.9209 595.588C56.8413 595.601 57.4253 594.445 57.4189 592.617C57.4253 590.783 56.8413 589.634 55.9209 589.634C55.0068 589.634 54.4229 590.783 54.4355 592.617ZM78.2109 587.742V593.544H77.208V591.297H74.707V590.472H77.208V587.742H78.2109ZM69.0322 592.96C71.7363 592.306 73.3613 590.941 73.5581 589.126H69.6162V588.301H74.6182C74.6182 591.106 72.6377 592.966 69.3877 593.785L69.0322 592.96ZM70.8984 594.839V594.026H78.2109V596.781H71.9141V598.102H78.5918V598.927H70.9238V596.02H77.208V594.839H70.8984ZM89.9336 587.742V599.054H88.9434V594.242H86.5947V593.404H88.9434V591.157H86.6836V590.319H88.9434V587.742H89.9336ZM80.9834 589.596V588.771H85.9473V592.782H82.0117V595.562C83.7065 595.562 85.1094 595.499 86.8232 595.232L86.9121 596.07C85.1094 596.35 83.6621 596.413 81.8594 596.413H81.0215V591.97H84.9697V589.596H80.9834ZM99.4902 598.127C97.8335 598.127 96.5767 597.105 96.5068 595.689H97.6113C97.6938 596.508 98.4937 597.118 99.4902 597.124C100.684 597.118 101.547 596.248 101.547 595.093C101.547 593.899 100.652 593.017 99.4141 593.011C98.6396 592.998 98.0366 593.239 97.7002 593.836H96.5957L97.2432 588.809H102.22V589.824H98.1953L97.8525 592.516H97.9414C98.354 592.198 98.9697 591.982 99.6172 591.982C101.369 591.982 102.658 593.277 102.664 595.067C102.658 596.845 101.325 598.127 99.4902 598.127ZM107.544 588.161C109.232 588.167 110.458 589.196 110.464 590.662C110.458 592.135 109.232 593.15 107.544 593.15C105.836 593.15 104.605 592.135 104.611 590.662C104.605 589.196 105.836 588.167 107.544 588.161ZM105.589 590.662C105.576 591.652 106.408 592.338 107.544 592.338C108.661 592.338 109.499 591.652 109.499 590.662C109.499 589.685 108.661 588.993 107.544 588.999C106.408 588.993 105.576 589.685 105.589 590.662ZM106.325 594.89V594.09H113.663V596.807H107.328V598.076H114.069V598.876H106.351V596.058H112.673V594.89H106.325ZM112.673 593.544V587.742H113.663V593.544H112.673ZM129.161 587.742V593.798H128.171V587.742H129.161ZM120.109 590.891C120.103 589.348 121.354 588.288 123.067 588.301C124.781 588.288 126.019 589.348 126.025 590.891C126.019 592.427 124.781 593.487 123.067 593.48C121.354 593.487 120.103 592.427 120.109 590.891ZM121.087 590.891C121.074 591.919 121.906 592.649 123.067 592.655C124.216 592.649 125.048 591.919 125.048 590.891C125.048 589.856 124.216 589.132 123.067 589.139C121.906 589.132 121.074 589.856 121.087 590.891ZM121.849 598.876V594.369H122.839V595.74H128.171V594.369H129.161V598.876H121.849ZM122.839 598.063H128.171V596.54H122.839V598.063ZM140.884 587.755V596.324H139.881V595.156H137.545V594.433H139.881V587.755H140.884ZM131.515 592.985C133.616 592.973 136.447 592.954 138.865 592.655L138.929 593.379C137.926 593.538 136.866 593.639 135.831 593.703V595.931H134.828V593.753C133.686 593.798 132.6 593.798 131.654 593.798L131.515 592.985ZM132.429 590.18C132.422 588.993 133.552 588.212 135.222 588.212C136.878 588.212 138.008 588.993 138.015 590.18C138.008 591.386 136.878 592.135 135.222 592.135C133.552 592.135 132.422 591.386 132.429 590.18ZM133.14 598.787V595.486H134.143V597.949H141.163V598.787H133.14ZM133.381 590.18C133.368 590.916 134.117 591.392 135.222 591.398C136.294 591.392 137.056 590.916 137.062 590.18C137.056 589.456 136.294 588.961 135.222 588.974C134.117 588.961 133.368 589.456 133.381 590.18ZM152.967 588.479V593.074H147.673V588.479H152.967ZM148.485 598.216C150.428 598 152.294 596.902 152.294 595.778H148.955V595.004H152.307V593.899H153.297V595.004H156.674V595.778H153.322C153.316 596.876 155.131 597.975 157.067 598.216L156.725 598.99C155.03 598.755 153.481 597.956 152.808 596.915C152.129 597.981 150.542 598.755 148.841 598.99L148.485 598.216ZM148.65 592.287H151.989V589.291H148.65V592.287ZM155.404 594.229V587.742H156.382V594.229H155.404ZM165.977 598.127C164.32 598.127 163.063 597.105 162.993 595.689H164.098C164.18 596.508 164.98 597.118 165.977 597.124C167.17 597.118 168.033 596.248 168.033 595.093C168.033 593.899 167.138 593.017 165.9 593.011C165.126 592.998 164.523 593.239 164.187 593.836H163.082L163.729 588.809H168.706V589.824H164.682L164.339 592.516H164.428C164.84 592.198 165.456 591.982 166.104 591.982C167.855 591.982 169.144 593.277 169.15 595.067C169.144 596.845 167.811 598.127 165.977 598.127ZM174.589 591.424C174.595 593.233 175.77 595.08 177.407 595.867L176.823 596.642C175.579 596.032 174.595 594.794 174.125 593.341C173.63 594.915 172.583 596.223 171.301 596.845L170.729 596.07C172.386 595.296 173.618 593.366 173.624 591.424V590.522H171.034V589.71H173.611V587.958H174.614V589.71H177.153V590.522H174.589V591.424ZM178.575 599.028V587.742H179.565V592.376H181.457V593.227H179.565V599.028H178.575ZM186.857 588.999V592.896H183.912V595.461C185.118 595.455 186.28 595.391 187.708 595.156L187.784 595.981C186.229 596.242 185.017 596.286 183.671 596.299H182.947V592.097H185.893V589.812H182.922V588.999H186.857ZM187.492 594.331V593.506H189.003V591.513H187.492V590.7H189.003V587.971H189.955V598.444H189.003V594.331H187.492ZM191.263 599.028V587.742H192.215V599.028H191.263ZM208.348 593.734V594.547H198.052V593.734H202.698V592.617H199.423V588.072H207.065V588.885H200.426V589.938H206.761V590.7H200.426V591.817H207.129V592.617H203.688V593.734H208.348ZM199.309 597.2C199.302 596.026 200.705 595.385 203.206 595.397C205.682 595.385 207.078 596.026 207.091 597.2C207.078 598.387 205.682 599.003 203.206 599.003C200.705 599.003 199.302 598.387 199.309 597.2ZM200.312 597.2C200.299 597.886 201.34 598.241 203.206 598.229C205.053 598.241 206.082 597.886 206.088 597.2C206.082 596.527 205.053 596.153 203.206 596.146C201.34 596.153 200.299 596.527 200.312 597.2ZM219.105 587.755V596.324H218.103V595.156H215.767V594.433H218.103V587.755H219.105ZM209.736 592.985C211.837 592.973 214.668 592.954 217.087 592.655L217.15 593.379C216.147 593.538 215.087 593.639 214.053 593.703V595.931H213.05V593.753C211.907 593.798 210.822 593.798 209.876 593.798L209.736 592.985ZM210.65 590.18C210.644 588.993 211.774 588.212 213.443 588.212C215.1 588.212 216.23 588.993 216.236 590.18C216.23 591.386 215.1 592.135 213.443 592.135C211.774 592.135 210.644 591.386 210.65 590.18ZM211.361 598.787V595.486H212.364V597.949H219.385V598.787H211.361ZM211.603 590.18C211.59 590.916 212.339 591.392 213.443 591.398C214.516 591.392 215.278 590.916 215.284 590.18C215.278 589.456 214.516 588.961 213.443 588.974C212.339 588.961 211.59 589.456 211.603 590.18ZM234.604 587.742V599.028H233.601V587.742H234.604ZM225.526 596.07C227.202 595.309 228.484 593.404 228.484 591.424V590.522H225.831V589.71H228.472V587.958H229.462V589.71H232.09V590.522H229.462V591.424C229.462 593.315 230.782 595.144 232.483 595.867L231.925 596.642C230.617 596.064 229.519 594.845 228.992 593.354C228.484 594.928 227.393 596.229 226.085 596.845L225.526 596.07ZM247.367 596.794V597.632H237.033V596.794H239.94V594.648H238.328V591.17H245.082V589.405H238.303V588.58H246.06V591.995H239.318V593.823H246.326V594.648H244.562V596.794H247.367ZM240.918 596.794H243.584V594.648H240.918V596.794Z" fill="#999999"/>
<rect x="0.5" y="130.5" width="162" height="79" rx="15.5" fill="white" stroke="black"/>
<g clip-path="url(#clip0_114_15256)">
<path fill-rule="evenodd" clip-rule="evenodd" d="M138.627 164.74C138.203 164.387 137.553 164.428 137.175 164.831L130.235 172.246L126.802 169.009C126.4 168.63 125.748 168.63 125.346 169.009L125.301 169.052C124.9 169.43 124.9 170.045 125.301 170.423L129.549 174.427C129.931 174.787 130.537 174.805 130.942 174.482C130.999 174.442 131.053 174.395 131.102 174.343L138.766 166.154C139.144 165.751 139.105 165.138 138.681 164.785L138.627 164.74Z" fill="#FF6600"/>
</g>
<ellipse cx="29.5002" cy="177.778" rx="6.38889" ry="2.77778" fill="#DAE2EB"/>
<path d="M37 167.448C37 171.561 34.1154 175.182 29.5 178.333C25.1731 175.469 22 171.561 22 167.448C22 163.335 25.3579 160 29.5 160C33.6421 160 37 163.335 37 167.448Z" fill="#FF6600"/>
<circle cx="29.4996" cy="167.5" r="4.72222" fill="white"/>
<path fill-rule="evenodd" clip-rule="evenodd" d="M29.3333 165C28.9651 165 28.6667 165.299 28.6667 165.667V166.667H27.6667C27.2985 166.667 27 166.965 27 167.333V167.667C27 168.035 27.2985 168.333 27.6667 168.333H28.6667V169.333C28.6667 169.702 28.9651 170 29.3333 170H29.6667C30.0349 170 30.3333 169.702 30.3333 169.333V168.333H31.3333C31.7015 168.333 32 168.035 32 167.667V167.333C32 166.965 31.7015 166.667 31.3333 166.667H30.3333V165.667C30.3333 165.299 30.0349 165 29.6667 165H29.3333Z" fill="#FF6600"/>
<path d="M63.0645 170.865V172.623H48.4395V170.865H54.627V169.881H50.2676V163.008H61.3594V164.73H52.5176V165.627H60.9902V167.244H52.5176V168.158H61.5V169.881H56.877V170.865H63.0645ZM50.1445 175.98C50.1445 174.293 52.166 173.344 55.752 173.361C59.2764 173.344 61.3066 174.293 61.3242 175.98C61.3066 177.703 59.2764 178.626 55.752 178.617C52.166 178.626 50.1445 177.703 50.1445 175.98ZM52.3945 175.98C52.377 176.666 53.4492 176.965 55.752 176.965C58.002 176.965 59.0654 176.666 59.0742 175.98C59.0654 175.312 58.002 175.005 55.752 175.014C53.4492 175.005 52.377 175.312 52.3945 175.98ZM77.584 162.639V174.715H75.334V173.449H72.2754V171.92H75.334V162.639H77.584ZM63.9785 169.723C66.9053 169.705 70.8604 169.661 74.2441 169.248L74.3672 170.848C73.1016 171.059 71.792 171.208 70.5 171.305V174.346H68.25V176.543H77.9355V178.336H66.0176V173.555H68.25V171.437C66.8174 171.489 65.4551 171.498 64.2422 171.498L63.9785 169.723ZM65.1562 166.049C65.1562 164.344 66.7998 163.175 69.1816 163.184C71.502 163.175 73.1631 164.344 73.1719 166.049C73.1631 167.763 71.502 168.87 69.1816 168.861C66.7998 168.87 65.1562 167.763 65.1562 166.049ZM67.2832 166.049C67.2744 166.822 68.0391 167.253 69.1816 167.244C70.2539 167.253 71.0273 166.822 71.0449 166.049C71.0273 165.258 70.2539 164.818 69.1816 164.818C68.0391 164.818 67.2744 165.258 67.2832 166.049Z" fill="black"/>
<rect x="0.5" y="218.5" width="162" height="79" rx="15.5" fill="white" stroke="#E8E8E8"/>
<g clip-path="url(#clip1_114_15256)">
<path fill-rule="evenodd" clip-rule="evenodd" d="M138.627 252.74C138.203 252.387 137.553 252.428 137.175 252.831L130.235 260.246L126.802 257.009C126.4 256.63 125.748 256.63 125.346 257.009L125.301 257.052C124.9 257.43 124.9 258.045 125.301 258.423L129.549 262.427C129.931 262.787 130.537 262.805 130.942 262.482C130.999 262.442 131.053 262.395 131.102 262.343L138.766 254.154C139.144 253.751 139.105 253.138 138.681 252.785L138.627 252.74Z" fill="#DDDDDD"/>
</g>
<path d="M39.0615 268.056H22C22.2216 267.022 24.2158 264.954 30.42 264.954C36.6242 264.954 38.7661 267.022 39.0615 268.056Z" fill="#A6ABB1"/>
<rect x="28.2041" y="258.306" width="4.43156" height="8.41997" rx="2.21578" fill="#FFD0C3"/>
<path fill-rule="evenodd" clip-rule="evenodd" d="M24.905 255.643C24.905 252.817 27.1956 250.526 30.0212 250.526H30.8183C33.644 250.526 35.9346 252.817 35.9346 255.643V255.661C35.9989 255.652 36.0645 255.647 36.1313 255.647C36.8927 255.647 37.51 256.265 37.51 257.026V258.208C37.51 258.969 36.8927 259.587 36.1313 259.587C36.0601 259.587 35.9901 259.581 35.9219 259.571C35.7275 262.44 33.3384 264.707 30.4198 264.707C27.5011 264.707 25.112 262.44 24.9177 259.571C24.8493 259.581 24.7792 259.587 24.7078 259.587C23.9464 259.587 23.3291 258.969 23.3291 258.208V257.026C23.3291 256.265 23.9464 255.647 24.7078 255.647C24.7747 255.647 24.8406 255.652 24.905 255.661V255.643Z" fill="#FFD0C3"/>
<path d="M25.4467 253.963C22.8455 253.207 23.8209 251.206 24.7499 250.182C25.0982 249.798 25.6789 249.236 26.6079 249C26.1434 249.709 26.1434 250.182 26.3757 250.418C31.7173 249.709 34.0398 250.418 34.9688 251.127C35.8978 251.836 36.5945 254.672 35.8978 256.091C34.783 255.712 34.1947 254.515 34.0398 253.963C32.2593 254.278 28.0479 254.72 25.4467 253.963Z" fill="#303030"/>
<path d="M24.9053 259.504C24.9053 258.846 25.4383 258.306 26.0957 258.306H34.7445C35.402 258.306 35.9349 258.846 35.9349 259.504C35.9349 262.55 33.4659 265.052 30.4201 265.052C27.3744 265.052 24.9053 262.55 24.9053 259.504Z" fill="#FF6600"/>
<rect x="27.3184" y="256.09" width="1.32947" height="1.77263" rx="0.664735" fill="#303030"/>
<rect x="31.749" y="256.09" width="1.32947" height="1.77263" rx="0.664735" fill="#303030"/>
<path d="M56.9648 251.869C56.9561 253.759 58.8896 255.842 62.5547 256.299L61.6758 258.109C58.8809 257.705 56.833 256.413 55.7871 254.682C54.7324 256.404 52.6934 257.705 49.9336 258.109L49.0371 256.299C52.6758 255.842 54.6006 253.759 54.6094 251.869V251.096H56.9648V251.869ZM48.4746 261.15V259.322H63.0645V261.15H56.8418V266.617H54.627V261.15H48.4746ZM72.4863 251.043C72.4863 252.607 74.3232 254.181 77.9004 254.559L77.1621 256.246C74.3848 255.938 72.3457 254.893 71.3174 253.425C70.2803 254.893 68.25 255.938 65.5078 256.246L64.752 254.559C68.3379 254.181 70.166 252.607 70.1836 251.043V250.709H72.4863V251.043ZM64.0312 258.672V256.914H78.6211V258.672H72.4336V259.727H76.8457V263.857H67.9336V264.824H77.2676V266.512H65.7363V262.275H74.6309V261.432H65.7188V259.727H70.1836V258.672H64.0312Z" fill="black"/>
<rect x="171.5" y="130.5" width="163" height="79" rx="15.5" fill="white" stroke="black"/>
<g clip-path="url(#clip2_114_15256)">
<path fill-rule="evenodd" clip-rule="evenodd" d="M310.627 164.74C310.203 164.387 309.553 164.428 309.175 164.831L302.235 172.246L298.802 169.009C298.4 168.63 297.748 168.63 297.346 169.009L297.301 169.052C296.9 169.43 296.9 170.045 297.301 170.423L301.549 174.427C301.931 174.787 302.537 174.805 302.942 174.482C302.999 174.442 303.053 174.395 303.102 174.343L310.766 166.154C311.144 165.751 311.105 165.138 310.681 164.785L310.627 164.74Z" fill="#FF6600"/>
</g>
<path d="M196.571 175.757C196.571 174.929 197.243 174.257 198.071 174.257H198.728C199.557 174.257 200.228 174.929 200.228 175.757V177.371C200.228 177.924 199.781 178.371 199.228 178.371H197.571C197.019 178.371 196.571 177.924 196.571 177.371V175.757Z" fill="#FF6600"/>
<path d="M198.4 175.857V180.2H208V161.457" stroke="#FF6600" stroke-linecap="round" stroke-linejoin="round"/>
<mask id="mask0_114_15256" style="mask-type:alpha" maskUnits="userSpaceOnUse" x="192" y="161" width="13" height="16">
<path d="M192 162.5C192 161.672 192.672 161 193.5 161H203.3C204.128 161 204.8 161.672 204.8 162.5V170.543C204.8 173.857 202.114 176.543 198.8 176.543H198C194.686 176.543 192 173.857 192 170.543V162.5Z" fill="#D2E7FF"/>
</mask>
<g mask="url(#mask0_114_15256)">
<path d="M191.543 162.5C191.543 161.672 192.215 161 193.043 161H203.757C204.586 161 205.257 161.672 205.257 162.5V169.686C205.257 173.473 202.187 176.543 198.4 176.543C194.613 176.543 191.543 173.473 191.543 169.686V162.5Z" fill="#DAE2EB"/>
<path d="M198.4 167.543C196.023 166.629 192.229 166.934 190.857 167.315V177.372H205.715V168.229C203.657 168.229 201.372 168.686 198.4 167.543Z" fill="#DAE2EB"/>
<path d="M198.4 168.915C196.023 168 192.229 168.305 190.857 168.686V178.743H205.715V169.6C203.657 169.6 201.372 170.058 198.4 168.915Z" fill="#FF6600"/>
<path fill-rule="evenodd" clip-rule="evenodd" d="M200.675 163.286C200.339 163.286 200.067 163.558 200.067 163.894V164.496H199.465C199.129 164.496 198.856 164.769 198.856 165.105V165.556C198.856 165.892 199.129 166.164 199.465 166.164H200.067V166.767C200.067 167.103 200.339 167.375 200.675 167.375H201.127C201.463 167.375 201.735 167.103 201.735 166.767V166.164H202.338C202.674 166.164 202.946 165.892 202.946 165.556V165.105C202.946 164.769 202.674 164.496 202.338 164.496H201.735V163.894C201.735 163.558 201.463 163.286 201.127 163.286H200.675Z" fill="#FF6600"/>
</g>
<path d="M232.869 162.621V171.217H230.619V162.621H232.869ZM219.721 167.086C219.721 164.836 221.602 163.271 224.098 163.289C226.585 163.271 228.466 164.836 228.475 167.086C228.466 169.266 226.585 170.83 224.098 170.83C221.602 170.83 219.721 169.266 219.721 167.086ZM221.918 167.086C221.9 168.272 222.814 168.984 224.098 168.984C225.346 168.984 226.251 168.272 226.26 167.086C226.251 165.882 225.346 165.144 224.098 165.152C222.814 165.144 221.9 165.882 221.918 167.086ZM222.164 178.441V171.92H224.379V173.414H230.637V171.92H232.869V178.441H222.164ZM224.379 176.631H230.637V175.154H224.379V176.631ZM248.584 162.639V174.715H246.334V173.449H243.275V171.92H246.334V162.639H248.584ZM234.979 169.723C237.905 169.705 241.86 169.661 245.244 169.248L245.367 170.848C244.102 171.059 242.792 171.208 241.5 171.305V174.346H239.25V176.543H248.936V178.336H237.018V173.555H239.25V171.437C237.817 171.489 236.455 171.498 235.242 171.498L234.979 169.723ZM236.156 166.049C236.156 164.344 237.8 163.175 240.182 163.184C242.502 163.175 244.163 164.344 244.172 166.049C244.163 167.763 242.502 168.87 240.182 168.861C237.8 168.87 236.156 167.763 236.156 166.049ZM238.283 166.049C238.274 166.822 239.039 167.253 240.182 167.244C241.254 167.253 242.027 166.822 242.045 166.049C242.027 165.258 241.254 164.818 240.182 164.818C239.039 164.818 238.274 165.258 238.283 166.049Z" fill="black"/>
<rect x="171.5" y="218.5" width="163" height="79" rx="15.5" fill="white" stroke="#E8E8E8"/>
<g clip-path="url(#clip3_114_15256)">
<path fill-rule="evenodd" clip-rule="evenodd" d="M310.627 252.74C310.203 252.387 309.553 252.428 309.175 252.831L302.235 260.246L298.802 257.009C298.4 256.63 297.748 256.63 297.346 257.009L297.301 257.052C296.9 257.43 296.9 258.045 297.301 258.423L301.549 262.427C301.931 262.787 302.537 262.805 302.942 262.482C302.999 262.442 303.053 262.395 303.102 262.343L310.766 254.154C311.144 253.751 311.105 253.138 310.681 252.785L310.627 252.74Z" fill="#DDDDDD"/>
</g>
<path d="M225.715 253.785C225.706 255.692 226.901 257.644 229.529 258.443L228.387 260.201C226.594 259.63 225.337 258.479 224.616 257.037C223.887 258.619 222.586 259.876 220.705 260.5L219.545 258.742C222.208 257.89 223.43 255.807 223.43 253.785V253.557H220.143V251.764H228.932V253.557H225.715V253.785ZM222.146 266.336V261.15H224.414V264.543H233.291V266.336H222.146ZM230.619 262.205V250.639H232.869V262.205H230.619ZM247.723 250.621V254.98H249.885V256.826H247.723V262.188H245.473V250.621H247.723ZM235.646 259.551V251.904H242.871V253.697H237.896V257.74C240.797 257.723 242.388 257.626 244.172 257.248L244.4 259.041C242.388 259.454 240.542 259.551 237 259.551H235.646ZM237.352 266.336V260.957H239.584V264.543H248.303V266.336H237.352Z" fill="black"/>
<rect x="192" y="248.941" width="17.0556" height="18.0588" rx="2.11765" fill="#DAE2EB"/>
<path fill-rule="evenodd" clip-rule="evenodd" d="M199.744 253.086C199.524 252.903 199.186 252.924 198.99 253.133L196.916 255.35L195.925 254.416C195.717 254.22 195.38 254.22 195.172 254.416C194.965 254.612 194.965 254.93 195.172 255.125L196.56 256.433C196.762 256.624 197.086 256.629 197.295 256.45C197.319 256.432 197.341 256.411 197.362 256.389L199.789 253.797C199.984 253.588 199.965 253.269 199.744 253.086Z" fill="#FF6600"/>
<rect x="195.01" y="259.977" width="1.00327" height="4.51471" rx="0.501634" transform="rotate(-90 195.01 259.977)" fill="#A6ABB1"/>
<rect x="195.01" y="261.984" width="1.00327" height="7.52452" rx="0.501634" transform="rotate(-90 195.01 261.984)" fill="#A6ABB1"/>
<path d="M11.5664 95.6406V96.5293H6.54883V97.8281C8.83887 97.9307 10.1992 98.6758 10.2129 99.9609C10.1992 101.321 8.63379 102.08 6.0293 102.08C3.39062 102.08 1.8252 101.321 1.83203 99.9609C1.8252 98.6758 3.17871 97.9307 5.49609 97.8281V96.5293H0.492188V95.6406H11.5664ZM1.12109 94.0547C3.22656 93.8359 5.25684 92.7627 5.33203 91.4023H1.50391V90.5273H10.582V91.4023H6.72656C6.80176 92.7627 8.81152 93.8359 10.9512 94.0547L10.5547 94.9023C8.56543 94.6631 6.69922 93.7676 6.0293 92.4209C5.35938 93.7676 3.50684 94.6631 1.50391 94.9023L1.12109 94.0547ZM2.92578 99.9609C2.91211 100.768 4.08105 101.253 6.0293 101.246C7.95703 101.253 9.12598 100.768 9.13281 99.9609C9.12598 99.1338 7.95703 98.6621 6.0293 98.6484C4.08105 98.6621 2.91211 99.1338 2.92578 99.9609ZM23.666 96.2422V97.1309H12.5918V96.2422H17.5957V94.7793H14.0684V90.2402H15.1348V91.6484H21.1504V90.2402H22.2168V94.7793H18.6621V96.2422H23.666ZM13.8223 99.1953V98.334H22.2988V102.107H21.2188V99.1953H13.8223ZM15.1348 93.918H21.1504V92.4688H15.1348V93.918ZM32.3613 92.25C32.3613 93.9453 33.5918 95.5449 35.3691 96.1875L34.7676 97.0215C33.4346 96.4951 32.3682 95.4424 31.8486 94.1162C31.3359 95.5859 30.2285 96.748 28.793 97.3223L28.2188 96.4473C30.0439 95.7773 31.3018 94.0752 31.3086 92.209V90.7051H32.3613V92.25ZM30.4199 101.848V98.0332H31.5V100.945H38.5547V101.848H30.4199ZM34.4941 93.7266V92.8242H37.2012V89.9668H38.2812V99.0723H37.2012V93.7266H34.4941ZM45.5684 90.8418V91.7441H41.877V93.2617H45.4316V94.1094H41.877V95.791C43.6475 95.7842 44.7549 95.7158 46.0605 95.4629L46.1699 96.3516C44.7412 96.6318 43.5928 96.6865 41.6172 96.6934H40.8516V90.8418H45.5684ZM42.4375 98.8398V97.9648H50.627V102.107H49.5742V98.8398H42.4375ZM46.8945 97.2539V90.1992H47.8926V93.1387H49.6016V89.9668H50.627V97.3359H49.6016V94.0137H47.8926V97.2539H46.8945ZM62.4258 89.9531V102.135H61.3457V89.9531H62.4258ZM52.8555 95.1348C52.8623 92.5508 54.1475 90.9033 55.959 90.8965C57.7637 90.9033 59.0693 92.5508 59.0625 95.1348C59.0693 97.7256 57.7637 99.3662 55.959 99.3594C54.1475 99.3662 52.8623 97.7256 52.8555 95.1348ZM53.8945 95.1348C53.8945 97.1104 54.7422 98.4092 55.959 98.4023C57.1826 98.4092 58.0234 97.1104 58.0234 95.1348C58.0234 93.1592 57.1826 91.8604 55.959 91.8535C54.7422 91.8604 53.8945 93.1592 53.8945 95.1348ZM77.4238 89.9531V94.9023H79.3926V95.8047H77.4238V102.107H76.3574V89.9531H77.4238ZM68.0996 98.9492C71.2373 97.3906 72.9463 95.0459 73.1924 92.168H68.6602V91.2656H74.2793C74.2725 94.7041 72.6592 97.8418 68.7012 99.7969L68.0996 98.9492ZM89.9336 93.3574V94.2461H81.6348V90.1992H82.7012V93.3574H89.9336ZM80.1172 96.5566V95.668H91.2051V96.5566H80.1172ZM81.457 99.8516C81.4502 98.4365 83.0293 97.6436 85.6543 97.6504C88.2588 97.6436 89.8242 98.4365 89.8379 99.8516C89.8242 101.26 88.2588 102.053 85.6543 102.053C83.0293 102.053 81.4502 101.26 81.457 99.8516ZM82.5508 99.8516C82.5371 100.699 83.7061 101.212 85.6543 101.219C87.582 101.212 88.751 100.699 88.7578 99.8516C88.751 98.9902 87.582 98.5049 85.6543 98.498C83.7061 98.5049 82.5371 98.9902 82.5508 99.8516ZM98.2871 92.0586V92.9336H92.1895V92.0586H94.7188V90.3223H95.7852V92.0586H98.2871ZM92.627 96.5156C92.627 94.9023 93.7275 93.7607 95.2383 93.7539C96.7695 93.7607 97.8633 94.9023 97.877 96.5156C97.8633 98.1494 96.7695 99.2979 95.2383 99.3047C93.7275 99.2979 92.627 98.1494 92.627 96.5156ZM93.584 96.5156C93.584 97.5957 94.2744 98.3682 95.2383 98.3613C96.209 98.3682 96.9199 97.5957 96.9199 96.5156C96.9199 95.4492 96.209 94.6699 95.2383 94.6562C94.2744 94.6699 93.584 95.4492 93.584 96.5156ZM98.916 101.506V90.2539H99.9277V95.0801H101.541V89.9531H102.566V102.107H101.541V95.9688H99.9277V101.506H98.916ZM115.445 99.6465V100.549H104.316V99.6465H107.078V96.3721C106.039 95.832 105.41 94.957 105.41 93.8496C105.41 91.9697 107.256 90.7324 109.854 90.7188C112.451 90.7324 114.297 91.9697 114.297 93.8496C114.297 94.9365 113.688 95.7979 112.684 96.3379V99.6465H115.445ZM106.449 93.8496C106.442 95.21 107.857 96.1191 109.854 96.1191C111.829 96.1191 113.258 95.21 113.258 93.8496C113.258 92.4893 111.829 91.5938 109.854 91.6074C107.857 91.5938 106.442 92.4893 106.449 93.8496ZM108.131 99.6465H111.604V96.7549C111.077 96.8916 110.489 96.9668 109.854 96.9668C109.231 96.9668 108.65 96.8984 108.131 96.7617V99.6465Z" fill="#666666"/>
<rect x="0.5" y="322.5" width="334" height="76" rx="15.5" fill="white"/>
<rect x="0.5" y="322.5" width="334" height="76" rx="15.5" stroke="#FF6600"/>
<path d="M28.3037 343.167C28.3101 344.57 29.5225 345.839 31.1855 346.328L30.7031 347.103C29.3955 346.709 28.3545 345.858 27.8403 344.748C27.3579 345.979 26.3232 346.95 24.9775 347.395L24.4951 346.633C26.1519 346.074 27.3198 344.697 27.3262 343.167V342.926H24.7744V342.126H27.3262V340.691H28.3291V342.126H30.8555V342.926H28.3037V343.167ZM26.2852 349.946C26.2788 348.632 27.7197 347.883 30.0684 347.89C32.4106 347.883 33.8516 348.632 33.8516 349.946C33.8516 351.254 32.4106 352.003 30.0684 352.003C27.7197 352.003 26.2788 351.254 26.2852 349.946ZM27.2754 349.946C27.269 350.733 28.3354 351.216 30.0684 351.216C31.8013 351.216 32.8613 350.733 32.8613 349.946C32.8613 349.14 31.8013 348.677 30.0684 348.664C28.3354 348.677 27.269 349.14 27.2754 349.946ZM30.5 344.805V343.979H32.8105V340.742H33.8135V347.585H32.8105V344.805H30.5ZM44.6172 341.479V342.469C44.6172 343.535 44.6172 344.709 44.2935 346.328H45.9756V347.153H41.3164V352.054H40.3135V347.153H35.6924V346.328H43.2842C43.627 344.703 43.627 343.522 43.627 342.469V342.304H36.9873V341.479H44.6172ZM59.8262 340.742V352.028H58.8486V346.188H57.2236V351.444H56.2842V340.996H57.2236V345.338H58.8486V340.742H59.8262ZM50.7617 349.108V342.126H51.752V348.22C52.8691 348.213 54.0752 348.131 55.4463 347.852L55.5732 348.74C53.999 349.026 52.7041 349.108 51.46 349.108H50.7617ZM71.709 346.328V347.153H61.4258V346.328H63.9775V344.735C63.0762 344.386 62.5684 343.814 62.5684 343.053C62.5684 341.726 64.0918 340.964 66.5674 340.958C69.0239 340.964 70.5474 341.726 70.5537 343.053C70.5474 343.808 70.0459 344.379 69.1572 344.735V346.328H71.709ZM62.6699 350.01C62.6636 348.721 64.1172 348.01 66.5674 348.017C68.9858 348.01 70.4395 348.721 70.4521 350.01C70.4395 351.298 68.9858 352.003 66.5674 352.003C64.1172 352.003 62.6636 351.298 62.6699 350.01ZM63.5967 343.053C63.5903 343.878 64.7202 344.354 66.5674 344.36C68.3955 344.354 69.5317 343.878 69.5381 343.053C69.5317 342.24 68.3955 341.745 66.5674 341.745C64.7202 341.745 63.5903 342.24 63.5967 343.053ZM63.6855 350.01C63.6729 350.778 64.7583 351.235 66.5674 351.229C68.3574 351.235 69.4429 350.778 69.4492 350.01C69.4429 349.242 68.3574 348.791 66.5674 348.778C64.7583 348.791 63.6729 349.242 63.6855 350.01ZM64.9678 346.328H68.167V345.001C67.6909 345.09 67.1577 345.135 66.5674 345.135C65.9771 345.135 65.4438 345.09 64.9678 345.008V346.328Z" fill="#777777"/>
<path d="M33.5625 363.693V365.486H30.3809C30.3896 367.35 31.5234 369.151 34.0723 369.898L33 371.656C31.2334 371.12 30.0029 370.039 29.2998 368.677C28.5879 370.285 27.2871 371.568 25.3711 372.201L24.2285 370.426C26.8828 369.591 28.0869 367.517 28.1133 365.486H24.8438V363.693H33.5625ZM26.4434 375.506C26.4346 373.555 28.5439 372.421 31.9277 372.43C35.2588 372.421 37.3154 373.555 37.3242 375.506C37.3154 377.466 35.2588 378.626 31.9277 378.617C28.5439 378.626 26.4346 377.466 26.4434 375.506ZM28.6934 375.506C28.6758 376.42 29.8271 376.877 31.9277 376.877C34.002 376.877 35.1094 376.42 35.1094 375.506C35.1094 374.609 34.002 374.161 31.9277 374.17C29.8271 374.161 28.6758 374.609 28.6934 375.506ZM34.916 372.113V362.621H37.166V366.33H39.3281V368.158H37.166V372.113H34.916ZM44.4961 363.465C45.7529 363.465 46.8604 363.913 47.625 364.678H51.2812V362.621H53.5137V371.691H51.2812V370.057H47.5811C46.8252 370.795 45.7354 371.243 44.4961 371.234C42.0703 371.243 40.2246 369.6 40.2422 367.367C40.2246 365.073 42.0703 363.465 44.4961 363.465ZM42.3691 367.367C42.3604 368.615 43.248 369.345 44.4961 369.354C45.7002 369.345 46.5791 368.615 46.5879 367.367C46.5791 366.11 45.7002 365.328 44.4961 365.346C43.248 365.328 42.3604 366.11 42.3691 367.367ZM42.7559 378.441V372.395H53.5137V378.441H42.7559ZM45.0059 376.648H51.3164V374.17H45.0059V376.648ZM48.6094 366.471C48.6797 366.752 48.7148 367.051 48.7148 367.367C48.7148 367.657 48.6797 367.938 48.6182 368.211H51.2812V366.471H48.6094Z" fill="black"/>
<path d="M8.112 14.072C7.776 14.6 7.392 15.056 6.96 15.464C5.376 16.976 3.384 17.912 1.032 18.248V15.656C2.472 15.344 3.672 14.576 4.656 13.376C5.616 12.176 6.192 10.4 6.336 8.024H1.512V5.408H14.712V8.024H9.888C10.032 10.4 10.584 12.176 11.568 13.376C12.528 14.576 13.752 15.344 15.192 15.656V18.248C12.816 17.912 10.848 16.976 9.264 15.464C8.832 15.056 8.448 14.6 8.112 14.072ZM16.92 20.36V5.072H20.472V20.36H16.92ZM9.648 23.456H20.808V26.12H8.448C5.76 26.12 4.44 24.872 4.44 22.328V18.968H7.992V21.752C7.992 22.904 8.544 23.456 9.648 23.456ZM41.3445 5.6C42.0885 5.6 42.4725 5.984 42.4725 6.752V13.232H29.0085V14.816C29.0085 15.44 29.4405 15.752 30.3045 15.752H42.5685V18.44H39.7125V21.392H45.0165V24.152H23.2965V21.392H28.9365V18.44C26.6325 18.344 25.4805 17.216 25.4805 15.08V10.568H38.9445V8.288H25.4805V5.6H41.3445ZM36.1605 18.44H32.4885V21.392H36.1605V18.44ZM56.0642 10.664C56.0642 9.056 56.8322 7.712 58.4162 6.656C59.9522 5.6 62.0882 5.072 64.8242 5.072C67.5362 5.072 69.6722 5.6 71.2562 6.656C72.7922 7.712 73.5842 9.056 73.5842 10.664C73.5842 12.272 72.7922 13.592 71.2562 14.648C69.6722 15.728 67.5362 16.256 64.8242 16.256C62.0882 16.256 59.9522 15.728 58.4162 14.648C56.8322 13.592 56.0642 12.272 56.0642 10.664ZM69.9602 10.688C69.9602 9.8 69.5042 9.08 68.5922 8.552C67.6802 8.048 66.4082 7.784 64.8242 7.784C63.1922 7.784 61.9442 8.048 61.0562 8.552C60.1442 9.08 59.6882 9.8 59.6882 10.688C59.6882 11.576 60.1442 12.272 61.0562 12.776C61.9442 13.304 63.1922 13.544 64.8242 13.544C66.4082 13.544 67.6802 13.304 68.5922 12.776C69.5042 12.272 69.9602 11.576 69.9602 10.688ZM75.6962 17.24V20H70.4402V26.168H66.8882V20H62.7362V26.168H59.1842V20H53.9762V17.24H75.6962ZM80.9109 4.688H88.2069V6.992H80.9109V4.688ZM91.2069 9.848H77.7669V7.568H91.3509V9.536H94.2549V5.072H97.7829V18.104H94.2549V16.064H91.2069V13.568H94.2549V12.032H91.2069V9.848ZM78.5589 14.144C78.5589 12.968 79.1109 12.032 80.2149 11.336C81.3189 10.664 82.7589 10.304 84.5589 10.304C86.3349 10.304 87.7749 10.664 88.9029 11.336C90.0069 12.032 90.5589 12.968 90.5589 14.144C90.5589 15.32 90.0069 16.232 88.9029 16.904C87.7749 17.6 86.3349 17.936 84.5589 17.936C82.7589 17.936 81.3189 17.6 80.2149 16.904C79.1109 16.232 78.5589 15.32 78.5589 14.144ZM87.0309 14.144C87.0309 13.664 86.7909 13.256 86.3589 12.944C85.8789 12.656 85.2789 12.512 84.5589 12.512C83.8149 12.512 83.2149 12.68 82.7829 12.968C82.3029 13.28 82.0869 13.664 82.0869 14.144C82.0869 14.624 82.3029 14.984 82.7829 15.272C83.2149 15.584 83.8149 15.728 84.5589 15.728C85.2789 15.728 85.8789 15.584 86.3589 15.272C86.7909 14.984 87.0309 14.624 87.0309 14.144ZM97.2549 22.304C97.2549 23.6 96.6069 24.656 95.3589 25.52C94.0629 26.408 92.4309 26.84 90.4149 26.84C88.3989 26.84 86.7669 26.408 85.4949 25.52C84.1989 24.656 83.5749 23.6 83.5749 22.304C83.5749 21.008 84.1989 19.928 85.4949 19.064C86.7669 18.224 88.3989 17.792 90.4149 17.792C92.4309 17.792 94.0629 18.224 95.3589 19.064C96.6069 19.928 97.2549 21.008 97.2549 22.304ZM90.4149 20.168C89.3829 20.168 88.5669 20.384 87.9909 20.768C87.3909 21.2 87.1029 21.704 87.1029 22.304C87.1029 22.928 87.3909 23.432 87.9909 23.816C88.5669 24.248 89.3589 24.44 90.4149 24.44C91.4229 24.44 92.2389 24.248 92.8389 23.84C93.4149 23.456 93.7269 22.952 93.7269 22.304C93.7269 21.704 93.4149 21.2 92.8389 20.768C92.2149 20.384 91.4229 20.168 90.4149 20.168ZM110.742 5.696C113.286 5.696 114.558 6.968 114.558 9.464V17.312H111.054V10.184C111.054 9.032 110.454 8.432 109.278 8.432H101.598V5.696H110.742ZM108.678 12.56V19.832H112.782C115.374 19.832 116.67 18.8 116.67 16.736V5.072H120.198V12.224H123.174V14.984H120.198V26.168H116.67V21.704C115.902 22.304 114.75 22.592 113.262 22.592H100.734V19.832H105.102V12.56H108.678ZM140.246 21.368H136.502C133.79 21.368 132.446 20.168 132.446 17.72V5.408H135.782V17.096C135.782 18.128 136.238 18.632 137.174 18.632H140.246C141.998 18.632 143.078 17.936 143.51 16.496V5.072H146.798V11.984H148.286V5.072H151.622V26.168H148.286V14.744H146.798V26.168H143.51V20.528C142.79 21.104 141.686 21.368 140.246 21.368ZM160.165 9.368C160.165 9.992 160.597 10.424 161.485 10.664C162.349 10.928 163.621 11.048 165.277 11.048C166.909 11.048 168.205 10.928 169.117 10.664C170.005 10.424 170.461 9.992 170.461 9.368C170.461 8.768 170.005 8.312 169.093 8C168.181 7.712 166.909 7.568 165.277 7.568C163.645 7.568 162.373 7.712 161.509 8C160.597 8.312 160.165 8.768 160.165 9.368ZM167.485 13.52C166.813 13.568 166.069 13.592 165.301 13.592C164.533 13.592 163.837 13.568 163.165 13.52V14.864H167.485V13.52ZM173.845 22.4C173.845 23.84 173.077 24.872 171.565 25.52C170.029 26.192 167.965 26.504 165.349 26.504C162.709 26.504 160.645 26.192 159.133 25.52C157.597 24.872 156.853 23.84 156.853 22.4C156.853 20.96 157.597 19.904 159.133 19.232C160.645 18.584 162.709 18.248 165.349 18.248C167.965 18.248 170.029 18.584 171.565 19.232C173.077 19.904 173.845 20.96 173.845 22.4ZM165.325 23.888C166.861 23.888 168.061 23.768 168.925 23.528C169.765 23.312 170.197 22.952 170.197 22.424C170.197 21.896 169.765 21.488 168.925 21.224C168.061 20.984 166.861 20.864 165.325 20.864C163.789 20.864 162.613 20.984 161.773 21.224C160.909 21.488 160.477 21.896 160.477 22.424C160.477 22.952 160.909 23.312 161.773 23.528C162.613 23.768 163.789 23.888 165.325 23.888ZM156.541 9.344C156.541 7.88 157.309 6.776 158.845 6.056C160.357 5.36 162.517 5 165.301 5C168.085 5 170.269 5.36 171.805 6.032C173.317 6.752 174.085 7.832 174.085 9.32C174.085 11.096 173.053 12.272 171.037 12.872V14.864H176.173V17.552H154.453V14.864H159.613V12.896C157.549 12.272 156.541 11.072 156.541 9.344ZM183.884 8.96C183.884 9.512 184.292 9.896 185.132 10.088C185.948 10.304 187.22 10.4 188.996 10.4C190.724 10.4 192.044 10.304 192.908 10.088C193.748 9.896 194.18 9.512 194.18 8.96C194.18 8.432 193.748 8.024 192.884 7.76C192.02 7.52 190.724 7.376 188.996 7.376C187.268 7.376 185.972 7.52 185.156 7.76C184.292 8.024 183.884 8.432 183.884 8.96ZM180.26 8.936C180.26 7.592 181.004 6.584 182.54 5.936C184.028 5.312 186.188 5 189.02 5C191.852 5 194.012 5.312 195.548 5.912C197.036 6.536 197.804 7.544 197.804 8.912C197.804 10.304 197.036 11.288 195.548 11.864C194.012 12.464 191.852 12.752 189.02 12.752C186.188 12.752 184.028 12.464 182.54 11.864C181.004 11.288 180.26 10.328 180.26 8.936ZM178.172 13.616H199.892V16.088H178.172V13.616ZM180.692 22.616V20.504H193.82V19.664H180.692V17.312H196.724C197.132 17.312 197.348 17.528 197.348 17.96V22.832H184.22V23C184.22 23.504 184.652 23.744 185.516 23.744H197.396V26.12H184.676C182.012 26.12 180.692 24.968 180.692 22.616ZM7.848 46.992C5.904 46.992 4.344 46.488 3.144 45.432C1.944 44.4 1.344 43.104 1.344 41.568C1.344 39.984 1.944 38.688 3.144 37.632C4.344 36.6 5.904 36.072 7.848 36.072C9.768 36.072 11.352 36.6 12.552 37.632C13.752 38.688 14.352 39.984 14.352 41.568C14.352 43.104 13.752 44.4 12.552 45.432C11.352 46.488 9.768 46.992 7.848 46.992ZM7.848 44.448C8.664 44.448 9.36 44.184 9.96 43.656C10.536 43.128 10.824 42.432 10.824 41.568C10.824 40.68 10.536 39.96 9.96 39.408C9.36 38.88 8.664 38.592 7.848 38.592C7.032 38.592 6.336 38.88 5.76 39.408C5.16 39.96 4.872 40.68 4.872 41.568C4.872 42.432 5.16 43.128 5.76 43.656C6.336 44.184 7.032 44.448 7.848 44.448ZM16.92 46.896V36.072H20.472V46.896H16.92ZM7.68 47.664V50.112H16.944V47.664H20.472V57.12H7.728C5.328 57.12 4.152 56.016 4.152 53.808V47.664H7.68ZM7.68 52.584V53.424C7.68 54.216 8.04 54.6 8.784 54.6H16.944V52.584H7.68ZM35.2005 37.392V43.392H27.6645V44.328C27.6645 45.288 28.1685 45.768 29.2245 45.768H36.8805V48.288H28.1685C25.4805 48.288 24.1365 47.016 24.1365 44.472V40.896H31.6725V38.76H24.1365V36.24H34.0485C34.8165 36.24 35.2005 36.624 35.2005 37.392ZM43.3845 36.072V48.792H39.8565V45.456H36.2085V42.912H39.8565V41.28H36.2085V38.736H39.8565V36.072H43.3845ZM27.0885 49.728H41.7045C42.8085 49.728 43.3845 50.304 43.3845 51.408V57.312H39.8325V52.272H27.0885V49.728ZM48.6636 36.096H55.2396V38.76H48.6636V36.096ZM57.7836 42.144H46.0716V39.504H57.7836V42.144ZM57.3276 48.168C57.3276 49.704 56.8236 51 55.8156 52.032C54.8076 53.088 53.5116 53.616 51.9276 53.616C50.3436 53.616 49.0716 53.088 48.0876 52.032C47.0796 51 46.5756 49.704 46.5756 48.168C46.5756 46.632 47.0796 45.336 48.0876 44.28C49.0716 43.248 50.3436 42.72 51.9276 42.72C53.5116 42.72 54.8076 43.248 55.8156 44.28C56.8236 45.336 57.3276 46.632 57.3276 48.168ZM54.0156 48.168C54.0156 47.28 53.8236 46.584 53.4396 46.08C53.0556 45.6 52.5276 45.336 51.9036 45.336C51.2796 45.336 50.7996 45.576 50.4396 46.056C50.0556 46.56 49.8876 47.256 49.8876 48.168C49.8876 49.08 50.0556 49.776 50.4396 50.256C50.7996 50.76 51.2796 51 51.9036 51C52.5276 51 53.0556 50.76 53.4396 50.256C53.8236 49.776 54.0156 49.08 54.0156 48.168ZM63.4236 36.072H66.7596V57.168H63.4236V45.744H61.9356V57.168H58.6476V36.072H61.9356V42.984H63.4236V36.072ZM89.2466 39.096H82.1186C82.3826 40.536 83.2226 41.736 84.6386 42.696C86.0066 43.656 87.6386 44.184 89.5586 44.232V46.92C86.9186 46.944 84.5906 46.32 82.5266 45.048C81.6146 44.496 80.8466 43.848 80.2466 43.08C79.6226 43.848 78.8546 44.496 77.9426 45.048C75.8786 46.32 73.5266 46.944 70.9106 46.92V44.232C72.8066 44.184 74.4386 43.656 75.8306 42.696C77.2226 41.736 78.0626 40.536 78.3506 39.096H71.2466V36.384H89.2466V39.096ZM91.0946 51H82.0226V57.168H78.4226V51H69.3746V48.24H91.0946V51ZM100.389 39.504C100.389 43.176 100.869 45.792 101.853 47.352C102.621 48.624 103.581 49.488 104.709 49.92V52.92C102.645 52.368 100.893 51.168 99.4774 49.344C99.1894 49.008 98.9494 48.624 98.7334 48.192C98.4934 48.624 98.2534 49.008 97.9894 49.344C96.5494 51.168 94.8214 52.368 92.7574 52.92V49.92C93.8614 49.488 94.8214 48.624 95.6134 47.352C96.5734 45.792 97.0774 43.176 97.0774 39.528V36.384H100.389V39.504ZM110.181 36.072H113.517V57.168H110.181V36.072ZM105.621 36.072H108.909V57.168H105.621V45H102.189V42.192H105.621V36.072ZM118.22 42.648C118.22 40.92 119.012 39.432 120.62 38.184C122.204 36.984 124.34 36.36 126.98 36.36C129.62 36.36 131.732 36.984 133.34 38.184C134.924 39.432 135.74 40.92 135.74 42.648C135.74 44.616 134.708 46.272 132.668 47.568V52.272H137.852V55.032H116.132V52.272H121.34V47.592C119.252 46.296 118.22 44.64 118.22 42.648ZM129.116 48.792C128.444 48.888 127.724 48.936 126.98 48.936C126.236 48.936 125.54 48.888 124.892 48.792V52.272H129.116V48.792ZM132.116 42.648C132.116 41.616 131.636 40.752 130.676 40.08C129.716 39.408 128.468 39.072 126.98 39.072C125.444 39.072 124.22 39.408 123.284 40.08C122.324 40.752 121.844 41.616 121.844 42.648C121.844 43.704 122.324 44.544 123.284 45.216C124.22 45.888 125.444 46.224 126.98 46.224C128.468 46.224 129.716 45.888 130.676 45.216C131.636 44.544 132.116 43.704 132.116 42.648Z" fill="black"/>
<defs>
<clipPath id="clip0_114_15256">
<rect width="14" height="14" fill="white" transform="translate(125 163)"/>
</clipPath>
<clipPath id="clip1_114_15256">
<rect width="14" height="14" fill="white" transform="translate(125 251)"/>
</clipPath>
<clipPath id="clip2_114_15256">
<rect width="14" height="14" fill="white" transform="translate(297 163)"/>
</clipPath>
<clipPath id="clip3_114_15256">
<rect width="14" height="14" fill="white" transform="translate(297 251)"/>
</clipPath>
</defs>
</svg>
