<svg width="375" height="80" viewBox="0 0 375 80" fill="none" xmlns="http://www.w3.org/2000/svg">
<g clip-path="url(#clip0_2070_590)">
<rect width="375" height="80" fill="white"/>
<rect x="20" y="15" width="335" height="50" rx="25" fill="#FF6600"/>
<path d="M150.438 44.1562V45.7812H137.422V44.1562H142.906V41.5312H138.797V34.125H140.797V36.3281H147V34.125H148.984V41.5312H144.891V44.1562H150.438ZM140.797 39.9375H147V37.9219H140.797V39.9375ZM163.234 33.2188V41.8125H161.25V39.0156H159.406V37.3906H161.25V33.2188H163.234ZM151.281 36.0469V34.4531H154.5V33.0938H156.469V34.4531H159.656V36.0469H151.281ZM152.062 39.0625C152.062 37.5781 153.492 36.5156 155.484 36.5156C157.484 36.5156 158.891 37.5781 158.891 39.0625C158.891 40.6172 157.477 41.6328 155.484 41.6406C153.492 41.6328 152.062 40.6172 152.062 39.0625ZM153.672 47.2812V42.4219H163.234V47.2812H153.672ZM153.984 39.0625C153.969 39.7812 154.555 40.1641 155.484 40.1719C156.391 40.1641 156.984 39.7812 156.984 39.0625C156.984 38.3906 156.391 38.0078 155.484 38.0156C154.555 38.0078 153.969 38.3906 153.984 39.0625ZM155.672 45.6875H161.281V43.9844H155.672V45.6875ZM176.547 33.8594V35C176.555 36.1094 176.555 37.3359 176.211 38.9688H178.094V40.5781H165.078V38.9688H174.203C174.508 37.5547 174.547 36.4531 174.562 35.4531H166.672V33.8594H176.547ZM166.625 47.2812V42.0781H176.5V47.2812H166.625ZM168.578 45.6875H174.516V43.6406H168.578V45.6875ZM190.703 34.7031V36.2656H187.828C187.852 37.7266 188.914 39.2109 191.203 39.7969L190.281 41.3281C188.656 40.9219 187.523 40.0234 186.875 38.8672C186.258 40.1797 185.117 41.2188 183.438 41.7031L182.5 40.1562C184.773 39.5 185.828 37.875 185.844 36.2656H182.984V34.7031H185.844V33.1562H187.859V34.7031H190.703ZM184.828 44.7188C184.828 43.0156 186.703 42.0547 189.719 42.0469C192.75 42.0547 194.617 43.0156 194.625 44.7188C194.617 46.4453 192.75 47.4453 189.719 47.4375C186.703 47.4453 184.828 46.4453 184.828 44.7188ZM186.812 44.7188C186.812 45.5 187.836 45.9219 189.719 45.9219C191.641 45.9219 192.633 45.5 192.641 44.7188C192.633 43.9609 191.641 43.5781 189.719 43.5781C187.836 43.5781 186.812 43.9609 186.812 44.7188ZM190.281 38.625V37.0312H192.594V33.2188H194.578V41.8125H192.594V38.625H190.281ZM207.875 34.0469V35.3281C207.867 36.6562 207.867 38.1016 207.508 40.0938H209.391V41.7031H203.844V47.4531H201.844V41.7031H196.422V40.0938H205.484C205.852 38.2656 205.883 36.8672 205.891 35.6406H197.906V34.0469H207.875ZM221.469 33.2188V38.7812H223.562V40.4219H221.469V47.4375H219.5V33.2188H221.469ZM210.172 36.9375V35.3438H213.391V33.4375H215.391V35.3438H218.531V36.9375H210.172ZM210.75 41.125C210.742 39.1406 212.289 37.7266 214.391 37.7344C216.461 37.7266 218.016 39.1406 218.016 41.125C218.016 43.1094 216.461 44.5078 214.391 44.5156C212.289 44.5078 210.742 43.1094 210.75 41.125ZM212.656 41.125C212.656 42.2266 213.383 42.8828 214.391 42.875C215.383 42.8828 216.109 42.2266 216.109 41.125C216.109 40.0312 215.383 39.3594 214.391 39.3438C213.383 39.3594 212.656 40.0312 212.656 41.125ZM236.031 33.2188V47.4375H234.016V33.2188H236.031ZM224.125 43.4062C227.797 41.6719 229.414 39.4219 229.734 36.2656H224.891V34.7031H231.766C231.758 39.0156 230.25 42.6016 225.172 45L224.125 43.4062Z" fill="white"/>
</g>
<defs>
<clipPath id="clip0_2070_590">
<rect width="375" height="80" fill="white"/>
</clipPath>
</defs>
</svg>
