<svg width="355" height="606" viewBox="0 0 355 606" fill="none" xmlns="http://www.w3.org/2000/svg">
<circle cx="11.5" cy="578.5" r="1.5" fill="#BBBBBB"/>
<path d="M28.7754 573.755V582.007H27.7852V573.755H28.7754ZM19.7236 577.31C19.7173 575.685 20.9932 574.548 22.6816 574.542C24.3701 574.548 25.6333 575.685 25.6396 577.31C25.6333 578.954 24.3701 580.096 22.6816 580.09C20.9932 580.096 19.7173 578.954 19.7236 577.31ZM20.7012 577.31C20.6885 578.433 21.5391 579.214 22.6816 579.214C23.8052 579.214 24.6621 578.433 24.6621 577.31C24.6621 576.205 23.8052 575.418 22.6816 575.418C21.5391 575.418 20.6885 576.205 20.7012 577.31ZM21.4883 584.787V581.169H22.4785V583.949H29.1309V584.787H21.4883ZM41.4756 579.112V579.938H31.1924V579.112H41.4756ZM31.7764 577.64C33.7441 577.411 35.6421 576.44 35.6865 575.151H32.1318V574.326H40.5615V575.151H36.9814C37.0259 576.427 38.9048 577.411 40.9043 577.64L40.5361 578.439C38.689 578.205 36.9561 577.373 36.334 576.123C35.7119 577.373 33.9917 578.205 32.1318 578.439L31.7764 577.64ZM32.4365 582.972C32.4302 581.677 33.8965 580.928 36.334 580.928C38.7524 580.928 40.2061 581.677 40.2188 582.972C40.2061 584.279 38.7524 585.003 36.334 585.003C33.8965 585.003 32.4302 584.279 32.4365 582.972ZM33.4521 582.972C33.4395 583.759 34.5249 584.209 36.334 584.203C38.124 584.209 39.2095 583.759 39.2158 582.972C39.2095 582.178 38.124 581.728 36.334 581.715C34.5249 581.728 33.4395 582.178 33.4521 582.972ZM53.2617 582.743V583.581H42.9277V582.743H45.4922V579.703C44.5273 579.201 43.9434 578.389 43.9434 577.36C43.9434 575.615 45.6572 574.466 48.0693 574.453C50.4814 574.466 52.1953 575.615 52.1953 577.36C52.1953 578.37 51.6304 579.169 50.6973 579.671V582.743H53.2617ZM44.9082 577.36C44.9019 578.624 46.2158 579.468 48.0693 579.468C49.9038 579.468 51.2305 578.624 51.2305 577.36C51.2305 576.097 49.9038 575.266 48.0693 575.278C46.2158 575.266 44.9019 576.097 44.9082 577.36ZM46.4697 582.743H49.6943V580.058C49.2056 580.185 48.6597 580.255 48.0693 580.255C47.4917 580.255 46.9521 580.191 46.4697 580.064V582.743ZM58.5098 576.167C58.5161 577.57 59.7285 578.839 61.3916 579.328L60.9092 580.103C59.6016 579.709 58.5605 578.858 58.0464 577.748C57.564 578.979 56.5293 579.95 55.1836 580.395L54.7012 579.633C56.3579 579.074 57.5259 577.697 57.5322 576.167V575.926H54.9805V575.126H57.5322V573.691H58.5352V575.126H61.0615V575.926H58.5098V576.167ZM56.4912 582.946C56.4849 581.632 57.9258 580.883 60.2744 580.89C62.6167 580.883 64.0576 581.632 64.0576 582.946C64.0576 584.254 62.6167 585.003 60.2744 585.003C57.9258 585.003 56.4849 584.254 56.4912 582.946ZM57.4814 582.946C57.4751 583.733 58.5415 584.216 60.2744 584.216C62.0073 584.216 63.0674 583.733 63.0674 582.946C63.0674 582.14 62.0073 581.677 60.2744 581.664C58.5415 581.677 57.4751 582.14 57.4814 582.946ZM60.7061 577.805V576.979H63.0166V573.742H64.0195V580.585H63.0166V577.805H60.7061ZM70.4102 576.776C70.4038 578.839 71.8066 580.909 73.4697 581.664L72.8604 582.451C71.5718 581.829 70.4609 580.49 69.9214 578.884C69.4009 580.585 68.29 582.013 66.9697 582.68L66.335 581.842C68.0171 581.074 69.4072 578.916 69.4199 576.776V574.72H70.4102V576.776ZM74.7012 585.054V573.742H75.7041V585.054H74.7012ZM85.7432 576.167C85.7495 577.57 86.9619 578.839 88.625 579.328L88.1426 580.103C86.835 579.709 85.7939 578.858 85.2798 577.748C84.7974 578.979 83.7627 579.95 82.417 580.395L81.9346 579.633C83.5913 579.074 84.7593 577.697 84.7656 576.167V575.926H82.2139V575.126H84.7656V573.691H85.7686V575.126H88.2949V575.926H85.7432V576.167ZM83.7246 582.946C83.7183 581.632 85.1592 580.883 87.5078 580.89C89.8501 580.883 91.291 581.632 91.291 582.946C91.291 584.254 89.8501 585.003 87.5078 585.003C85.1592 585.003 83.7183 584.254 83.7246 582.946ZM84.7148 582.946C84.7085 583.733 85.7749 584.216 87.5078 584.216C89.2407 584.216 90.3008 583.733 90.3008 582.946C90.3008 582.14 89.2407 581.677 87.5078 581.664C85.7749 581.677 84.7085 582.14 84.7148 582.946ZM87.9395 577.805V576.979H90.25V573.742H91.2529V580.585H90.25V577.805H87.9395ZM102.557 574.479V575.469C102.557 576.535 102.557 577.709 102.233 579.328H103.915V580.153H99.2559V585.054H98.2529V580.153H93.6318V579.328H101.224C101.566 577.703 101.566 576.522 101.566 575.469V575.304H94.9268V574.479H102.557ZM118.778 573.742V585.028H117.826V579.112H116.163V584.444H115.249V573.996H116.163V578.287H117.826V573.742H118.778ZM109.549 582.235V575.126H113.776V575.951H110.539V581.385C112.094 581.378 113.167 581.321 114.424 581.067L114.513 581.905C113.154 582.185 112.005 582.229 110.272 582.235H109.549ZM124.636 575.57C124.636 577.106 125.804 578.516 127.441 579.074L126.896 579.861C125.651 579.404 124.667 578.471 124.172 577.291C123.69 578.63 122.681 579.665 121.36 580.179L120.827 579.379C122.516 578.75 123.652 577.24 123.658 575.494V574.326H124.636V575.57ZM122.325 582.946C122.332 581.658 123.747 580.902 126.07 580.902C128.387 580.902 129.79 581.658 129.79 582.946C129.79 584.26 128.387 585.003 126.07 585.003C123.747 585.003 122.332 584.26 122.325 582.946ZM123.328 582.946C123.315 583.746 124.369 584.209 126.07 584.216C127.778 584.209 128.819 583.746 128.825 582.946C128.819 582.178 127.778 581.702 126.07 581.702C124.369 581.702 123.315 582.178 123.328 582.946ZM128.698 580.61V573.742H129.688V576.688H131.39V577.525H129.688V580.61H128.698ZM136.422 577.208C136.409 579.017 137.717 581.01 139.354 581.791L138.783 582.578C137.514 581.956 136.441 580.623 135.933 579.093C135.413 580.75 134.283 582.21 133.02 582.857L132.41 582.07C134.035 581.277 135.432 579.131 135.444 577.208V575.735H132.816V574.91H138.961V575.735H136.422V577.208ZM140.345 585.028V573.742H141.335V578.312H143.227V579.163H141.335V585.028H140.345ZM145.034 580.496C145.047 578.103 145.694 576.11 146.862 574.415H147.827C146.97 575.666 146.17 578.236 146.164 580.496C146.17 582.762 146.97 585.327 147.827 586.59H146.862C145.694 584.889 145.047 582.896 145.034 580.496ZM158.598 573.742V585.028H157.595V573.742H158.598ZM149.254 581.385C149.743 581.385 150.27 581.378 150.815 581.372V575.799H149.546V574.974H155.995V575.799H154.713V581.226C155.348 581.182 155.976 581.125 156.579 581.055L156.643 581.804C154.18 582.185 151.457 582.223 149.368 582.235L149.254 581.385ZM151.793 581.353C152.428 581.34 153.082 581.315 153.735 581.283V575.799H151.793V581.353ZM171.336 582.756V583.581H161.002V582.756H165.648V580.318H162.221V574.542H163.224V576.586H169.089V574.542H170.066V580.318H166.626V582.756H171.336ZM163.224 579.506H169.089V577.398H163.224V579.506ZM182.094 573.742V580.585H181.091V578.008H179.174V577.183H181.091V573.742H182.094ZM172.75 575.748V574.936H175.556V573.641H176.533V574.936H179.339V575.748H172.75ZM173.423 578.338C173.423 577.157 174.508 576.332 176.038 576.332C177.574 576.332 178.653 577.157 178.666 578.338C178.653 579.557 177.574 580.356 176.038 580.356C174.508 580.356 173.423 579.557 173.423 578.338ZM174.375 578.338C174.375 579.087 175.054 579.582 176.038 579.595C177.022 579.582 177.701 579.087 177.701 578.338C177.701 577.614 177.022 577.106 176.038 577.106C175.054 577.106 174.375 577.614 174.375 578.338ZM174.718 584.876V581.194H182.094V584.876H174.718ZM175.708 584.063H181.116V581.994H175.708V584.063ZM188.294 577.208C188.281 579.017 189.589 581.01 191.227 581.791L190.655 582.578C189.386 581.956 188.313 580.623 187.805 579.093C187.285 580.75 186.155 582.21 184.892 582.857L184.282 582.07C185.907 581.277 187.304 579.131 187.316 577.208V575.735H184.688V574.91H190.833V575.735H188.294V577.208ZM192.217 585.028V573.742H193.207V578.312H195.099V579.163H193.207V585.028H192.217ZM199.026 580.496C199.014 582.896 198.366 584.889 197.198 586.59H196.233C197.09 585.327 197.89 582.762 197.896 580.496C197.89 578.236 197.09 575.666 196.233 574.415H197.198C198.366 576.11 199.014 578.103 199.026 580.496ZM210.812 573.742V585.028H209.848V573.742H210.812ZM201.278 578.617C201.285 576.218 202.237 574.701 203.703 574.694C205.074 574.701 206.001 576.021 206.128 578.147H207.588V573.983H208.54V584.457H207.588V578.973H206.134C206.039 581.169 205.093 582.546 203.703 582.54C202.237 582.546 201.285 581.017 201.278 578.617ZM202.218 578.617C202.205 580.445 202.789 581.601 203.703 581.588C204.624 581.601 205.208 580.445 205.201 578.617C205.208 576.783 204.624 575.634 203.703 575.634C202.789 575.634 202.205 576.783 202.218 578.617ZM222.535 573.742V585.028H221.583V573.742H222.535ZM212.887 581.867C215.337 580.414 216.568 578.376 216.759 576.015H213.369V575.189H217.749C217.749 576.3 217.571 577.373 217.184 578.376H219.209V574.047H220.161V584.457H219.209V579.188H216.816C216.137 580.502 215.045 581.664 213.471 582.591L212.887 581.867ZM232.219 576.167C232.225 577.57 233.438 578.839 235.101 579.328L234.618 580.103C233.311 579.709 232.27 578.858 231.755 577.748C231.273 578.979 230.238 579.95 228.893 580.395L228.41 579.633C230.067 579.074 231.235 577.697 231.241 576.167V575.926H228.689V575.126H231.241V573.691H232.244V575.126H234.771V575.926H232.219V576.167ZM230.2 582.946C230.194 581.632 231.635 580.883 233.983 580.89C236.326 580.883 237.767 581.632 237.767 582.946C237.767 584.254 236.326 585.003 233.983 585.003C231.635 585.003 230.194 584.254 230.2 582.946ZM231.19 582.946C231.184 583.733 232.25 584.216 233.983 584.216C235.716 584.216 236.776 583.733 236.776 582.946C236.776 582.14 235.716 581.677 233.983 581.664C232.25 581.677 231.184 582.14 231.19 582.946ZM234.415 577.805V576.979H236.726V573.742H237.729V580.585H236.726V577.805H234.415ZM249.032 574.479V575.469C249.032 576.535 249.032 577.709 248.708 579.328H250.391V580.153H245.731V585.054H244.729V580.153H240.107V579.328H247.699C248.042 577.703 248.042 576.522 248.042 575.469V575.304H241.402V574.479H249.032ZM265.901 579.328V580.128H255.605V579.328H260.265V578.008H256.913V574.275H264.619V575.075H257.891V577.195H264.695V578.008H261.229V579.328H265.901ZM256.85 582.984C256.843 581.696 258.31 580.959 260.747 580.953C263.166 580.959 264.619 581.696 264.632 582.984C264.619 584.286 263.166 585.016 260.747 585.028C258.31 585.016 256.843 584.286 256.85 582.984ZM257.865 582.984C257.853 583.778 258.938 584.235 260.747 584.229C262.537 584.235 263.623 583.778 263.629 582.984C263.623 582.204 262.537 581.74 260.747 581.74C258.938 581.74 257.853 582.204 257.865 582.984ZM271.035 574.567C272.806 574.574 274.063 575.653 274.069 577.221C274.063 578.795 272.806 579.868 271.035 579.874C269.251 579.868 267.982 578.795 267.988 577.221C267.982 575.653 269.251 574.574 271.035 574.567ZM267.404 581.715C269.486 581.721 272.362 581.702 274.856 581.334L274.933 582.07C272.349 582.553 269.575 582.565 267.544 582.565L267.404 581.715ZM268.966 577.221C268.959 578.274 269.829 578.998 271.035 578.998C272.229 578.998 273.098 578.274 273.092 577.221C273.098 576.173 272.229 575.443 271.035 575.443C269.829 575.443 268.959 576.173 268.966 577.221ZM275.605 585.054V573.742H276.596V585.054H275.605ZM293.173 582.743V583.581H282.839V582.743H285.403V579.703C284.438 579.201 283.854 578.389 283.854 577.36C283.854 575.615 285.568 574.466 287.98 574.453C290.393 574.466 292.106 575.615 292.106 577.36C292.106 578.37 291.542 579.169 290.608 579.671V582.743H293.173ZM284.819 577.36C284.813 578.624 286.127 579.468 287.98 579.468C289.815 579.468 291.142 578.624 291.142 577.36C291.142 576.097 289.815 575.266 287.98 575.278C286.127 575.266 284.813 576.097 284.819 577.36ZM286.381 582.743H289.605V580.058C289.117 580.185 288.571 580.255 287.98 580.255C287.403 580.255 286.863 580.191 286.381 580.064V582.743ZM298.421 576.167C298.427 577.57 299.64 578.839 301.303 579.328L300.82 580.103C299.513 579.709 298.472 578.858 297.958 577.748C297.475 578.979 296.44 579.95 295.095 580.395L294.612 579.633C296.269 579.074 297.437 577.697 297.443 576.167V575.926H294.892V575.126H297.443V573.691H298.446V575.126H300.973V575.926H298.421V576.167ZM296.402 582.946C296.396 581.632 297.837 580.883 300.186 580.89C302.528 580.883 303.969 581.632 303.969 582.946C303.969 584.254 302.528 585.003 300.186 585.003C297.837 585.003 296.396 584.254 296.402 582.946ZM297.393 582.946C297.386 583.733 298.453 584.216 300.186 584.216C301.918 584.216 302.979 583.733 302.979 582.946C302.979 582.14 301.918 581.677 300.186 581.664C298.453 581.677 297.386 582.14 297.393 582.946ZM300.617 577.805V576.979H302.928V573.742H303.931V580.585H302.928V577.805H300.617ZM311.451 573.945C313.958 573.945 315.431 574.637 315.438 575.888C315.431 577.17 313.958 577.862 311.451 577.868C308.931 577.862 307.452 577.17 307.452 575.888C307.452 574.637 308.931 573.945 311.451 573.945ZM306.31 579.442V578.63H316.593V579.442H306.31ZM307.554 581.182V580.42H315.272V582.946H308.569V584.114H315.615V584.901H307.579V582.21H314.295V581.182H307.554ZM308.493 575.888C308.48 576.675 309.579 577.106 311.451 577.106C313.324 577.106 314.416 576.675 314.422 575.888C314.416 575.145 313.324 574.701 311.451 574.694C309.579 574.701 308.48 575.145 308.493 575.888ZM325.527 574.301C327.216 574.288 328.428 575.221 328.422 576.599C328.428 577.976 327.216 578.916 325.527 578.909C323.839 578.916 322.633 577.976 322.633 576.599C322.633 575.221 323.839 574.288 325.527 574.301ZM321.782 579.874C323.902 579.88 326.803 579.836 329.311 579.468L329.374 580.217C328.295 580.414 327.178 580.534 326.086 580.604V584.686H325.096V580.661C323.947 580.712 322.861 580.718 321.922 580.725L321.782 579.874ZM323.61 576.599C323.598 577.481 324.404 578.09 325.527 578.084C326.664 578.09 327.476 577.481 327.47 576.599C327.476 575.723 326.664 575.101 325.527 575.113C324.404 575.101 323.598 575.723 323.61 576.599ZM330.136 585.041V573.755H331.113V585.041H330.136ZM342.366 573.755V577.475H344.067V578.312H342.366V582.21H341.376V573.755H342.366ZM333.568 575.951V575.139H336.438V573.755H337.428V575.139H340.297V575.951H333.568ZM334.216 578.681C334.209 577.398 335.301 576.573 336.933 576.573C338.545 576.573 339.637 577.398 339.649 578.681C339.637 579.95 338.545 580.769 336.933 580.763C335.301 580.769 334.209 579.95 334.216 578.681ZM335.168 578.681C335.162 579.474 335.866 579.988 336.933 579.976C337.986 579.988 338.697 579.474 338.71 578.681C338.697 577.875 337.986 577.354 336.933 577.36C335.866 577.354 335.162 577.875 335.168 578.681ZM335.308 584.787V581.537H336.285V583.949H342.887V584.787H335.308ZM29.7783 597.519V598.344H25.1826V600.654H24.1924V598.344H19.4443V597.519H29.7783ZM20.7646 602.787V599.537H21.7676V601.949H28.623V602.787H20.7646ZM20.79 596.224V592.301H28.4326V596.224H20.79ZM21.7676 595.424H27.4424V593.088H21.7676V595.424ZM35.0137 595.208C35.001 597.017 36.3086 599.01 37.9463 599.791L37.375 600.578C36.1055 599.956 35.0327 598.623 34.5249 597.093C34.0044 598.75 32.8745 600.21 31.6113 600.857L31.002 600.07C32.627 599.277 34.0234 597.131 34.0361 595.208V593.735H31.4082V592.91H37.5527V593.735H35.0137V595.208ZM38.9365 603.028V591.742H39.9268V596.312H41.8184V597.163H39.9268V603.028H38.9365ZM43.626 598.496C43.6387 596.103 44.2861 594.11 45.4541 592.415H46.4189C45.562 593.666 44.7622 596.236 44.7559 598.496C44.7622 600.762 45.562 603.327 46.4189 604.59H45.4541C44.2861 602.889 43.6387 600.896 43.626 598.496ZM56.6816 591.742V594.192H58.3828V595.03H56.6816V597.493H55.6914V591.742H56.6816ZM48.0742 594.662C48.0679 593.183 49.312 592.167 51.0068 592.161C52.708 592.167 53.9395 593.183 53.9395 594.662C53.9395 596.147 52.708 597.169 51.0068 597.176C49.312 597.169 48.0679 596.147 48.0742 594.662ZM49.0518 594.662C49.0454 595.652 49.877 596.363 51.0068 596.363C52.1304 596.363 52.9683 595.652 52.9619 594.662C52.9683 593.685 52.1304 592.986 51.0068 592.999C49.877 592.986 49.0454 593.685 49.0518 594.662ZM49.4834 598.826V598.026H56.6816V600.781H50.4863V602.076H57.1006V602.876H49.5088V600.02H55.6914V598.826H49.4834ZM68.9121 591.755V598.445H67.9219V591.755H68.9121ZM60.165 593.24V592.44H65.3193V595.5H61.1553V597.062C63.1738 597.074 64.6782 597.011 66.5127 596.706L66.627 597.544C64.729 597.836 63.1865 597.899 61.1045 597.899H60.1904V594.713H64.3291V593.24H60.165ZM61.5742 602.876V599.055H68.9121V602.876H61.5742ZM62.5518 602.063H67.9346V599.867H62.5518V602.063ZM81.6123 597.836V598.648H71.3164V597.836H75.9629V596.63H72.6875V592.047H80.3301V592.847H73.6904V593.926H80.0254V594.7H73.6904V595.855H80.3936V596.63H76.9531V597.836H81.6123ZM72.4717 600.464V599.651H80.2793V603.028H79.2637V600.464H72.4717ZM85.8828 598.496C85.8701 600.896 85.2227 602.889 84.0547 604.59H83.0898C83.9468 603.327 84.7466 600.762 84.7529 598.496C84.7466 596.236 83.9468 593.666 83.0898 592.415H84.0547C85.2227 594.11 85.8701 596.103 85.8828 598.496ZM97.3008 591.742V603.054H96.2979V591.742H97.3008ZM88.4141 596.554C88.4204 594.154 89.6138 592.625 91.2959 592.618C92.9717 592.625 94.1841 594.154 94.1777 596.554C94.1841 598.959 92.9717 600.483 91.2959 600.477C89.6138 600.483 88.4204 598.959 88.4141 596.554ZM89.3789 596.554C89.3789 598.388 90.166 599.594 91.2959 599.588C92.4321 599.594 93.2129 598.388 93.2129 596.554C93.2129 594.719 92.4321 593.513 91.2959 593.507C90.166 593.513 89.3789 594.719 89.3789 596.554ZM104.953 592.225V593.85H108.241V592.225H109.231V597.138H103.976V592.225H104.953ZM104.953 596.325H108.241V594.624H104.953V596.325ZM105.118 598.915V598.115H112.316V600.845H106.121V602.089H112.735V602.901H105.144V600.083H111.326V598.915H105.118ZM111.326 597.582V591.742H112.316V594.192H114.018V595.03H112.316V597.582H111.326ZM120.853 595.69V597.354H125.512V598.166H115.229V597.354H119.875V595.69H120.853ZM115.851 595.487C117.844 595.214 119.862 593.958 119.862 592.453V591.92H120.865V592.453C120.865 593.958 122.896 595.214 124.89 595.487L124.483 596.287C122.776 595.989 121.075 595.081 120.37 593.78C119.659 595.094 117.964 595.989 116.231 596.287L115.851 595.487ZM116.473 601.061C116.466 599.81 117.92 599.112 120.37 599.105C122.795 599.112 124.242 599.81 124.255 601.061C124.242 602.317 122.795 603.003 120.37 603.003C117.92 603.003 116.466 602.317 116.473 601.061ZM117.488 601.061C117.476 601.803 118.542 602.235 120.37 602.229C122.179 602.235 123.246 601.803 123.252 601.061C123.246 600.312 122.179 599.893 120.37 599.893C118.542 599.893 117.476 600.312 117.488 601.061ZM136.282 591.755V598.242H135.279V591.755H136.282ZM127.002 597.138C127.96 597.138 129.078 597.138 130.239 597.1V595.881H128.03V592.313H133.388V593.139H129.033V595.081H133.489V595.881H131.242V597.055C132.29 597.004 133.35 596.922 134.34 596.782L134.403 597.506C131.928 597.925 129.192 597.963 127.154 597.963L127.002 597.138ZM128.843 602.876V598.75H129.833V599.956H135.305V598.75H136.282V602.876H128.843ZM129.833 602.063H135.305V600.73H129.833V602.063ZM148.005 591.742V603.028H147.015V591.742H148.005ZM139.436 600.121V592.859H140.413V599.258C142.14 599.245 143.917 599.112 145.809 598.712L145.948 599.562C143.942 599.981 142.159 600.121 140.35 600.121H139.436ZM159.169 591.742V596.211H161.061V597.049H159.169V603.054H158.179V591.742H159.169ZM150.93 600.223V592.847H156.198V593.672H151.92V599.385C153.964 599.378 155.405 599.29 157.087 598.979L157.214 599.842C155.443 600.159 153.964 600.223 151.818 600.223H150.93ZM163.363 602.076C162.919 602.07 162.538 601.702 162.551 601.251C162.538 600.807 162.919 600.438 163.363 600.438C163.814 600.438 164.182 600.807 164.176 601.251C164.182 601.702 163.814 602.07 163.363 602.076Z" fill="#999999"/>
<rect width="335" height="77" transform="translate(10 163)" fill="#F4F4F4"/>
<path d="M44.1436 182.999V183.812H34.9902V182.999H39.1035V181.679H40.0811V182.999H44.1436ZM34.457 189.778V188.953H44.791V189.778H42.0615V193.054H41.0713V189.778H38.1514V193.054H37.1484V189.778H34.457ZM35.917 186.325C35.9043 185.125 37.2881 184.459 39.5986 184.459C41.8901 184.459 43.2739 185.125 43.2803 186.325C43.2739 187.519 41.8901 188.191 39.5986 188.191C37.2881 188.191 35.9043 187.519 35.917 186.325ZM36.9453 186.325C36.9326 187.017 37.9165 187.423 39.5986 187.417C41.2617 187.423 42.2393 187.017 42.252 186.325C42.2393 185.627 41.2617 185.233 39.5986 185.221C37.9165 185.233 36.9326 185.627 36.9453 186.325ZM55.3408 181.742V193.028H54.3887V187.112H52.7256V192.444H51.8115V181.996H52.7256V186.287H54.3887V181.742H55.3408ZM46.1113 190.235V183.126H50.3389V183.951H47.1016V189.385C48.6567 189.378 49.7295 189.321 50.9863 189.067L51.0752 189.905C49.7168 190.185 48.5679 190.229 46.835 190.235H46.1113ZM66.2334 182.263V183.088H64.4941V185.678H66.1953V186.478H62.5645V187.861H67.2109V188.674H56.9277V187.861H61.5742V186.478H57.9307V185.678H59.6318V183.088H57.8926V182.263H66.2334ZM58.2607 192.787V189.664H59.2637V191.949H66.0684V192.787H58.2607ZM60.6221 185.678H63.5039V183.088H60.6221V185.678ZM77.5195 181.755V190.108H76.5166V185.767H73.8506V188.179H68.7344V182.504H69.7246V184.51H72.873V182.504H73.8506V184.929H76.5166V181.755H77.5195ZM69.7246 187.354H72.873V185.297H69.7246V187.354ZM70.2197 192.787V189.283H71.2227V191.949H77.7734V192.787H70.2197ZM89.1484 183.418V184.243H79.9062V183.418H84.0449V181.933H85.0225V183.418H89.1484ZM79.3984 191.708V190.883H84.0449V189.296C82.0327 189.188 80.8203 188.407 80.833 187.138C80.8203 185.798 82.2358 185.005 84.54 185.018C86.8125 185.005 88.2534 185.798 88.2471 187.138C88.2534 188.407 87.0156 189.188 85.0225 189.296V190.883H89.7324V191.708H79.3984ZM81.8359 187.138C81.8232 187.995 82.8579 188.49 84.54 188.496C86.2031 188.49 87.2378 187.995 87.2314 187.138C87.2378 186.3 86.2031 185.805 84.54 185.805C82.8579 185.805 81.8232 186.3 81.8359 187.138Z" fill="#888888"/>
<path d="M39.5547 218.176C36.6104 218.176 34.8789 215.803 34.8789 211.637C34.8789 207.497 36.6279 205.098 39.5547 205.098C42.4727 205.098 44.2217 207.497 44.2305 211.637C44.2217 215.803 42.499 218.176 39.5547 218.176ZM36.8125 211.637C36.8037 214.81 37.832 216.506 39.5547 216.506C41.2686 216.506 42.2969 214.81 42.2969 211.637C42.2969 208.473 41.2598 206.741 39.5547 206.732C37.8408 206.741 36.8125 208.473 36.8125 211.637ZM51.0684 205.273V218H49.1172V207.207H49.0469L46.0059 209.193V207.348L49.1699 205.273H51.0684ZM58.7324 218.176C55.7881 218.176 54.0566 215.803 54.0566 211.637C54.0566 207.497 55.8057 205.098 58.7324 205.098C61.6504 205.098 63.3994 207.497 63.4082 211.637C63.3994 215.803 61.6768 218.176 58.7324 218.176ZM55.9902 211.637C55.9814 214.81 57.0098 216.506 58.7324 216.506C60.4463 216.506 61.4746 214.81 61.4746 211.637C61.4746 208.473 60.4375 206.741 58.7324 206.732C57.0186 206.741 55.9902 208.473 55.9902 211.637ZM75.4492 210.828V212.445H69.8066V210.828H75.4492ZM86.9277 205.273V218H84.9766V207.207H84.9062L81.8652 209.193V207.348L85.0293 205.273H86.9277ZM90.1621 218V216.594L94.5742 212.146C95.9717 210.696 96.666 209.888 96.666 208.771C96.666 207.515 95.6465 206.715 94.3105 206.715C92.8955 206.715 91.999 207.611 91.9902 208.965H90.1621C90.1445 206.636 91.9199 205.098 94.3457 205.098C96.7979 205.098 98.4941 206.653 98.5117 208.719C98.4941 210.143 97.8262 211.276 95.4355 213.623L92.8516 216.242V216.348H98.7227V218H90.1621ZM105.385 218.176C102.748 218.176 100.876 216.761 100.797 214.678H102.766C102.836 215.794 103.943 216.506 105.367 216.506C106.905 216.506 108.021 215.671 108.021 214.432C108.021 213.175 106.976 212.278 105.156 212.27H104.066V210.688H105.156C106.606 210.696 107.617 209.888 107.617 208.666C107.617 207.506 106.747 206.715 105.402 206.715C104.128 206.715 102.985 207.427 102.941 208.578H101.078C101.131 206.504 103.047 205.098 105.42 205.098C107.925 205.098 109.498 206.68 109.48 208.561C109.498 210.011 108.602 211.048 107.23 211.391V211.479C108.971 211.725 109.981 212.894 109.973 214.502C109.981 216.62 108.021 218.176 105.385 218.176ZM111.818 215.521V213.957L117.443 205.273H119.834V213.887H121.574V215.521H119.834V218H118.006V215.521H111.818ZM113.857 213.887H118.006V207.576H117.865L113.857 213.781V213.887ZM129.168 210.828V212.445H123.525V210.828H129.168ZM140.137 218.176C137.729 218.176 135.918 216.708 135.83 214.678H137.711C137.816 215.759 138.854 216.55 140.137 216.559C141.684 216.55 142.791 215.434 142.791 213.922C142.791 212.375 141.648 211.25 140.049 211.232C139.029 211.232 138.247 211.575 137.816 212.357H135.988L136.814 205.273H144.021V206.926H138.414L137.992 210.494H138.115C138.643 209.984 139.539 209.642 140.506 209.633C142.905 209.642 144.672 211.417 144.672 213.869C144.672 216.374 142.791 218.176 140.137 218.176ZM151.334 218.176C148.979 218.158 146.518 216.761 146.518 212.059C146.526 207.629 148.442 205.098 151.492 205.098C153.839 205.098 155.465 206.557 155.764 208.578H153.848C153.593 207.541 152.775 206.794 151.492 206.785C149.523 206.794 148.381 208.499 148.381 211.373H148.521C149.216 210.292 150.411 209.659 151.791 209.65C154.059 209.659 155.887 211.399 155.887 213.834C155.887 216.304 154.067 218.193 151.334 218.176ZM148.609 213.887C148.618 215.302 149.752 216.55 151.316 216.559C152.854 216.55 154.006 215.354 154.006 213.869C154.006 212.41 152.898 211.224 151.369 211.232C149.813 211.224 148.627 212.472 148.609 213.887ZM158.383 218L164.061 207.031V206.926H157.504V205.273H166.064V206.996L160.404 218H158.383ZM172.217 218.176C169.448 218.176 167.523 216.682 167.541 214.607C167.523 212.973 168.692 211.637 170.195 211.408V211.338C168.886 211.039 168.016 209.879 168.016 208.49C168.016 206.53 169.782 205.098 172.217 205.098C174.616 205.098 176.392 206.53 176.4 208.49C176.392 209.879 175.504 211.039 174.221 211.338V211.408C175.706 211.637 176.884 212.973 176.893 214.607C176.884 216.682 174.941 218.176 172.217 218.176ZM169.51 214.467C169.483 215.715 170.538 216.576 172.217 216.576C173.869 216.576 174.924 215.715 174.924 214.467C174.924 213.157 173.781 212.199 172.217 212.199C170.635 212.199 169.483 213.157 169.51 214.467ZM169.896 208.666C169.905 209.853 170.854 210.679 172.217 210.67C173.544 210.679 174.511 209.861 174.502 208.666C174.511 207.479 173.579 206.671 172.217 206.68C170.819 206.671 169.905 207.479 169.896 208.666Z" fill="black"/>
<rect x="10" y="240" width="335" height="1" fill="#E8E8E8"/>
<rect width="335" height="77" transform="translate(10 241)" fill="#F4F4F4"/>
<path d="M40.1572 261.342C40.1509 262.853 42.1631 264.135 44.1309 264.427L43.7627 265.214C42.0044 264.916 40.2842 263.976 39.5986 262.618C38.9131 263.976 37.1929 264.916 35.46 265.214L35.0664 264.427C37.0278 264.135 39.0337 262.853 39.04 261.342V261.266H35.4219V260.453H43.7627V261.266H40.1572V261.342ZM34.457 267.004V266.179H44.7402V267.004H40.0684V271.028H39.0908V267.004H34.457ZM51.583 260.732V265.963H46.2891V260.732H51.583ZM47.2666 265.163H50.6055V261.558H47.2666V265.163ZM47.7236 270.647V267.08H48.7139V269.822H55.3662V270.647H47.7236ZM54.0205 267.867V259.755H55.0107V267.867H54.0205ZM67.2236 265.112V265.95H56.9277V265.112H67.2236ZM58.1719 268.972C58.1655 267.677 59.6318 266.94 62.0693 266.94C64.4878 266.94 65.9414 267.677 65.9541 268.972C65.9414 270.279 64.4878 271.003 62.0693 271.003C59.6318 271.003 58.1655 270.279 58.1719 268.972ZM58.2354 264.033V260.199H65.9414V261.037H59.2129V263.221H66.0176V264.033H58.2354ZM59.1875 268.972C59.1748 269.765 60.2603 270.216 62.0693 270.216C63.8594 270.216 64.9448 269.765 64.9512 268.972C64.9448 268.185 63.8594 267.728 62.0693 267.715C60.2603 267.728 59.1748 268.185 59.1875 268.972ZM78.4844 265.963V266.788H68.1504V265.963H72.8223V264.77H69.4961V262.015H76.1484V260.847H69.458V260.034H77.1514V262.764H70.4863V263.97H77.3926V264.77H73.7998V265.963H78.4844ZM69.3057 268.464V267.651H77.2148V270.927H76.2119V268.464H69.3057ZM88.7549 259.755V268.108H87.752V263.767H85.0859V266.179H79.9697V260.504H80.96V262.51H84.1084V260.504H85.0859V262.929H87.752V259.755H88.7549ZM80.96 265.354H84.1084V263.297H80.96V265.354ZM81.4551 270.787V267.283H82.458V269.949H89.0088V270.787H81.4551ZM100.384 261.418V262.243H91.1416V261.418H95.2803V259.933H96.2578V261.418H100.384ZM90.6338 269.708V268.883H95.2803V267.296C93.2681 267.188 92.0557 266.407 92.0684 265.138C92.0557 263.798 93.4712 263.005 95.7754 263.018C98.0479 263.005 99.4888 263.798 99.4824 265.138C99.4888 266.407 98.251 267.188 96.2578 267.296V268.883H100.968V269.708H90.6338ZM93.0713 265.138C93.0586 265.995 94.0933 266.49 95.7754 266.496C97.4385 266.49 98.4731 265.995 98.4668 265.138C98.4731 264.3 97.4385 263.805 95.7754 263.805C94.0933 263.805 93.0586 264.3 93.0713 265.138Z" fill="#888888"/>
<path d="M35.5645 296L41.2422 285.031V284.926H34.6855V283.273H43.2461V284.996L37.5859 296H35.5645ZM49.3457 296.176C46.4014 296.176 44.6699 293.803 44.6699 289.637C44.6699 285.497 46.4189 283.098 49.3457 283.098C52.2637 283.098 54.0127 285.497 54.0215 289.637C54.0127 293.803 52.29 296.176 49.3457 296.176ZM46.6035 289.637C46.5947 292.81 47.623 294.506 49.3457 294.506C51.0596 294.506 52.0879 292.81 52.0879 289.637C52.0879 286.473 51.0508 284.741 49.3457 284.732C47.6318 284.741 46.6035 286.473 46.6035 289.637ZM60.4551 296.176C57.5107 296.176 55.7793 293.803 55.7793 289.637C55.7793 285.497 57.5283 283.098 60.4551 283.098C63.373 283.098 65.1221 285.497 65.1309 289.637C65.1221 293.803 63.3994 296.176 60.4551 296.176ZM57.7129 289.637C57.7041 292.81 58.7324 294.506 60.4551 294.506C62.1689 294.506 63.1973 292.81 63.1973 289.637C63.1973 286.473 62.1602 284.741 60.4551 284.732C58.7412 284.741 57.7129 286.473 57.7129 289.637ZM71.9688 283.273V296H70.0176V285.207H69.9473L66.9062 287.193V285.348L70.0703 283.273H71.9688ZM79.6328 296.176C76.6885 296.176 74.957 293.803 74.957 289.637C74.957 285.497 76.7061 283.098 79.6328 283.098C82.5508 283.098 84.2998 285.497 84.3086 289.637C84.2998 293.803 82.5771 296.176 79.6328 296.176ZM76.8906 289.637C76.8818 292.81 77.9102 294.506 79.6328 294.506C81.3467 294.506 82.375 292.81 82.375 289.637C82.375 286.473 81.3379 284.741 79.6328 284.732C77.9189 284.741 76.8906 286.473 76.8906 289.637ZM91.1465 283.273V296H89.1953V285.207H89.125L86.084 287.193V285.348L89.248 283.273H91.1465ZM104.418 288.828V290.445H98.7754V288.828H104.418ZM115.896 283.273V296H113.945V285.207H113.875L110.834 287.193V285.348L113.998 283.273H115.896Z" fill="black"/>
<circle cx="126" cy="289.5" r="5" fill="black"/>
<circle cx="138" cy="289.5" r="5" fill="black"/>
<circle cx="150" cy="289.5" r="5" fill="black"/>
<circle cx="162" cy="289.5" r="5" fill="black"/>
<circle cx="174" cy="289.5" r="5" fill="black"/>
<circle cx="186" cy="289.5" r="5" fill="black"/>
<rect x="10" y="318" width="335" height="1" fill="#E8E8E8"/>
<path d="M10 319H345V380C345 388.837 337.837 396 329 396H26C17.1634 396 10 388.837 10 380V319Z" fill="#F4F4F4"/>
<path d="M43.7627 337.742V349.054H42.7598V337.742H43.7627ZM34.876 342.554C34.8823 340.154 36.0757 338.625 37.7578 338.618C39.4336 338.625 40.646 340.154 40.6396 342.554C40.646 344.959 39.4336 346.483 37.7578 346.477C36.0757 346.483 34.8823 344.959 34.876 342.554ZM35.8408 342.554C35.8408 344.388 36.6279 345.594 37.7578 345.588C38.894 345.594 39.6748 344.388 39.6748 342.554C39.6748 340.719 38.894 339.513 37.7578 339.507C36.6279 339.513 35.8408 340.719 35.8408 342.554ZM56.0137 343.569V344.395H45.6797V343.569H56.0137ZM46.9873 338.821V338.021H54.6807V340.688H48.0156V341.817H54.9219V342.592H47.0254V339.938H53.6777V338.821H46.9873ZM47.0889 348.876V345.423H54.6807V348.876H47.0889ZM48.0664 348.063H53.7031V346.235H48.0664V348.063Z" fill="#888888"/>
<path d="M42.9121 360.729C42.9033 364.763 40.0557 367.602 35.3887 368.832L34.7207 367.514C38.5088 366.529 40.8115 364.552 41.1191 362.064H35.5996V360.729H42.9121ZM37.3223 375.283V369.324H47.6406V375.283H37.3223ZM38.9746 373.947H46.0059V370.66H38.9746V373.947ZM45.9707 368.621V359.762H47.6406V368.621H45.9707ZM62.5117 359.762V364.824H64.7969V366.213H62.5117V371.539H60.8418V359.762H62.5117ZM50.1543 362.943V361.59H54.0215V359.744H55.6914V361.59H59.541V362.943H50.1543ZM51.0156 366.67C51.0068 364.868 52.5625 363.69 54.8477 363.699C57.1064 363.69 58.6621 364.868 58.6621 366.67C58.6621 368.454 57.1064 369.614 54.8477 369.623C52.5625 369.614 51.0068 368.454 51.0156 366.67ZM52.5273 375.16V370.607H54.1973V373.807H63.1797V375.16H52.5273ZM52.6328 366.67C52.6152 367.698 53.5117 368.331 54.8477 368.322C56.1836 368.331 57.0801 367.698 57.0977 366.67C57.0801 365.633 56.1836 364.991 54.8477 364.982C53.5117 364.991 52.6152 365.633 52.6328 366.67ZM78.0332 359.744V366.336H80.4062V367.742H78.0332V375.494H76.3633V359.744H78.0332ZM65.5 371.205C66.7393 371.205 68.1807 371.205 69.6836 371.161V369.562C67.9082 369.298 66.748 368.226 66.7656 366.705C66.748 364.93 68.2861 363.761 70.5273 363.752C72.7598 363.761 74.3154 364.93 74.3242 366.705C74.3154 368.226 73.1377 369.307 71.3535 369.562V371.1C72.751 371.029 74.1572 370.915 75.4668 370.73L75.5723 371.961C72.1621 372.567 68.4795 372.603 65.7637 372.594L65.5 371.205ZM65.7988 362.943V361.607H69.6836V359.779H71.3535V361.607H75.2383V362.943H65.7988ZM68.3301 366.705C68.3301 367.707 69.209 368.331 70.5273 368.322C71.8457 368.331 72.7158 367.707 72.7246 366.705C72.7158 365.694 71.8457 365.053 70.5273 365.053C69.209 365.053 68.3301 365.694 68.3301 366.705Z" fill="black"/>
<rect x="10" y="100" width="335" height="63" fill="#F4F4F4"/>
<g filter="url(#filter0_d_114_14762)">
<rect x="10" y="86" width="335" height="77" rx="16" fill="white" shape-rendering="crispEdges"/>
<rect x="10.5" y="86.5" width="334" height="76" rx="15.5" stroke="#FF6600" shape-rendering="crispEdges"/>
<path d="M43.7754 104.755V113.007H42.7852V104.755H43.7754ZM34.7236 108.31C34.7173 106.685 35.9932 105.548 37.6816 105.542C39.3701 105.548 40.6333 106.685 40.6396 108.31C40.6333 109.954 39.3701 111.096 37.6816 111.09C35.9932 111.096 34.7173 109.954 34.7236 108.31ZM35.7012 108.31C35.6885 109.433 36.5391 110.214 37.6816 110.214C38.8052 110.214 39.6621 109.433 39.6621 108.31C39.6621 107.205 38.8052 106.418 37.6816 106.418C36.5391 106.418 35.6885 107.205 35.7012 108.31ZM36.4883 115.787V112.169H37.4785V114.949H44.1309V115.787H36.4883ZM55.9756 110.112V110.938H45.6924V110.112H55.9756ZM46.2764 108.64C48.2441 108.411 50.1421 107.44 50.1865 106.151H46.6318V105.326H55.0615V106.151H51.4814C51.5259 107.427 53.4048 108.411 55.4043 108.64L55.0361 109.439C53.189 109.205 51.4561 108.373 50.834 107.123C50.2119 108.373 48.4917 109.205 46.6318 109.439L46.2764 108.64ZM46.9365 113.972C46.9302 112.677 48.3965 111.928 50.834 111.928C53.2524 111.928 54.7061 112.677 54.7188 113.972C54.7061 115.279 53.2524 116.003 50.834 116.003C48.3965 116.003 46.9302 115.279 46.9365 113.972ZM47.9521 113.972C47.9395 114.759 49.0249 115.209 50.834 115.203C52.624 115.209 53.7095 114.759 53.7158 113.972C53.7095 113.178 52.624 112.728 50.834 112.715C49.0249 112.728 47.9395 113.178 47.9521 113.972ZM66.2842 104.755V113.108H65.2812V108.767H62.6152V111.179H57.499V105.504H58.4893V107.51H61.6377V105.504H62.6152V107.929H65.2812V104.755H66.2842ZM58.4893 110.354H61.6377V108.297H58.4893V110.354ZM58.9844 115.787V112.283H59.9873V114.949H66.5381V115.787H58.9844ZM77.9131 106.418V107.243H68.6709V106.418H72.8096V104.933H73.7871V106.418H77.9131ZM68.1631 114.708V113.883H72.8096V112.296C70.7974 112.188 69.585 111.407 69.5977 110.138C69.585 108.798 71.0005 108.005 73.3047 108.018C75.5771 108.005 77.0181 108.798 77.0117 110.138C77.0181 111.407 75.7803 112.188 73.7871 112.296V113.883H78.4971V114.708H68.1631ZM70.6006 110.138C70.5879 110.995 71.6226 111.49 73.3047 111.496C74.9678 111.49 76.0024 110.995 75.9961 110.138C76.0024 109.3 74.9678 108.805 73.3047 108.805C71.6226 108.805 70.5879 109.3 70.6006 110.138Z" fill="#888888"/>
<path d="M39.9414 141.176C36.751 141.176 34.8262 138.803 34.8262 134.637C34.8262 130.479 36.7686 128.098 39.9414 128.098C43.1143 128.098 45.0566 130.479 45.0566 134.637C45.0566 138.82 43.123 141.176 39.9414 141.176ZM37.5332 134.637C37.5156 137.572 38.4648 138.996 39.9414 138.996C41.418 138.996 42.3584 137.572 42.3496 134.637C42.3584 131.728 41.4092 130.269 39.9414 130.26C38.4736 130.269 37.5332 131.728 37.5332 134.637ZM51.5605 141.176C48.9062 141.176 46.9639 139.611 46.9199 137.414H49.4863C49.5479 138.407 50.4531 139.093 51.5605 139.084C52.8789 139.093 53.8193 138.161 53.8105 136.834C53.8193 135.48 52.8613 134.54 51.5254 134.531C50.5674 134.531 49.8994 134.892 49.5215 135.604H47.1309L47.8164 128.273H55.6562V130.436H49.9961L49.6445 133.652H49.75C50.2158 133.028 51.1826 132.571 52.2988 132.58C54.6367 132.571 56.377 134.32 56.377 136.764C56.377 139.339 54.4258 141.176 51.5605 141.176ZM63.1094 141.176C59.9189 141.176 57.9941 138.803 57.9941 134.637C57.9941 130.479 59.9365 128.098 63.1094 128.098C66.2822 128.098 68.2246 130.479 68.2246 134.637C68.2246 138.82 66.291 141.176 63.1094 141.176ZM60.7012 134.637C60.6836 137.572 61.6328 138.996 63.1094 138.996C64.5859 138.996 65.5264 137.572 65.5176 134.637C65.5264 131.728 64.5771 130.269 63.1094 130.26C61.6416 130.269 60.7012 131.728 60.7012 134.637ZM74.7285 141.176C72.0742 141.176 70.1318 139.611 70.0879 137.414H72.6543C72.7158 138.407 73.6211 139.093 74.7285 139.084C76.0469 139.093 76.9873 138.161 76.9785 136.834C76.9873 135.48 76.0293 134.54 74.6934 134.531C73.7354 134.531 73.0674 134.892 72.6895 135.604H70.2988L70.9844 128.273H78.8242V130.436H73.1641L72.8125 133.652H72.918C73.3838 133.028 74.3506 132.571 75.4668 132.58C77.8047 132.571 79.5449 134.32 79.5449 136.764C79.5449 139.339 77.5938 141.176 74.7285 141.176Z" fill="black"/>
<rect x="256" y="116" width="69" height="30" rx="15" fill="#303030"/>
<path d="M277.775 124.755V133.007H276.785V124.755H277.775ZM268.724 128.31C268.717 126.685 269.993 125.548 271.682 125.542C273.37 125.548 274.633 126.685 274.64 128.31C274.633 129.954 273.37 131.096 271.682 131.09C269.993 131.096 268.717 129.954 268.724 128.31ZM269.701 128.31C269.688 129.433 270.539 130.214 271.682 130.214C272.805 130.214 273.662 129.433 273.662 128.31C273.662 127.205 272.805 126.418 271.682 126.418C270.539 126.418 269.688 127.205 269.701 128.31ZM270.488 135.787V132.169H271.479V134.949H278.131V135.787H270.488ZM289.976 130.112V130.938H279.692V130.112H289.976ZM280.276 128.64C282.244 128.411 284.142 127.44 284.187 126.151H280.632V125.326H289.062V126.151H285.481C285.526 127.427 287.405 128.411 289.404 128.64L289.036 129.439C287.189 129.205 285.456 128.373 284.834 127.123C284.212 128.373 282.492 129.205 280.632 129.439L280.276 128.64ZM280.937 133.972C280.93 132.677 282.396 131.928 284.834 131.928C287.252 131.928 288.706 132.677 288.719 133.972C288.706 135.279 287.252 136.003 284.834 136.003C282.396 136.003 280.93 135.279 280.937 133.972ZM281.952 133.972C281.939 134.759 283.025 135.209 284.834 135.203C286.624 135.209 287.709 134.759 287.716 133.972C287.709 133.178 286.624 132.728 284.834 132.715C283.025 132.728 281.939 133.178 281.952 133.972ZM299.738 124.755V128.17H301.427V129.008H299.738V132.321H298.735V124.755H299.738ZM290.877 131.166C291.778 131.166 292.832 131.166 293.937 131.134V130.303C292.623 130.182 291.772 129.579 291.778 128.64C291.772 127.611 292.832 126.977 294.419 126.977C296.019 126.977 297.06 127.611 297.072 128.64C297.06 129.573 296.234 130.176 294.927 130.303V131.096C295.98 131.045 297.047 130.957 298.037 130.811L298.126 131.534C295.676 131.966 292.978 131.985 290.991 131.979L290.877 131.166ZM291.156 126.545V125.783H293.937V124.653H294.927V125.783H297.694V126.545H291.156ZM292.261 133.68V132.88H299.738V136.028H298.735V133.68H292.261ZM292.73 128.64C292.724 129.23 293.378 129.63 294.419 129.617C295.46 129.63 296.12 129.23 296.12 128.64C296.12 128.043 295.46 127.675 294.419 127.688C293.378 127.675 292.724 128.043 292.73 128.64ZM311.481 124.755V133.007H310.491V124.755H311.481ZM302.43 128.31C302.423 126.685 303.699 125.548 305.388 125.542C307.076 125.548 308.339 126.685 308.346 128.31C308.339 129.954 307.076 131.096 305.388 131.09C303.699 131.096 302.423 129.954 302.43 128.31ZM303.407 128.31C303.395 129.433 304.245 130.214 305.388 130.214C306.511 130.214 307.368 129.433 307.368 128.31C307.368 127.205 306.511 126.418 305.388 126.418C304.245 126.418 303.395 127.205 303.407 128.31ZM304.194 135.787V132.169H305.185V134.949H311.837V135.787H304.194Z" fill="white"/>
</g>
<path d="M24.976 10.328H19.936C19.984 11.624 20.536 12.68 21.568 13.496C22.552 14.336 23.824 14.744 25.384 14.744V17.168C22.96 17.168 20.872 16.568 19.12 15.344C18.76 15.104 18.448 14.84 18.184 14.552C17.896 14.84 17.584 15.104 17.248 15.344C15.472 16.568 13.384 17.168 10.984 17.168V14.744C12.52 14.744 13.792 14.336 14.8 13.496C15.808 12.68 16.36 11.624 16.432 10.328H11.392V7.904H24.976V10.328ZM14.272 4.688H22.096V7.136H14.272V4.688ZM27.544 5.072H31.072V17.576H27.544V13.64H23.488V10.952H27.544V5.072ZM30.904 22.016C30.904 23.336 30.28 24.464 29.032 25.4C27.76 26.36 26.104 26.84 24.064 26.84C22.024 26.84 20.368 26.36 19.12 25.4C17.848 24.464 17.224 23.336 17.224 22.016C17.224 20.696 17.848 19.568 19.12 18.608C20.368 17.696 22.024 17.216 24.064 17.216C26.104 17.216 27.76 17.696 29.032 18.608C30.28 19.568 30.904 20.696 30.904 22.016ZM24.064 19.712C23.056 19.712 22.264 19.928 21.664 20.36C21.04 20.792 20.752 21.344 20.752 22.016C20.752 22.688 21.04 23.24 21.664 23.672C22.24 24.104 23.056 24.32 24.064 24.32C25.048 24.32 25.84 24.128 26.464 23.696C27.064 23.288 27.376 22.736 27.376 22.016C27.376 21.344 27.064 20.792 26.464 20.36C25.84 19.928 25.024 19.712 24.064 19.712ZM49.3591 5.384C51.8551 5.384 53.1271 6.656 53.1271 9.176V16.256H49.5751V9.896C49.5751 8.744 48.9751 8.144 47.7991 8.144H36.1111V5.384H49.3591ZM55.7431 19.88H46.6711V26.168H43.0711V19.88H34.0231V17.12H55.7431V19.88ZM61.1498 5.096H68.4458V7.76H61.1498V5.096ZM71.5898 11.144H58.0058V8.504H71.5898V11.144ZM58.7258 17.168C58.7258 15.704 59.2778 14.432 60.4298 13.328C61.5578 12.272 63.0218 11.72 64.7978 11.72C66.5738 11.72 68.0138 12.272 69.1658 13.328C70.2938 14.432 70.8698 15.704 70.8698 17.168C70.8698 18.656 70.2938 19.928 69.1658 20.984C68.0138 22.088 66.5738 22.616 64.7978 22.616C63.0218 22.616 61.5578 22.088 60.4298 20.984C59.2778 19.928 58.7258 18.656 58.7258 17.168ZM62.2298 17.168C62.2298 18.032 62.4938 18.704 63.0218 19.208C63.5258 19.736 64.1258 20 64.7978 20C65.4698 20 66.0698 19.736 66.5978 19.208C67.1018 18.704 67.3658 18.032 67.3658 17.168C67.3658 16.328 67.1018 15.632 66.5978 15.104C66.0698 14.6 65.4698 14.336 64.7978 14.336C64.1258 14.336 63.5258 14.6 63.0218 15.104C62.4938 15.632 62.2298 16.328 62.2298 17.168ZM80.1818 15.344H77.1098V26.168H73.5818V5.072H77.1098V12.56H80.1818V15.344ZM90.1006 5.384V8.504C90.1006 12.128 90.6526 14.744 91.7806 16.328C92.7166 17.672 93.9406 18.608 95.4526 19.088V21.824C92.9086 21.368 90.8206 20.192 89.2366 18.272C88.9006 17.888 88.6126 17.48 88.3486 17C88.0606 17.48 87.7726 17.888 87.4606 18.272C85.8526 20.192 83.7886 21.368 81.2446 21.824V19.088C82.7326 18.608 83.9566 17.672 84.9166 16.328C86.0206 14.744 86.5966 12.128 86.5966 8.504V5.384H90.1006ZM97.3246 26.168V5.072H100.877V26.168H97.3246ZM109.509 5.312V10.04C109.509 11 110.037 11.456 111.093 11.456H122.997V14.12H110.133C107.349 14.12 105.957 12.992 105.957 10.736V5.312H109.509ZM125.493 18.416H103.773V15.656H125.493V18.416ZM111.525 23.408H123.213V26.12H110.085C107.541 26.12 106.293 24.752 106.293 22.016V19.568H109.845V21.584C109.845 22.808 110.397 23.408 111.525 23.408ZM136.589 11.504V5.216H140.117V7.832H150.053V5.216H153.581V14.96H140.309C137.813 14.96 136.589 13.808 136.589 11.504ZM140.117 11.384C140.117 12.056 140.501 12.392 141.293 12.392H150.053V10.376H140.117V11.384ZM156.173 18.584H147.557V21.944H144.005V18.584H134.453V15.896H156.173V18.584ZM142.205 23.456H153.893V26.12H140.765C138.221 26.12 136.973 24.776 136.973 22.04V20H140.525V21.632C140.525 22.856 141.077 23.456 142.205 23.456ZM159.564 11.384C159.564 9.656 160.188 8.192 161.436 6.992C162.684 5.816 164.316 5.216 166.332 5.216C168.348 5.216 169.98 5.816 171.228 6.992C172.476 8.192 173.1 9.656 173.1 11.384C173.1 13.112 172.476 14.552 171.228 15.728C169.98 16.928 168.348 17.504 166.332 17.504C164.316 17.504 162.684 16.928 161.436 15.728C160.188 14.552 159.564 13.112 159.564 11.384ZM169.548 11.384C169.548 10.376 169.236 9.536 168.636 8.888C168.012 8.264 167.244 7.928 166.332 7.928C165.396 7.928 164.628 8.264 164.028 8.888C163.404 9.536 163.116 10.376 163.116 11.384C163.116 12.392 163.404 13.208 164.028 13.832C164.628 14.48 165.396 14.792 166.332 14.792C167.244 14.792 168.012 14.48 168.636 13.832C169.236 13.208 169.548 12.392 169.548 11.384ZM158.7 19.856H170.411C173.292 19.856 174.732 18.8 174.732 16.688V5.072H178.284V26.168H174.732V21.752C173.988 22.376 172.836 22.664 171.299 22.664H158.7V19.856ZM195.396 12.608C195.06 13.064 194.652 13.472 194.22 13.808C192.588 15.104 190.62 15.896 188.316 16.136V13.568C189.756 13.352 190.98 12.752 191.964 11.768C192.828 10.904 193.355 9.656 193.548 7.976H188.796V5.408H201.996V7.976H197.244C197.436 9.656 197.964 10.904 198.828 11.768C199.788 12.752 201.012 13.352 202.476 13.568V16.136C200.148 15.896 198.18 15.104 196.572 13.808C196.116 13.472 195.732 13.064 195.396 12.608ZM204.732 5.072H208.26V16.664H204.732V11.792H200.196V9.056H204.732V5.072ZM208.092 21.512C208.092 22.976 207.468 24.224 206.22 25.256C204.972 26.312 203.316 26.84 201.252 26.84C199.188 26.84 197.556 26.312 196.308 25.256C195.036 24.224 194.412 22.976 194.412 21.512C194.412 20.072 195.036 18.824 196.308 17.792C197.556 16.784 199.188 16.256 201.252 16.256C203.316 16.256 204.972 16.784 206.22 17.792C207.468 18.824 208.092 20.072 208.092 21.512ZM201.252 18.848C200.244 18.848 199.428 19.112 198.852 19.64C198.228 20.168 197.94 20.792 197.94 21.512C197.94 22.232 198.228 22.88 198.852 23.408C199.428 23.96 200.244 24.224 201.252 24.224C202.236 24.224 203.028 23.96 203.652 23.408C204.252 22.88 204.564 22.256 204.564 21.512C204.564 20.792 204.252 20.168 203.652 19.64C203.028 19.112 202.236 18.848 201.252 18.848ZM230.339 17.72H223.859V21.272H232.931V24.032H211.211V21.272H220.259V17.72H217.163C214.619 17.72 213.347 16.448 213.347 13.904V5.552H216.875V9.2H226.811V5.552H230.339V17.72ZM226.811 15.008V11.888H216.875V13.688C216.875 14.576 217.355 15.008 218.339 15.008H226.811ZM252.977 5.12C253.721 5.12 254.105 5.48 254.105 6.176V10.352H240.641V10.616C240.641 11.048 241.025 11.24 241.817 11.24H254.321V13.424H240.953C238.385 13.424 237.113 12.536 237.113 10.736V8.168H250.577V7.328H237.113V5.12H252.977ZM234.929 14.456H256.649V16.832H234.929V14.456ZM237.449 22.88V20.84H250.577V20.024H237.449V17.84H253.481C253.889 17.84 254.105 18.032 254.105 18.416V23.024H240.977V23.192C240.977 23.672 241.409 23.888 242.273 23.888H254.153V26.12H241.433C238.769 26.12 237.449 25.04 237.449 22.88ZM18.112 46.992C16.168 46.992 14.608 46.488 13.408 45.432C12.208 44.4 11.608 43.104 11.608 41.568C11.608 39.984 12.208 38.688 13.408 37.632C14.608 36.6 16.168 36.072 18.112 36.072C20.032 36.072 21.616 36.6 22.816 37.632C24.016 38.688 24.616 39.984 24.616 41.568C24.616 43.104 24.016 44.4 22.816 45.432C21.616 46.488 20.032 46.992 18.112 46.992ZM18.112 44.448C18.928 44.448 19.624 44.184 20.224 43.656C20.8 43.128 21.088 42.432 21.088 41.568C21.088 40.68 20.8 39.96 20.224 39.408C19.624 38.88 18.928 38.592 18.112 38.592C17.296 38.592 16.6 38.88 16.024 39.408C15.424 39.96 15.136 40.68 15.136 41.568C15.136 42.432 15.424 43.128 16.024 43.656C16.6 44.184 17.296 44.448 18.112 44.448ZM30.4 40.152H33.424V42.864H30.4V46.896H26.872V36.072H30.4V40.152ZM30.4 53.64H17.608V53.856C17.608 54.36 18.04 54.6 18.904 54.6H30.448V57.12H18.064C15.4 57.12 14.08 55.896 14.08 53.424V51.168H26.872V50.28H14.08V47.784H29.776C30.184 47.784 30.4 48 30.4 48.432V53.64ZM46.6068 37.536V45.672H39.0708V48.576C39.0708 49.632 39.5748 50.136 40.6308 50.136H48.2868V52.848H39.5748C36.8867 52.848 35.5428 51.528 35.5428 48.864V42.984H43.0788V39.12H35.5428V36.408H45.4548C46.2228 36.408 46.6068 36.792 46.6068 37.536ZM54.7908 36.072V57.168H51.2628V48.456H47.6148V45.72H51.2628V42.696H47.6148V39.96H51.2628V36.072H54.7908ZM77.6138 39.096H70.4858C70.7498 40.536 71.5898 41.736 73.0058 42.696C74.3738 43.656 76.0058 44.184 77.9258 44.232V46.92C75.2858 46.944 72.9578 46.32 70.8938 45.048C69.9818 44.496 69.2138 43.848 68.6138 43.08C67.9898 43.848 67.2218 44.496 66.3098 45.048C64.2458 46.32 61.8938 46.944 59.2778 46.92V44.232C61.1738 44.184 62.8058 43.656 64.1978 42.696C65.5898 41.736 66.4298 40.536 66.7178 39.096H59.6138V36.384H77.6138V39.096ZM79.4618 51H70.3898V57.168H66.7898V51H57.7418V48.24H79.4618V51ZM88.7566 39.504C88.7566 43.176 89.2366 45.792 90.2206 47.352C90.9886 48.624 91.9486 49.488 93.0766 49.92V52.92C91.0126 52.368 89.2606 51.168 87.8446 49.344C87.5566 49.008 87.3166 48.624 87.1006 48.192C86.8606 48.624 86.6206 49.008 86.3566 49.344C84.9166 51.168 83.1886 52.368 81.1246 52.92V49.92C82.2286 49.488 83.1886 48.624 83.9806 47.352C84.9406 45.792 85.4446 43.176 85.4446 39.528V36.384H88.7566V39.504ZM98.5486 36.072H101.885V57.168H98.5486V36.072ZM93.9886 36.072H97.2766V57.168H93.9886V45H90.5566V42.192H93.9886V36.072ZM106.588 42.648C106.588 40.92 107.38 39.432 108.988 38.184C110.572 36.984 112.708 36.36 115.348 36.36C117.988 36.36 120.1 36.984 121.708 38.184C123.292 39.432 124.108 40.92 124.108 42.648C124.108 44.616 123.076 46.272 121.036 47.568V52.272H126.22V55.032H104.5V52.272H109.708V47.592C107.62 46.296 106.588 44.64 106.588 42.648ZM117.484 48.792C116.812 48.888 116.092 48.936 115.348 48.936C114.604 48.936 113.908 48.888 113.26 48.792V52.272H117.484V48.792ZM120.484 42.648C120.484 41.616 120.004 40.752 119.044 40.08C118.084 39.408 116.836 39.072 115.348 39.072C113.812 39.072 112.588 39.408 111.652 40.08C110.692 40.752 110.212 41.616 110.212 42.648C110.212 43.704 110.692 44.544 111.652 45.216C112.588 45.888 113.812 46.224 115.348 46.224C116.836 46.224 118.084 45.888 119.044 45.216C120.004 44.544 120.484 43.704 120.484 42.648Z" fill="black"/>
<defs>
<filter id="filter0_d_114_14762" x="0" y="81" width="355" height="97" filterUnits="userSpaceOnUse" color-interpolation-filters="sRGB">
<feFlood flood-opacity="0" result="BackgroundImageFix"/>
<feColorMatrix in="SourceAlpha" type="matrix" values="0 0 0 0 0 0 0 0 0 0 0 0 0 0 0 0 0 0 127 0" result="hardAlpha"/>
<feOffset dy="5"/>
<feGaussianBlur stdDeviation="5"/>
<feComposite in2="hardAlpha" operator="out"/>
<feColorMatrix type="matrix" values="0 0 0 0 0 0 0 0 0 0 0 0 0 0 0 0 0 0 0.1 0"/>
<feBlend mode="normal" in2="BackgroundImageFix" result="effect1_dropShadow_114_14762"/>
<feBlend mode="normal" in="SourceGraphic" in2="effect1_dropShadow_114_14762" result="shape"/>
</filter>
</defs>
</svg>
