<svg width="335" height="602" viewBox="0 0 335 602" fill="none" xmlns="http://www.w3.org/2000/svg">
<circle cx="12" cy="590" r="9" fill="#303030"/>
<rect x="11" y="589" width="2" height="5.5" rx="1" fill="white"/>
<rect x="10.7998" y="585.5" width="2.4" height="2.4" rx="1.2" fill="white"/>
<path d="M32.6348 586.564C32.6416 588.075 33.9473 589.442 35.7383 589.969L35.2188 590.803C33.8105 590.379 32.6895 589.463 32.1357 588.267C31.6162 589.593 30.502 590.639 29.0527 591.117L28.5332 590.297C30.3174 589.695 31.5752 588.212 31.582 586.564V586.305H28.834V585.443H31.582V583.898H32.6621V585.443H35.3828V586.305H32.6348V586.564ZM30.4609 593.865C30.4541 592.45 32.0059 591.644 34.5352 591.65C37.0576 591.644 38.6094 592.45 38.6094 593.865C38.6094 595.273 37.0576 596.08 34.5352 596.08C32.0059 596.08 30.4541 595.273 30.4609 593.865ZM31.5273 593.865C31.5205 594.713 32.6689 595.232 34.5352 595.232C36.4014 595.232 37.543 594.713 37.543 593.865C37.543 592.997 36.4014 592.498 34.5352 592.484C32.6689 592.498 31.5205 592.997 31.5273 593.865ZM35 588.328V587.439H37.4883V583.953H38.5684V591.322H37.4883V588.328H35ZM50.2031 584.746V585.812C50.2031 586.961 50.2031 588.226 49.8545 589.969H51.666V590.857H46.6484V596.135H45.5684V590.857H40.5918V589.969H48.7676C49.1367 588.219 49.1367 586.947 49.1367 585.812V585.635H41.9863V584.746H50.2031ZM67.3203 590.885V591.773H64.3809V596.107H63.3008V591.773H60.1836V596.107H59.0762V591.773H56.1914V590.885H67.3203ZM57.4492 587.098C57.4561 585.478 59.1719 584.452 61.7285 584.445C64.2783 584.452 66.0078 585.478 66.0078 587.098C66.0078 588.718 64.2783 589.729 61.7285 589.723C59.1719 589.729 57.4561 588.718 57.4492 587.098ZM58.5566 587.098C58.543 588.171 59.835 588.861 61.7285 588.861C63.6221 588.861 64.9072 588.171 64.9141 587.098C64.9072 586.018 63.6221 585.32 61.7285 585.32C59.835 585.32 58.543 586.018 58.5566 587.098ZM75.1953 585.32V586.195H68.3184V585.32H71.2715V583.857H72.3379V585.32H75.1953ZM69.043 589.066C69.0293 587.713 70.1504 586.817 71.791 586.824C73.418 586.817 74.5596 587.713 74.5664 589.066C74.5596 590.427 73.418 591.315 71.791 591.322C70.1504 591.315 69.0293 590.427 69.043 589.066ZM70.041 589.066C70.0342 589.921 70.7314 590.495 71.791 590.488C72.8369 590.495 73.5547 589.921 73.5684 589.066C73.5547 588.212 72.8369 587.645 71.791 587.631C70.7314 587.645 70.0342 588.212 70.041 589.066ZM70.2871 594.016C70.2871 592.689 71.8252 591.938 74.375 591.938C76.9111 591.938 78.4492 592.689 78.4492 594.016C78.4492 595.321 76.9111 596.08 74.375 596.08C71.8252 596.08 70.2871 595.321 70.2871 594.016ZM71.3945 594.016C71.4014 594.788 72.5293 595.253 74.375 595.246C76.1934 595.253 77.3145 594.788 77.3145 594.016C77.3145 593.223 76.1934 592.778 74.375 592.771C72.5293 592.778 71.4014 593.223 71.3945 594.016ZM75.1816 590.133V589.244H77.3008V587.768H75.1953V586.879H77.3008V583.953H78.3809V591.814H77.3008V590.133H75.1816ZM88.0742 586.25C88.0742 587.945 89.3047 589.545 91.082 590.188L90.4805 591.021C89.1475 590.495 88.0811 589.442 87.5615 588.116C87.0488 589.586 85.9414 590.748 84.5059 591.322L83.9316 590.447C85.7568 589.777 87.0146 588.075 87.0215 586.209V584.705H88.0742V586.25ZM86.1328 595.848V592.033H87.2129V594.945H94.2676V595.848H86.1328ZM90.207 587.727V586.824H92.9141V583.967H93.9941V593.072H92.9141V587.727H90.207ZM101.281 584.842V585.744H97.5898V587.262H101.145V588.109H97.5898V589.791C99.3604 589.784 100.468 589.716 101.773 589.463L101.883 590.352C100.454 590.632 99.3057 590.687 97.3301 590.693H96.5645V584.842H101.281ZM98.1504 592.84V591.965H106.34V596.107H105.287V592.84H98.1504ZM102.607 591.254V584.199H103.605V587.139H105.314V583.967H106.34V591.336H105.314V588.014H103.605V591.254H102.607ZM121.133 583.953V587.658H122.965V588.561H121.133V592.922H120.066V583.953H121.133ZM111.863 587.809C111.856 586.045 113.237 584.821 115.049 584.814C116.874 584.821 118.234 586.045 118.248 587.809C118.234 589.565 116.874 590.803 115.049 590.803C113.237 590.803 111.856 589.565 111.863 587.809ZM112.916 587.809C112.909 589.005 113.846 589.859 115.049 589.859C116.272 589.859 117.188 589.005 117.195 587.809C117.188 586.605 116.272 585.758 115.049 585.758C113.846 585.758 112.909 586.605 112.916 587.809ZM113.531 595.848V591.992H114.584V594.945H121.693V595.848H113.531ZM134.107 583.953V596.107H133.055V589.818H131.305V595.479H130.293V584.227H131.305V588.902H133.055V583.953H134.107ZM124.346 592.963V585.443H125.412V592.006C126.615 591.999 127.914 591.91 129.391 591.609L129.527 592.566C127.832 592.874 126.438 592.963 125.098 592.963H124.346Z" fill="black"/>
<path d="M14.976 10.328H9.936C9.984 11.624 10.536 12.68 11.568 13.496C12.552 14.336 13.824 14.744 15.384 14.744V17.168C12.96 17.168 10.872 16.568 9.12 15.344C8.76 15.104 8.448 14.84 8.184 14.552C7.896 14.84 7.584 15.104 7.248 15.344C5.472 16.568 3.384 17.168 0.984 17.168V14.744C2.52 14.744 3.792 14.336 4.8 13.496C5.808 12.68 6.36 11.624 6.432 10.328H1.392V7.904H14.976V10.328ZM4.272 4.688H12.096V7.136H4.272V4.688ZM17.544 5.072H21.072V17.576H17.544V13.64H13.488V10.952H17.544V5.072ZM20.904 22.016C20.904 23.336 20.28 24.464 19.032 25.4C17.76 26.36 16.104 26.84 14.064 26.84C12.024 26.84 10.368 26.36 9.12 25.4C7.848 24.464 7.224 23.336 7.224 22.016C7.224 20.696 7.848 19.568 9.12 18.608C10.368 17.696 12.024 17.216 14.064 17.216C16.104 17.216 17.76 17.696 19.032 18.608C20.28 19.568 20.904 20.696 20.904 22.016ZM14.064 19.712C13.056 19.712 12.264 19.928 11.664 20.36C11.04 20.792 10.752 21.344 10.752 22.016C10.752 22.688 11.04 23.24 11.664 23.672C12.24 24.104 13.056 24.32 14.064 24.32C15.048 24.32 15.84 24.128 16.464 23.696C17.064 23.288 17.376 22.736 17.376 22.016C17.376 21.344 17.064 20.792 16.464 20.36C15.84 19.928 15.024 19.712 14.064 19.712ZM39.3591 5.384C41.8551 5.384 43.1271 6.656 43.1271 9.176V16.256H39.5751V9.896C39.5751 8.744 38.9751 8.144 37.7991 8.144H26.1111V5.384H39.3591ZM45.7431 19.88H36.6711V26.168H33.0711V19.88H24.0231V17.12H45.7431V19.88ZM56.7908 10.664C56.7908 9.056 57.5588 7.712 59.1428 6.656C60.6788 5.6 62.8148 5.072 65.5508 5.072C68.2628 5.072 70.3988 5.6 71.9828 6.656C73.5188 7.712 74.3108 9.056 74.3108 10.664C74.3108 12.272 73.5188 13.592 71.9828 14.648C70.3988 15.728 68.2628 16.256 65.5508 16.256C62.8148 16.256 60.6788 15.728 59.1428 14.648C57.5588 13.592 56.7908 12.272 56.7908 10.664ZM70.6868 10.688C70.6868 9.8 70.2308 9.08 69.3188 8.552C68.4068 8.048 67.1348 7.784 65.5508 7.784C63.9188 7.784 62.6708 8.048 61.7828 8.552C60.8708 9.08 60.4148 9.8 60.4148 10.688C60.4148 11.576 60.8708 12.272 61.7828 12.776C62.6708 13.304 63.9188 13.544 65.5508 13.544C67.1348 13.544 68.4068 13.304 69.3188 12.776C70.2308 12.272 70.6868 11.576 70.6868 10.688ZM76.4228 17.24V20H71.1668V26.168H67.6148V20H63.4628V26.168H59.9108V20H54.7028V17.24H76.4228ZM81.6375 4.688H88.9335V6.992H81.6375V4.688ZM91.9335 9.848H78.4935V7.568H92.0775V9.536H94.9815V5.072H98.5095V18.104H94.9815V16.064H91.9335V13.568H94.9815V12.032H91.9335V9.848ZM79.2855 14.144C79.2855 12.968 79.8375 12.032 80.9415 11.336C82.0455 10.664 83.4855 10.304 85.2855 10.304C87.0615 10.304 88.5015 10.664 89.6295 11.336C90.7335 12.032 91.2855 12.968 91.2855 14.144C91.2855 15.32 90.7335 16.232 89.6295 16.904C88.5015 17.6 87.0615 17.936 85.2855 17.936C83.4855 17.936 82.0455 17.6 80.9415 16.904C79.8375 16.232 79.2855 15.32 79.2855 14.144ZM87.7575 14.144C87.7575 13.664 87.5175 13.256 87.0855 12.944C86.6055 12.656 86.0055 12.512 85.2855 12.512C84.5415 12.512 83.9415 12.68 83.5095 12.968C83.0295 13.28 82.8135 13.664 82.8135 14.144C82.8135 14.624 83.0295 14.984 83.5095 15.272C83.9415 15.584 84.5415 15.728 85.2855 15.728C86.0055 15.728 86.6055 15.584 87.0855 15.272C87.5175 14.984 87.7575 14.624 87.7575 14.144ZM97.9815 22.304C97.9815 23.6 97.3335 24.656 96.0855 25.52C94.7895 26.408 93.1575 26.84 91.1415 26.84C89.1255 26.84 87.4935 26.408 86.2215 25.52C84.9255 24.656 84.3015 23.6 84.3015 22.304C84.3015 21.008 84.9255 19.928 86.2215 19.064C87.4935 18.224 89.1255 17.792 91.1415 17.792C93.1575 17.792 94.7895 18.224 96.0855 19.064C97.3335 19.928 97.9815 21.008 97.9815 22.304ZM91.1415 20.168C90.1095 20.168 89.2935 20.384 88.7175 20.768C88.1175 21.2 87.8295 21.704 87.8295 22.304C87.8295 22.928 88.1175 23.432 88.7175 23.816C89.2935 24.248 90.0855 24.44 91.1415 24.44C92.1495 24.44 92.9655 24.248 93.5655 23.84C94.1415 23.456 94.4535 22.952 94.4535 22.304C94.4535 21.704 94.1415 21.2 93.5655 20.768C92.9415 20.384 92.1495 20.168 91.1415 20.168ZM107.173 8.96C107.173 9.512 107.581 9.896 108.421 10.088C109.237 10.304 110.509 10.4 112.285 10.4C114.013 10.4 115.333 10.304 116.197 10.088C117.037 9.896 117.469 9.512 117.469 8.96C117.469 8.432 117.037 8.024 116.173 7.76C115.309 7.52 114.013 7.376 112.285 7.376C110.557 7.376 109.261 7.52 108.445 7.76C107.581 8.024 107.173 8.432 107.173 8.96ZM103.549 8.936C103.549 7.592 104.293 6.584 105.829 5.936C107.317 5.312 109.477 5 112.309 5C115.141 5 117.301 5.312 118.837 5.912C120.325 6.536 121.093 7.544 121.093 8.912C121.093 10.304 120.325 11.288 118.837 11.864C117.301 12.464 115.141 12.752 112.309 12.752C109.477 12.752 107.317 12.464 105.829 11.864C104.293 11.288 103.549 10.328 103.549 8.936ZM101.461 13.616H123.181V16.088H101.461V13.616ZM103.981 22.616V20.504H117.109V19.664H103.981V17.312H120.013C120.421 17.312 120.637 17.528 120.637 17.96V22.832H107.509V23C107.509 23.504 107.941 23.744 108.805 23.744H120.685V26.12H107.965C105.301 26.12 103.981 24.968 103.981 22.616ZM9.504 36.384V37.536C9.504 40.584 10.152 42.888 11.448 44.424C12.456 45.624 13.608 46.416 14.856 46.8V49.464C12.696 49.08 10.776 48.096 9.12 46.512C8.592 46.032 8.136 45.456 7.752 44.832C7.368 45.456 6.912 46.032 6.384 46.512C4.704 48.096 2.808 49.08 0.648 49.464V46.8C1.896 46.416 3.024 45.624 4.056 44.424C5.352 42.888 6 40.584 6 37.536V36.384H9.504ZM17.544 36.072H21.072V51.36H17.544V42.816H12.408V40.056H17.544V36.072ZM10.152 54.456H21.312V57.12H8.952C6.264 57.12 4.944 55.872 4.944 53.328V49.968H8.496V52.752C8.496 53.904 9.048 54.456 10.152 54.456ZM36.3351 47.496C35.5191 48.024 34.3911 48.264 32.9271 48.24H28.3191C25.7751 48.24 24.5271 47.088 24.5271 44.736V36.24H33.7671V38.76H27.8151V40.872H33.6951V43.368H27.8151V44.376C27.8151 45.288 28.2711 45.72 29.2071 45.72H32.7831C34.7031 45.72 35.9031 45.12 36.3351 43.896V36.072H39.6231V40.8H41.1111V36.072H44.4471V48.792H41.1111V43.536H39.6231V48.792H36.3351V47.496ZM27.9111 49.728H42.7671C43.8711 49.728 44.4471 50.304 44.4471 51.408V57.312H40.8951V52.272H27.9111V49.728ZM49.3901 36.096H55.9661V38.76H49.3901V36.096ZM58.5101 42.144H46.7981V39.504H58.5101V42.144ZM58.0541 48.168C58.0541 49.704 57.5501 51 56.5421 52.032C55.5341 53.088 54.2381 53.616 52.6541 53.616C51.0701 53.616 49.7981 53.088 48.8141 52.032C47.8061 51 47.3021 49.704 47.3021 48.168C47.3021 46.632 47.8061 45.336 48.8141 44.28C49.7981 43.248 51.0701 42.72 52.6541 42.72C54.2381 42.72 55.5341 43.248 56.5421 44.28C57.5501 45.336 58.0541 46.632 58.0541 48.168ZM54.7421 48.168C54.7421 47.28 54.5501 46.584 54.1661 46.08C53.7821 45.6 53.2541 45.336 52.6301 45.336C52.0061 45.336 51.5261 45.576 51.1661 46.056C50.7821 46.56 50.6141 47.256 50.6141 48.168C50.6141 49.08 50.7821 49.776 51.1661 50.256C51.5261 50.76 52.0061 51 52.6301 51C53.2541 51 53.7821 50.76 54.1661 50.256C54.5501 49.776 54.7421 49.08 54.7421 48.168ZM64.1501 36.072H67.4861V57.168H64.1501V45.744H62.6621V57.168H59.3741V36.072H62.6621V42.984H64.1501V36.072ZM89.9732 39.096H82.8452C83.1092 40.536 83.9492 41.736 85.3652 42.696C86.7332 43.656 88.3652 44.184 90.2852 44.232V46.92C87.6452 46.944 85.3172 46.32 83.2532 45.048C82.3412 44.496 81.5732 43.848 80.9732 43.08C80.3492 43.848 79.5812 44.496 78.6692 45.048C76.6052 46.32 74.2532 46.944 71.6372 46.92V44.232C73.5332 44.184 75.1652 43.656 76.5572 42.696C77.9492 41.736 78.7892 40.536 79.0772 39.096H71.9732V36.384H89.9732V39.096ZM91.8212 51H82.7492V57.168H79.1492V51H70.1012V48.24H91.8212V51ZM101.116 39.504C101.116 43.176 101.596 45.792 102.58 47.352C103.348 48.624 104.308 49.488 105.436 49.92V52.92C103.372 52.368 101.62 51.168 100.204 49.344C99.9159 49.008 99.6759 48.624 99.4599 48.192C99.2199 48.624 98.9799 49.008 98.7159 49.344C97.2759 51.168 95.5479 52.368 93.4839 52.92V49.92C94.5879 49.488 95.5479 48.624 96.3399 47.352C97.2999 45.792 97.8039 43.176 97.8039 39.528V36.384H101.116V39.504ZM110.908 36.072H114.244V57.168H110.908V36.072ZM106.348 36.072H109.636V57.168H106.348V45H102.916V42.192H106.348V36.072ZM118.947 42.648C118.947 40.92 119.739 39.432 121.347 38.184C122.931 36.984 125.067 36.36 127.707 36.36C130.347 36.36 132.459 36.984 134.067 38.184C135.651 39.432 136.467 40.92 136.467 42.648C136.467 44.616 135.435 46.272 133.395 47.568V52.272H138.579V55.032H116.859V52.272H122.067V47.592C119.979 46.296 118.947 44.64 118.947 42.648ZM129.843 48.792C129.171 48.888 128.451 48.936 127.707 48.936C126.963 48.936 126.267 48.888 125.619 48.792V52.272H129.843V48.792ZM132.843 42.648C132.843 41.616 132.363 40.752 131.403 40.08C130.443 39.408 129.195 39.072 127.707 39.072C126.171 39.072 124.947 39.408 124.011 40.08C123.051 40.752 122.571 41.616 122.571 42.648C122.571 43.704 123.051 44.544 124.011 45.216C124.947 45.888 126.171 46.224 127.707 46.224C129.195 46.224 130.443 45.888 131.403 45.216C132.363 44.544 132.843 43.704 132.843 42.648Z" fill="black"/>
<rect x="0.5" y="86.5" width="162" height="79" rx="15.5" fill="white" stroke="#E8E8E8"/>
<g clip-path="url(#clip0_37_1016)">
<path fill-rule="evenodd" clip-rule="evenodd" d="M138.627 120.74C138.203 120.387 137.553 120.428 137.175 120.831L130.235 128.246L126.802 125.009C126.4 124.63 125.748 124.63 125.346 125.009L125.301 125.052C124.9 125.43 124.9 126.045 125.301 126.423L129.549 130.427C129.931 130.787 130.537 130.805 130.942 130.482C130.999 130.441 131.053 130.395 131.102 130.343L138.766 122.154C139.144 121.751 139.105 121.138 138.681 120.785L138.627 120.74Z" fill="#DDDDDD"/>
</g>
<path fill-rule="evenodd" clip-rule="evenodd" d="M28.9247 119.7H28.0747V125.687L24.1236 121.735L23.5225 122.336L27.2611 126.075H20.4248V126.925H27.2939L23.598 130.621L24.1991 131.222L28.0747 127.346V134.15H28.9247V127.739L32.9348 131.749L33.5358 131.148L29.3131 126.925H36.1498V126.075H29.3459L33.3172 122.104L32.7162 121.503L28.9247 125.294V119.7Z" fill="#777777"/>
<path d="M32.3248 126.5C32.3248 128.612 30.6123 130.325 28.4998 130.325C26.3873 130.325 24.6748 128.612 24.6748 126.5C24.6748 124.387 26.3873 122.675 28.4998 122.675C30.6123 122.675 32.3248 124.387 32.3248 126.5Z" fill="#FF6600"/>
<circle cx="21.7" cy="126.5" r="1.7" fill="#FF6600"/>
<circle cx="35.2996" cy="126.5" r="1.7" fill="#FF6600"/>
<circle cx="28.4998" cy="133.3" r="1.7" fill="#FF6600"/>
<circle cx="28.4998" cy="119.7" r="1.7" fill="#FF6600"/>
<circle cx="33.6002" cy="121.4" r="1.275" fill="#FF8F4C"/>
<circle cx="33.6002" cy="131.6" r="1.275" fill="#FF8F4C"/>
<circle cx="23.4" cy="121.4" r="1.275" fill="#FF8F4C"/>
<circle cx="29.1375" cy="125.012" r="0.6375" fill="white"/>
<circle cx="30.2004" cy="126.5" r="0.425" fill="white"/>
<circle cx="28.5002" cy="126.925" r="0.425" fill="white"/>
<circle cx="1.275" cy="1.275" r="1.275" transform="matrix(1 0 0 -1 22.125 132.875)" fill="#FF8F4C"/>
<path d="M61.8516 118.621V126.83H59.6191V118.621H61.8516ZM48.5449 125.23C51.0322 124.545 52.2627 122.866 52.4121 121.152H49.1426V119.359H57.9316V121.152H54.7324C54.8818 122.743 56.0947 124.308 58.5469 124.949L57.4746 126.672C55.6201 126.162 54.3369 125.09 53.6162 123.719C52.8867 125.239 51.5332 126.443 49.5645 127.006L48.5449 125.23ZM51.1289 129.168V127.463H61.8691V131.734H53.3613V132.789H62.3086V134.512H51.1641V130.135H59.6367V129.168H51.1289ZM66.9668 119.588V121.75H70.1133V119.588H72.3281V120.977H75.2812V118.621H77.5137V128.184H75.2812V126.039H72.3281V127.252H64.7168V119.588H66.9668ZM66.5449 131.559C66.5449 129.599 68.6367 128.456 72.0469 128.447C75.4658 128.456 77.5576 129.599 77.5664 131.559C77.5576 133.501 75.4658 134.626 72.0469 134.617C68.6367 134.626 66.5449 133.501 66.5449 131.559ZM66.9668 125.512H70.1133V123.473H66.9668V125.512ZM68.7773 131.559C68.7773 132.455 69.9287 132.912 72.0469 132.912C74.1738 132.912 75.3252 132.455 75.334 131.559C75.3252 130.618 74.1738 130.161 72.0469 130.17C69.9287 130.161 68.7773 130.618 68.7773 131.559ZM72.3281 124.246H75.2812V122.752H72.3281V124.246Z" fill="black"/>
<rect x="0.5" y="174.5" width="162" height="79" rx="15.5" fill="white" stroke="#E8E8E8"/>
<g clip-path="url(#clip1_37_1016)">
<path fill-rule="evenodd" clip-rule="evenodd" d="M138.627 208.74C138.203 208.387 137.553 208.428 137.175 208.831L130.235 216.246L126.802 213.009C126.4 212.63 125.748 212.63 125.346 213.009L125.301 213.052C124.9 213.43 124.9 214.045 125.301 214.423L129.549 218.427C129.931 218.787 130.537 218.805 130.942 218.482C130.999 218.442 131.053 218.395 131.102 218.343L138.766 210.154C139.144 209.751 139.105 209.138 138.681 208.785L138.627 208.74Z" fill="#DDDDDD"/>
</g>
<path d="M61.7461 208.01V209.574C61.7373 211.525 61.7373 213.714 61.1484 216.939L58.9512 216.746C59.4697 213.811 59.4873 211.64 59.4961 209.785H49.916V208.01H61.7461ZM48.4746 220.666V218.838H51.5859V213.811H53.8184V218.838H55.5762V213.811H57.791V218.838H63.0645V220.666H48.4746ZM78.6211 214.865V216.623H63.9961V214.865H70.1836V213.881H65.8242V207.008H76.916V208.73H68.0742V209.627H76.5469V211.244H68.0742V212.158H77.0566V213.881H72.4336V214.865H78.6211ZM65.7012 219.98C65.7012 218.293 67.7227 217.344 71.3086 217.361C74.833 217.344 76.8633 218.293 76.8809 219.98C76.8633 221.703 74.833 222.626 71.3086 222.617C67.7227 222.626 65.7012 221.703 65.7012 219.98ZM67.9512 219.98C67.9336 220.666 69.0059 220.965 71.3086 220.965C73.5586 220.965 74.6221 220.666 74.6309 219.98C74.6221 219.312 73.5586 219.005 71.3086 219.014C69.0059 219.005 67.9336 219.312 67.9512 219.98ZM85.4766 210.242C85.4678 213.107 86.6895 215.999 89.2559 217.238L87.9023 219.031C86.1885 218.179 85.0283 216.597 84.3691 214.672C83.666 216.737 82.4355 218.434 80.625 219.33L79.2363 217.52C81.9521 216.271 83.2266 213.213 83.2266 210.242V207.852H85.4766V210.242ZM89.959 222.617V206.621H92.209V212.791H94.5645V214.689H92.209V222.617H89.959ZM108.328 208.01V209.521C108.319 211.525 108.319 213.775 107.678 217.168L105.428 216.939C106.043 213.916 106.069 211.666 106.078 209.785H96.6562V208.01H108.328ZM95.1445 220.666V218.838H100.365V213.336H102.598V218.838H109.734V220.666H95.1445Z" fill="black"/>
<path d="M29.8959 203.826C29.9263 203.339 30.5369 203.141 30.8471 203.517L32.5457 205.577C32.7241 205.794 33.039 205.837 33.2687 205.676L35.4561 204.145C35.8556 203.865 36.3911 204.219 36.2903 204.696L35.7388 207.309C35.6809 207.583 35.8436 207.856 36.1126 207.935L38.6736 208.691C39.1412 208.829 39.1984 209.468 38.7626 209.687L36.3762 210.884C36.1255 211.01 36.0137 211.308 36.1194 211.567L37.1254 214.041C37.3091 214.492 36.8449 214.936 36.4022 214.731L33.9779 213.612C33.7233 213.495 33.4211 213.593 33.2838 213.837L31.9774 216.166C31.7388 216.591 31.1028 216.505 30.9865 216.031L30.35 213.438C30.2831 213.166 30.018 212.99 29.7412 213.036L27.1061 213.466C26.6249 213.545 26.296 212.993 26.5938 212.607L28.2242 210.493C28.3955 210.271 28.3672 209.954 28.1593 209.766L26.1798 207.974C25.8183 207.647 26.0442 207.046 26.5317 207.038L29.2014 206.995C29.4818 206.99 29.7116 206.771 29.7291 206.491L29.8959 203.826Z" fill="#FFC960"/>
<path d="M20 213.88C20 213.512 20.2988 213.213 20.6673 213.213H35.1009C35.4694 213.213 35.7682 213.512 35.7682 213.88V214.931C35.7682 215.483 35.32 215.932 34.7672 215.932H21.001C20.4481 215.932 20 215.483 20 214.931V213.88Z" fill="#FF6600"/>
<path d="M31.1465 220.528C31.1465 219.791 31.744 219.194 32.4811 219.194H32.5305C33.2676 219.194 33.8651 219.791 33.8651 220.528V221.665C33.8651 222.402 33.2676 223 32.5305 223H32.4811C31.744 223 31.1465 222.402 31.1465 221.665V220.528Z" fill="#555555"/>
<path d="M21.9033 220.528C21.9033 219.791 22.5008 219.194 23.2379 219.194H23.2874C24.0244 219.194 24.622 219.791 24.622 220.528V221.665C24.622 222.402 24.0244 223 23.2874 223H23.2379C22.5008 223 21.9033 222.402 21.9033 221.665V220.528Z" fill="#555555"/>
<path d="M22.6424 210.431C22.846 209.515 23.6584 208.863 24.5967 208.863H31.172C32.1103 208.863 32.9227 209.515 33.1263 210.431L33.8654 213.757H21.9033L22.6424 210.431Z" fill="#DAE2EB"/>
<path d="M20.8154 214.547C20.8154 213.81 21.413 213.213 22.15 213.213H33.6178C34.3549 213.213 34.9524 213.81 34.9524 214.547V219.49C34.9524 220.228 34.3549 220.825 33.6178 220.825H22.15C21.413 220.825 20.8154 220.228 20.8154 219.49V214.547Z" fill="#FF6600"/>
<circle cx="32.506" cy="216.747" r="0.815594" fill="white"/>
<circle cx="23.2629" cy="216.747" r="0.815594" fill="white"/>
<rect x="171.5" y="86.5" width="163" height="79" rx="15.5" fill="white" stroke="#E8E8E8"/>
<g clip-path="url(#clip2_37_1016)">
<path fill-rule="evenodd" clip-rule="evenodd" d="M310.627 120.74C310.203 120.387 309.553 120.428 309.175 120.831L302.235 128.246L298.802 125.009C298.4 124.63 297.748 124.63 297.346 125.009L297.301 125.052C296.9 125.43 296.9 126.045 297.301 126.423L301.549 130.427C301.931 130.787 302.537 130.805 302.942 130.482C302.999 130.441 303.053 130.395 303.102 130.343L310.766 122.154C311.144 121.751 311.105 121.138 310.681 120.785L310.627 120.74Z" fill="#DDDDDD"/>
</g>
<path d="M225.311 121.135C225.302 123.077 226.436 124.94 228.967 125.723L227.771 127.463C226.075 126.9 224.889 125.811 224.203 124.413C223.509 126.021 222.27 127.287 220.441 127.902L219.229 126.145C221.9 125.257 223.043 123.13 223.061 120.924V119.465H225.311V121.135ZM221.443 131.523C221.435 129.581 223.553 128.43 226.928 128.43C230.241 128.43 232.315 129.581 232.324 131.523C232.315 133.483 230.241 134.626 226.928 134.617C223.553 134.626 221.435 133.483 221.443 131.523ZM223.693 131.523C223.676 132.429 224.827 132.859 226.928 132.859C229.002 132.859 230.109 132.429 230.109 131.523C230.109 130.653 229.002 130.188 226.928 130.188C224.827 130.188 223.676 130.653 223.693 131.523ZM229.916 128.113V118.621H232.166V122.365H234.328V124.229H232.166V128.113H229.916ZM242.748 121.064V122.84H235.014V121.064H237.791V119.061H240.006V121.064H242.748ZM235.383 127.357C235.383 125.134 236.877 123.569 238.916 123.561C240.964 123.569 242.423 125.134 242.432 127.357C242.423 129.59 240.964 131.172 238.916 131.172C236.877 131.172 235.383 129.59 235.383 127.357ZM237.352 127.357C237.352 128.579 237.984 129.273 238.916 129.273C239.812 129.273 240.454 128.579 240.463 127.357C240.454 126.153 239.812 125.424 238.916 125.424C237.984 125.424 237.352 126.153 237.352 127.357ZM243.346 133.932V118.938H245.438V125.125H246.738V118.621H248.865V134.617H246.738V126.918H245.438V133.932H243.346Z" fill="black"/>
<path fill-rule="evenodd" clip-rule="evenodd" d="M205.051 125.029H197.787L197.787 125.029H208.862C209.651 125.029 210.291 124.389 210.291 123.6C210.291 122.811 209.651 122.171 208.862 122.171H200.645L202.377 120.439C202.935 119.881 202.935 118.977 202.377 118.419C201.819 117.86 200.914 117.86 200.356 118.419L195.616 123.159C194.464 123.929 192.916 124.155 191 124.315V130.745C192.429 130.745 193.143 131.221 193.858 132.65C194.334 133.603 195.763 133.603 196.24 133.603V133.603C196.24 133.603 196.24 133.603 196.24 133.603H202.908C203.697 133.603 204.337 132.963 204.337 132.174C204.337 131.39 203.706 130.754 202.924 130.745H204.098C204.888 130.745 205.527 130.105 205.527 129.316C205.527 128.527 204.888 127.887 204.098 127.887H196.24V127.887H205.051C205.841 127.887 206.48 127.247 206.48 126.458C206.48 125.669 205.841 125.029 205.051 125.029Z" fill="#FFD0C3"/>
<path d="M204.335 119.897C205.163 119.845 206.805 120.254 206.742 122.305C205.325 122.604 204.546 120.824 204.335 119.897Z" fill="#C6E7E7"/>
<path d="M208.462 119.612C208.668 120.365 208.616 122.009 206.759 122.561C206.218 121.335 207.669 120.084 208.462 119.612Z" fill="#C6E7E7"/>
<rect x="204.812" y="122.171" width="3.81055" height="2.85791" fill="#DBF1F1"/>
<rect x="204.812" y="124.077" width="3.81055" height="0.952638" fill="#C6E7E7"/>
<rect x="171.5" y="174.5" width="163" height="79" rx="15.5" fill="white" stroke="#E8E8E8"/>
<g clip-path="url(#clip3_37_1016)">
<path fill-rule="evenodd" clip-rule="evenodd" d="M310.627 208.74C310.203 208.387 309.553 208.428 309.175 208.831L302.235 216.246L298.802 213.009C298.4 212.63 297.748 212.63 297.346 213.009L297.301 213.052C296.9 213.43 296.9 214.045 297.301 214.423L301.549 218.427C301.931 218.787 302.537 218.805 302.942 218.482C302.999 218.442 303.053 218.395 303.102 218.343L310.766 210.154C311.144 209.751 311.105 209.138 310.681 208.785L310.627 208.74Z" fill="#DDDDDD"/>
</g>
<path d="M232.922 206.621V222.617H230.654V206.621H232.922ZM219.527 218.082C223.658 216.131 225.478 213.6 225.838 210.049H220.389V208.291H228.123C228.114 213.143 226.418 217.177 220.705 219.875L219.527 218.082ZM243.24 207.939V209.768H237.932V212.404H243.012V214.162H237.932V217.186C240.217 217.159 242.089 217.062 244.225 216.729L244.436 218.539C241.992 218.908 239.812 218.979 237.018 218.979H235.664V207.939H243.24ZM245.402 222.617V206.621H247.652V212.686H250.008V214.566H247.652V222.617H245.402Z" fill="black"/>
<rect x="193" y="207.235" width="14" height="14" rx="2.05405" fill="#D3D8DE"/>
<rect x="196.294" y="206" width="7.41176" height="2.47059" rx="1.02703" fill="#FF6600"/>
<rect x="195.471" y="213.412" width="2.47059" height="4.11765" rx="0.513514" transform="rotate(-90 195.471 213.412)" fill="#A6ABB1"/>
<rect x="195.471" y="216.294" width="0.823529" height="3.70588" rx="0.411765" transform="rotate(-90 195.471 216.294)" fill="#A6ABB1"/>
<rect x="195.471" y="217.941" width="0.823529" height="6.17647" rx="0.411765" transform="rotate(-90 195.471 217.941)" fill="#A6ABB1"/>
<defs>
<clipPath id="clip0_37_1016">
<rect width="14" height="14" fill="white" transform="translate(125 119)"/>
</clipPath>
<clipPath id="clip1_37_1016">
<rect width="14" height="14" fill="white" transform="translate(125 207)"/>
</clipPath>
<clipPath id="clip2_37_1016">
<rect width="14" height="14" fill="white" transform="translate(297 119)"/>
</clipPath>
<clipPath id="clip3_37_1016">
<rect width="14" height="14" fill="white" transform="translate(297 207)"/>
</clipPath>
</defs>
</svg>
