<svg width="375" height="48" viewBox="0 0 375 48" fill="none" xmlns="http://www.w3.org/2000/svg">
<rect width="375" height="48" fill="white"/>
<path d="M336 24H354" stroke="black" stroke-width="1.5" stroke-linecap="round" stroke-linejoin="round"/>
<path d="M336 18H354" stroke="black" stroke-width="1.5" stroke-linecap="round" stroke-linejoin="round"/>
<path d="M336 30H354" stroke="black" stroke-width="1.5" stroke-linecap="round" stroke-linejoin="round"/>
<path d="M28 17L21 24L28 31" stroke="black" stroke-width="1.5" stroke-linecap="round" stroke-linejoin="round"/>
<path d="M21 24H38.5" stroke="black" stroke-width="1.5" stroke-linecap="round" stroke-linejoin="round"/>
<path d="M132.211 16.2656V23.5469H130.492V16.2656H132.211ZM120.586 22.2812C122.781 21.6328 123.992 20.0391 124.078 18.375H121.039V16.9688H128.805V18.375H125.844C125.922 19.9375 127.117 21.4219 129.305 22.0156L128.461 23.3594C126.812 22.8828 125.633 21.8828 124.992 20.6016C124.352 22.0156 123.125 23.1328 121.383 23.6562L120.586 22.2812ZM122.867 25.4688V24.1406H132.242V27.7812H124.602V28.9219H132.664V30.2656H122.898V26.5156H130.508V25.4688H122.867ZM136.68 17.125V19.1562H139.836V17.125H141.555V18.4375H144.398V16.2656H146.133V24.75H144.398V22.7188H141.555V23.8438H134.945V17.125H136.68ZM136.555 27.7031C136.539 25.9844 138.375 25 141.352 25C144.344 25 146.172 25.9844 146.18 27.7031C146.172 29.3906 144.344 30.375 141.352 30.375C138.375 30.375 136.539 29.3906 136.555 27.7031ZM136.68 22.4844H139.836V20.5156H136.68V22.4844ZM138.273 27.7031C138.266 28.5625 139.391 29.0312 141.352 29.0312C143.328 29.0312 144.445 28.5625 144.445 27.7031C144.445 26.7969 143.328 26.3359 141.352 26.3281C139.391 26.3359 138.266 26.7969 138.273 27.7031ZM141.555 21.3125H144.398V19.8125H141.555V21.3125ZM153.227 17.1562L149.586 30.7031H147.836L151.492 17.1562H153.227ZM158.867 18.5156C158.867 20.2891 160.016 21.9688 162.195 22.6562L161.258 24.0156C159.734 23.5 158.641 22.4688 158.023 21.1562C157.414 22.6562 156.273 23.8359 154.648 24.4062L153.711 23.0469C155.984 22.2578 157.125 20.375 157.133 18.3594V17.0156H158.867V18.5156ZM155.633 27.6875C155.633 26.0156 157.469 25.0234 160.414 25.0312C163.336 25.0234 165.141 26.0156 165.148 27.6875C165.141 29.3984 163.336 30.375 160.414 30.375C157.469 30.375 155.633 29.3984 155.633 27.6875ZM157.367 27.6875C157.367 28.5625 158.477 29 160.414 29C162.344 29 163.43 28.5625 163.43 27.6875C163.43 26.8594 162.344 26.3906 160.414 26.3906C158.477 26.3906 157.367 26.8594 157.367 27.6875ZM163.273 24.7188V16.2656H165.008V19.7031H166.977V21.1406H165.008V24.7188H163.273ZM174.586 18.5156V19.9062H167.664V18.5156H170.289V16.6719H172.008V18.5156H174.586ZM168.07 23.9375C168.055 22.0156 169.359 20.6484 171.148 20.6562C172.945 20.6484 174.227 22.0156 174.227 23.9375C174.227 25.8984 172.945 27.2656 171.148 27.2656C169.359 27.2656 168.055 25.8984 168.07 23.9375ZM169.602 23.9375C169.594 25.0781 170.234 25.7891 171.148 25.7812C172.055 25.7891 172.695 25.0781 172.695 23.9375C172.695 22.8281 172.055 22.0938 171.148 22.0938C170.234 22.0938 169.594 22.8281 169.602 23.9375ZM175.18 29.75V16.5625H176.805V22.0781H178.18V16.2656H179.836V30.3906H178.18V23.4844H176.805V29.75H175.18ZM198.227 27.2656V28.6875H185.32V27.2656H190.883V24.5156H186.742V17.2031H188.477V19.5156H195.023V17.2031H196.758V24.5156H192.602V27.2656H198.227ZM188.477 23.1094H195.023V20.9062H188.477V23.1094ZM210.977 16.2656V24.8125H209.242V21.8906H207.227V20.4531H209.242V16.2656H210.977ZM199.18 18.9844V17.5781H202.461V16.1562H204.18V17.5781H207.461V18.9844H199.18ZM199.977 22.0625C199.969 20.5781 201.367 19.5312 203.32 19.5312C205.289 19.5312 206.672 20.5781 206.68 22.0625C206.672 23.5859 205.289 24.5938 203.32 24.5938C201.367 24.5938 199.969 23.5859 199.977 22.0625ZM201.586 30.2188V25.4531H210.977V30.2188H201.586ZM201.633 22.0625C201.633 22.8438 202.305 23.2969 203.32 23.2969C204.328 23.2969 205.008 22.8438 205.008 22.0625C205.008 21.3047 204.328 20.8438 203.32 20.8438C202.305 20.8438 201.633 21.3047 201.633 22.0625ZM203.32 28.8125H209.273V26.8281H203.32V28.8125ZM224.305 16.9531V18.0469C224.312 19.1484 224.312 20.3984 223.961 22.0625H225.883V23.4688H212.977V22.0625H222.203C222.539 20.5312 222.57 19.375 222.57 18.3438H214.57V16.9531H224.305ZM214.523 30.2188V25.1094H224.289V30.2188H214.523ZM216.227 28.8125H222.57V26.4688H216.227V28.8125ZM231.883 19.2812C231.875 20.8281 233.086 22.3516 235.305 22.9531L234.492 24.2969C232.867 23.8516 231.695 22.9062 231.047 21.6797C230.43 23.0625 229.258 24.1562 227.57 24.6562L226.758 23.3125C228.969 22.6406 230.148 20.9844 230.148 19.2812V19.2031H227.195V17.8281H230.148V16.2031H231.898V17.8281H234.836V19.2031H231.883V19.2812ZM229.055 27.7188C229.039 26.0391 230.883 25.0938 233.852 25.0938C236.836 25.0938 238.672 26.0391 238.68 27.7188C238.672 29.3984 236.836 30.375 233.852 30.375C230.883 30.375 229.039 29.3984 229.055 27.7188ZM230.773 27.7188C230.766 28.5547 231.891 29.0312 233.852 29.0312C235.852 29.0312 236.945 28.5547 236.945 27.7188C236.945 26.875 235.852 26.4297 233.852 26.4219C231.891 26.4297 230.766 26.875 230.773 27.7188ZM234.414 21.5469V20.1406H236.898V16.2656H238.633V24.8125H236.898V21.5469H234.414ZM251.93 17.125V18.3906C251.922 19.7109 251.922 21.1562 251.555 23.1562H253.508V24.5625H247.898V30.4062H246.148V24.5625H240.633V23.1562H249.789C250.18 21.2344 250.195 19.7891 250.195 18.5312H242.148V17.125H251.93Z" fill="black"/>
</svg>
